<?xml version="1.0" standalone="no"?>
<!DOCTYPE svg PUBLIC "-//W3C//DTD SVG 1.1//EN" "http://www.w3.org/Graphics/SVG/1.1/DTD/svg11.dtd">
<svg xmlns="http://www.w3.org/2000/svg"><metadata>This SVG WebFont was generated by YouWorkForThem.
Copyright Â© 2018 by Piotr _apa. All rights reserved.</metadata><defs><font horiz-adv-x="1507" id="ywftsvg"><font-face ascent="1618" bbox="-866 -557 3062 2015" cap-height="1434" descent="-430" font-family="" font-stretch="normal" font-weight="800" panose-1="0 0 9 0 0 0 0 0 0 0" underline-position="0" underline-thickness="0" unicode-range="U+0020-FB02" units-per-em="2048" x-height="1044"/><missing-glyph d="M840 1618v-2048h-650v2048h650zM682 1481h-338v-68h133v-76h-135v-67h340v67h-135v76h135v68zM547 1217h-205v-213h340v69h-135v144zM477 1147v-74h-67v74h67zM682 948h-340v-67h135v-76h-135v-68h205v144h135v67zM682 825h-68v-135h-272v-69h340v204zM682 575h-205v-114 h70v47h67v-96h-204v163h-68v-231h340v231zM682 221h-340v-231h340v231zM614 154v-97h-204v97h204zM682 -57h-340v-68h143l-143 -96v-68h340v68h-209l143 96h66v68z" horiz-adv-x="1024"/><glyph d="M31 758v286h190v74q0 188 112.5 297t325.5 109q223 0 381 -90l-77 -260q-133 68 -265 67q-61 0 -105 -33.5t-44 -89.5v-74h696v-1044h-327v758h-369v-758h-328v758h-190zM59 786h191v-757h270v757h426v-757h271v987h-697v102q0 66 50.5 109t127.5 43q123 0 246 -56 l62 205q-139 76 -347 76q-197 0 -303 -98.5t-106 -278.5v-102h-191v-230z" glyph-name="uniFB01" horiz-adv-x="1341" unicode="fi"/><glyph d="M31 758v286h190v74q0 188 114 297t331 109q336 0 579 -142v-1382h-327v1204q-96 37 -218 37q-63 0 -107 -33.5t-44 -89.5v-74h246v-286h-246v-758h-328v758h-190zM59 786h191v-757h270v757h246v230h-246v102q0 66 51.5 109t128.5 43q133 0 246 -47v-1194h271v1337 q-229 129 -551 129q-201 0 -308.5 -98.5t-107.5 -278.5v-102h-191v-230z" glyph-name="uniFB02" horiz-adv-x="1368" unicode="fl"/><glyph d="M31 758v286h190v74q0 188 100.5 297t286.5 109q145 0 246 -45l-78 -260q-53 23 -117 22q-51 0 -80.5 -32.5t-29.5 -90.5v-74h369v74q0 188 100 297t287 109q145 0 245 -45l-77 -260q-53 23 -117 22q-51 0 -81 -32.5t-30 -90.5v-74h287v-286h-287v-758h-327v758h-369v-758 h-328v758h-190zM59 786h191v-757h270v757h426v-757h271v757h286v230h-286v102q0 70 37.5 111t101.5 41q55 0 98 -15l62 207q-86 33 -211 33q-170 0 -264.5 -98.5t-94.5 -278.5v-102h-426v102q0 70 38 111t101 41q55 0 99 -15l61 207q-86 33 -211 33q-170 0 -264 -98.5 t-94 -278.5v-102h-191v-230z" glyph-name="f_f.liga" horiz-adv-x="1550" unicode="ff"/><glyph d="M31 758v286h190v74q0 188 105.5 297t302.5 109q145 0 245 -45l-77 -260q-53 23 -117 22q-53 0 -92 -33.5t-39 -89.5v-74h369v74q0 188 112.5 297t325.5 109q223 0 381 -90l-78 -260q-133 68 -264 67q-61 0 -105.5 -33.5t-44.5 -89.5v-74h697v-1044h-328v758h-369v-758 h-327v758h-369v-758h-328v758h-190zM59 786h191v-757h270v757h426v-757h271v757h425v-757h271v987h-696v102q0 66 50 109t128 43q123 0 245 -56l62 205q-139 76 -346 76q-197 0 -303.5 -98.5t-106.5 -278.5v-102h-426v102q0 63 46 107.5t114 44.5q55 0 98 -15l62 207 q-86 33 -211 33q-180 0 -279.5 -98.5t-99.5 -278.5v-102h-191v-230z" glyph-name="f_f_i.liga" horiz-adv-x="2037" unicode="ffi"/><glyph d="M31 758v286h190v74q0 188 105.5 297t302.5 109q145 0 245 -45l-77 -260q-53 23 -117 22q-59 0 -95 -32.5t-36 -90.5v-74h369v74q0 188 113.5 297t330.5 109q336 0 580 -142v-1382h-328v1204q-96 37 -217 37q-63 0 -107.5 -33.5t-44.5 -89.5v-74h246v-286h-246v-758h-327 v758h-369v-758h-328v758h-190zM59 786h191v-757h270v757h426v-757h271v757h245v230h-245v102q0 66 51 109t129 43q133 0 245 -47v-1194h271v1337q-229 129 -551 129q-201 0 -308.5 -98.5t-107.5 -278.5v-102h-426v102q0 70 44 111t116 41q55 0 98 -15l62 207q-86 33 -211 33 q-180 0 -279.5 -98.5t-99.5 -278.5v-102h-191v-230z" glyph-name="f_f_l.liga" horiz-adv-x="2064" unicode="ffl"/><glyph d="M840 1618v-2048h-650v2048h650zM682 1481h-338v-68h133v-76h-135v-67h340v67h-135v76h135v68zM547 1217h-205v-213h340v69h-135v144zM477 1147v-74h-67v74h67zM682 948h-340v-67h135v-76h-135v-68h205v144h135v67zM682 825h-68v-135h-272v-69h340v204zM682 575h-205v-114 h70v47h67v-96h-204v163h-68v-231h340v231zM682 221h-340v-231h340v231zM614 154v-97h-204v97h204zM682 -57h-340v-68h143l-143 -96v-68h340v68h-209l143 96h66v68z" glyph-name=".notdef" horiz-adv-x="1024"/><glyph glyph-name="glyph1" horiz-adv-x="0"/><glyph glyph-name="glyph2" horiz-adv-x="681"/><glyph glyph-name="space" horiz-adv-x="491" unicode=" "/><glyph d="M121 1434h352l-43 -932h-266zM152 1405l38 -875h213l39 875h-290zM102 176q0 78 56.5 132t138.5 54q80 0 136 -54t56 -132q0 -82 -56 -137t-136 -55q-82 0 -138.5 55t-56.5 137zM131 176q0 -70 48 -117t118 -47t117 47t47 117q0 66 -48 112t-116 46q-70 0 -118 -46 t-48 -112z" glyph-name="exclam" horiz-adv-x="591" unicode="!"/><glyph d="M82 1434h303l-37 -506h-229zM455 1434h303l-37 -506h-229zM113 1405l32 -449h177l32 449h-241zM485 1405l33 -449h176l33 449h-242z" glyph-name="quotedbl" horiz-adv-x="839" unicode="&quot;"/><glyph d="M41 328l39 243h264l35 230h-264l39 243h264l53 338h266l-53 -338h229l54 338h266l-53 -338h264l-39 -243h-264l-35 -230h264l-39 -243h-264l-51 -328h-266l51 328h-230l-51 -328h-266l51 328h-264zM74 356h264l-51 -327h209l51 327h287l-52 -327h209l51 327h265l30 187 h-264l43 286h264l31 187h-264l53 338h-209l-53 -338h-287l54 338h-209l-54 -338h-264l-31 -187h265l-43 -286h-265zM578 543l43 286h286l-43 -286h-286zM610 571h230l34 230h-229z" glyph-name="numbersign" horiz-adv-x="1484" unicode="#"/><glyph d="M41 406l324 100q43 -106 139 -172t231 -66q100 0 161.5 40t61.5 95q0 88 -153 138l-369 114q-150 47 -240 145.5t-87 233.5q-2 158 116.5 275.5t309.5 144.5v277h278v-287q168 -37 290 -135.5t169 -223.5l-314 -92q-43 76 -128 124t-187 48q-86 0 -138 -33.5t-52 -84.5 q0 -74 96 -103l360 -115q188 -59 291 -148t103 -255q0 -176 -134.5 -300t-355.5 -149v-274h-278v287q-184 41 -311.5 156t-182.5 260zM80 387q61 -143 189 -242.5t294 -132.5v-280h221v272q219 16 354.5 134t135.5 288q0 139 -86 226t-287 151l-360 115q-117 33 -117 129 q0 63 61.5 105t157.5 42q100 0 189.5 -46t138.5 -122l262 78q-53 117 -173 202t-276 115v281h-221v-272q-188 -20 -308 -132t-118 -264q-2 -119 79 -212t228 -140l369 -115q174 -53 174 -164q0 -72 -71.5 -117.5t-180.5 -45.5q-129 0 -231.5 61t-155.5 170z" glyph-name="dollar" horiz-adv-x="1374" unicode="$"/><glyph d="M72 1030q0 176 123.5 297t306 121t306.5 -121t124 -297t-124 -297t-306 -121q-180 0 -305 121t-125 297zM504 0l930 1434h254l-928 -1434h-256zM100 1030q0 -164 117 -276.5t285 -112.5q170 0 285.5 112.5t115.5 276.5t-115.5 276.5t-285.5 112.5t-286 -112.5 t-116 -276.5zM557 29h186l891 1376h-184zM289 1030q0 90 60.5 150.5t152.5 60.5t152.5 -60.5t60.5 -150.5t-61.5 -150.5t-151.5 -60.5t-151.5 60.5t-61.5 150.5zM317 1030q0 -76 52.5 -129t132.5 -53t132 53t52 129q0 78 -52 130t-132 52t-132.5 -52t-52.5 -130zM1262 401.5 q0 176.5 123.5 297t306 120.5t306.5 -120.5t124 -297t-124 -297t-306 -120.5q-180 0 -305 120.5t-125 297zM1290 401.5q0 -163.5 117 -276.5t285 -113q170 0 285.5 113t115.5 276.5t-115.5 276.5t-285.5 113t-286 -113t-116 -276.5zM1479 401.5q0 90.5 60 150.5t152.5 60 t153 -60t60.5 -150.5t-61.5 -151t-151.5 -60.5t-151.5 60.5t-61.5 151zM1507 401q0 -76 52.5 -129t132.5 -53t132 53.5t52 128.5q0 78 -52 130.5t-132 52.5t-132.5 -52.5t-52.5 -130.5z" glyph-name="percent" horiz-adv-x="2193" unicode="%"/><glyph d="M102 399q0 117 63.5 224.5t186.5 183.5q-98 127 -98 242q0 197 129 305t346 108q176 0 300 -102.5t142 -245.5l-292 -84q-12 66 -54.5 106t-103.5 40q-66 0 -104.5 -37t-38.5 -95q0 -14 5 -30.5t9 -27.5t16.5 -27.5t16.5 -21.5t18 -24l16 -16l316 -340q53 98 74 195 l286 -82q-35 -172 -147 -340l305 -330h-395l-109 115q-190 -145 -411 -146q-197 0 -336.5 120t-139.5 310zM131 399q0 -174 127 -287.5t320 -113.5q223 0 413 156l119 -125h317l-276 299q109 150 149 321l-231 68q-27 -104 -88 -209l-344 371q-2 2 -13.5 14t-16.5 19.5 t-15 20.5t-16.5 24.5t-13.5 25.5t-10 29.5t-3 31.5q0 70 48 115t124 45q63 0 110.5 -37t67.5 -102l240 70q-29 129 -143.5 214t-266.5 85q-211 0 -328.5 -102.5t-117.5 -282.5q0 -115 112 -250q-127 -70 -195.5 -173.5t-68.5 -226.5zM401 428q0 123 142 209l291 -311 q-113 -88 -220 -88q-92 0 -152.5 54t-60.5 136zM430 428q0 -68 50 -115t134 -47q86 0 177 64l-252 270q-109 -76 -109 -172z" glyph-name="ampersand" horiz-adv-x="1492" unicode="&amp;"/><glyph d="M82 1434h303l-37 -506h-229zM113 1405l32 -449h177l32 449h-241z" glyph-name="quotesingle" horiz-adv-x="466" unicode="'"/><glyph d="M645 -276h-317q-231 377 -236 901q-4 514 236 901h317q-236 -387 -236 -901t236 -901zM596 -248q-215 381 -215 873q0 496 213 872h-250q-227 -375 -223 -872q4 -506 223 -873h252z" glyph-name="parenleft" horiz-adv-x="665" unicode="("/><glyph d="M20 -276q236 387 236 901t-236 901h318q240 -387 235 -901q-4 -524 -235 -901h-318zM70 -248h252q219 367 223 873q4 498 -223 872h-250q213 -377 213 -872q0 -492 -215 -873z" glyph-name="parenright" horiz-adv-x="665" unicode=")"/><glyph d="M82 1006l192 100l-192 100l92 158l182 -115l-10 215h184l-10 -215l182 115l93 -158l-193 -100l193 -100l-93 -158l-182 117l10 -217h-184l10 217l-182 -117zM123 993l61 -104l203 131l-10 -244h123l-11 242l203 -129l62 104l-211 113l211 113l-62 104l-203 -125l11 238 h-123l10 -238l-203 125l-61 -104l211 -113z" glyph-name="asterisk" horiz-adv-x="876" unicode="*"/><glyph d="M113 590v256h333v334h256v-334h332v-256h-332v-332h-256v332h-333zM141 618h334v-331h199v331h332v199h-332v334h-199v-334h-334v-199z" glyph-name="plus" horiz-adv-x="1146" unicode="+"/><glyph d="M82 -281l90 605h338l-174 -605h-254zM115 -252h198l158 547h-274z" glyph-name="comma" horiz-adv-x="591" unicode=","/><glyph d="M113 492v266h757v-266h-757zM141 520h701v209h-701v-209z" glyph-name="hyphen" horiz-adv-x="983" unicode="-"/><glyph d="M82 176q0 78 56.5 132t137.5 54q80 0 136.5 -54t56.5 -132q0 -82 -56.5 -137t-136.5 -55q-82 0 -138 55t-56 137zM111 176q0 -70 48 -117t117.5 -47t116.5 47t47 117q0 66 -48 112t-116 46q-70 0 -117.5 -46t-47.5 -112z" glyph-name="period" horiz-adv-x="550" unicode="."/><glyph d="M51 -186l811 1804h252l-811 -1804h-252zM96 -158h189l784 1747h-188z" glyph-name="slash" horiz-adv-x="1165" unicode="/"/><glyph d="M61 717q0 332 163 538.5t447.5 206.5t446.5 -206.5t162 -538.5t-162 -539t-446.5 -207t-447.5 207t-163 539zM90 716.5q0 -327.5 158 -522t424 -194.5t422.5 194.5t156.5 522t-156.5 522.5t-422.5 195t-424 -195t-158 -522.5zM373 717q0 225 76.5 346t222.5 121 q143 0 220 -121t77 -346t-77 -346t-220 -121q-145 0 -222 121t-77 346zM401 717q0 -207 68 -322.5t203 -115.5t201.5 115.5t66.5 322.5t-66.5 322.5t-201.5 115.5t-203 -115.5t-68 -322.5z" glyph-name="zero" horiz-adv-x="1341" unicode="0"/><glyph d="M31 1208l438 226h291v-1434h-344v1059l-303 -139zM66 1194l65 -233l313 143v-1075h287v1376h-256z" glyph-name="one" horiz-adv-x="913" unicode="1"/><glyph d="M61 1034q23 176 167.5 302t355.5 126q240 0 385 -119.5t145 -338.5q0 -129 -62.5 -233.5t-195.5 -225.5l-264 -238h541v-307h-1063v227l553 514q80 72 116.5 126.5t36.5 115.5q0 82 -49 129t-135 47q-84 0 -144.5 -58.5t-80.5 -154.5zM94 1055l252 -74q29 96 94.5 151.5 t151.5 55.5q98 0 155.5 -55.5t57.5 -149.5q0 -68 -41 -128t-121 -134l-545 -506v-186h1006v250h-586l320 286q135 123 191 222.5t56 216.5q0 201 -133 315.5t-368 114.5q-184 0 -321.5 -106.5t-168.5 -272.5z" glyph-name="two" horiz-adv-x="1214" unicode="2"/><glyph d="M61 422l301 86q18 -98 89 -170t165 -72q102 0 162 59.5t60 141.5t-57.5 140.5t-157.5 58.5q-76 0 -129 -27l-56 197l232 294h-564v304h1010v-224l-293 -315q154 -37 248 -148.5t94 -279.5q0 -209 -151.5 -352.5t-376.5 -143.5q-254 0 -399.5 132.5t-176.5 318.5zM94 401 q41 -184 185.5 -292.5t357.5 -108.5t356.5 134t143.5 333q0 152 -85 258t-235 141q-31 6 -53 6l323 349v184h-952v-246h594l-260 -330l43 -151q43 16 111 16q106 0 174.5 -64.5t68.5 -162.5t-70.5 -163.5t-179.5 -65.5q-92 0 -168.5 65.5t-105.5 167.5z" glyph-name="three" horiz-adv-x="1247" unicode="3"/><glyph d="M61 258v246l474 930h364l-440 -877h268v258h340v-258h170v-299h-170v-258h-340v258h-666zM90 287h666v-258h282v258h170v241h-170v258h-282v-258h-344l440 877h-299l-463 -907v-211z" glyph-name="four" horiz-adv-x="1277" unicode="4"/><glyph d="M61 371l306 86q29 -82 94 -136.5t145 -54.5q102 0 161.5 58.5t59.5 148.5t-58 147.5t-165 57.5q-125 0 -213 -62l-270 80l61 738h908v-304h-607l-16 -221q98 35 215 35q205 0 339 -138t134 -339q0 -211 -149.5 -353.5t-376.5 -142.5q-231 0 -376 115t-192 285zM98 350 q53 -164 193.5 -257t337.5 -93q213 0 355 133t142 334q0 193 -127 320.5t-317 127.5q-133 0 -248 -51l23 295h604v246h-852l-57 -688l235 -70q90 59 217 60q113 0 182.5 -64.5t69.5 -169.5q0 -106 -68.5 -170.5t-181.5 -64.5q-80 0 -150.5 50t-105.5 134z" glyph-name="five" horiz-adv-x="1226" unicode="5"/><glyph d="M51 487q0 143 101 304l407 643h383l-280 -443q223 -16 365 -155.5t142 -348.5q0 -221 -159.5 -368.5t-399 -147.5t-399.5 146.5t-160 369.5zM80 487q0 -211 150.5 -349t379.5 -138q227 0 379 139.5t152 347.5q0 197 -134.5 328t-347.5 148q-23 2 -49 2l281 440h-316 l-399 -629q-96 -158 -96 -289zM360 487q0 104 71 172t179.5 68t179 -67.5t70.5 -172.5q0 -106 -69.5 -173.5t-180 -67.5t-180.5 67.5t-70 173.5zM389 487q0 -94 60.5 -153.5t161 -59.5t160.5 59.5t60 153.5q0 90 -60 150.5t-161 60.5q-98 0 -159.5 -60.5t-61.5 -150.5z" glyph-name="six" horiz-adv-x="1220" unicode="6"/><glyph d="M31 1434h1052v-232l-524 -1202h-328l-6 -12l-8 12h-18l8 16l-8 13h12l483 1097h-663v308zM1055 1208v197h-996v-250h680l-495 -1126h297z" glyph-name="seven" horiz-adv-x="1124" unicode="7"/><glyph d="M61 420q0 254 238 362q-176 94 -176 293q0 164 139 275.5t368.5 111.5t369 -111.5t139.5 -275.5q0 -199 -176 -293q238 -111 237 -362q0 -190 -157.5 -319.5t-411.5 -129.5q-256 0 -413 128t-157 321zM90 420q0 -184 151.5 -302t389.5 -118q236 0 388 119t152 301 q0 258 -276 358q215 96 215 297q0 158 -134 258.5t-345 100.5t-345 -100.5t-134 -258.5q0 -203 210 -297q-272 -102 -272 -358zM422 1044.5q0 79.5 59.5 131t149.5 51.5t149.5 -52.5t59.5 -130.5q0 -80 -59.5 -132t-149.5 -52t-149.5 52.5t-59.5 132zM451 1044 q0 -66 49 -110.5t131 -44.5t131 46t49 109.5t-49 108.5t-131 45t-131 -45.5t-49 -108.5zM375 448.5q0 100.5 70.5 163t185.5 62.5q113 0 184.5 -62.5t71.5 -162.5q0 -98 -72 -161t-184 -63q-115 0 -185.5 61.5t-70.5 162zM403 449q0 -84 60.5 -139.5t167.5 -55.5 q104 0 165.5 55.5t61.5 139.5q0 86 -61.5 141t-165.5 55q-106 0 -167 -55t-61 -141z" glyph-name="eight" horiz-adv-x="1261" unicode="8"/><glyph d="M1169 946q0 -143 -100 -303l-407 -643h-383l280 442q-223 16 -365.5 155.5t-142.5 348.5q0 221 160 368.5t399.5 147.5t399 -146.5t159.5 -369.5zM1141 946q0 211 -150.5 349.5t-380.5 138.5q-227 0 -378.5 -139.5t-151.5 -348.5q0 -197 134 -328t347 -147q23 -2 49 -2 l-280 -440h315l399 628q97 158 97 289zM860 946q0 -104 -70.5 -171.5t-179 -67.5t-179.5 67.5t-71 171.5q0 106 70 174t180.5 68t180 -68t69.5 -174zM831 946q0 94 -60 153.5t-160.5 59.5t-161 -59.5t-60.5 -153.5q0 -90 60.5 -150.5t160.5 -60.5q98 0 159.5 60.5 t61.5 150.5z" glyph-name="nine" horiz-adv-x="1220" unicode="9"/><glyph d="M82 874q0 78 56.5 132.5t137.5 54.5q80 0 136.5 -54.5t56.5 -132.5q0 -82 -56.5 -137t-136.5 -55q-82 0 -138 55t-56 137zM111 874q0 -70 48 -116.5t117.5 -46.5t116.5 47t47 116q0 66 -48 112t-116 46q-70 0 -117.5 -46t-47.5 -112zM82 176q0 78 56.5 132t137.5 54 q80 0 136.5 -54t56.5 -132q0 -82 -56.5 -137t-136.5 -55q-82 0 -138 55t-56 137zM111 176q0 -70 48 -117t117.5 -47t116.5 47t47 117q0 66 -48 112t-116 46q-70 0 -117.5 -46t-47.5 -112z" glyph-name="colon" horiz-adv-x="550" unicode=":"/><glyph d="M131 877q0 78 56.5 132t138.5 54q80 0 136 -54.5t56 -131.5q0 -82 -56 -137.5t-136 -55.5q-82 0 -138.5 55.5t-56.5 137.5zM160 877q0 -70 48 -117t117.5 -47t116.5 47t47 117q0 66 -48 111.5t-115 45.5q-70 0 -118 -45.5t-48 -111.5zM82 -281l90 605h338l-174 -605h-254 zM115 -252h198l158 547h-274z" glyph-name="semicolon" horiz-adv-x="600" unicode=";"/><glyph d="M92 569v297l922 348v-276l-619 -219l619 -221v-277zM121 590l864 -328v215l-653 234v16l653 231v216l-864 -328v-256z" glyph-name="less" horiz-adv-x="1136" unicode="&lt;"/><glyph d="M113 795v256h921v-256h-921zM141 823h865v199h-865v-199zM113 385v256h921v-256h-921zM141 414h865v198h-865v-198z" glyph-name="equal" horiz-adv-x="1146" unicode="="/><glyph d="M1044 569l-921 -348v277l618 221l-618 219v276l921 -348v-297zM1016 590v256l-864 328v-216l653 -231v-16l-653 -234v-215z" glyph-name="greater" horiz-adv-x="1136" unicode=">"/><glyph d="M61 1026q23 182 161 309t359.5 127t362.5 -116.5t141 -296.5q0 -86 -38.5 -163t-78.5 -117t-108 -95q-51 -43 -69.5 -60.5t-41 -50.5t-22.5 -61h-317q0 68 28.5 129t60 97t85.5 85q6 6 29.5 26.5t30.5 27.5t25.5 24.5t25.5 27t19.5 26t17.5 28.5t9 27.5t4 31.5 q0 59 -45 95t-120 36q-84 0 -142.5 -62.5t-81.5 -164.5zM94 1047l242 -74q29 102 93.5 160.5t150.5 58.5q88 0 141 -44t53 -116q0 -18 -5 -36.5t-10 -32t-18.5 -32t-20.5 -28.5t-27.5 -29.5t-27 -25.5t-32 -28.5t-29.5 -26.5q-74 -68 -114.5 -126.5t-49.5 -136.5h262 q12 57 140 166q68 55 104.5 92t73.5 109t37 152q0 168 -133 276.5t-342 108.5q-190 0 -324.5 -106.5t-163.5 -280.5zM375 176q0 78 56 132t138 54q80 0 136.5 -54t56.5 -132q0 -82 -56.5 -137t-136.5 -55q-82 0 -138 55t-56 137zM403 176q0 -70 48.5 -117t118 -47t116.5 47 t47 117q0 66 -48 112t-116 46q-70 0 -118 -46t-48 -112z" glyph-name="question" horiz-adv-x="1177" unicode="?"/><glyph d="M72 524q0 252 126 461t341 329t471 120q397 0 653 -254t256 -645q0 -238 -123 -377.5t-311 -139.5q-217 0 -295 166q-109 -121 -256 -121q-186 0 -306 129.5t-120 330t120 330.5t306 130q141 0 242 -111v86h251v-639q0 -115 95 -114q76 0 126 88t50 239q0 305 -187.5 500 t-498.5 195q-303 0 -512 -202t-209 -501q0 -291 197.5 -485.5t496.5 -194.5q254 0 399 119l58 -201q-174 -125 -463 -124q-393 0 -650 255.5t-257 630.5zM100 524q0 -367 251 -612.5t628 -245.5q264 0 430 109l-41 141q-156 -100 -383 -100q-309 0 -516 202.5t-207 505.5 q0 309 216 520t533.5 211t516 -200.5t198.5 -522.5q0 -160 -55 -258t-149 -98q-57 0 -90 38t-33 105v611h-195v-131q-115 156 -270 155q-174 0 -285.5 -121.5t-111.5 -310t111.5 -309.5t285.5 -121q152 0 266 146q33 -98 100.5 -144.5t184.5 -46.5q182 0 293.5 135 t111.5 353q0 379 -248.5 624.5t-631.5 245.5q-381 0 -645.5 -256t-264.5 -625zM741 524q0 111 66.5 179.5t175.5 68.5q104 0 170 -69.5t66 -178.5q0 -111 -66 -181.5t-170 -70.5q-109 0 -175.5 69.5t-66.5 182.5zM770 524.5q0 -98.5 58.5 -161t154.5 -62.5q90 0 148.5 61.5 t58.5 161.5q0 98 -57.5 158.5t-149.5 60.5q-96 0 -154.5 -60t-58.5 -158.5z" glyph-name="at" horiz-adv-x="1990" unicode="@"/><glyph d="M0 0l530 1434h447l530 -1434h-350l-100 274h-606l-101 -274h-350zM41 29h289l100 274h647l101 -274h288l-510 1376h-405zM518 543l223 614h25l223 -614h-471zM559 571h389l-194 537z" glyph-name="A" unicode="A"/><glyph d="M123 0v1434h700q219 0 353.5 -107.5t134.5 -282.5q0 -197 -172 -294q223 -109 223 -340q0 -193 -134 -301.5t-368 -108.5h-737zM152 29h708q223 0 348 100t125 281q0 240 -254 333v7q203 94 203 294q0 162 -126 261.5t-333 99.5h-671v-1376zM426 827v344h397 q78 2 131.5 -46t53.5 -121q0 -76 -53.5 -126.5t-131.5 -50.5h-397zM455 856h368q68 0 112 43t44 104.5t-44 101.5t-112 38h-368v-287zM426 264v354h434q88 0 140.5 -48t52.5 -128t-53.5 -129t-139.5 -49h-434zM455 293h405q76 0 120 42t44 107q0 68 -43 108t-121 40h-405 v-297z" glyph-name="B" horiz-adv-x="1423" unicode="B"/><glyph d="M68 717q0 317 215 531t536 214q285 0 470.5 -145.5t232.5 -335.5l-332 -82q-29 98 -129 171t-240 73q-182 0 -293.5 -123t-111.5 -301q0 -176 112.5 -302t292.5 -126q141 0 240.5 70.5t128.5 168.5l332 -84q-47 -188 -231.5 -331.5t-465.5 -143.5q-326 0 -541.5 213.5 t-215.5 532.5zM96 717q0 -307 208 -512t521 -205q238 0 420 119t242 307l-279 70q-41 -104 -147.5 -169t-239.5 -65q-186 0 -310 131t-124 326q0 197 123 324.5t311 127.5q131 0 238.5 -66.5t148.5 -170.5l279 67q-59 190 -244.5 311.5t-423.5 121.5q-309 0 -516 -205 t-207 -512z" glyph-name="C" horiz-adv-x="1583" unicode="C"/><glyph d="M123 0v1434h661q303 0 490.5 -199t187.5 -518q0 -315 -186 -516t-492 -201h-661zM152 29h632q289 0 469.5 190.5t180.5 497.5t-179.5 497.5t-470.5 190.5h-632v-1376zM430 276v881h346q164 0 267.5 -121t103.5 -313q0 -195 -104.5 -321t-266.5 -126h-346zM459 305h317 q147 0 244.5 116t97.5 302q0 184 -97 294.5t-245 110.5h-317v-823z" glyph-name="D" horiz-adv-x="1529" unicode="D"/><glyph d="M123 0v1434h1079v-308h-747v-249h643v-297h-643v-273h745v-307h-1077zM152 29h1019v250h-745v329h643v240h-643v307h748v250h-1022v-1376z" glyph-name="E" horiz-adv-x="1284" unicode="E"/><glyph d="M123 0v1434h1067v-310h-727v-284h622v-303h-622v-537h-340zM152 29h282v536h623v246h-623v342h727v252h-1009v-1376z" glyph-name="F" horiz-adv-x="1220" unicode="F"/><glyph d="M68 716.5q0 317.5 217 531.5t538 214q260 0 443.5 -127t255.5 -317l-316 -90q-113 215 -379 215q-182 0 -298.5 -123t-116.5 -301t119.5 -305t334.5 -127q145 0 234.5 69.5t111.5 167.5l-376 -2v293h733v-170q0 -295 -201 -484.5t-528 -189.5q-334 0 -553 214t-219 531.5 zM96 717q0 -307 212 -512t532 -205q311 0 505.5 179t194.5 466v141h-676v-235l383 2q-14 -131 -120.5 -213t-260.5 -82q-215 0 -349 129t-134 332q0 195 127 323.5t317 128.5q272 0 394 -208l262 73q-78 182 -255 290t-405 108q-309 0 -518 -206t-209 -511z" glyph-name="G" horiz-adv-x="1636" unicode="G"/><glyph d="M123 0v1434h340v-551h565v551h340v-1434h-340v575h-565v-575h-340zM152 29h282v575h623v-575h282v1376h-282v-551h-623v551h-282v-1376z" glyph-name="H" horiz-adv-x="1490" unicode="H"/><glyph d="M123 0v1434h344v-1434h-344zM152 29h286v1376h-286v-1376z" glyph-name="I" horiz-adv-x="589" unicode="I"/><glyph d="M41 365l317 92q59 -190 250 -191q102 0 162.5 66.5t60.5 167.5v637h-628v297h966v-945q0 -238 -151.5 -378t-403.5 -140q-215 0 -361 106t-212 288zM78 346q70 -168 207 -257t329 -89q242 0 384.5 132t142.5 357v916h-910v-240h629v-665q0 -115 -70.5 -188.5 t-181.5 -73.5q-94 0 -163.5 48t-104.5 136z" glyph-name="J" horiz-adv-x="1282" unicode="J"/><glyph d="M123 0v1434h340v-623l520 623h430l-549 -619l590 -815h-412l-401 563l-178 -201v-362h-340zM152 29h282v344l209 235l414 -579h342l-572 788l525 588h-355l-563 -674v674h-282v-1376z" glyph-name="K" horiz-adv-x="1464" unicode="K"/><glyph d="M123 0v1434h340v-1123h674v-311h-1014zM152 29h956v254h-674v1122h-282v-1376z" glyph-name="L" horiz-adv-x="1177" unicode="L"/><glyph d="M123 0v1434h323l439 -637l436 637h324v-1434h-340v840l-422 -576l-420 576v-840h-340zM152 29h282v897l449 -613l450 613v-897h283v1376h-281l-450 -660l-453 660h-280v-1376z" glyph-name="M" horiz-adv-x="1767" unicode="M"/><glyph d="M123 0v1434h276l645 -822v822h340v-1434h-276l-645 821v-821h-340zM152 29h282v876l688 -876h234v1376h-283v-877l-688 877h-233v-1376z" glyph-name="N" unicode="N"/><glyph d="M68 716.5q0 319.5 216 532.5t543.5 213t543.5 -213t216 -532.5t-216 -532.5t-543.5 -213t-543.5 213t-216 532.5zM96 717q0 -309 208 -513t523.5 -204t523.5 204t208 513t-208 513t-523.5 204t-523.5 -204t-208 -513zM383 717q0 201 125 331t319.5 130t319.5 -130 t125 -331q0 -203 -125 -332t-319.5 -129t-319.5 129t-125 332zM412 716.5q0 -186.5 114.5 -309t301 -122.5t301 122.5t114.5 309t-114.5 309.5t-301 123t-301 -123t-114.5 -309.5z" glyph-name="O" horiz-adv-x="1654" unicode="O"/><glyph d="M123 0v1434h690q229 0 371.5 -158t142.5 -358q0 -203 -144.5 -360t-383.5 -157h-340v-401h-336zM152 29h278v401h369q211 0 355 140.5t144 347.5q0 203 -141 345t-344 142h-661v-1376zM430 676v479h375q90 0 155.5 -70.5t65.5 -169.5q0 -100 -68.5 -169.5t-166.5 -69.5 h-361zM459 705h332q90 0 148 63t58 147t-55 147.5t-137 63.5h-346v-421z" glyph-name="P" horiz-adv-x="1357" unicode="P"/><glyph d="M68 716.5q0 315.5 219 530.5t530 215t530.5 -215t219.5 -530q0 -274 -181 -486l189 -231h-332l-59 68q-174 -96 -367 -97q-311 0 -530 215t-219 530.5zM96 717q0 -301 209 -509t512 -208q201 0 373 104l65 -75h258l-163 202q188 207 188 486q0 301 -209 509t-512 208 t-512 -208t-209 -509zM371 717q0 205 123.5 334t322.5 129t323 -129t124 -334q0 -160 -80 -283l-164 203h-301l301 -342q-94 -41 -203 -41q-199 0 -322.5 129t-123.5 334zM399 716.5q0 -192.5 116 -313t302 -120.5q84 0 154 24l-316 359h379l146 -181q55 104 55 232 q0 193 -115.5 313.5t-302 120.5t-302.5 -121t-116 -313.5z" glyph-name="Q" horiz-adv-x="1642" unicode="Q"/><glyph d="M123 0v1434h717q227 0 367.5 -146.5t140.5 -337.5q0 -141 -77 -260t-216 -176l346 -514h-391l-305 471h-246v-471h-336zM152 29h278v471h291l305 -471h320l-336 499q141 45 225 160t84 262q0 190 -138.5 322.5t-340.5 132.5h-688v-1376zM430 739v420h399q90 0 154 -61.5 t64 -147.5q0 -90 -67 -150.5t-165 -60.5h-385zM459 768h356q88 0 145.5 53t57.5 129q0 74 -55.5 127t-133.5 53h-370v-362z" glyph-name="R" horiz-adv-x="1441" unicode="R"/><glyph d="M51 406l324 100q43 -106 139 -172t231 -66q100 0 162 40t62 95q0 88 -154 138l-369 114q-150 47 -239.5 145.5t-87.5 233.5q-2 178 149.5 303t380.5 125q227 0 400.5 -109.5t232.5 -267.5l-313 -92q-43 76 -128 124t-188 48q-86 0 -138 -33.5t-52 -84.5q0 -74 96 -103 l361 -115q188 -59 290.5 -148t102.5 -255q0 -195 -163 -325t-425 -130q-254 0 -430 126.5t-244 308.5zM90 387q76 -178 247 -282.5t388 -104.5q246 0 402.5 120t156.5 306q0 139 -86 226t-287 151l-360 115q-117 33 -117 129q0 63 61.5 105t157.5 42q100 0 189.5 -46 t138.5 -122l262 78q-68 147 -232.5 238.5t-361.5 91.5q-215 0 -359.5 -115t-142.5 -285q-2 -119 79 -212t229 -140l368 -115q174 -53 174 -164q0 -72 -71.5 -117.5t-180.5 -45.5q-129 0 -231 61t-156 170z" glyph-name="S" horiz-adv-x="1374" unicode="S"/><glyph d="M31 1126v308h1253v-308h-457v-1126h-340v1126h-456zM59 1155h457v-1126h283v1126h456v250h-1196v-250z" glyph-name="T" horiz-adv-x="1314" unicode="T"/><glyph d="M113 596v838h344v-832q0 -143 74.5 -231t218 -88t218 88t74.5 231v832h344v-838q0 -283 -167.5 -454t-468.5 -171q-303 0 -470 171t-167 454zM141 596q0 -279 162 -437.5t447 -158.5q283 0 445.5 159.5t162.5 436.5v809h-287v-803q0 -162 -86 -255t-235.5 -93t-235.5 93 t-86 255v803h-287v-809z" glyph-name="U" horiz-adv-x="1499" unicode="U"/><glyph d="M0 1434h377l368 -998l371 998h375l-559 -1434h-373zM41 1405l539 -1376h331l539 1376h-313l-383 -1028h-17l-381 1028h-315z" glyph-name="V" horiz-adv-x="1490" unicode="V"/><glyph d="M1708 1434h358l-428 -1434h-368l-236 817l-237 -817h-369l-428 1434h358l260 -922l263 922h305l262 -922zM1618 29l410 1376h-297l-281 -1004l-287 1004h-260l-287 -1004l-280 1004h-297l410 -1376h325l260 891l258 -891h326z" glyph-name="W" horiz-adv-x="2066" unicode="W"/><glyph d="M10 0l504 721l-491 713h409l305 -449l305 449h410l-491 -713l503 -721h-409l-318 459l-317 -459h-410zM63 29h343l331 481l332 -481h342l-485 692l471 684h-340l-320 -471l-319 471h-340l471 -684z" glyph-name="X" horiz-adv-x="1474" unicode="X"/><glyph d="M0 1434h383l326 -586l325 586h381l-534 -918v-516h-344v516zM49 1405l516 -881v-495h287v495l514 881h-315l-342 -617l-342 617h-318z" glyph-name="Y" horiz-adv-x="1415" unicode="Y"/><glyph d="M61 0v227l697 906h-686v301h1153v-232l-690 -901h710v-301h-1184zM90 29h1127v243h-742l721 940v193h-1096v-244h717l-727 -944v-188z" glyph-name="Z" horiz-adv-x="1306" unicode="Z"/><glyph d="M123 -276v1802h553v-287h-236v-1229h236v-286h-553zM152 -248h495v230h-235v1286h235v229h-495v-1745z" glyph-name="bracketleft" horiz-adv-x="716" unicode="["/><glyph d="M1114 -186h-252l-811 1804h252zM1069 -158l-784 1747h-189l785 -1747h188z" glyph-name="backslash" horiz-adv-x="1165" unicode="\"/><glyph d="M594 -276h-553v286h235v1229h-235v287h553v-1802zM565 -248v1745h-495v-229h235v-1286h-235v-230h495z" glyph-name="bracketright" horiz-adv-x="716" unicode="]"/><glyph d="M61 778l398 717h323l396 -717h-326l-231 422l-234 -422h-326zM111 807h260l241 438h17l239 -438h260l-362 659h-291z" glyph-name="asciicircum" horiz-adv-x="1239" unicode="^"/><glyph d="M72 -328v246h1126v-246h-1126zM100 -299h1069v188h-1069v-188z" glyph-name="underscore" horiz-adv-x="1269" unicode="_"/><glyph d="M510 1204h-277l-233 291h356zM463 1233l-123 233h-281l189 -233h215z" glyph-name="grave" horiz-adv-x="509" unicode="`"/><glyph d="M61 522.5q0 235.5 147.5 393t360.5 157.5q186 0 301 -125v96h328v-1044h-328v96q-119 -125 -301 -125q-213 0 -360.5 158t-147.5 393.5zM90 522q0 -223 137.5 -372.5t341.5 -149.5q199 0 330 174v-145h270v987h-270v-144q-125 172 -329.5 172t-342 -149.5t-137.5 -372.5z M356 524q0 127 77 207t196 80q121 0 199.5 -81t78.5 -206q0 -127 -78.5 -209t-199.5 -82q-119 0 -196 82t-77 209zM385 524q0 -117 68.5 -189.5t175.5 -72.5q109 0 179.5 73t70.5 189q0 115 -71 186.5t-179 71.5q-106 0 -175 -71.5t-69 -186.5z" glyph-name="a" horiz-adv-x="1320" unicode="a"/><glyph d="M123 0v1495h328v-547q115 125 301 125q213 0 360.5 -157.5t147.5 -393t-147.5 -393.5t-360.5 -158q-182 0 -301 125v-96h-328zM152 29h270v145q127 -174 330 -174q205 0 342 149.5t137 372.5t-137.5 372.5t-341.5 149.5q-203 0 -330 -172v594h-270v-1437zM414 524 q0 125 78.5 206t199.5 81q119 0 196 -80t77 -207t-77 -209t-196 -82q-121 0 -199.5 82t-78.5 209zM442 524q0 -117 71 -189.5t179 -72.5q106 0 175 73t69 189q0 115 -68.5 186.5t-175.5 71.5q-109 0 -179.5 -71.5t-70.5 -186.5z" glyph-name="b" horiz-adv-x="1320" unicode="b"/><glyph d="M61 522.5q0 235.5 158 393t397 157.5q209 0 349.5 -108.5t173.5 -245.5l-303 -86q-14 61 -74 106t-144 45q-106 0 -171.5 -75.5t-65.5 -184t65.5 -186.5t171.5 -78q84 0 143.5 44t74.5 104l303 -86q-33 -137 -172.5 -244t-345.5 -107q-242 0 -401 158t-159 393.5zM90 522 q0 -225 150.5 -373.5t380.5 -148.5q170 0 305 85t178 216l-250 72q-27 -63 -91.5 -102.5t-144.5 -39.5q-113 0 -189.5 84t-76.5 209t76 207t190 82q78 0 143.5 -41t92.5 -104l250 71q-43 133 -179.5 219t-308.5 86q-225 0 -375.5 -149.5t-150.5 -372.5z" glyph-name="c" horiz-adv-x="1189" unicode="c"/><glyph d="M61 522.5q0 235.5 147.5 393t360.5 157.5q186 0 301 -125v547h328v-1495h-328v96q-119 -125 -301 -125q-213 0 -360.5 158t-147.5 393.5zM90 522q0 -223 137.5 -372.5t341.5 -149.5q203 0 330 174v-145h270v1437h-270v-594q-125 172 -329.5 172t-342 -149.5 t-137.5 -372.5zM356 524q0 127 77 207t196 80q121 0 199.5 -81t78.5 -206q0 -127 -78.5 -209t-199.5 -82q-119 0 -196 82t-77 209zM385 524q0 -117 68.5 -189.5t175.5 -72.5q109 0 179.5 73t70.5 189q0 115 -71 186.5t-179 71.5q-106 0 -175 -71.5t-69 -186.5z" glyph-name="d" horiz-adv-x="1320" unicode="d"/><glyph d="M635 -29q-256 0 -415 152.5t-159 396.5q0 240 153 396.5t400 156.5q252 0 399.5 -153.5t147.5 -387.5q0 -63 -8 -110h-772q39 -178 260 -178q150 0 209 106l295 -86q-49 -113 -184.5 -203t-325.5 -90zM635 0q152 0 280.5 67.5t188.5 178.5l-242 71q-68 -102 -221 -102 q-129 0 -206 61.5t-87 174.5h780q4 49 5 81q0 229 -142.5 370.5t-376.5 141.5q-229 0 -376.5 -147t-147.5 -377q0 -231 150.5 -375.5t394.5 -144.5zM350 592q2 100 78 167.5t184 67.5q113 0 187.5 -66.5t72.5 -168.5h-522zM381 621h461q-8 74 -70.5 126t-159 52t-158 -53 t-73.5 -125z" glyph-name="e" horiz-adv-x="1222" unicode="e"/><glyph d="M31 758v286h190v74q0 188 100.5 297t286.5 109q145 0 246 -45l-78 -260q-53 23 -117 22q-51 0 -80.5 -32.5t-29.5 -90.5v-74h287v-286h-287v-758h-328v758h-190zM59 786h191v-757h270v757h287v230h-287v102q0 70 38 111t101 41q55 0 99 -15l61 207q-86 33 -211 33 q-170 0 -264 -98.5t-94 -278.5v-102h-191v-230z" glyph-name="f" horiz-adv-x="854" unicode="f"/><glyph d="M61 543q0 238 143.5 384t366.5 146q174 0 289 -125v96h328v-1005q0 -221 -149.5 -359.5t-399.5 -138.5q-356 0 -506 273l283 102q70 -109 231 -109q104 0 158.5 63.5t54.5 166.5v100q-115 -125 -289 -125q-221 0 -365.5 153t-144.5 378zM90 543q0 -215 137.5 -358.5 t343.5 -143.5q190 0 318 176v-180q0 -119 -64.5 -188.5t-177.5 -69.5q-162 0 -241 102l-230 -82q143 -229 463 -229q236 0 378 129t142 340v977h-270v-148q-127 176 -318 176q-213 0 -347 -139t-134 -362zM356 543q0 119 76 192.5t197 73.5t194.5 -73.5t73.5 -192.5 t-73.5 -193t-194.5 -74t-197 74t-76 193zM385 542.5q0 -106.5 67.5 -172t176 -65.5t174 65.5t65.5 172t-65.5 172t-174 65.5t-176 -65.5t-67.5 -172z" glyph-name="g" horiz-adv-x="1310" unicode="g"/><glyph d="M123 0v1495h328v-559q119 137 309 137q203 0 305 -125t102 -340v-608h-327v543q0 227 -187 227q-94 0 -148 -69.5t-54 -190.5v-510h-328zM152 29h270v481q0 133 62.5 211t168.5 78q102 0 158.5 -66.5t56.5 -189.5v-514h271v579q0 211 -98.5 323.5t-280.5 112.5 q-209 0 -338 -188v610h-270v-1437z" glyph-name="h" horiz-adv-x="1280" unicode="h"/><glyph d="M96 1352q0 76 55.5 129t133 53t133 -53.5t55.5 -128.5q0 -78 -55.5 -132.5t-133 -54.5t-133 54.5t-55.5 132.5zM125 1352q0 -66 46 -112t113.5 -46t113.5 46t46 112q0 63 -47 108t-112.5 45t-112.5 -45t-47 -108zM117 0v1044h327v-1044h-327zM145 29h271v987h-271v-987z " glyph-name="i" horiz-adv-x="569" unicode="i"/><glyph d="M100 1352q0 76 55.5 129t133.5 53t133 -53.5t55 -128.5q0 -78 -55 -132.5t-133 -54.5t-133.5 54.5t-55.5 132.5zM129 1352q0 -66 46 -112t113.5 -46t114 46t46.5 112q0 63 -47.5 108t-113 45t-112.5 -45t-47 -108zM-143 -414l71 250q37 -20 80 -20q113 0 113 153v1075 h328v-1044q0 -217 -95.5 -338t-290.5 -121q-102 0 -206 45zM-109 -397q88 -33 172 -33q356 0 357 430v1016h-270v-1047q0 -86 -37 -134t-105 -48q-27 0 -61 10z" glyph-name="j" horiz-adv-x="573" unicode="j"/><glyph d="M123 0v1495h328v-833l313 382h377l-387 -446l422 -598h-369l-256 362l-100 -114v-248h-328zM152 29h270v229l131 152l268 -381h299l-403 571l360 416h-299l-305 -373l-51 19v804h-270v-1437z" glyph-name="k" horiz-adv-x="1175" unicode="k"/><glyph d="M123 0v1495h328v-1495h-328zM152 29h270v1437h-270v-1437z" glyph-name="l" horiz-adv-x="573" unicode="l"/><glyph d="M123 0v1044h328v-102q113 131 288 131q207 0 303 -139q131 139 344 139q190 0 303 -118.5t113 -338.5v-616h-327v543q0 227 -166 227q-182 0 -183 -252v-518h-327v543q0 227 -166 227q-182 0 -182 -252v-518h-328zM152 29h270v489q0 281 211 281q195 0 194 -256v-514h271 v489q0 281 211 281q195 0 194 -256v-514h271v587q0 201 -102.5 314.5t-285.5 113.5q-223 0 -348 -159q-86 160 -299 159q-195 0 -317 -182v154h-270v-987z" glyph-name="m" horiz-adv-x="1914" unicode="m"/><glyph d="M123 0v1044h328v-108q119 137 309 137q203 0 305 -125t102 -340v-608h-327v543q0 227 -187 227q-94 0 -148 -69.5t-54 -190.5v-510h-328zM152 29h270v481q0 133 62.5 211t168.5 78q102 0 158.5 -66.5t56.5 -189.5v-514h271v579q0 211 -98.5 323.5t-280.5 112.5 q-207 0 -338 -190v162h-270v-987z" glyph-name="n" horiz-adv-x="1280" unicode="n"/><glyph d="M61 522.5q0 235.5 159 393t402.5 157.5t402.5 -157.5t159 -393t-159 -393.5t-402.5 -158t-402.5 158t-159 393.5zM90 522.5q0 -225.5 151.5 -374t381 -148.5t381 148.5t151.5 374t-151.5 373.5t-381 148t-381 -148t-151.5 -373.5zM350 522q0 127 76 206t196.5 79 t196.5 -79t76 -206t-76 -205.5t-196.5 -78.5t-196.5 78.5t-76 205.5zM379 522.5q0 -112.5 66.5 -184.5t177 -72t177 72t66.5 184.5t-66.5 184t-177 71.5t-177 -71.5t-66.5 -184z" glyph-name="o" horiz-adv-x="1245" unicode="o"/><glyph d="M123 -430v1474h328v-96q115 125 301 125q213 0 360.5 -157.5t147.5 -393t-147.5 -393.5t-360.5 -158q-182 0 -301 125v-526h-328zM152 -401h270v573q129 -172 330 -172q205 0 342 149.5t137 372.5t-137.5 372.5t-341.5 149.5q-203 0 -330 -172v144h-270v-1417zM414 524 q0 125 78.5 206t199.5 81q119 0 196 -80t77 -207t-77 -209t-196 -82q-121 0 -199.5 82t-78.5 209zM442 524q0 -117 71 -189.5t179 -72.5q106 0 175 73t69 189q0 115 -68.5 186.5t-175.5 71.5q-109 0 -179.5 -71.5t-70.5 -186.5z" glyph-name="p" horiz-adv-x="1320" unicode="p"/><glyph d="M61 522.5q0 235.5 147.5 393t360.5 157.5q186 0 301 -125v96h328v-1474h-328v526q-119 -125 -301 -125q-213 0 -360.5 158t-147.5 393.5zM90 522q0 -223 137.5 -372.5t341.5 -149.5q199 0 330 174v-575h270v1417h-270v-142q-127 170 -330 170q-205 0 -342 -149.5 t-137 -372.5zM356 524q0 127 77 207t196 80q121 0 199.5 -81t78.5 -206q0 -127 -78.5 -209t-199.5 -82q-119 0 -196 82t-77 209zM385 524q0 -117 68.5 -189.5t175.5 -72.5q109 0 179.5 73t70.5 189q0 115 -71 186.5t-179 71.5q-106 0 -175 -71.5t-69 -186.5z" glyph-name="q" horiz-adv-x="1320" unicode="q"/><glyph d="M123 0v1044h328v-141q47 86 131 128t196 28v-307q-168 29 -247.5 -47t-79.5 -269v-436h-328zM152 29h270v407q0 195 81 281t247 67v248q-211 18 -306 -203h-22v187h-270v-987z" glyph-name="r" horiz-adv-x="819" unicode="r"/><glyph d="M25 295l292 86q27 -68 90.5 -110t151.5 -42q59 0 95 22.5t36 53.5q0 51 -98 80l-250 74q-264 80 -264 291q0 137 128 230t306 93q168 0 295 -71.5t178 -194.5l-287 -82q-70 98 -188 98q-45 0 -78 -18.5t-33 -46.5q0 -41 60 -62l241 -67q72 -20 120 -41t96.5 -55.5t72 -88 t23.5 -125.5q0 -152 -130 -250t-335 -98q-193 0 -337 95.5t-185 228.5zM61 276q49 -121 185.5 -198.5t300.5 -77.5q193 0 314.5 90t121.5 229q0 125 -71.5 182.5t-219.5 100.5l-241 68q-80 25 -80 88q0 41 41 67.5t98 26.5q123 0 199 -94l235 67q-53 102 -169 160.5 t-263 58.5q-168 0 -287 -87t-119 -207q0 -188 244 -265l250 -73q119 -35 119 -107q0 -45 -46 -74.5t-114 -29.5q-178 0 -258 145z" glyph-name="s" horiz-adv-x="1073" unicode="s"/><glyph d="M20 758v286h162v328h328v-328h281v-286h-281v-381q0 -109 108 -109q59 0 111 27l78 -260q-129 -51 -256 -51q-184 0 -276.5 104.5t-92.5 288.5v381h-162zM49 786h162v-409q0 -365 340 -365q106 0 221 39l-61 205q-39 -16 -93 -16q-137 0 -137 137v409h281v230h-281v327 h-270v-327h-162v-230z" glyph-name="t" horiz-adv-x="847" unicode="t"/><glyph d="M113 436v608h327v-542q0 -227 187 -228q94 0 148 70t54 191v509h328v-1044h-328v109q-119 -137 -309 -138q-203 0 -305 125t-102 340zM141 436q0 -211 98.5 -323.5t280.5 -112.5q209 0 338 190v-161h270v987h-270v-481q0 -133 -62.5 -211t-168.5 -78q-102 0 -158.5 66.5 t-56.5 189.5v514h-271v-580z" glyph-name="u" horiz-adv-x="1280" unicode="u"/><glyph d="M0 1044h360l246 -671l248 671h358l-421 -1044h-369zM43 1016l397 -987h332l397 987h-295l-258 -699h-20l-256 699h-297z" glyph-name="v" horiz-adv-x="1212" unicode="v"/><glyph d="M0 1044h338l190 -626l189 626h272l191 -626l188 626h338l-360 -1044h-304l-188 586l-190 -586h-304zM41 1016l340 -987h262l211 649l209 -649h262l340 987h-276l-201 -670h-17l-202 670h-232l-200 -670h-17l-203 670h-276z" glyph-name="w" horiz-adv-x="1705" unicode="w"/><glyph d="M0 0l377 526l-361 518h367l188 -270l189 270h366l-360 -518l377 -526h-369l-203 285l-202 -285h-369zM55 29h299l217 305l217 -305h299l-356 497l342 490h-299l-203 -291l-202 291h-299l342 -490z" glyph-name="x" horiz-adv-x="1142" unicode="x"/><glyph d="M0 1044h358l273 -636l256 636h350l-621 -1474h-333l186 455zM45 1016l455 -991l-174 -426h272l596 1417h-289l-274 -682l-291 682h-295z" glyph-name="y" horiz-adv-x="1236" unicode="y"/><glyph d="M78 0v205l497 571h-485v268h920v-204l-500 -572h518v-268h-950zM106 29h893v211h-553l535 610v166h-862v-211h520l-533 -610v-166z" glyph-name="z" horiz-adv-x="1099" unicode="z"/><glyph d="M82 481v287h39q45 0 74.5 29.5t29.5 74.5v316q0 348 332 348h129v-287h-41q-59 0 -80.5 -27.5t-21.5 -95.5v-254q0 -78 -35 -147.5t-115 -99.5q80 -31 115 -100.5t35 -147.5v-254q0 -68 21.5 -95.5t80.5 -27.5h41v-287h-129q-332 0 -332 348v316q0 45 -29.5 74.5 t-74.5 29.5h-39zM111 510h10q57 0 95 -38t38 -95v-316q0 -319 303 -319h100v229h-12q-70 0 -100.5 35t-30.5 117v254q0 193 -176 241v13q176 51 176 241v254q0 82 30.5 117t100.5 35h12v229h-100q-303 0 -303 -319v-316q0 -57 -38 -95t-95 -38h-10v-229z" glyph-name="braceleft" horiz-adv-x="727" unicode="{"/><glyph d="M113 -256v1905h286v-1905h-286zM141 -227h230v1847h-230v-1847z" glyph-name="bar" horiz-adv-x="512" unicode="|"/><glyph d="M645 481h-39q-45 0 -74.5 -29.5t-29.5 -74.5v-316q0 -348 -332 -348h-129v287h41q59 0 80.5 27.5t21.5 95.5v254q0 78 35 147.5t115 100.5q-80 31 -115 100.5t-35 146.5v254q0 68 -21.5 95.5t-80.5 27.5h-41v287h129q332 0 332 -348v-316q0 -45 29.5 -74.5t74.5 -29.5h39 v-287zM616 510v229h-10q-57 0 -95 38t-38 95v316q0 319 -303 319h-100v-229h12q70 0 100.5 -35t30.5 -117v-254q0 -190 176 -241v-13q-176 -49 -176 -241v-254q0 -82 -30.5 -117t-100.5 -35h-12v-229h100q303 0 303 319v316q0 57 38 95t95 38h10z" glyph-name="braceright" horiz-adv-x="727" unicode="}"/><glyph d="M92 600q0 129 67.5 223.5t205.5 94.5q100 0 266 -76q90 -39 112 -39q74 0 74 115l291 -84q0 -131 -66.5 -224.5t-201.5 -93.5q-98 0 -269 76q-90 39 -112 39q-76 0 -76 -115zM121 621l235 -68q12 106 99 106q31 0 131 -45q158 -70 254 -69q106 0 169.5 71.5t69.5 196.5 l-235 68q-12 -106 -96 -107q-27 0 -140 47q-154 68 -243 68q-106 0 -172 -71.5t-72 -196.5z" glyph-name="asciitilde" horiz-adv-x="1200" unicode="~"/><glyph d="M469 868q0 -78 -56.5 -132t-138.5 -54q-80 0 -136 54.5t-56 131.5q0 82 56.5 137.5t135.5 55.5q82 0 138.5 -55.5t56.5 -137.5zM440 868q0 70 -48 117t-117.5 47t-116.5 -47t-47 -117q0 -66 48 -111.5t115 -45.5q70 0 118 45.5t48 111.5zM451 -389h-353l43 932h267z M420 -360l-39 874h-213l-39 -874h291z" glyph-name="exclamdown" horiz-adv-x="550" unicode="¡"/><glyph d="M61 717q0 199 115 345t301 189v213h277v-211q156 -33 257 -130t128 -210l-303 -86q-14 61 -74 106.5t-144 45.5q-106 0 -171.5 -76t-65.5 -184.5t65.5 -186t171.5 -77.5q84 0 143.5 44t74.5 103l303 -86q-27 -111 -129.5 -207t-255.5 -129v-213h-277v215 q-186 45 -301 191.5t-115 343.5zM90 716.5q0 -192.5 114.5 -333.5t301.5 -178v-209h219v209q133 20 237.5 101t141.5 190l-250 71q-27 -63 -91.5 -102t-144.5 -39q-113 0 -189.5 84t-76.5 209t76 207t190 82q78 0 143.5 -41t92.5 -105l250 72q-37 111 -140.5 191.5 t-238.5 103.5v207h-219v-207q-186 -35 -301 -177.5t-115 -335z" glyph-name="cent" horiz-adv-x="1179" unicode="¢"/><glyph d="M82 0v315h133v242h-109v268h109v179q0 219 134 338.5t358 119.5q188 0 317 -114.5t147 -272.5l-305 -88q-35 172 -168 172q-70 0 -108.5 -47t-38.5 -129v-158h457v-268h-457v-242h694v-315h-1163zM111 29h1106v258h-695v299h457v211h-457v186q0 94 47 149.5t129 55.5 q141 0 189 -166l252 74q-27 145 -149 241.5t-283 96.5q-217 0 -340 -115t-123 -315v-207h-109v-211h109v-299h-133v-258z" glyph-name="sterling" horiz-adv-x="1306" unicode="£"/><glyph d="M51 246l174 172q-59 106 -59 237t59 238l-174 172l182 182l170 -172q111 61 240 62q135 0 240 -62l170 172l182 -182l-174 -172q59 -106 59 -237.5t-59 -237.5l174 -172l-182 -183l-170 173q-111 -61 -240 -61.5t-240 61.5l-170 -173zM92 246l141 -142l166 168 q111 -70 244 -69.5t244 69.5l166 -168l141 142l-170 168q68 104 68 241q0 139 -68 242l170 168l-141 141l-166 -168q-104 70 -244 70q-133 0 -244 -70l-166 168l-141 -141l170 -168q-68 -102 -67.5 -241.5t67.5 -241.5zM410 655.5q0 100.5 66.5 167t164.5 66.5 q100 0 168 -66.5t70 -167.5q-2 -100 -70 -166.5t-168 -66.5q-98 0 -164.5 66.5t-66.5 167zM438 655q0 -88 58.5 -146t144.5 -58q88 0 147.5 58t61.5 146q-2 88 -61.5 146.5t-147.5 58.5q-86 0 -144.5 -58.5t-58.5 -146.5z" glyph-name="currency" horiz-adv-x="1286" unicode="¤"/><glyph d="M10 1434h383l326 -586l325 586h381l-430 -738h265v-174h-365l-4 -6v-102h369v-174h-369v-240h-344v240h-352v174h352v102l-4 6h-348v174h247zM59 1405l433 -737h-269v-117h334l18 -27v-139h-352v-117h352v-239h287v239h369v117h-369v139l19 27h350v117h-285l430 737h-315 l-318 -571h-49l-317 571h-318z" glyph-name="yen" horiz-adv-x="1435" unicode="¥"/><glyph d="M113 911v738h286v-738h-286zM141 940h230v680h-230v-680zM113 -256v737h286v-737h-286zM141 -227h230v680h-230v-680z" glyph-name="brokenbar" horiz-adv-x="512" unicode="¦"/><glyph d="M82 201l283 86q59 -143 221 -137q55 2 90 27.5t35 53.5q0 49 -97 78l-254 78q-270 82 -270 299q0 145 150 234q-92 82 -93 213q0 141 124 235t298 94q162 0 284 -70.5t169 -191.5l-287 -82q-55 90 -166 92q-43 2 -76.5 -18.5t-33.5 -50.5q0 -43 63 -62l242 -71 q147 -43 228 -113t81 -203q0 -156 -131 -231q86 -80 86 -215q0 -154 -129 -254.5t-330 -100.5q-184 0 -319 92.5t-168 217.5zM119 182q41 -113 169 -187.5t281 -74.5q186 0 308 92t122 234q0 78 -24.5 127t-85.5 94q156 61 155 225q0 109 -66.5 175.5t-221.5 113.5l-242 72 q-84 27 -84 88q0 43 42 71.5t97 26.5q113 -4 179 -88l235 68q-51 100 -160.5 157.5t-253.5 57.5q-164 0 -278.5 -88.5t-114.5 -212.5q0 -76 24.5 -123t90.5 -97q-80 -35 -126 -96t-46 -131q0 -195 250 -272l254 -78q117 -33 116 -105q0 -45 -46 -76.5t-107 -33.5 q-168 -6 -238 131zM379 717q0 39 30.5 72.5t79.5 50.5l175 -58q121 -37 120 -112q0 -82 -84 -129l-206 55q-53 14 -84 47t-31 74zM408 717q0 -68 92 -92l196 -54q59 39 60 99q0 53 -101 86l-166 53q-81 -33 -81 -92z" glyph-name="section" horiz-adv-x="1155" unicode="§"/><glyph d="M0 1306.5q0 65.5 46 110.5t111.5 45t112.5 -46t47 -109q0 -66 -47 -112t-112.5 -46t-111.5 46t-46 111.5zM406 1306.5q0 65.5 46 110.5t111.5 45t112.5 -46t47 -109q0 -66 -47 -112t-112.5 -46t-111.5 46t-46 111.5zM29 1306.5q0 -53.5 37.5 -91t91.5 -37.5q55 0 93 37.5 t38 91.5q0 51 -39 89t-92.5 38t-91 -37t-37.5 -90.5zM434 1306.5q0 -53.5 38 -91t91 -37.5q55 0 93 37.5t38 91.5q0 51 -39 89t-92 38t-91 -37t-38 -90.5z" glyph-name="dieresis" horiz-adv-x="722" unicode="¨"/><glyph d="M61 721q0 289 200 486.5t495 197.5t493.5 -197.5t198.5 -486.5q0 -295 -198.5 -493.5t-493.5 -198.5t-495 198.5t-200 493.5zM90 721q0 -283 191.5 -473.5t474 -190.5t473 190.5t190.5 473.5q0 279 -191.5 467t-471.5 188q-283 0 -474.5 -188t-191.5 -467zM190 721 q0 238 162 397.5t403.5 159.5t402.5 -160t161 -397q0 -242 -161 -403.5t-402.5 -161.5t-403.5 161.5t-162 403.5zM219 721q0 -229 154.5 -383t382 -154t381 154t153.5 383q0 227 -153.5 377.5t-381 150.5t-382 -150.5t-154.5 -377.5zM406 716.5q0 151.5 101 252t253 100.5 q135 0 223 -68.5t111 -158.5l-158 -39q-12 47 -60.5 81t-113.5 34q-86 0 -139.5 -57.5t-53.5 -143.5q0 -84 53.5 -143.5t139.5 -59.5q66 0 114 34t60 81l158 -41q-23 -88 -110 -157t-220 -69q-156 0 -257 101.5t-101 253zM434 717q0 -141 93.5 -233.5t236.5 -92.5 q100 0 181 49t112 127l-103 27q-25 -49 -77 -79t-115 -30q-94 0 -157.5 66.5t-63.5 165.5q0 100 62.5 164.5t158.5 64.5q61 0 114.5 -29.5t77.5 -78.5l103 24q-31 80 -113 129t-184 49q-139 0 -232.5 -92t-93.5 -231z" glyph-name="copyright" horiz-adv-x="1509" unicode="©"/><glyph d="M614 266h-286l-215 389l215 389h286l-204 -389zM1044 266h-286l-215 389l215 389h286l-204 -389zM567 295l-190 360l190 361h-223l-199 -361l199 -360h223zM997 295l-190 360l190 361h-223l-199 -361l199 -360h223z" glyph-name="guillemotleft" horiz-adv-x="1157" unicode="«"/><glyph d="M113 696v256h983v-553h-277v297h-706zM141 725h707v-297h219v496h-926v-199z" glyph-name="logicalnot" horiz-adv-x="1208" unicode="¬"/><glyph d="M61 717q0 293 200 490.5t495 197.5q293 0 492.5 -197.5t199.5 -490.5t-199.5 -490.5t-492.5 -197.5q-295 0 -495 197.5t-200 490.5zM90 716.5q0 -280.5 190.5 -470t475.5 -189.5q283 0 473 189.5t190 470t-190.5 470t-472.5 189.5q-285 0 -475.5 -189.5t-190.5 -470z M193 716.5q0 239.5 161.5 401.5t401 162t400.5 -161t161 -402q0 -240 -161 -401.5t-400.5 -161.5t-401 161.5t-161.5 401zM221 717q0 -227 153.5 -381t381 -154t380 153.5t152.5 381.5q0 229 -152.5 381.5t-380 152.5t-381 -152.5t-153.5 -381.5zM481 379v680h340 q109 0 175.5 -70.5t66.5 -161.5q0 -66 -37 -123t-102 -83l153 -242h-184l-133 221h-119v-221h-160zM510 408h102v221h164l133 -221h115l-145 229q70 14 112.5 67.5t42.5 122.5q0 84 -61.5 143.5t-151.5 59.5h-311v-622zM612 713v227h205q49 0 83 -33t34 -80q0 -49 -36 -81.5 t-89 -32.5h-197zM641 741h168q43 0 69.5 25t26.5 61q0 35 -25.5 59.5t-62.5 24.5h-176v-170z" glyph-name="registered" horiz-adv-x="1509" unicode="®"/><glyph d="M0 1204v226h614v-226h-614zM29 1233h557v168h-557v-168z" glyph-name="macron" horiz-adv-x="614" unicode="¯"/><glyph d="M61 1175.5q0 147.5 103.5 248t257.5 100.5q152 0 254 -100.5t102 -247.5q0 -145 -103.5 -247t-252.5 -102q-154 0 -257.5 100.5t-103.5 248zM90 1175.5q0 -135.5 96.5 -227.5t235.5 -92t233.5 92t94.5 227.5t-94.5 227.5t-233.5 92q-141 0 -236.5 -92t-95.5 -227.5z M248 1175.5q0 73.5 49 122t125 48.5q72 0 121 -49.5t49 -120.5q0 -70 -50 -120t-120 -50q-76 0 -125 48t-49 121.5zM276 1176q0 -59 40 -100.5t106 -41.5q59 0 100 41t41 100.5t-41 100.5t-100 41q-66 0 -106 -40t-40 -101z" glyph-name="degree" horiz-adv-x="839" unicode="°"/><glyph d="M113 772v256h333v289h256v-289h332v-256h-332v-287h-256v287h-333zM141 801h334v-287h199v287h332v198h-332v289h-199v-289h-334v-198zM113 117v256h921v-256h-921zM141 145h865v199h-865v-199z" glyph-name="plusminus" horiz-adv-x="1146" unicode="±"/><glyph d="M31 1489q12 113 101 193.5t220 80.5q150 0 238 -70.5t88 -197.5q0 -70 -28.5 -122t-94.5 -109l-149 -134h284v-208h-655v149l319 297q76 74 76 119q0 27 -19.5 45t-54.5 18q-80 0 -106 -125zM63 1509l166 -49q33 119 127 119q45 0 74 -25.5t29 -66.5q0 -57 -84 -139 l-312 -289v-109h599v152h-330l205 184q63 55 87.5 101.5t24.5 107.5q0 113 -78.5 176.5t-218.5 63.5q-106 0 -187.5 -64t-101.5 -162z" glyph-name="uni00B2" horiz-adv-x="731" unicode="²"/><glyph d="M31 1171l211 62q10 -59 46 -94t89 -35q45 0 70.5 23.5t25.5 62.5t-26.5 65.5t-81.5 26.5q-37 0 -74 -6l-35 127l125 135h-320v203h613v-164l-148 -145q80 -25 128 -88.5t48 -155.5q0 -123 -91 -206t-228 -83q-160 0 -247 78.5t-105 193.5zM63 1151q27 -106 109 -164.5 t211 -58.5q125 0 208 74.5t83 185.5q0 166 -156 217l-43 12l170 172v123h-555v-145h356l-157 -172l22 -86q18 2 54 2q61 0 99 -33t38 -88q0 -51 -35 -83t-90 -32q-117 0 -156 123z" glyph-name="uni00B3" horiz-adv-x="743" unicode="³"/><glyph d="M0 1204l154 291h356l-234 -291h-276zM47 1233h215l189 233h-281z" glyph-name="acute" horiz-adv-x="509" unicode="´"/><glyph d="M51 975q0 195 136.5 327t361.5 132h897v-312h-170v-1552h-297v1552h-164v-1552h-307v952q-197 0 -327 130t-130 323zM80 974.5q0 -188.5 132 -311t325 -112.5v-952h249v1552h222v-1552h239v1552h170v254h-868q-207 0 -338 -121t-131 -309.5z" glyph-name="paragraph" horiz-adv-x="1538" unicode="¶"/><glyph d="M82 596q0 78 56.5 132t137.5 54q80 0 136.5 -54t56.5 -132q0 -82 -56.5 -137.5t-136.5 -55.5q-82 0 -138 55.5t-56 137.5zM111 596q0 -70 48 -117t117.5 -47t116.5 47t47 117q0 66 -48 112t-116 46q-70 0 -117.5 -46t-47.5 -112z" glyph-name="periodcentered" horiz-adv-x="550" unicode="·"/><glyph d="M0 -387l35 121q55 -39 133 -38t78 54q0 45 -57.5 61.5t-110.5 0.5l59 188h228l-35 -109q59 -10 99 -56t40 -103q0 -88 -67.5 -139.5t-180.5 -51.5q-129 0 -221 72zM33 -375q82 -55 188 -55q102 0 160.5 43t58.5 119q0 55 -44 95t-105 38l35 106h-168l-41 -125 q68 6 112.5 -21.5t44.5 -74.5q0 -61 -72.5 -78.5t-148.5 19.5z" glyph-name="cedilla" horiz-adv-x="468" unicode="¸"/><glyph d="M0 1595l276 146h209v-819h-243v548l-183 -84zM35 1581l43 -154l192 89v-566h187v762h-174z" glyph-name="uni00B9" horiz-adv-x="587" unicode="¹"/><glyph d="M113 266l204 389l-204 389h286l215 -389l-215 -389h-286zM543 266l205 389l-205 389h286l215 -389l-215 -389h-286zM160 295h223l199 360l-199 361h-223l190 -361zM590 295h223l199 360l-199 361h-223l190 -361z" glyph-name="guillemotright" horiz-adv-x="1157" unicode="»"/><glyph d="M0 1288l276 146h209v-820h-243v549l-183 -84zM219 0l885 1434h215l-885 -1434h-215zM35 1274l43 -154l192 88v-565h187v762h-174zM270 29h148l850 1376h-148zM961 141v183l262 495h252l-244 -473h108v113h230v-113h90v-205h-90v-141h-230v141h-378zM989 170h379v-141h172 v141h90v147h-90v113h-172v-113h-182l244 474h-191l-250 -474v-147z" glyph-name="onequarter" horiz-adv-x="1679" unicode="¼"/><glyph d="M0 1288l276 146h209v-820h-243v549l-183 -84zM219 0l885 1434h215l-885 -1434h-215zM35 1274l43 -154l192 88v-565h187v762h-174zM270 29h148l850 1376h-148zM981 567q12 113 101 194t221 81q150 0 237.5 -71t87.5 -198q0 -70 -28.5 -122t-94.5 -109l-149 -133h284v-209 h-655v150l320 296q76 74 75 119q0 27 -19.5 45.5t-53.5 18.5q-80 0 -107 -125zM1014 588l166 -49q33 119 127 118q45 0 73.5 -25.5t28.5 -66.5q0 -57 -84 -139l-311 -289v-108h598v151h-330l205 185q63 55 87.5 101t24.5 107q0 113 -78.5 176.5t-217.5 63.5 q-106 0 -187.5 -63.5t-101.5 -161.5z" glyph-name="onehalf" horiz-adv-x="1681" unicode="½"/><glyph d="M31 864l211 62q10 -59 46 -94t89 -35q45 0 70.5 23.5t25.5 62.5t-26.5 65.5t-81.5 26.5q-37 0 -74 -6l-35 127l125 135h-320v203h613v-164l-148 -146q80 -25 128 -88t48 -155q0 -123 -91 -206t-228 -83q-160 0 -247 78.5t-105 193.5zM375 0l885 1434h215l-885 -1434h-215 zM63 844q27 -106 109 -164.5t211 -58.5q125 0 208 74.5t83 185.5q0 166 -156 217l-43 12l170 172v123h-555v-145h356l-157 -173l22 -86q18 2 54 3q61 0 99 -33t38 -88q0 -51 -35 -83t-90 -32q-117 0 -156 123zM426 29h147l850 1376h-147zM1116 141v183l262 495h252 l-244 -473h109v113h229v-113h91v-205h-91v-141h-229v141h-379zM1145 170h379v-141h172v141h90v147h-90v113h-172v-113h-183l244 474h-190l-250 -474v-147z" glyph-name="threequarters" horiz-adv-x="1835" unicode="¾"/><glyph d="M772 868q0 -78 -56.5 -132t-137.5 -54q-80 0 -136.5 54.5t-56.5 131.5q0 82 56.5 137.5t136.5 55.5q82 0 138 -55.5t56 -137.5zM743 868q0 70 -48 117t-117.5 47t-116.5 -47t-47 -117q0 -66 48 -111.5t116 -45.5q70 0 117.5 45.5t47.5 111.5zM1085 18q-23 -182 -161 -309 t-359 -127t-362.5 117t-141.5 297q0 86 39 163t79 116.5t108 95.5q51 43 69.5 60.5t41 50t22.5 61.5h317q0 -68 -28.5 -129.5t-60.5 -97t-85 -85.5q-6 -6 -29.5 -26.5t-30.5 -27.5t-25.5 -24.5t-26 -26.5t-19.5 -25.5t-17 -29t-9.5 -27.5t-4.5 -32q0 -59 45.5 -95t120.5 -36 q84 0 142.5 62.5t81.5 165.5zM1053 -2l-242 74q-29 -102 -93.5 -160.5t-150.5 -58.5q-88 0 -141 44t-53 115q0 18 5 37t10 32t18.5 31.5t20.5 29t27.5 29.5t26.5 25.5t32 29t30 26.5q74 68 114.5 126t49.5 136h-263q-12 -57 -139 -166q-68 -55 -104.5 -92t-73.5 -108.5 t-37 -151.5q0 -168 133 -276.5t342 -108.5q190 0 324.5 106.5t163.5 280.5z" glyph-name="questiondown" horiz-adv-x="1136" unicode="¿"/><glyph d="M918 1593h-277l-233 291h356zM870 1622l-122 233h-281l188 -233h215zM0 0l530 1434h447l530 -1434h-350l-100 274h-606l-101 -274h-350zM41 29h289l100 274h647l101 -274h288l-510 1376h-405zM518 543l223 614h25l223 -614h-471zM559 571h389l-194 537z" glyph-name="Agrave" unicode="À"/><glyph d="M590 1593l153 291h357l-234 -291h-276zM637 1622h215l188 233h-280zM0 0l530 1434h447l530 -1434h-350l-100 274h-606l-101 -274h-350zM41 29h289l100 274h647l101 -274h288l-510 1376h-405zM518 543l223 614h25l223 -614h-471zM559 571h389l-194 537z" glyph-name="Aacute" unicode="Á"/><glyph d="M377 1577l223 307h307l223 -307h-286l-90 143l-90 -143h-287zM432 1606h215l96 151h21l96 -151h215l-182 249h-279zM0 0l530 1434h447l530 -1434h-350l-100 274h-606l-101 -274h-350zM41 29h289l100 274h647l101 -274h288l-510 1376h-405zM518 543l223 614h25l223 -614 h-471zM559 571h389l-194 537z" glyph-name="Acircumflex" unicode="Â"/><glyph d="M395 1565q0 319 213 319q66 0 174 -61q61 -35 80 -35q43 0 43 88h207q0 -319 -213 -320q-66 0 -174 62q-61 35 -80 35q-43 0 -43 -88h-207zM424 1593h151q6 88 70 88q27 0 103 -45q92 -51 151 -51q176 0 184 262h-151q-6 -88 -70 -88q-27 0 -102 45q-92 51 -152 51 q-176 0 -184 -262zM0 0l530 1434h447l530 -1434h-350l-100 274h-606l-101 -274h-350zM41 29h289l100 274h647l101 -274h288l-510 1376h-405zM518 543l223 614h25l223 -614h-471zM559 571h389l-194 537z" glyph-name="Atilde" unicode="Ã"/><glyph d="M391 1695.5q0 65.5 46 110.5t111.5 45t113 -46t47.5 -109q0 -66 -47.5 -112t-113 -46t-111.5 46t-46 111.5zM797 1695.5q0 65.5 46 110.5t111.5 45t112.5 -46t47 -109q0 -66 -47 -112t-112.5 -46t-111.5 46t-46 111.5zM420 1695.5q0 -53.5 38 -91t91 -37.5q55 0 93 37.5 t38 91.5q0 51 -39 89t-92 38t-91 -37t-38 -90.5zM825 1695.5q0 -53.5 38 -91t91 -37.5q55 0 93 37.5t38 91.5q0 51 -38.5 89t-92 38t-91.5 -37t-38 -90.5zM0 0l530 1434h447l530 -1434h-350l-100 274h-606l-101 -274h-350zM41 29h289l100 274h647l101 -274h288l-510 1376 h-405zM518 543l223 614h25l223 -614h-471zM559 571h389l-194 537z" glyph-name="Adieresis" unicode="Ä"/><glyph d="M487 1757.5q0 110.5 76 184t190.5 73.5t190.5 -73.5t76 -184t-76 -184.5t-190.5 -74t-190.5 74t-76 184.5zM516 1757q0 -98 67.5 -163.5t170 -65.5t170 65.5t67.5 163.5t-67.5 164t-170 66t-170 -66t-67.5 -164zM637 1757q0 51 32.5 83t84 32t84 -32t32.5 -83t-32.5 -83 t-84 -32t-84 32t-32.5 83zM666 1757q0 -39 24.5 -62.5t63.5 -23.5t63.5 23.5t24.5 62.5q0 37 -24.5 61.5t-63.5 24.5t-63.5 -24.5t-24.5 -61.5zM0 0l530 1434h447l530 -1434h-350l-100 274h-606l-101 -274h-350zM41 29h289l100 274h647l101 -274h288l-510 1376h-405z M518 543l223 614h25l223 -614h-471zM559 571h389l-194 537z" glyph-name="Aring" unicode="Å"/><glyph d="M0 0l838 1434h1130v-308h-659v-249h555v-297h-555v-273h657v-307h-983v279h-455l-161 -279h-367zM49 29h301l162 278h500v-278h925v250h-657v329h555v240h-555v307h659v250h-1085zM653 553l348 602h11v-602h-359zM702 582h281v483z" glyph-name="AE" horiz-adv-x="2050" unicode="Æ"/><glyph d="M821 291q141 0 240.5 70.5t128.5 168.5l332 -84q-41 -164 -190.5 -299t-379.5 -167l-28 -89q59 -10 99 -56t40 -103q0 -88 -67.5 -139.5t-180.5 -51.5q-129 0 -221 72l35 121q55 -39 133 -38t78 54q0 45 -57.5 61.5t-110.5 0.5l53 165q-289 35 -473 241t-184 499 q0 317 215 531t536 214q285 0 470.5 -145.5t232.5 -335.5l-332 -82q-29 98 -129 171t-240 73q-182 0 -293.5 -123t-111.5 -301q0 -176 112.5 -302t292.5 -126zM1487 426l-279 70q-41 -104 -147.5 -169t-239.5 -65q-186 0 -310 131t-124 326q0 197 123 324.5t311 127.5 q131 0 238.5 -66.5t148.5 -170.5l279 67q-59 190 -244.5 311.5t-423.5 121.5q-309 0 -516 -205t-207 -512q0 -291 187.5 -492.5t480.5 -222.5l-51 -158q61 10 108 -17.5t47 -76.5q0 -61 -72.5 -78.5t-148.5 19.5l-20 -66q82 -55 188 -55q102 0 160.5 43t58.5 119 q0 55 -44 95t-105 38l45 141q201 25 353.5 140.5t203.5 279.5z" glyph-name="Ccedilla" horiz-adv-x="1583" unicode="Ç"/><glyph d="M821 1593h-276l-234 291h357zM774 1622l-123 233h-280l188 -233h215zM123 0v1434h1079v-308h-747v-249h643v-297h-643v-273h745v-307h-1077zM152 29h1019v250h-745v329h643v240h-643v307h748v250h-1022v-1376z" glyph-name="Egrave" horiz-adv-x="1284" unicode="È"/><glyph d="M494 1593l153 291h357l-234 -291h-276zM541 1622h215l188 233h-280zM123 0v1434h1079v-308h-747v-249h643v-297h-643v-273h745v-307h-1077zM152 29h1019v250h-745v329h643v240h-643v307h748v250h-1022v-1376z" glyph-name="Eacute" horiz-adv-x="1284" unicode="É"/><glyph d="M281 1577l223 307h307l223 -307h-286l-91 143l-90 -143h-286zM336 1606h215l96 151h21l96 -151h215l-182 249h-279zM123 0v1434h1079v-308h-747v-249h643v-297h-643v-273h745v-307h-1077zM152 29h1019v250h-745v329h643v240h-643v307h748v250h-1022v-1376z" glyph-name="Ecircumflex" horiz-adv-x="1284" unicode="Ê"/><glyph d="M295 1695.5q0 65.5 46 110.5t111.5 45t112.5 -46t47 -109q0 -66 -47 -112t-112.5 -46t-111.5 46t-46 111.5zM700 1695.5q0 65.5 46.5 110.5t112 45t112.5 -46t47 -109q0 -66 -47 -112t-112.5 -46t-112 46t-46.5 111.5zM324 1695.5q0 -53.5 37.5 -91t91.5 -37.5 q55 0 93 37.5t38 91.5q0 51 -39 89t-92.5 38t-91 -37t-37.5 -90.5zM729 1695.5q0 -53.5 38 -91t91 -37.5q55 0 93 37.5t38 91.5q0 51 -39 89t-92 38t-91 -37t-38 -90.5zM123 0v1434h1079v-308h-747v-249h643v-297h-643v-273h745v-307h-1077zM152 29h1019v250h-745v329h643 v240h-643v307h748v250h-1022v-1376z" glyph-name="Edieresis" horiz-adv-x="1284" unicode="Ë"/><glyph d="M459 1593h-277l-233 291h356zM412 1622l-123 233h-281l189 -233h215zM123 0v1434h344v-1434h-344zM152 29h286v1376h-286v-1376z" glyph-name="Igrave" horiz-adv-x="589" unicode="Ì"/><glyph d="M131 1593l154 291h356l-233 -291h-277zM178 1622h215l189 233h-281zM123 0v1434h344v-1434h-344zM152 29h286v1376h-286v-1376z" glyph-name="Iacute" horiz-adv-x="589" unicode="Í"/><glyph d="M-82 1577l223 307h308l223 -307h-287l-90 143l-90 -143h-287zM-27 1606h215l97 151h20l96 -151h215l-182 249h-278zM123 0v1434h344v-1434h-344zM152 29h286v1376h-286v-1376z" glyph-name="Icircumflex" horiz-adv-x="589" unicode="Î"/><glyph d="M-68 1695.5q0 65.5 46.5 110.5t112 45t112.5 -46t47 -109q0 -66 -47 -112t-112.5 -46t-112 46t-46.5 111.5zM338 1695.5q0 65.5 46 110.5t111.5 45t112.5 -46t47 -109q0 -66 -47 -112t-112.5 -46t-111.5 46t-46 111.5zM-39 1695.5q0 -53.5 38 -91t91 -37.5q55 0 93 37.5 t38 91.5q0 51 -39 89t-92 38t-91 -37t-38 -90.5zM367 1695.5q0 -53.5 37.5 -91t91.5 -37.5q55 0 93 37.5t38 91.5q0 51 -39 89t-92.5 38t-91 -37t-37.5 -90.5zM123 0v1434h344v-1434h-344zM152 29h286v1376h-286v-1376z" glyph-name="Idieresis" horiz-adv-x="589" unicode="Ï"/><glyph d="M41 563v287h143v584h662q303 0 490.5 -199t187.5 -518q0 -315 -186.5 -516t-491.5 -201h-662v563h-143zM70 592h143v-563h633q289 0 469 190.5t180 497.5t-179 497.5t-470 190.5h-633v-584h-143v-229zM492 276v316h299v229h-299v336h346q164 0 267 -121t103 -313 q0 -195 -104.5 -321t-265.5 -126h-346zM520 305h318q147 0 244.5 116t97.5 302q0 184 -97.5 294.5t-244.5 110.5h-318v-278h299v-287h-299v-258z" glyph-name="Eth" horiz-adv-x="1591" unicode="Ð"/><glyph d="M395 1565q0 319 213 319q66 0 174 -61q61 -35 80 -35q43 0 43 88h207q0 -319 -213 -320q-66 0 -174 62q-61 35 -80 35q-43 0 -43 -88h-207zM424 1593h151q6 88 70 88q27 0 103 -45q92 -51 151 -51q176 0 184 262h-151q-6 -88 -70 -88q-27 0 -102 45q-92 51 -152 51 q-176 0 -184 -262zM123 0v1434h276l645 -822v822h340v-1434h-276l-645 821v-821h-340zM152 29h282v876l688 -876h234v1376h-283v-877l-688 877h-233v-1376z" glyph-name="Ntilde" unicode="Ñ"/><glyph d="M991 1593h-276l-234 291h357zM944 1622l-123 233h-280l188 -233h215zM68 716.5q0 319.5 216 532.5t543.5 213t543.5 -213t216 -532.5t-216 -532.5t-543.5 -213t-543.5 213t-216 532.5zM96 717q0 -309 208 -513t523.5 -204t523.5 204t208 513t-208 513t-523.5 204 t-523.5 -204t-208 -513zM383 717q0 201 125 331t319.5 130t319.5 -130t125 -331q0 -203 -125 -332t-319.5 -129t-319.5 129t-125 332zM412 716.5q0 -186.5 114.5 -309t301 -122.5t301 122.5t114.5 309t-114.5 309.5t-301 123t-301 -123t-114.5 -309.5z" glyph-name="Ograve" horiz-adv-x="1654" unicode="Ò"/><glyph d="M664 1593l153 291h357l-234 -291h-276zM711 1622h215l188 233h-280zM68 716.5q0 319.5 216 532.5t543.5 213t543.5 -213t216 -532.5t-216 -532.5t-543.5 -213t-543.5 213t-216 532.5zM96 717q0 -309 208 -513t523.5 -204t523.5 204t208 513t-208 513t-523.5 204 t-523.5 -204t-208 -513zM383 717q0 201 125 331t319.5 130t319.5 -130t125 -331q0 -203 -125 -332t-319.5 -129t-319.5 129t-125 332zM412 716.5q0 -186.5 114.5 -309t301 -122.5t301 122.5t114.5 309t-114.5 309.5t-301 123t-301 -123t-114.5 -309.5z" glyph-name="Oacute" horiz-adv-x="1654" unicode="Ó"/><glyph d="M451 1577l223 307h307l223 -307h-286l-91 143l-90 -143h-286zM506 1606h215l96 151h21l96 -151h215l-182 249h-279zM68 716.5q0 319.5 216 532.5t543.5 213t543.5 -213t216 -532.5t-216 -532.5t-543.5 -213t-543.5 213t-216 532.5zM96 717q0 -309 208 -513t523.5 -204 t523.5 204t208 513t-208 513t-523.5 204t-523.5 -204t-208 -513zM383 717q0 201 125 331t319.5 130t319.5 -130t125 -331q0 -203 -125 -332t-319.5 -129t-319.5 129t-125 332zM412 716.5q0 -186.5 114.5 -309t301 -122.5t301 122.5t114.5 309t-114.5 309.5t-301 123 t-301 -123t-114.5 -309.5z" glyph-name="Ocircumflex" horiz-adv-x="1654" unicode="Ô"/><glyph d="M469 1565q0 319 213 319q66 0 174 -61q61 -35 80 -35q43 0 43 88h207q0 -319 -213 -320q-66 0 -174 62q-61 35 -80 35q-43 0 -43 -88h-207zM498 1593h151q6 88 70 88q27 0 102 -45q92 -51 152 -51q176 0 184 262h-151q-6 -88 -70 -88q-27 0 -102 45q-92 51 -152 51 q-176 0 -184 -262zM68 716.5q0 319.5 216 532.5t543.5 213t543.5 -213t216 -532.5t-216 -532.5t-543.5 -213t-543.5 213t-216 532.5zM96 717q0 -309 208 -513t523.5 -204t523.5 204t208 513t-208 513t-523.5 204t-523.5 -204t-208 -513zM383 717q0 201 125 331t319.5 130 t319.5 -130t125 -331q0 -203 -125 -332t-319.5 -129t-319.5 129t-125 332zM412 716.5q0 -186.5 114.5 -309t301 -122.5t301 122.5t114.5 309t-114.5 309.5t-301 123t-301 -123t-114.5 -309.5z" glyph-name="Otilde" horiz-adv-x="1654" unicode="Õ"/><glyph d="M465 1695.5q0 65.5 46 110.5t111.5 45t112.5 -46t47 -109q0 -66 -47 -112t-112.5 -46t-111.5 46t-46 111.5zM870 1695.5q0 65.5 46.5 110.5t112 45t112.5 -46t47 -109q0 -66 -47 -112t-112.5 -46t-112 46t-46.5 111.5zM494 1695.5q0 -53.5 37.5 -91t91.5 -37.5 q55 0 93 37.5t38 91.5q0 51 -39 89t-92.5 38t-91 -37t-37.5 -90.5zM899 1695.5q0 -53.5 38 -91t91 -37.5q55 0 93 37.5t38 91.5q0 51 -39 89t-92 38t-91 -37t-38 -90.5zM68 716.5q0 319.5 216 532.5t543.5 213t543.5 -213t216 -532.5t-216 -532.5t-543.5 -213t-543.5 213 t-216 532.5zM96 717q0 -309 208 -513t523.5 -204t523.5 204t208 513t-208 513t-523.5 204t-523.5 -204t-208 -513zM383 717q0 201 125 331t319.5 130t319.5 -130t125 -331q0 -203 -125 -332t-319.5 -129t-319.5 129t-125 332zM412 716.5q0 -186.5 114.5 -309t301 -122.5 t301 122.5t114.5 309t-114.5 309.5t-301 123t-301 -123t-114.5 -309.5z" glyph-name="Odieresis" horiz-adv-x="1654" unicode="Ö"/><glyph d="M113 969l182 180l248 -250l250 250l182 -180l-250 -252l248 -248l-180 -182l-248 250l-250 -250l-180 182l247 248zM154 969l249 -252l-247 -248l139 -141l250 250l248 -250l139 141l-248 248l250 252l-141 139l-250 -250l-248 250z" glyph-name="multiply" horiz-adv-x="1087" unicode="×"/><glyph d="M68 717q0 319 216 532t543 213q195 0 359 -82l57 84h215l-127 -180q256 -217 256 -567q0 -319 -216 -532.5t-544 -213.5q-199 0 -358 82l-59 -84h-215l127 181q-121 102 -187.5 249.5t-66.5 317.5zM96 717q0 -170 68.5 -315.5t195.5 -245.5l-110 -158h145l66 92 q162 -90 366 -90q315 0 523.5 204t208.5 513q0 354 -267 561l111 158h-146l-61 -93q-168 90 -369 91q-315 0 -523 -204t-208 -513zM383 717q0 201 125 331t319 130q115 0 215 -50l-528 -753q-131 137 -131 342zM412 717q0 -172 100 -295l487 694q-82 33 -172 33 q-186 0 -300.5 -123t-114.5 -309zM612 305l525 752q135 -129 135 -340q0 -203 -125 -332t-320 -129q-115 0 -215 49zM655 317q82 -33 172 -32q186 0 301 122.5t115 309.5q0 176 -102 295z" glyph-name="Oslash" horiz-adv-x="1654" unicode="Ø"/><glyph d="M913 1593h-276l-234 291h357zM866 1622l-123 233h-280l188 -233h215zM113 596v838h344v-832q0 -143 74.5 -231t218 -88t218 88t74.5 231v832h344v-838q0 -283 -167.5 -454t-468.5 -171q-303 0 -470 171t-167 454zM141 596q0 -279 162 -437.5t447 -158.5 q283 0 445.5 159.5t162.5 436.5v809h-287v-803q0 -162 -86 -255t-235.5 -93t-235.5 93t-86 255v803h-287v-809z" glyph-name="Ugrave" horiz-adv-x="1499" unicode="Ù"/><glyph d="M586 1593l153 291h357l-234 -291h-276zM633 1622h215l188 233h-280zM113 596v838h344v-832q0 -143 74.5 -231t218 -88t218 88t74.5 231v832h344v-838q0 -283 -167.5 -454t-468.5 -171q-303 0 -470 171t-167 454zM141 596q0 -279 162 -437.5t447 -158.5q283 0 445.5 159.5 t162.5 436.5v809h-287v-803q0 -162 -86 -255t-235.5 -93t-235.5 93t-86 255v803h-287v-809z" glyph-name="Uacute" horiz-adv-x="1499" unicode="Ú"/><glyph d="M373 1577l223 307h307l223 -307h-286l-90 143l-91 -143h-286zM428 1606h215l96 151h21l96 -151h215l-182 249h-279zM113 596v838h344v-832q0 -143 74.5 -231t218 -88t218 88t74.5 231v832h344v-838q0 -283 -167.5 -454t-468.5 -171q-303 0 -470 171t-167 454zM141 596 q0 -279 162 -437.5t447 -158.5q283 0 445.5 159.5t162.5 436.5v809h-287v-803q0 -162 -86 -255t-235.5 -93t-235.5 93t-86 255v803h-287v-809z" glyph-name="Ucircumflex" horiz-adv-x="1499" unicode="Û"/><glyph d="M387 1695.5q0 65.5 46 110.5t111.5 45t113 -46t47.5 -109q0 -66 -47.5 -112t-113 -46t-111.5 46t-46 111.5zM793 1695.5q0 65.5 46 110.5t111.5 45t112.5 -46t47 -109q0 -66 -47 -112t-112.5 -46t-111.5 46t-46 111.5zM416 1695.5q0 -53.5 38 -91t91 -37.5q55 0 93 37.5 t38 91.5q0 51 -39 89t-92 38t-91 -37t-38 -90.5zM821 1695.5q0 -53.5 38 -91t91 -37.5q55 0 93 37.5t38 91.5q0 51 -38.5 89t-92 38t-91.5 -37t-38 -90.5zM113 596v838h344v-832q0 -143 74.5 -231t218 -88t218 88t74.5 231v832h344v-838q0 -283 -167.5 -454t-468.5 -171 q-303 0 -470 171t-167 454zM141 596q0 -279 162 -437.5t447 -158.5q283 0 445.5 159.5t162.5 436.5v809h-287v-803q0 -162 -86 -255t-235.5 -93t-235.5 93t-86 255v803h-287v-809z" glyph-name="Udieresis" horiz-adv-x="1499" unicode="Ü"/><glyph d="M545 1593l153 291h357l-234 -291h-276zM592 1622h215l188 233h-280zM0 1434h383l326 -586l325 586h381l-534 -918v-516h-344v516zM49 1405l516 -881v-495h287v495l514 881h-315l-342 -617l-342 617h-318z" glyph-name="Yacute" horiz-adv-x="1415" unicode="Ý"/><glyph d="M123 0v1434h336v-183h354q229 0 371.5 -157.5t142.5 -358.5q0 -203 -144.5 -359.5t-383.5 -156.5h-340v-219h-336zM152 29h278v219h369q211 0 355 140t144 347q0 203 -141 345.5t-344 142.5h-383v182h-278v-1376zM430 494v479h375q90 0 155.5 -71t65.5 -169 q0 -100 -68.5 -169.5t-166.5 -69.5h-361zM459 522h332q90 0 148 63.5t58 147.5t-55 147.5t-137 63.5h-346v-422z" glyph-name="Thorn" horiz-adv-x="1357" unicode="Þ"/><glyph d="M113 0v981q0 240 141 389.5t375 149.5q217 0 359 -120t142 -308q0 -186 -147 -285q221 -117 221 -361q0 -211 -138 -328.5t-384 -117.5h-102v287h90q98 0 152.5 45t54.5 129q0 174 -218 174h-69v260h31q82 0 133 47t51 131q0 72 -46 116t-124 44q-90 0 -142.5 -67.5 t-52.5 -178.5v-987h-327zM141 29h271v958q0 125 61.5 200t161.5 75q88 0 143.5 -52.5t55.5 -136.5q0 -94 -58.5 -150.5t-154.5 -56.5h-3v-202h41q119 0 182.5 -52.5t63.5 -150.5q0 -94 -62.5 -148.5t-172.5 -54.5h-62v-229h74q236 0 365 109.5t129 307.5q0 240 -238 353v14 q164 96 164 279q0 174 -133 286.5t-340 112.5q-219 0 -353.5 -140.5t-134.5 -369.5v-952z" glyph-name="germandbls" horiz-adv-x="1265" unicode="ß"/><glyph d="M807 1204h-277l-233 291h356zM760 1233l-123 233h-281l189 -233h215zM61 522.5q0 235.5 147.5 393t360.5 157.5q186 0 301 -125v96h328v-1044h-328v96q-119 -125 -301 -125q-213 0 -360.5 158t-147.5 393.5zM90 522q0 -223 137.5 -372.5t341.5 -149.5q199 0 330 174v-145 h270v987h-270v-144q-125 172 -329.5 172t-342 -149.5t-137.5 -372.5zM356 524q0 127 77 207t196 80q121 0 199.5 -81t78.5 -206q0 -127 -78.5 -209t-199.5 -82q-119 0 -196 82t-77 209zM385 524q0 -117 68.5 -189.5t175.5 -72.5q109 0 179.5 73t70.5 189q0 115 -71 186.5 t-179 71.5q-106 0 -175 -71.5t-69 -186.5z" glyph-name="agrave" horiz-adv-x="1320" unicode="à"/><glyph d="M479 1204l154 291h356l-233 -291h-277zM526 1233h215l189 233h-281zM61 522.5q0 235.5 147.5 393t360.5 157.5q186 0 301 -125v96h328v-1044h-328v96q-119 -125 -301 -125q-213 0 -360.5 158t-147.5 393.5zM90 522q0 -223 137.5 -372.5t341.5 -149.5q199 0 330 174v-145 h270v987h-270v-144q-125 172 -329.5 172t-342 -149.5t-137.5 -372.5zM356 524q0 127 77 207t196 80q121 0 199.5 -81t78.5 -206q0 -127 -78.5 -209t-199.5 -82q-119 0 -196 82t-77 209zM385 524q0 -117 68.5 -189.5t175.5 -72.5q109 0 179.5 73t70.5 189q0 115 -71 186.5 t-179 71.5q-106 0 -175 -71.5t-69 -186.5z" glyph-name="aacute" horiz-adv-x="1320" unicode="á"/><glyph d="M266 1188l223 307h308l223 -307h-287l-90 143l-90 -143h-287zM322 1217h215l96 151h20l97 -151h215l-183 249h-278zM61 522.5q0 235.5 147.5 393t360.5 157.5q186 0 301 -125v96h328v-1044h-328v96q-119 -125 -301 -125q-213 0 -360.5 158t-147.5 393.5zM90 522 q0 -223 137.5 -372.5t341.5 -149.5q199 0 330 174v-145h270v987h-270v-144q-125 172 -329.5 172t-342 -149.5t-137.5 -372.5zM356 524q0 127 77 207t196 80q121 0 199.5 -81t78.5 -206q0 -127 -78.5 -209t-199.5 -82q-119 0 -196 82t-77 209zM385 524q0 -117 68.5 -189.5 t175.5 -72.5q109 0 179.5 73t70.5 189q0 115 -71 186.5t-179 71.5q-106 0 -175 -71.5t-69 -186.5z" glyph-name="acircumflex" horiz-adv-x="1320" unicode="â"/><glyph d="M285 1176q0 319 213 319q66 0 174 -61q61 -35 80 -35q43 0 43 88h206q0 -319 -213 -320q-66 0 -174 62q-61 35 -79 35q-43 0 -43 -88h-207zM313 1204h152q6 88 70 88q27 0 102 -45q92 -51 151 -51q176 0 185 262h-152q-6 -88 -69 -88q-27 0 -103 45q-92 51 -151 51 q-177 0 -185 -262zM61 522.5q0 235.5 147.5 393t360.5 157.5q186 0 301 -125v96h328v-1044h-328v96q-119 -125 -301 -125q-213 0 -360.5 158t-147.5 393.5zM90 522q0 -223 137.5 -372.5t341.5 -149.5q199 0 330 174v-145h270v987h-270v-144q-125 172 -329.5 172t-342 -149.5 t-137.5 -372.5zM356 524q0 127 77 207t196 80q121 0 199.5 -81t78.5 -206q0 -127 -78.5 -209t-199.5 -82q-119 0 -196 82t-77 209zM385 524q0 -117 68.5 -189.5t175.5 -72.5q109 0 179.5 73t70.5 189q0 115 -71 186.5t-179 71.5q-106 0 -175 -71.5t-69 -186.5z" glyph-name="atilde" horiz-adv-x="1320" unicode="ã"/><glyph d="M281 1306.5q0 65.5 46 110.5t111.5 45t112.5 -46t47 -109q0 -66 -47 -112t-112.5 -46t-111.5 46t-46 111.5zM686 1306.5q0 65.5 46 110.5t111.5 45t113 -46t47.5 -109q0 -66 -47.5 -112t-113 -46t-111.5 46t-46 111.5zM309 1306.5q0 -53.5 38 -91t91 -37.5q55 0 93 37.5 t38 91.5q0 51 -38.5 89t-92 38t-91.5 -37t-38 -90.5zM715 1306.5q0 -53.5 38 -91t91 -37.5q55 0 93 37.5t38 91.5q0 51 -39 89t-92 38t-91 -37t-38 -90.5zM61 522.5q0 235.5 147.5 393t360.5 157.5q186 0 301 -125v96h328v-1044h-328v96q-119 -125 -301 -125 q-213 0 -360.5 158t-147.5 393.5zM90 522q0 -223 137.5 -372.5t341.5 -149.5q199 0 330 174v-145h270v987h-270v-144q-125 172 -329.5 172t-342 -149.5t-137.5 -372.5zM356 524q0 127 77 207t196 80q121 0 199.5 -81t78.5 -206q0 -127 -78.5 -209t-199.5 -82q-119 0 -196 82 t-77 209zM385 524q0 -117 68.5 -189.5t175.5 -72.5q109 0 179.5 73t70.5 189q0 115 -71 186.5t-179 71.5q-106 0 -175 -71.5t-69 -186.5z" glyph-name="adieresis" horiz-adv-x="1320" unicode="ä"/><glyph d="M377 1368q0 111 75.5 184.5t190.5 73.5t190.5 -73.5t75.5 -184.5t-75.5 -184.5t-190.5 -73.5t-190.5 73.5t-75.5 184.5zM406 1368q0 -98 67.5 -163.5t169.5 -65.5t170 65.5t68 163.5t-68 163.5t-170 65.5t-169.5 -65.5t-67.5 -163.5zM526 1368q0 51 33 83t84 32t84 -32 t33 -83t-33 -83t-84 -32t-84 32t-33 83zM555 1368q0 -39 24.5 -62.5t63.5 -23.5t63.5 23.5t24.5 62.5q0 37 -24.5 61.5t-63.5 24.5t-63.5 -24.5t-24.5 -61.5zM61 522.5q0 235.5 147.5 393t360.5 157.5q186 0 301 -125v96h328v-1044h-328v96q-119 -125 -301 -125 q-213 0 -360.5 158t-147.5 393.5zM90 522q0 -223 137.5 -372.5t341.5 -149.5q199 0 330 174v-145h270v987h-270v-144q-125 172 -329.5 172t-342 -149.5t-137.5 -372.5zM356 524q0 127 77 207t196 80q121 0 199.5 -81t78.5 -206q0 -127 -78.5 -209t-199.5 -82q-119 0 -196 82 t-77 209zM385 524q0 -117 68.5 -189.5t175.5 -72.5q109 0 179.5 73t70.5 189q0 115 -71 186.5t-179 71.5q-106 0 -175 -71.5t-69 -186.5z" glyph-name="aring" horiz-adv-x="1320" unicode="å"/><glyph d="M61 522.5q0 235.5 147.5 393t360.5 157.5q186 0 301 -125v96h287v-110q119 139 316 139q223 0 365 -150.5t142 -390.5q0 -61 -10 -126h-768q20 -78 86 -123t166 -45q127 0 182 86l293 -88q-61 -119 -178 -192t-270 -73q-207 0 -324 131v-102h-287v96q-119 -125 -301 -125 q-213 0 -360.5 158t-147.5 393.5zM90 522q0 -223 137.5 -372.5t341.5 -149.5q199 0 330 174v-145h229v149q129 -178 353 -178q131 0 237.5 57.5t167.5 161.5l-237 72q-66 -82 -195 -82q-119 0 -195.5 60.5t-91.5 164.5h779q6 53 6 98q0 227 -133 369.5t-346 142.5 q-217 0 -345 -192v164h-229v-142q-127 170 -330 170q-205 0 -342 -149.5t-137 -372.5zM1163 590q6 104 85 171.5t191.5 67.5t183.5 -66.5t73 -172.5h-533zM356 524q0 127 77 207t196 80q121 0 199.5 -81t78.5 -206q0 -127 -78.5 -209t-199.5 -82q-119 0 -196 82t-77 209z M1196 618h469q-10 80 -69.5 131.5t-155.5 51.5q-98 0 -164 -53.5t-80 -129.5zM385 524q0 -117 68.5 -189.5t175.5 -72.5q109 0 179.5 73t70.5 189q0 115 -71 186.5t-179 71.5q-106 0 -175 -71.5t-69 -186.5z" glyph-name="ae" horiz-adv-x="2041" unicode="æ"/><glyph d="M61 522q0 236 158 393.5t397 157.5q209 0 349.5 -108.5t173.5 -245.5l-303 -86q-14 61 -74 106t-144 45q-106 0 -171.5 -75.5t-65.5 -184t65.5 -186.5t171.5 -78q84 0 143.5 44t74.5 104l303 -86q-27 -113 -130.5 -209.5t-260.5 -128.5l-29 -93q59 -10 99 -56t40 -103 q0 -88 -67.5 -139.5t-180.5 -51.5q-129 0 -221 72l35 121q55 -39 133 -38t78 54q0 45 -57.5 61.5t-110.5 0.5l53 168q-203 33 -331 183t-128 359zM90 522q0 -209 130 -353t337 -165l-49 -158q59 6 107.5 -20.5t48.5 -75.5q0 -61 -73 -78.5t-149 19.5l-20 -66q82 -55 188 -55 q102 0 160.5 43t58.5 119q0 55 -44 95t-105 38l45 143q135 23 239.5 104t139.5 189l-250 72q-27 -63 -91.5 -102.5t-144.5 -39.5q-113 0 -189.5 84t-76.5 209t76 207t190 82q78 0 143.5 -41t92.5 -104l250 71q-43 133 -179.5 219t-308.5 86q-225 0 -375.5 -149.5 t-150.5 -372.5z" glyph-name="ccedilla" horiz-adv-x="1189" unicode="ç"/><glyph d="M780 1204h-276l-234 291h357zM733 1233l-123 233h-280l188 -233h215zM635 -29q-256 0 -415 152.5t-159 396.5q0 240 153 396.5t400 156.5q252 0 399.5 -153.5t147.5 -387.5q0 -63 -8 -110h-772q39 -178 260 -178q150 0 209 106l295 -86q-49 -113 -184.5 -203t-325.5 -90z M635 0q152 0 280.5 67.5t188.5 178.5l-242 71q-68 -102 -221 -102q-129 0 -206 61.5t-87 174.5h780q4 49 5 81q0 229 -142.5 370.5t-376.5 141.5q-229 0 -376.5 -147t-147.5 -377q0 -231 150.5 -375.5t394.5 -144.5zM350 592q2 100 78 167.5t184 67.5q113 0 187.5 -66.5 t72.5 -168.5h-522zM381 621h461q-8 74 -70.5 126t-159 52t-158 -53t-73.5 -125z" glyph-name="egrave" horiz-adv-x="1222" unicode="è"/><glyph d="M453 1204l153 291h357l-234 -291h-276zM500 1233h215l188 233h-280zM635 -29q-256 0 -415 152.5t-159 396.5q0 240 153 396.5t400 156.5q252 0 399.5 -153.5t147.5 -387.5q0 -63 -8 -110h-772q39 -178 260 -178q150 0 209 106l295 -86q-49 -113 -184.5 -203t-325.5 -90z M635 0q152 0 280.5 67.5t188.5 178.5l-242 71q-68 -102 -221 -102q-129 0 -206 61.5t-87 174.5h780q4 49 5 81q0 229 -142.5 370.5t-376.5 141.5q-229 0 -376.5 -147t-147.5 -377q0 -231 150.5 -375.5t394.5 -144.5zM350 592q2 100 78 167.5t184 67.5q113 0 187.5 -66.5 t72.5 -168.5h-522zM381 621h461q-8 74 -70.5 126t-159 52t-158 -53t-73.5 -125z" glyph-name="eacute" horiz-adv-x="1222" unicode="é"/><glyph d="M240 1188l223 307h307l223 -307h-286l-91 143l-90 -143h-286zM295 1217h215l96 151h21l96 -151h215l-182 249h-279zM635 -29q-256 0 -415 152.5t-159 396.5q0 240 153 396.5t400 156.5q252 0 399.5 -153.5t147.5 -387.5q0 -63 -8 -110h-772q39 -178 260 -178 q150 0 209 106l295 -86q-49 -113 -184.5 -203t-325.5 -90zM635 0q152 0 280.5 67.5t188.5 178.5l-242 71q-68 -102 -221 -102q-129 0 -206 61.5t-87 174.5h780q4 49 5 81q0 229 -142.5 370.5t-376.5 141.5q-229 0 -376.5 -147t-147.5 -377q0 -231 150.5 -375.5t394.5 -144.5 zM350 592q2 100 78 167.5t184 67.5q113 0 187.5 -66.5t72.5 -168.5h-522zM381 621h461q-8 74 -70.5 126t-159 52t-158 -53t-73.5 -125z" glyph-name="ecircumflex" horiz-adv-x="1222" unicode="ê"/><glyph d="M254 1306.5q0 65.5 46 110.5t111.5 45t112.5 -46t47 -109q0 -66 -47 -112t-112.5 -46t-111.5 46t-46 111.5zM659 1306.5q0 65.5 46.5 110.5t112 45t112.5 -46t47 -109q0 -66 -47 -112t-112.5 -46t-112 46t-46.5 111.5zM283 1306.5q0 -53.5 37.5 -91t91.5 -37.5 q55 0 93 37.5t38 91.5q0 51 -39 89t-92.5 38t-91 -37t-37.5 -90.5zM688 1306.5q0 -53.5 38 -91t91 -37.5q55 0 93 37.5t38 91.5q0 51 -39 89t-92 38t-91 -37t-38 -90.5zM635 -29q-256 0 -415 152.5t-159 396.5q0 240 153 396.5t400 156.5q252 0 399.5 -153.5t147.5 -387.5 q0 -63 -8 -110h-772q39 -178 260 -178q150 0 209 106l295 -86q-49 -113 -184.5 -203t-325.5 -90zM635 0q152 0 280.5 67.5t188.5 178.5l-242 71q-68 -102 -221 -102q-129 0 -206 61.5t-87 174.5h780q4 49 5 81q0 229 -142.5 370.5t-376.5 141.5q-229 0 -376.5 -147 t-147.5 -377q0 -231 150.5 -375.5t394.5 -144.5zM350 592q2 100 78 167.5t184 67.5q113 0 187.5 -66.5t72.5 -168.5h-522zM381 621h461q-8 74 -70.5 126t-159 52t-158 -53t-73.5 -125z" glyph-name="edieresis" horiz-adv-x="1222" unicode="ë"/><glyph d="M451 1204h-277l-233 291h356zM403 1233l-122 233h-281l188 -233h215zM123 0v1044h328v-1044h-328zM152 29h270v987h-270v-987z" glyph-name="igrave" horiz-adv-x="573" unicode="ì"/><glyph d="M123 1204l153 291h357l-234 -291h-276zM170 1233h215l188 233h-280zM123 0v1044h328v-1044h-328zM152 29h270v987h-270v-987z" glyph-name="iacute" horiz-adv-x="573" unicode="í"/><glyph d="M-90 1188l223 307h307l224 -307h-287l-90 143l-90 -143h-287zM-35 1217h215l96 151h21l96 -151h215l-182 249h-279zM123 0v1044h328v-1044h-328zM152 29h270v987h-270v-987z" glyph-name="icircumflex" horiz-adv-x="573" unicode="î"/><glyph d="M-63 1306.5q0 65.5 46 110.5t111.5 45t112.5 -46t47 -109q0 -66 -47 -112t-112.5 -46t-111.5 46t-46 111.5zM319 1306.5q0 65.5 46.5 110.5t112 45t112.5 -46t47 -109q0 -66 -47 -112t-112.5 -46t-112 46t-46.5 111.5zM-35 1306.5q0 -53.5 38 -91t91 -37.5q55 0 93 37.5 t38 91.5q0 51 -39 89t-92 38t-91 -37t-38 -90.5zM348 1306.5q0 -53.5 38 -91t91 -37.5q55 0 93 37.5t38 91.5q0 51 -39 89t-92 38t-91 -37t-38 -90.5zM123 0v1044h328v-1044h-328zM152 29h270v987h-270v-987z" glyph-name="idieresis" horiz-adv-x="573" unicode="ï"/><glyph d="M61 487q0 217 153 354.5t380 137.5q70 0 121 -16q-59 78 -123 145l-352 -88l-41 154l260 65q-104 90 -250 195h412q49 -39 102 -88l37 -31l297 74l41 -154l-207 -51q283 -311 283 -662q0 -246 -156 -398.5t-397 -152.5q-240 0 -400 147.5t-160 368.5zM90 487 q0 -209 151.5 -348t379.5 -139q231 0 377.5 145.5t146.5 376.5q0 356 -309 680l227 53l-27 99l-286 -72q-76 74 -140 123h-313q115 -84 225 -180l-289 -72l27 -98l340 86q106 -109 188 -238q-86 47 -194 47q-219 0 -361.5 -131t-142.5 -332zM371 485q0 106 70.5 174t179 68 t179 -67.5t70.5 -174.5q0 -109 -69.5 -176t-180 -67t-180 67t-69.5 176zM399 485q0 -94 60.5 -154.5t161 -60.5t161 60.5t60.5 154.5q0 92 -60.5 152.5t-161 60.5t-161 -60.5t-60.5 -152.5z" glyph-name="eth" horiz-adv-x="1234" unicode="ð"/><glyph d="M293 1176q0 319 213 319q66 0 174 -61q61 -35 80 -35q43 0 43 88h207q0 -319 -213 -320q-66 0 -174 62q-61 35 -80 35q-43 0 -43 -88h-207zM322 1204h151q6 88 70 88q27 0 102 -45q92 -51 152 -51q176 0 184 262h-152q-6 -88 -69 -88q-27 0 -103 45q-92 51 -151 51 q-176 0 -184 -262zM123 0v1044h328v-108q119 137 309 137q203 0 305 -125t102 -340v-608h-327v543q0 227 -187 227q-94 0 -148 -69.5t-54 -190.5v-510h-328zM152 29h270v481q0 133 62.5 211t168.5 78q102 0 158.5 -66.5t56.5 -189.5v-514h271v579q0 211 -98.5 323.5 t-280.5 112.5q-207 0 -338 -190v162h-270v-987z" glyph-name="ntilde" horiz-adv-x="1280" unicode="ñ"/><glyph d="M786 1204h-276l-234 291h357zM739 1233l-123 233h-280l188 -233h215zM61 522.5q0 235.5 159 393t402.5 157.5t402.5 -157.5t159 -393t-159 -393.5t-402.5 -158t-402.5 158t-159 393.5zM90 522.5q0 -225.5 151.5 -374t381 -148.5t381 148.5t151.5 374t-151.5 373.5 t-381 148t-381 -148t-151.5 -373.5zM350 522q0 127 76 206t196.5 79t196.5 -79t76 -206t-76 -205.5t-196.5 -78.5t-196.5 78.5t-76 205.5zM379 522.5q0 -112.5 66.5 -184.5t177 -72t177 72t66.5 184.5t-66.5 184t-177 71.5t-177 -71.5t-66.5 -184z" glyph-name="ograve" horiz-adv-x="1245" unicode="ò"/><glyph d="M459 1204l153 291h357l-234 -291h-276zM506 1233h215l188 233h-280zM61 522.5q0 235.5 159 393t402.5 157.5t402.5 -157.5t159 -393t-159 -393.5t-402.5 -158t-402.5 158t-159 393.5zM90 522.5q0 -225.5 151.5 -374t381 -148.5t381 148.5t151.5 374t-151.5 373.5 t-381 148t-381 -148t-151.5 -373.5zM350 522q0 127 76 206t196.5 79t196.5 -79t76 -206t-76 -205.5t-196.5 -78.5t-196.5 78.5t-76 205.5zM379 522.5q0 -112.5 66.5 -184.5t177 -72t177 72t66.5 184.5t-66.5 184t-177 71.5t-177 -71.5t-66.5 -184z" glyph-name="oacute" horiz-adv-x="1245" unicode="ó"/><glyph d="M246 1188l223 307h307l223 -307h-286l-90 143l-91 -143h-286zM301 1217h215l96 151h21l96 -151h215l-182 249h-279zM61 522.5q0 235.5 159 393t402.5 157.5t402.5 -157.5t159 -393t-159 -393.5t-402.5 -158t-402.5 158t-159 393.5zM90 522.5q0 -225.5 151.5 -374 t381 -148.5t381 148.5t151.5 374t-151.5 373.5t-381 148t-381 -148t-151.5 -373.5zM350 522q0 127 76 206t196.5 79t196.5 -79t76 -206t-76 -205.5t-196.5 -78.5t-196.5 78.5t-76 205.5zM379 522.5q0 -112.5 66.5 -184.5t177 -72t177 72t66.5 184.5t-66.5 184t-177 71.5 t-177 -71.5t-66.5 -184z" glyph-name="ocircumflex" horiz-adv-x="1245" unicode="ô"/><glyph d="M264 1176q0 319 213 319q66 0 174 -61q61 -35 80 -35q43 0 43 88h207q0 -319 -213 -320q-66 0 -174 62q-61 35 -80 35q-43 0 -43 -88h-207zM293 1204h151q6 88 70 88q27 0 102 -45q92 -51 152 -51q176 0 184 262h-151q-6 -88 -70 -88q-27 0 -102 45q-92 51 -152 51 q-176 0 -184 -262zM61 522.5q0 235.5 159 393t402.5 157.5t402.5 -157.5t159 -393t-159 -393.5t-402.5 -158t-402.5 158t-159 393.5zM90 522.5q0 -225.5 151.5 -374t381 -148.5t381 148.5t151.5 374t-151.5 373.5t-381 148t-381 -148t-151.5 -373.5zM350 522q0 127 76 206 t196.5 79t196.5 -79t76 -206t-76 -205.5t-196.5 -78.5t-196.5 78.5t-76 205.5zM379 522.5q0 -112.5 66.5 -184.5t177 -72t177 72t66.5 184.5t-66.5 184t-177 71.5t-177 -71.5t-66.5 -184z" glyph-name="otilde" horiz-adv-x="1245" unicode="õ"/><glyph d="M260 1306.5q0 65.5 46 110.5t111.5 45t113 -46t47.5 -109q0 -66 -47.5 -112t-113 -46t-111.5 46t-46 111.5zM666 1306.5q0 65.5 46 110.5t111.5 45t112.5 -46t47 -109q0 -66 -47 -112t-112.5 -46t-111.5 46t-46 111.5zM289 1306.5q0 -53.5 38 -91t91 -37.5q55 0 93 37.5 t38 91.5q0 51 -39 89t-92 38t-91 -37t-38 -90.5zM694 1306.5q0 -53.5 38 -91t91 -37.5q55 0 93 37.5t38 91.5q0 51 -38.5 89t-92 38t-91.5 -37t-38 -90.5zM61 522.5q0 235.5 159 393t402.5 157.5t402.5 -157.5t159 -393t-159 -393.5t-402.5 -158t-402.5 158t-159 393.5z M90 522.5q0 -225.5 151.5 -374t381 -148.5t381 148.5t151.5 374t-151.5 373.5t-381 148t-381 -148t-151.5 -373.5zM350 522q0 127 76 206t196.5 79t196.5 -79t76 -206t-76 -205.5t-196.5 -78.5t-196.5 78.5t-76 205.5zM379 522.5q0 -112.5 66.5 -184.5t177 -72t177 72 t66.5 184.5t-66.5 184t-177 71.5t-177 -71.5t-66.5 -184z" glyph-name="odieresis" horiz-adv-x="1245" unicode="ö"/><glyph d="M440 1102q0 59 45 103t108.5 44t109 -44t45.5 -103q0 -63 -45.5 -108.5t-109 -45.5t-108.5 45.5t-45 108.5zM469 1102q0 -51 37 -88t88 -37t88 37t37 88q0 47 -37 83t-88 36t-88 -36t-37 -83zM113 590v256h962v-256h-962zM141 618h906v199h-906v-199zM440 340 q0 59 45 103t108.5 44t109 -44t45.5 -103q0 -63 -45.5 -108.5t-109 -45.5t-108.5 45.5t-45 108.5zM469 340q0 -51 37 -88t88 -37t88 37t37 88q0 47 -37 83t-88 36t-88 -36t-37 -83z" glyph-name="divide" horiz-adv-x="1187" unicode="÷"/><glyph d="M61 522q0 236 159 393.5t403 157.5q137 0 254 -55l41 57h184l-98 -139q180 -160 180 -414q0 -236 -159 -393.5t-402 -157.5q-137 0 -254 56l-41 -58h-185l99 140q-181 159 -181 413zM90 522q0 -254 191 -409l-82 -115h114l47 65q121 -63 263 -63q229 0 380.5 148.5 t151.5 373.5q0 254 -190 410l82 115h-115l-47 -66q-121 63 -262 63q-229 0 -381 -148.5t-152 -373.5zM350 522q0 127 76 206t197 79q72 0 122 -29l-321 -459q-74 78 -74 203zM379 522q0 -90 43 -155l280 399q-37 12 -79 12q-111 0 -177.5 -71.5t-66.5 -184.5zM500 266 l321 459q74 -78 74 -203q0 -127 -76 -205.5t-196 -78.5q-72 -1 -123 28zM543 279q37 -12 80 -13q111 0 177 72t66 184q0 92 -43 156z" glyph-name="oslash" horiz-adv-x="1245" unicode="ø"/><glyph d="M803 1204h-277l-233 291h356zM756 1233l-123 233h-281l189 -233h215zM113 436v608h327v-542q0 -227 187 -228q94 0 148 70t54 191v509h328v-1044h-328v109q-119 -137 -309 -138q-203 0 -305 125t-102 340zM141 436q0 -211 98.5 -323.5t280.5 -112.5q209 0 338 190v-161 h270v987h-270v-481q0 -133 -62.5 -211t-168.5 -78q-102 0 -158.5 66.5t-56.5 189.5v514h-271v-580z" glyph-name="ugrave" horiz-adv-x="1280" unicode="ù"/><glyph d="M475 1204l154 291h356l-233 -291h-277zM522 1233h215l189 233h-281zM113 436v608h327v-542q0 -227 187 -228q94 0 148 70t54 191v509h328v-1044h-328v109q-119 -137 -309 -138q-203 0 -305 125t-102 340zM141 436q0 -211 98.5 -323.5t280.5 -112.5q209 0 338 190v-161 h270v987h-270v-481q0 -133 -62.5 -211t-168.5 -78q-102 0 -158.5 66.5t-56.5 189.5v514h-271v-580z" glyph-name="uacute" horiz-adv-x="1280" unicode="ú"/><glyph d="M262 1188l223 307h308l223 -307h-287l-90 143l-90 -143h-287zM317 1217h215l97 151h20l96 -151h216l-183 249h-278zM113 436v608h327v-542q0 -227 187 -228q94 0 148 70t54 191v509h328v-1044h-328v109q-119 -137 -309 -138q-203 0 -305 125t-102 340zM141 436 q0 -211 98.5 -323.5t280.5 -112.5q209 0 338 190v-161h270v987h-270v-481q0 -133 -62.5 -211t-168.5 -78q-102 0 -158.5 66.5t-56.5 189.5v514h-271v-580z" glyph-name="ucircumflex" horiz-adv-x="1280" unicode="û"/><glyph d="M276 1306.5q0 65.5 46.5 110.5t112 45t112.5 -46t47 -109q0 -66 -47 -112t-112.5 -46t-112 46t-46.5 111.5zM682 1306.5q0 65.5 46 110.5t111.5 45t112.5 -46t47 -109q0 -66 -47 -112t-112.5 -46t-111.5 46t-46 111.5zM305 1306.5q0 -53.5 38 -91t91 -37.5q55 0 93 37.5 t38 91.5q0 51 -39 89t-92 38t-91 -37t-38 -90.5zM711 1306.5q0 -53.5 37.5 -91t91.5 -37.5q55 0 93 37.5t38 91.5q0 51 -39 89t-92.5 38t-91 -37t-37.5 -90.5zM113 436v608h327v-542q0 -227 187 -228q94 0 148 70t54 191v509h328v-1044h-328v109q-119 -137 -309 -138 q-203 0 -305 125t-102 340zM141 436q0 -211 98.5 -323.5t280.5 -112.5q209 0 338 190v-161h270v987h-270v-481q0 -133 -62.5 -211t-168.5 -78q-102 0 -158.5 66.5t-56.5 189.5v514h-271v-580z" glyph-name="udieresis" horiz-adv-x="1280" unicode="ü"/><glyph d="M463 1204l153 291h357l-234 -291h-276zM510 1233h215l188 233h-280zM0 1044h358l273 -636l256 636h350l-621 -1474h-333l186 455zM45 1016l455 -991l-174 -426h272l596 1417h-289l-274 -682l-291 682h-295z" glyph-name="yacute" horiz-adv-x="1236" unicode="ý"/><glyph d="M123 -430v1925h328v-547q115 125 301 125q213 0 360.5 -157.5t147.5 -393t-147.5 -393.5t-360.5 -158q-182 0 -301 125v-526h-328zM152 -401h270v573q129 -172 330 -172q205 0 342 149.5t137 372.5t-137.5 372.5t-341.5 149.5q-203 0 -330 -172v594h-270v-1867zM414 524 q0 125 78.5 206t199.5 81q119 0 196 -80t77 -207t-77 -209t-196 -82q-121 0 -199.5 82t-78.5 209zM442 524q0 -117 71 -189.5t179 -72.5q106 0 175 73t69 189q0 115 -68.5 186.5t-175.5 71.5q-109 0 -179.5 -71.5t-70.5 -186.5z" glyph-name="thorn" horiz-adv-x="1320" unicode="þ"/><glyph d="M264 1306.5q0 65.5 46 110.5t111.5 45t113 -46t47.5 -109q0 -66 -47.5 -112t-113 -46t-111.5 46t-46 111.5zM670 1306.5q0 65.5 46 110.5t111.5 45t112.5 -46t47 -109q0 -66 -47 -112t-112.5 -46t-111.5 46t-46 111.5zM293 1306.5q0 -53.5 38 -91t91 -37.5q55 0 93 37.5 t38 91.5q0 51 -39 89t-92 38t-91 -37t-38 -90.5zM698 1306.5q0 -53.5 38 -91t91 -37.5q55 0 93 37.5t38 91.5q0 51 -38.5 89t-92 38t-91.5 -37t-38 -90.5zM0 1044h358l273 -636l256 636h350l-621 -1474h-333l186 455zM45 1016l455 -991l-174 -426h272l596 1417h-289 l-274 -682l-291 682h-295z" glyph-name="ydieresis" horiz-adv-x="1236" unicode="ÿ"/><glyph d="M446 1593v226h615v-226h-615zM475 1622h557v168h-557v-168zM0 0l530 1434h447l530 -1434h-350l-100 274h-606l-101 -274h-350zM41 29h289l100 274h647l101 -274h288l-510 1376h-405zM518 543l223 614h25l223 -614h-471zM559 571h389l-194 537z" glyph-name="Amacron" unicode="Ā"/><glyph d="M336 1204v226h614v-226h-614zM365 1233h557v168h-557v-168zM61 522.5q0 235.5 147.5 393t360.5 157.5q186 0 301 -125v96h328v-1044h-328v96q-119 -125 -301 -125q-213 0 -360.5 158t-147.5 393.5zM90 522q0 -223 137.5 -372.5t341.5 -149.5q199 0 330 174v-145h270v987 h-270v-144q-125 172 -329.5 172t-342 -149.5t-137.5 -372.5zM356 524q0 127 77 207t196 80q121 0 199.5 -81t78.5 -206q0 -127 -78.5 -209t-199.5 -82q-119 0 -196 82t-77 209zM385 524q0 -117 68.5 -189.5t175.5 -72.5q109 0 179.5 73t70.5 189q0 115 -71 186.5t-179 71.5 q-106 0 -175 -71.5t-69 -186.5z" glyph-name="amacron" horiz-adv-x="1320" unicode="ā"/><glyph d="M395 1866h248q0 -121 110.5 -121t110.5 121h248q0 -137 -91 -226.5t-267 -89.5t-267.5 89.5t-91.5 226.5zM426 1837q10 -121 97 -189.5t230.5 -68.5t230.5 68.5t97 189.5h-190q-16 -121 -137 -121t-138 121h-190zM0 0l530 1434h447l530 -1434h-350l-100 274h-606 l-101 -274h-350zM41 29h289l100 274h647l101 -274h288l-510 1376h-405zM518 543l223 614h25l223 -614h-471zM559 571h389l-194 537z" glyph-name="Abreve" unicode="Ă"/><glyph d="M285 1477h247q0 -121 111 -121t111 121h247q0 -137 -91 -226.5t-267 -89.5t-267 89.5t-91 226.5zM315 1448q10 -121 97.5 -189.5t230.5 -68.5t230.5 68.5t97.5 189.5h-191q-16 -121 -137 -121t-137 121h-191zM61 522.5q0 235.5 147.5 393t360.5 157.5q186 0 301 -125v96 h328v-1044h-328v96q-119 -125 -301 -125q-213 0 -360.5 158t-147.5 393.5zM90 522q0 -223 137.5 -372.5t341.5 -149.5q199 0 330 174v-145h270v987h-270v-144q-125 172 -329.5 172t-342 -149.5t-137.5 -372.5zM356 524q0 127 77 207t196 80q121 0 199.5 -81t78.5 -206 q0 -127 -78.5 -209t-199.5 -82q-119 0 -196 82t-77 209zM385 524q0 -117 68.5 -189.5t175.5 -72.5q109 0 179.5 73t70.5 189q0 115 -71 186.5t-179 71.5q-106 0 -175 -71.5t-69 -186.5z" glyph-name="abreve" horiz-adv-x="1320" unicode="ă"/><glyph d="M0 0l530 1434h447l530 -1434q-61 -45 -102 -101.5t-41 -91.5q0 -57 57 -57q72 0 119 60l53 -168q-31 -41 -95 -71t-142 -30q-98 0 -164 57.5t-66 149.5q0 133 150 252h-119l-100 274h-606l-101 -274h-350zM41 29h289l100 274h647l101 -274h147l8 -21q-178 -127 -178 -260 q0 -78 56.5 -128t144.5 -50q133 0 205 78l-35 110q-47 -37 -105 -37q-41 0 -63.5 23t-22.5 63q0 39 39 96.5t99 106.5l-517 1395h-405zM518 543l223 614h25l223 -614h-471zM559 571h389l-194 537z" glyph-name="Aogonek" unicode="Ą"/><glyph d="M1241 -223l43 -135q-31 -41 -95.5 -71t-141.5 -30q-98 0 -164 57.5t-66 149.5q0 133 150 252h-97v96q-119 -125 -301 -125q-213 0 -360.5 158t-147.5 393.5t147.5 393t360.5 157.5q186 0 301 -125v96h328v-1044q-61 -45 -102 -101.5t-41 -91.5q0 -57 57 -57q49 0 96 37 l-4 14l17 -4l10 13l4 -15l18 -4q-8 -8 -12 -14zM1047 -430q133 0 204 78l-34 110q-51 -37 -105 -37q-39 0 -62.5 23t-23.5 63.5t41 99t102 107.5v1002h-270v-144q-125 172 -329.5 172t-342 -149.5t-137.5 -372.5t137.5 -372.5t341.5 -149.5q199 0 330 172v-143h125v-21 q-178 -125 -178 -260q0 -78 56.5 -128t144.5 -50zM629 811q121 0 199.5 -81t78.5 -206q0 -127 -78.5 -209t-199.5 -82q-119 0 -196 82t-77 209t77 207t196 80zM629 262q109 0 179.5 73t70.5 189q0 115 -71 186.5t-179 71.5q-106 0 -175 -71.5t-69 -186.5q0 -117 69 -189.5 t175 -72.5z" glyph-name="aogonek" horiz-adv-x="1320" unicode="ą"/><glyph d="M657 1593l154 291h356l-233 -291h-277zM705 1622h215l188 233h-281zM68 717q0 317 215 531t536 214q285 0 470.5 -145.5t232.5 -335.5l-332 -82q-29 98 -129 171t-240 73q-182 0 -293.5 -123t-111.5 -301q0 -176 112.5 -302t292.5 -126q141 0 240.5 70.5t128.5 168.5 l332 -84q-47 -188 -231.5 -331.5t-465.5 -143.5q-326 0 -541.5 213.5t-215.5 532.5zM96 717q0 -307 208 -512t521 -205q238 0 420 119t242 307l-279 70q-41 -104 -147.5 -169t-239.5 -65q-186 0 -310 131t-124 326q0 197 123 324.5t311 127.5q131 0 238.5 -66.5 t148.5 -170.5l279 67q-59 190 -244.5 311.5t-423.5 121.5q-309 0 -516 -205t-207 -512z" glyph-name="Cacute" horiz-adv-x="1583" unicode="Ć"/><glyph d="M453 1204l153 291h357l-234 -291h-276zM500 1233h215l188 233h-280zM61 522.5q0 235.5 158 393t397 157.5q209 0 349.5 -108.5t173.5 -245.5l-303 -86q-14 61 -74 106t-144 45q-106 0 -171.5 -75.5t-65.5 -184t65.5 -186.5t171.5 -78q84 0 143.5 44t74.5 104l303 -86 q-33 -137 -172.5 -244t-345.5 -107q-242 0 -401 158t-159 393.5zM90 522q0 -225 150.5 -373.5t380.5 -148.5q170 0 305 85t178 216l-250 72q-27 -63 -91.5 -102.5t-144.5 -39.5q-113 0 -189.5 84t-76.5 209t76 207t190 82q78 0 143.5 -41t92.5 -104l250 71 q-43 133 -179.5 219t-308.5 86q-225 0 -375.5 -149.5t-150.5 -372.5z" glyph-name="cacute" horiz-adv-x="1189" unicode="ć"/><glyph d="M643 1726q0 72 52.5 123.5t126 51.5t125.5 -51.5t52 -123.5q0 -74 -52 -125t-125.5 -51t-126 51t-52.5 125zM672 1726q0 -61 43 -104t106.5 -43t106.5 43t43 104q0 59 -44 102.5t-105.5 43.5t-105.5 -43.5t-44 -102.5zM68 717q0 317 215 531t536 214q285 0 470.5 -145.5 t232.5 -335.5l-332 -82q-29 98 -129 171t-240 73q-182 0 -293.5 -123t-111.5 -301q0 -176 112.5 -302t292.5 -126q141 0 240.5 70.5t128.5 168.5l332 -84q-47 -188 -231.5 -331.5t-465.5 -143.5q-326 0 -541.5 213.5t-215.5 532.5zM96 717q0 -307 208 -512t521 -205 q238 0 420 119t242 307l-279 70q-41 -104 -147.5 -169t-239.5 -65q-186 0 -310 131t-124 326q0 197 123 324.5t311 127.5q131 0 238.5 -66.5t148.5 -170.5l279 67q-59 190 -244.5 311.5t-423.5 121.5q-309 0 -516 -205t-207 -512z" glyph-name="Cdotaccent" horiz-adv-x="1583" unicode="Ċ"/><glyph d="M438 1337q0 72 52.5 123t126 51t126 -51t52.5 -123q0 -74 -52.5 -125t-126 -51t-126 51t-52.5 125zM467 1337q0 -61 43 -104t106.5 -43t106.5 43t43 104q0 59 -44 102.5t-105.5 43.5t-105.5 -43.5t-44 -102.5zM61 522.5q0 235.5 158 393t397 157.5q209 0 349.5 -108.5 t173.5 -245.5l-303 -86q-14 61 -74 106t-144 45q-106 0 -171.5 -75.5t-65.5 -184t65.5 -186.5t171.5 -78q84 0 143.5 44t74.5 104l303 -86q-33 -137 -172.5 -244t-345.5 -107q-242 0 -401 158t-159 393.5zM90 522q0 -225 150.5 -373.5t380.5 -148.5q170 0 305 85t178 216 l-250 72q-27 -63 -91.5 -102.5t-144.5 -39.5q-113 0 -189.5 84t-76.5 209t76 207t190 82q78 0 143.5 -41t92.5 -104l250 71q-43 133 -179.5 219t-308.5 86q-225 0 -375.5 -149.5t-150.5 -372.5z" glyph-name="cdotaccent" horiz-adv-x="1189" unicode="ċ"/><glyph d="M444 1884h287l90 -143l90 143h287l-223 -307h-307zM500 1855l182 -249h279l182 249h-215l-97 -151h-20l-96 151h-215zM68 717q0 317 215 531t536 214q285 0 470.5 -145.5t232.5 -335.5l-332 -82q-29 98 -129 171t-240 73q-182 0 -293.5 -123t-111.5 -301 q0 -176 112.5 -302t292.5 -126q141 0 240.5 70.5t128.5 168.5l332 -84q-47 -188 -231.5 -331.5t-465.5 -143.5q-326 0 -541.5 213.5t-215.5 532.5zM96 717q0 -307 208 -512t521 -205q238 0 420 119t242 307l-279 70q-41 -104 -147.5 -169t-239.5 -65q-186 0 -310 131 t-124 326q0 197 123 324.5t311 127.5q131 0 238.5 -66.5t148.5 -170.5l279 67q-59 190 -244.5 311.5t-423.5 121.5q-309 0 -516 -205t-207 -512z" glyph-name="Ccaron" horiz-adv-x="1583" unicode="Č"/><glyph d="M240 1495h286l90 -143l91 143h286l-223 -307h-307zM295 1466l182 -249h279l182 249h-215l-96 -151h-21l-96 151h-215zM61 522.5q0 235.5 158 393t397 157.5q209 0 349.5 -108.5t173.5 -245.5l-303 -86q-14 61 -74 106t-144 45q-106 0 -171.5 -75.5t-65.5 -184 t65.5 -186.5t171.5 -78q84 0 143.5 44t74.5 104l303 -86q-33 -137 -172.5 -244t-345.5 -107q-242 0 -401 158t-159 393.5zM90 522q0 -225 150.5 -373.5t380.5 -148.5q170 0 305 85t178 216l-250 72q-27 -63 -91.5 -102.5t-144.5 -39.5q-113 0 -189.5 84t-76.5 209t76 207 t190 82q78 0 143.5 -41t92.5 -104l250 71q-43 133 -179.5 219t-308.5 86q-225 0 -375.5 -149.5t-150.5 -372.5z" glyph-name="ccaron" horiz-adv-x="1189" unicode="č"/><glyph d="M340 1884h287l90 -143l90 143h287l-224 -307h-307zM395 1855l183 -249h278l182 249h-215l-96 -151h-20l-97 151h-215zM123 0v1434h661q303 0 490.5 -199t187.5 -518q0 -315 -186 -516t-492 -201h-661zM152 29h632q289 0 469.5 190.5t180.5 497.5t-179.5 497.5 t-470.5 190.5h-632v-1376zM430 276v881h346q164 0 267.5 -121t103.5 -313q0 -195 -104.5 -321t-266.5 -126h-346zM459 305h317q147 0 244.5 116t97.5 302q0 184 -97 294.5t-245 110.5h-317v-823z" glyph-name="Dcaron" horiz-adv-x="1529" unicode="Ď"/><glyph d="M61 522.5q0 235.5 147.5 393t360.5 157.5q186 0 301 -125v547h328v-1495h-328v96q-119 -125 -301 -125q-213 0 -360.5 158t-147.5 393.5zM1303 1061l26 434h293l-68 -434h-251zM90 522q0 -223 137.5 -372.5t341.5 -149.5q203 0 330 174v-145h270v1437h-270v-594 q-125 172 -329.5 172t-342 -149.5t-137.5 -372.5zM1333 1090h197l59 376h-233zM356 524q0 127 77 207t196 80q121 0 199.5 -81t78.5 -206q0 -127 -78.5 -209t-199.5 -82q-119 0 -196 82t-77 209zM385 524q0 -117 68.5 -189.5t175.5 -72.5q109 0 179.5 73t70.5 189 q0 115 -71 186.5t-179 71.5q-106 0 -175 -71.5t-69 -186.5z" glyph-name="dcaron" horiz-adv-x="1601" unicode="ď"/><glyph d="M41 563v287h143v584h662q303 0 490.5 -199t187.5 -518q0 -315 -186.5 -516t-491.5 -201h-662v563h-143zM70 592h143v-563h633q289 0 469 190.5t180 497.5t-179 497.5t-470 190.5h-633v-584h-143v-229zM492 276v316h299v229h-299v336h346q164 0 267 -121t103 -313 q0 -195 -104.5 -321t-265.5 -126h-346zM520 305h318q147 0 244.5 116t97.5 302q0 184 -97.5 294.5t-244.5 110.5h-318v-278h299v-287h-299v-258z" glyph-name="Dcroat" horiz-adv-x="1591" unicode="Đ"/><glyph d="M61 522.5q0 235.5 147.5 393t360.5 157.5q186 0 301 -125v209h-299v184h299v154h328v-154h131v-184h-131v-1157h-328v96q-119 -125 -301 -125q-213 0 -360.5 158t-147.5 393.5zM90 522q0 -223 137.5 -372.5t341.5 -149.5q199 0 330 174v-145h270v1157h131v127h-131v153 h-270v-153h-299v-127h299v-316q-127 174 -330 174q-205 0 -342 -149.5t-137 -372.5zM356 524q0 127 77 207t196 80q121 0 199.5 -81t78.5 -206q0 -127 -78.5 -209t-199.5 -82q-119 0 -196 82t-77 209zM385 524q0 -117 68.5 -189.5t175.5 -72.5q109 0 179.5 73t70.5 189 q0 115 -71 186.5t-179 71.5q-106 0 -175 -71.5t-69 -186.5z" glyph-name="dcroat" horiz-adv-x="1329" unicode="đ"/><glyph d="M350 1593v226h615v-226h-615zM379 1622h557v168h-557v-168zM123 0v1434h1079v-308h-747v-249h643v-297h-643v-273h745v-307h-1077zM152 29h1019v250h-745v329h643v240h-643v307h748v250h-1022v-1376z" glyph-name="Emacron" horiz-adv-x="1284" unicode="Ē"/><glyph d="M309 1204v226h615v-226h-615zM338 1233h557v168h-557v-168zM635 -29q-256 0 -415 152.5t-159 396.5q0 240 153 396.5t400 156.5q252 0 399.5 -153.5t147.5 -387.5q0 -63 -8 -110h-772q39 -178 260 -178q150 0 209 106l295 -86q-49 -113 -184.5 -203t-325.5 -90zM635 0 q152 0 280.5 67.5t188.5 178.5l-242 71q-68 -102 -221 -102q-129 0 -206 61.5t-87 174.5h780q4 49 5 81q0 229 -142.5 370.5t-376.5 141.5q-229 0 -376.5 -147t-147.5 -377q0 -231 150.5 -375.5t394.5 -144.5zM350 592q2 100 78 167.5t184 67.5q113 0 187.5 -66.5 t72.5 -168.5h-522zM381 621h461q-8 74 -70.5 126t-159 52t-158 -53t-73.5 -125z" glyph-name="emacron" horiz-adv-x="1222" unicode="ē"/><glyph d="M479 1726q0 72 52.5 123.5t126 51.5t126 -51.5t52.5 -123.5q0 -74 -52.5 -125t-126 -51t-126 51t-52.5 125zM508 1726q0 -61 43 -104t106.5 -43t106.5 43t43 104q0 59 -44 102.5t-105.5 43.5t-105.5 -43.5t-44 -102.5zM123 0v1434h1079v-308h-747v-249h643v-297h-643 v-273h745v-307h-1077zM152 29h1019v250h-745v329h643v240h-643v307h748v250h-1022v-1376z" glyph-name="Edotaccent" horiz-adv-x="1284" unicode="Ė"/><glyph d="M438 1337q0 72 52.5 123t126 51t126 -51t52.5 -123q0 -74 -52.5 -125t-126 -51t-126 51t-52.5 125zM467 1337q0 -61 43 -104t106.5 -43t106.5 43t43 104q0 59 -44 102.5t-105.5 43.5t-105.5 -43.5t-44 -102.5zM635 -29q-256 0 -415 152.5t-159 396.5q0 240 153 396.5 t400 156.5q252 0 399.5 -153.5t147.5 -387.5q0 -63 -8 -110h-772q39 -178 260 -178q150 0 209 106l295 -86q-49 -113 -184.5 -203t-325.5 -90zM635 0q152 0 280.5 67.5t188.5 178.5l-242 71q-68 -102 -221 -102q-129 0 -206 61.5t-87 174.5h780q4 49 5 81 q0 229 -142.5 370.5t-376.5 141.5q-229 0 -376.5 -147t-147.5 -377q0 -231 150.5 -375.5t394.5 -144.5zM350 592q2 100 78 167.5t184 67.5q113 0 187.5 -66.5t72.5 -168.5h-522zM381 621h461q-8 74 -70.5 126t-159 52t-158 -53t-73.5 -125z" glyph-name="edotaccent" horiz-adv-x="1222" unicode="ė"/><glyph d="M123 0v1434h1079v-308h-747v-249h643v-297h-643v-273h745v-307q-61 -45 -102 -101.5t-41 -91.5q0 -57 57 -57q72 0 119 60l53 -168q-31 -41 -95.5 -71t-141.5 -30q-98 0 -164 57.5t-66 149.5q0 133 150 252h-846zM152 29h876v-21q-180 -127 -180 -260q0 -78 56.5 -128 t144.5 -50q133 0 204 78l-34 110q-47 -37 -105 -37q-41 0 -63.5 23t-22.5 63.5t41 99t102 107.5v265h-745v329h643v240h-643v307h748v250h-1022v-1376z" glyph-name="Eogonek" horiz-adv-x="1284" unicode="Ę"/><glyph d="M61 520q0 240 153 396.5t400 156.5q252 0 399.5 -153.5t147.5 -387.5q0 -61 -8 -108h-772q37 -180 260 -180q147 0 207 106l295 -86q-49 -127 -193 -215q-74 -61 -120 -126.5t-46 -110.5q0 -61 58 -62q72 0 119 60l53 -168q-31 -41 -95.5 -71t-142.5 -30 q-98 0 -163.5 57.5t-65.5 149.5q0 123 115 223h-27q-256 0 -415 152.5t-159 396.5zM90 520q0 -231 150.5 -375.5t394.5 -144.5q49 0 94 6l4 -14q-158 -111 -158 -244q0 -78 56.5 -128t144.5 -50q133 0 205 78l-35 110q-51 -37 -104 -37q-39 0 -62.5 25t-23.5 66 q0 53 49 124.5t129 135.5q121 76 170 174l-244 71q-68 -102 -219 -102q-129 0 -206 61.5t-87 176.5h780q4 45 5 79q0 229 -142.5 370.5t-376.5 141.5q-229 0 -376.5 -147.5t-147.5 -376.5zM350 592q2 100 78 167.5t184 67.5q113 0 187.5 -66.5t72.5 -168.5h-522zM381 621 h461q-8 74 -70.5 126t-159 52t-158 -53t-73.5 -125z" glyph-name="eogonek" horiz-adv-x="1222" unicode="ę"/><glyph d="M281 1884h286l90 -143l91 143h286l-223 -307h-307zM336 1855l182 -249h279l182 249h-215l-96 -151h-21l-96 151h-215zM123 0v1434h1079v-308h-747v-249h643v-297h-643v-273h745v-307h-1077zM152 29h1019v250h-745v329h643v240h-643v307h748v250h-1022v-1376z" glyph-name="Ecaron" horiz-adv-x="1284" unicode="Ě"/><glyph d="M240 1495h286l90 -143l91 143h286l-223 -307h-307zM295 1466l182 -249h279l182 249h-215l-96 -151h-21l-96 151h-215zM635 -29q-256 0 -415 152.5t-159 396.5q0 240 153 396.5t400 156.5q252 0 399.5 -153.5t147.5 -387.5q0 -63 -8 -110h-772q39 -178 260 -178 q150 0 209 106l295 -86q-49 -113 -184.5 -203t-325.5 -90zM635 0q152 0 280.5 67.5t188.5 178.5l-242 71q-68 -102 -221 -102q-129 0 -206 61.5t-87 174.5h780q4 49 5 81q0 229 -142.5 370.5t-376.5 141.5q-229 0 -376.5 -147t-147.5 -377q0 -231 150.5 -375.5t394.5 -144.5 zM350 592q2 100 78 167.5t184 67.5q113 0 187.5 -66.5t72.5 -168.5h-522zM381 621h461q-8 74 -70.5 126t-159 52t-158 -53t-73.5 -125z" glyph-name="ecaron" horiz-adv-x="1222" unicode="ě"/><glyph d="M471 1866h248q0 -121 110.5 -121t110.5 121h248q0 -137 -91 -226.5t-267.5 -89.5t-267.5 89.5t-91 226.5zM502 1837q10 -121 97 -189.5t230.5 -68.5t230.5 68.5t97 189.5h-190q-16 -121 -137 -121t-138 121h-190zM68 716.5q0 317.5 217 531.5t538 214q260 0 443.5 -127 t255.5 -317l-316 -90q-113 215 -379 215q-182 0 -298.5 -123t-116.5 -301t119.5 -305t334.5 -127q145 0 234.5 69.5t111.5 167.5l-376 -2v293h733v-170q0 -295 -201 -484.5t-528 -189.5q-334 0 -553 214t-219 531.5zM96 717q0 -307 212 -512t532 -205q311 0 505.5 179 t194.5 466v141h-676v-235l383 2q-14 -131 -120.5 -213t-260.5 -82q-215 0 -349 129t-134 332q0 195 127 323.5t317 128.5q272 0 394 -208l262 73q-78 182 -255 290t-405 108q-309 0 -518 -206t-209 -511z" glyph-name="Gbreve" horiz-adv-x="1636" unicode="Ğ"/><glyph d="M287 1477h248q0 -121 110.5 -121t110.5 121h248q0 -137 -91.5 -226.5t-267.5 -89.5t-267 89.5t-91 226.5zM317 1448q10 -121 97.5 -189.5t230.5 -68.5t230.5 68.5t97.5 189.5h-191q-16 -121 -137 -121t-137 121h-191zM61 543q0 238 143.5 384t366.5 146q174 0 289 -125 v96h328v-1005q0 -221 -149.5 -359.5t-399.5 -138.5q-356 0 -506 273l283 102q70 -109 231 -109q104 0 158.5 63.5t54.5 166.5v100q-115 -125 -289 -125q-221 0 -365.5 153t-144.5 378zM90 543q0 -215 137.5 -358.5t343.5 -143.5q190 0 318 176v-180q0 -119 -64.5 -188.5 t-177.5 -69.5q-162 0 -241 102l-230 -82q143 -229 463 -229q236 0 378 129t142 340v977h-270v-148q-127 176 -318 176q-213 0 -347 -139t-134 -362zM356 543q0 119 76 192.5t197 73.5t194.5 -73.5t73.5 -192.5t-73.5 -193t-194.5 -74t-197 74t-76 193zM385 542.5 q0 -106.5 67.5 -172t176 -65.5t174 65.5t65.5 172t-65.5 172t-174 65.5t-176 -65.5t-67.5 -172z" glyph-name="gbreve" horiz-adv-x="1310" unicode="ğ"/><glyph d="M651 1726q0 72 52.5 123.5t126 51.5t126 -51.5t52.5 -123.5q0 -74 -52.5 -125t-126 -51t-126 51t-52.5 125zM680 1726q0 -61 43 -104t106.5 -43t106.5 43t43 104q0 59 -44 102.5t-105.5 43.5t-105.5 -43.5t-44 -102.5zM68 716.5q0 317.5 217 531.5t538 214 q260 0 443.5 -127t255.5 -317l-316 -90q-113 215 -379 215q-182 0 -298.5 -123t-116.5 -301t119.5 -305t334.5 -127q145 0 234.5 69.5t111.5 167.5l-376 -2v293h733v-170q0 -295 -201 -484.5t-528 -189.5q-334 0 -553 214t-219 531.5zM96 717q0 -307 212 -512t532 -205 q311 0 505.5 179t194.5 466v141h-676v-235l383 2q-14 -131 -120.5 -213t-260.5 -82q-215 0 -349 129t-134 332q0 195 127 323.5t317 128.5q272 0 394 -208l262 73q-78 182 -255 290t-405 108q-309 0 -518 -206t-209 -511z" glyph-name="Gdotaccent" horiz-adv-x="1636" unicode="Ġ"/><glyph d="M467 1337q0 72 52 123t126 51t126 -51t52 -123q0 -74 -52 -125t-126 -51t-126 51t-52 125zM496 1337q0 -61 43 -104t106.5 -43t106.5 43t43 104q0 59 -44 102.5t-105.5 43.5t-105.5 -43.5t-44 -102.5zM61 543q0 238 143.5 384t366.5 146q174 0 289 -125v96h328v-1005 q0 -221 -149.5 -359.5t-399.5 -138.5q-356 0 -506 273l283 102q70 -109 231 -109q104 0 158.5 63.5t54.5 166.5v100q-115 -125 -289 -125q-221 0 -365.5 153t-144.5 378zM90 543q0 -215 137.5 -358.5t343.5 -143.5q190 0 318 176v-180q0 -119 -64.5 -188.5t-177.5 -69.5 q-162 0 -241 102l-230 -82q143 -229 463 -229q236 0 378 129t142 340v977h-270v-148q-127 176 -318 176q-213 0 -347 -139t-134 -362zM356 543q0 119 76 192.5t197 73.5t194.5 -73.5t73.5 -192.5t-73.5 -193t-194.5 -74t-197 74t-76 193zM385 542.5q0 -106.5 67.5 -172 t176 -65.5t174 65.5t65.5 172t-65.5 172t-174 65.5t-176 -65.5t-67.5 -172z" glyph-name="gdotaccent" horiz-adv-x="1310" unicode="ġ"/><glyph d="M68 716.5q0 317.5 217 531.5t538 214q260 0 443.5 -127t255.5 -317l-316 -90q-113 215 -379 215q-182 0 -298.5 -123t-116.5 -301t119.5 -305t334.5 -127q145 0 234.5 69.5t111.5 167.5l-376 -2v293h733v-170q0 -295 -201 -484.5t-528 -189.5q-334 0 -553 214t-219 531.5 zM96 717q0 -307 212 -512t532 -205q311 0 505.5 179t194.5 466v141h-676v-235l383 2q-14 -131 -120.5 -213t-260.5 -82q-215 0 -349 129t-134 332q0 195 127 323.5t317 128.5q272 0 394 -208l262 73q-78 182 -255 290t-405 108q-309 0 -518 -206t-209 -511zM672 -553l26 430 h293l-67 -430h-252zM702 -524h197l59 372h-233z" glyph-name="Gcommaaccent" horiz-adv-x="1636" unicode="Ģ"/><glyph d="M815 1647l-27 -430h-292l67 430h252zM784 1618h-196l-60 -373h234zM61 543q0 238 143.5 384t366.5 146q174 0 289 -125v96h328v-1005q0 -221 -149.5 -359.5t-399.5 -138.5q-356 0 -506 273l283 102q70 -109 231 -109q104 0 158.5 63.5t54.5 166.5v100 q-115 -125 -289 -125q-221 0 -365.5 153t-144.5 378zM90 543q0 -215 137.5 -358.5t343.5 -143.5q190 0 318 176v-180q0 -119 -64.5 -188.5t-177.5 -69.5q-162 0 -241 102l-230 -82q143 -229 463 -229q236 0 378 129t142 340v977h-270v-148q-127 176 -318 176 q-213 0 -347 -139t-134 -362zM356 543q0 119 76 192.5t197 73.5t194.5 -73.5t73.5 -192.5t-73.5 -193t-194.5 -74t-197 74t-76 193zM385 542.5q0 -106.5 67.5 -172t176 -65.5t174 65.5t65.5 172t-65.5 172t-174 65.5t-176 -65.5t-67.5 -172z" glyph-name="gcommaaccent" horiz-adv-x="1310" unicode="ģ"/><glyph d="M20 1053v204h138v177h340v-177h565v177h340v-177h133v-204h-133v-1053h-340v575h-565v-575h-340v1053h-138zM49 1081h137v-1052h283v575h623v-575h282v1052h133v148h-133v176h-282v-176h-623v176h-283v-176h-137v-148zM469 854v227h623v-227h-623zM498 883h565v170h-565 v-170z" glyph-name="Hbar" horiz-adv-x="1556" unicode="Ħ"/><glyph d="M0 1157v184h131v154h328v-154h299v-184h-299v-221q119 137 309 137q203 0 305.5 -125t102.5 -340v-608h-328v543q0 227 -186 227q-94 0 -148.5 -69.5t-54.5 -190.5v-510h-328v1157h-131zM29 1186h131v-1157h270v481q0 133 62.5 211t169.5 78q102 0 158.5 -66.5 t56.5 -189.5v-514h270v579q0 211 -98.5 323.5t-280.5 112.5q-209 0 -338 -190v332h299v127h-299v153h-270v-153h-131v-127z" glyph-name="hbar" horiz-adv-x="1288" unicode="ħ"/><glyph d="M-12 1593v226h614v-226h-614zM16 1622h557v168h-557v-168zM123 0v1434h344v-1434h-344zM152 29h286v1376h-286v-1376z" glyph-name="Imacron" horiz-adv-x="589" unicode="Ī"/><glyph d="M-20 1204v226h614v-226h-614zM8 1233h557v168h-557v-168zM123 0v1044h328v-1044h-328zM152 29h270v987h-270v-987z" glyph-name="imacron" horiz-adv-x="573" unicode="ī"/><glyph d="M86 -252q0 133 150 252h-113v1434h344v-1434q-61 -45 -102 -101.5t-41 -91.5q0 -57 57 -57q72 0 119 60l53 -168q-31 -41 -95.5 -71t-142.5 -30q-98 0 -163.5 57.5t-65.5 149.5zM115 -252q0 -78 56 -128t144 -50q133 0 205 78l-35 110q-47 -37 -104 -37q-41 0 -63.5 23 t-22.5 63.5t41 99t102 107.5v1391h-286v-1376h131v-29q-168 -121 -168 -252z" glyph-name="Iogonek" horiz-adv-x="589" unicode="Į"/><glyph d="M109 1337q0 72 52 123t125.5 51t126 -51t52.5 -123q0 -74 -52.5 -125t-126 -51t-125.5 51t-52 125zM137 1337q0 -61 43 -104t106.5 -43t106.5 43t43 104q0 59 -44 102.5t-105.5 43.5t-105.5 -43.5t-44 -102.5zM70 -252q0 133 149 252h-96v1044h328v-1044 q-61 -45 -102.5 -101.5t-41.5 -91.5q0 -57 58 -57q72 0 118 60l54 -168q-31 -41 -95.5 -71t-142.5 -30q-98 0 -163.5 57.5t-65.5 149.5zM98 -252q0 -78 56.5 -128t144.5 -50q133 0 205 78l-33 112q-53 -39 -106 -39q-41 0 -63.5 23t-22.5 63.5t40.5 99t102.5 107.5v1002 h-270v-987h127v-21q-181 -127 -181 -260z" glyph-name="iogonek" horiz-adv-x="573" unicode="į"/><glyph d="M117 1726q0 72 52 123.5t126 51.5t126 -51.5t52 -123.5q0 -74 -52 -125t-126 -51t-126 51t-52 125zM145 1726q0 -61 43 -104t106.5 -43t106.5 43t43 104q0 59 -44 102.5t-105.5 43.5t-105.5 -43.5t-44 -102.5zM123 0v1434h344v-1434h-344zM152 29h286v1376h-286v-1376z " glyph-name="Idotaccent" horiz-adv-x="589" unicode="İ"/><glyph d="M123 0v1044h328v-1044h-328zM152 29h270v987h-270v-987z" glyph-name="dotlessi" horiz-adv-x="573" unicode="ı"/><glyph d="M123 0v1434h340v-623l520 623h430l-549 -619l590 -815h-412l-401 563l-178 -201v-362h-340zM152 29h282v344l209 235l414 -579h342l-572 788l525 588h-355l-563 -674v674h-282v-1376zM547 -553l26 430h293l-67 -430h-252zM578 -524h196l60 372h-234z" glyph-name="Kcommaaccent" horiz-adv-x="1464" unicode="Ķ"/><glyph d="M123 0v1495h328v-833l313 382h377l-387 -446l422 -598h-369l-256 362l-100 -114v-248h-328zM152 29h270v229l131 152l268 -381h299l-403 571l360 416h-299l-305 -373l-51 19v804h-270v-1437zM451 -553l26 430h293l-68 -430h-251zM481 -524h197l59 372h-233z" glyph-name="kcommaaccent" horiz-adv-x="1175" unicode="ķ"/><glyph d="M154 1593l153 291h357l-234 -291h-276zM201 1622h215l188 233h-280zM123 0v1434h340v-1123h674v-311h-1014zM152 29h956v254h-674v1122h-282v-1376z" glyph-name="Lacute" horiz-adv-x="1177" unicode="Ĺ"/><glyph d="M123 1655l153 291h357l-234 -291h-276zM170 1683h215l188 234h-280zM123 0v1495h328v-1495h-328zM152 29h270v1437h-270v-1437z" glyph-name="lacute" horiz-adv-x="573" unicode="ĺ"/><glyph d="M123 0v1434h340v-1123h674v-311h-1014zM152 29h956v254h-674v1122h-282v-1376zM455 -553l26 430h293l-67 -430h-252zM485 -524h197l59 372h-233z" glyph-name="Lcommaaccent" horiz-adv-x="1177" unicode="Ļ"/><glyph d="M123 0v1495h328v-1495h-328zM152 29h270v1437h-270v-1437zM113 -553l26 430h293l-67 -430h-252zM143 -524h197l59 372h-233z" glyph-name="lcommaaccent" horiz-adv-x="573" unicode="ļ"/><glyph d="M123 0v1434h340v-1123h674v-311h-1014zM815 1061l21 373h301l-66 -373h-256zM152 29h956v254h-674v1122h-282v-1376zM846 1090h201l55 315h-240z" glyph-name="Lcaron" horiz-adv-x="1177" unicode="Ľ"/><glyph d="M123 0v1495h328v-1495h-328zM559 1061l27 434h293l-68 -434h-252zM152 29h270v1437h-270v-1437zM590 1090h196l60 376h-234z" glyph-name="lcaron" horiz-adv-x="858" unicode="ľ"/><glyph d="M31 725l92 39v670h340v-523l383 166v-286l-383 -166v-314h674v-311h-1014v477l-92 -39v287zM59 481l93 39v-491h956v254h-674v360l383 166v223l-383 -166v539h-282v-660l-93 -38v-226z" glyph-name="Lslash" horiz-adv-x="1177" unicode="Ł"/><glyph d="M20 793l160 75v637h328v-485l160 76v-287l-160 -76v-723h-328v572l-160 -76v287zM49 551l160 78v-590h270v713l160 75v224l-160 -78v504h-270v-627l-160 -76v-223z" glyph-name="lslash" horiz-adv-x="688" unicode="ł"/><glyph d="M590 1593l153 291h357l-234 -291h-276zM637 1622h215l188 233h-280zM123 0v1434h276l645 -822v822h340v-1434h-276l-645 821v-821h-340zM152 29h282v876l688 -876h234v1376h-283v-877l-688 877h-233v-1376z" glyph-name="Nacute" unicode="Ń"/><glyph d="M487 1204l154 291h356l-233 -291h-277zM535 1233h215l188 233h-281zM123 0v1044h328v-108q119 137 309 137q203 0 305 -125t102 -340v-608h-327v543q0 227 -187 227q-94 0 -148 -69.5t-54 -190.5v-510h-328zM152 29h270v481q0 133 62.5 211t168.5 78q102 0 158.5 -66.5 t56.5 -189.5v-514h271v579q0 211 -98.5 323.5t-280.5 112.5q-207 0 -338 -190v162h-270v-987z" glyph-name="nacute" horiz-adv-x="1280" unicode="ń"/><glyph d="M123 0v1434h276l645 -822v822h340v-1434h-276l-645 821v-821h-340zM152 29h282v876l688 -876h234v1376h-283v-877l-688 877h-233v-1376zM594 -553l27 430h292l-67 -430h-252zM625 -524h196l60 372h-234z" glyph-name="Ncommaaccent" unicode="Ņ"/><glyph d="M123 0v1044h328v-108q119 137 309 137q203 0 305 -125t102 -340v-608h-327v543q0 227 -187 227q-94 0 -148 -69.5t-54 -190.5v-510h-328zM152 29h270v481q0 133 62.5 211t168.5 78q102 0 158.5 -66.5t56.5 -189.5v-514h271v579q0 211 -98.5 323.5t-280.5 112.5 q-207 0 -338 -190v162h-270v-987zM481 -553l27 430h293l-68 -430h-252zM512 -524h197l59 372h-233z" glyph-name="ncommaaccent" horiz-adv-x="1280" unicode="ņ"/><glyph d="M377 1884h287l90 -143l90 143h286l-223 -307h-307zM432 1855l182 -249h279l182 249h-215l-96 -151h-21l-96 151h-215zM123 0v1434h276l645 -822v822h340v-1434h-276l-645 821v-821h-340zM152 29h282v876l688 -876h234v1376h-283v-877l-688 877h-233v-1376z" glyph-name="Ncaron" unicode="Ň"/><glyph d="M274 1495h287l90 -143l90 143h287l-223 -307h-307zM330 1466l182 -249h279l182 249h-215l-96 -151h-21l-96 151h-215zM123 0v1044h328v-108q119 137 309 137q203 0 305 -125t102 -340v-608h-327v543q0 227 -187 227q-94 0 -148 -69.5t-54 -190.5v-510h-328zM152 29h270 v481q0 133 62.5 211t168.5 78q102 0 158.5 -66.5t56.5 -189.5v-514h271v579q0 211 -98.5 323.5t-280.5 112.5q-207 0 -338 -190v162h-270v-987z" glyph-name="ncaron" horiz-adv-x="1280" unicode="ň"/><glyph d="M123 0v1434h276l645 -822v822h340v-1434q0 -207 -95 -320.5t-290 -113.5q-102 0 -206 45l71 250q37 -20 92 -21q90 0 91 133v105l-584 743v-821h-340zM152 29h282v876l641 -817v-115q0 -76 -31.5 -118.5t-87.5 -42.5q-37 0 -73 10l-56 -195q88 -33 172 -33q356 0 357 406 v1405h-283v-875l-688 875h-233v-1376z" glyph-name="Eng" unicode="Ŋ"/><glyph d="M123 0v1044h328v-108q119 137 309 137q203 0 305 -125t102 -340v-608q0 -219 -95 -340t-290 -121q-104 0 -207 47l72 250q37 -20 80 -20q113 0 113 153v574q0 227 -187 227q-94 0 -148 -69.5t-54 -190.5v-510h-328zM152 29h270v481q0 133 62.5 211t168.5 78 q102 0 158.5 -66.5t56.5 -189.5v-574q0 -86 -36.5 -134t-104.5 -48q-27 0 -61 10l-56 -194q86 -35 172 -35q356 0 357 432v608q0 211 -98.5 323.5t-280.5 112.5q-176 0 -287 -126l-51 18v80h-270v-987z" glyph-name="eng" horiz-adv-x="1280" unicode="ŋ"/><glyph d="M520 1593v226h615v-226h-615zM549 1622h557v168h-557v-168zM68 716.5q0 319.5 216 532.5t543.5 213t543.5 -213t216 -532.5t-216 -532.5t-543.5 -213t-543.5 213t-216 532.5zM96 717q0 -309 208 -513t523.5 -204t523.5 204t208 513t-208 513t-523.5 204t-523.5 -204 t-208 -513zM383 717q0 201 125 331t319.5 130t319.5 -130t125 -331q0 -203 -125 -332t-319.5 -129t-319.5 129t-125 332zM412 716.5q0 -186.5 114.5 -309t301 -122.5t301 122.5t114.5 309t-114.5 309.5t-301 123t-301 -123t-114.5 -309.5z" glyph-name="Omacron" horiz-adv-x="1654" unicode="Ō"/><glyph d="M315 1204v226h615v-226h-615zM344 1233h557v168h-557v-168zM61 522.5q0 235.5 159 393t402.5 157.5t402.5 -157.5t159 -393t-159 -393.5t-402.5 -158t-402.5 158t-159 393.5zM90 522.5q0 -225.5 151.5 -374t381 -148.5t381 148.5t151.5 374t-151.5 373.5t-381 148 t-381 -148t-151.5 -373.5zM350 522q0 127 76 206t196.5 79t196.5 -79t76 -206t-76 -205.5t-196.5 -78.5t-196.5 78.5t-76 205.5zM379 522.5q0 -112.5 66.5 -184.5t177 -72t177 72t66.5 184.5t-66.5 184t-177 71.5t-177 -71.5t-66.5 -184z" glyph-name="omacron" horiz-adv-x="1245" unicode="ō"/><glyph d="M479 1593l168 291h293l-178 -291h-283zM868 1593l185 291h293l-195 -291h-283zM528 1622h217l144 233h-225zM920 1622h217l153 233h-221zM68 716.5q0 319.5 216 532.5t543.5 213t543.5 -213t216 -532.5t-216 -532.5t-543.5 -213t-543.5 213t-216 532.5zM96 717 q0 -309 208 -513t523.5 -204t523.5 204t208 513t-208 513t-523.5 204t-523.5 -204t-208 -513zM383 717q0 201 125 331t319.5 130t319.5 -130t125 -331q0 -203 -125 -332t-319.5 -129t-319.5 129t-125 332zM412 716.5q0 -186.5 114.5 -309t301 -122.5t301 122.5t114.5 309 t-114.5 309.5t-301 123t-301 -123t-114.5 -309.5z" glyph-name="Ohungarumlaut" horiz-adv-x="1654" unicode="Ő"/><glyph d="M274 1204l168 291h293l-178 -291h-283zM664 1204l184 291h293l-195 -291h-282zM324 1233h217l143 233h-225zM715 1233h217l153 233h-221zM61 522.5q0 235.5 159 393t402.5 157.5t402.5 -157.5t159 -393t-159 -393.5t-402.5 -158t-402.5 158t-159 393.5zM90 522.5 q0 -225.5 151.5 -374t381 -148.5t381 148.5t151.5 374t-151.5 373.5t-381 148t-381 -148t-151.5 -373.5zM350 522q0 127 76 206t196.5 79t196.5 -79t76 -206t-76 -205.5t-196.5 -78.5t-196.5 78.5t-76 205.5zM379 522.5q0 -112.5 66.5 -184.5t177 -72t177 72t66.5 184.5 t-66.5 184t-177 71.5t-177 -71.5t-66.5 -184z" glyph-name="ohungarumlaut" horiz-adv-x="1245" unicode="ő"/><glyph d="M68 717q0 319 192.5 518t501.5 199h1220v-308h-659v-249h555v-297h-555v-273h657v-307h-1218q-307 0 -500.5 202t-193.5 515zM96 717q0 -303 186.5 -495.5t479.5 -192.5h1190v250h-658v329h555v240h-555v307h660v250h-1192q-297 0 -481.5 -190.5t-184.5 -497.5zM383 723 q0 190 105.5 311t273.5 121h254v-876h-254q-164 0 -271.5 125.5t-107.5 318.5zM412 723q0 -184 100 -300t250 -116h225v819h-225q-152 0 -251 -109.5t-99 -293.5z" glyph-name="OE" horiz-adv-x="2064" unicode="Œ"/><glyph d="M61 522.5q0 235.5 159 393t403 157.5q248 0 399 -180q150 180 401 180q254 0 398.5 -153.5t144.5 -387.5q0 -59 -10 -120h-764q20 -78 87 -126t163 -48q123 0 184 86l293 -88q-49 -106 -179 -185.5t-296 -79.5q-268 0 -422 181q-152 -180 -399 -181q-244 0 -403 158 t-159 393.5zM90 522.5q0 -225.5 151.5 -374t381.5 -148.5q258 0 399 199q145 -199 422 -199q135 0 255 61.5t179 157.5l-242 72q-72 -82 -194 -82q-115 0 -193 63.5t-92 167.5h774q6 47 6 92q0 231 -140 371.5t-374 140.5q-260 0 -401 -198q-143 199 -399 198 q-229 0 -381 -148t-152 -373.5zM1153 592q6 104 84 170.5t188 66.5q113 0 184.5 -65.5t71.5 -171.5h-528zM350 522q0 123 77 204t195.5 81t195.5 -81t77 -204t-77 -203.5t-195.5 -80.5t-195.5 80.5t-77 203.5zM1186 621h465q-10 78 -69.5 129t-156 51t-161 -53t-78.5 -127z M379 522.5q0 -108.5 67.5 -182.5t176 -74t176 74t67.5 182.5t-67.5 182t-176 73.5t-176 -73.5t-67.5 -182z" glyph-name="oe" horiz-adv-x="2027" unicode="œ"/><glyph d="M512 1593l154 291h356l-234 -291h-276zM559 1622h215l189 233h-281zM123 0v1434h717q227 0 367.5 -146.5t140.5 -337.5q0 -141 -77 -260t-216 -176l346 -514h-391l-305 471h-246v-471h-336zM152 29h278v471h291l305 -471h320l-336 499q141 45 225 160t84 262 q0 190 -138.5 322.5t-340.5 132.5h-688v-1376zM430 739v420h399q90 0 154 -61.5t64 -147.5q0 -90 -67 -150.5t-165 -60.5h-385zM459 768h356q88 0 145.5 53t57.5 129q0 74 -55.5 127t-133.5 53h-370v-362z" glyph-name="Racute" horiz-adv-x="1441" unicode="Ŕ"/><glyph d="M264 1204l154 291h356l-233 -291h-277zM311 1233h215l189 233h-281zM123 0v1044h328v-141q47 86 131 128t196 28v-307q-168 29 -247.5 -47t-79.5 -269v-436h-328zM152 29h270v407q0 195 81 281t247 67v248q-211 18 -306 -203h-22v187h-270v-987z" glyph-name="racute" horiz-adv-x="819" unicode="ŕ"/><glyph d="M123 0v1434h717q227 0 367.5 -146.5t140.5 -337.5q0 -141 -77 -260t-216 -176l346 -514h-391l-305 471h-246v-471h-336zM152 29h278v471h291l305 -471h320l-336 499q141 45 225 160t84 262q0 190 -138.5 322.5t-340.5 132.5h-688v-1376zM430 739v420h399q90 0 154 -61.5 t64 -147.5q0 -90 -67 -150.5t-165 -60.5h-385zM459 768h356q88 0 145.5 53t57.5 129q0 74 -55.5 127t-133.5 53h-370v-362zM541 -553l26 430h293l-67 -430h-252zM571 -524h197l59 372h-233z" glyph-name="Rcommaaccent" horiz-adv-x="1441" unicode="Ŗ"/><glyph d="M123 0v1044h328v-141q47 86 131 128t196 28v-307q-168 29 -247.5 -47t-79.5 -269v-436h-328zM152 29h270v407q0 195 81 281t247 67v248q-211 18 -306 -203h-22v187h-270v-987zM115 -553l26 430h293l-67 -430h-252zM145 -524h197l59 372h-233z" glyph-name="rcommaaccent" horiz-adv-x="819" unicode="ŗ"/><glyph d="M299 1884h287l90 -143l90 143h287l-224 -307h-307zM354 1855l183 -249h278l182 249h-215l-96 -151h-20l-97 151h-215zM123 0v1434h717q227 0 367.5 -146.5t140.5 -337.5q0 -141 -77 -260t-216 -176l346 -514h-391l-305 471h-246v-471h-336zM152 29h278v471h291l305 -471 h320l-336 499q141 45 225 160t84 262q0 190 -138.5 322.5t-340.5 132.5h-688v-1376zM430 739v420h399q90 0 154 -61.5t64 -147.5q0 -90 -67 -150.5t-165 -60.5h-385zM459 768h356q88 0 145.5 53t57.5 129q0 74 -55.5 127t-133.5 53h-370v-362z" glyph-name="Rcaron" horiz-adv-x="1441" unicode="Ř"/><glyph d="M51 1495h287l90 -143l90 143h287l-223 -307h-308zM106 1466l183 -249h278l183 249h-215l-97 -151h-20l-96 151h-216zM123 0v1044h328v-141q47 86 131 128t196 28v-307q-168 29 -247.5 -47t-79.5 -269v-436h-328zM152 29h270v407q0 195 81 281t247 67v248 q-211 18 -306 -203h-22v187h-270v-987z" glyph-name="rcaron" horiz-adv-x="819" unicode="ř"/><glyph d="M518 1593l154 291h356l-233 -291h-277zM565 1622h215l189 233h-281zM51 406l324 100q43 -106 139 -172t231 -66q100 0 162 40t62 95q0 88 -154 138l-369 114q-150 47 -239.5 145.5t-87.5 233.5q-2 178 149.5 303t380.5 125q227 0 400.5 -109.5t232.5 -267.5l-313 -92 q-43 76 -128 124t-188 48q-86 0 -138 -33.5t-52 -84.5q0 -74 96 -103l361 -115q188 -59 290.5 -148t102.5 -255q0 -195 -163 -325t-425 -130q-254 0 -430 126.5t-244 308.5zM90 387q76 -178 247 -282.5t388 -104.5q246 0 402.5 120t156.5 306q0 139 -86 226t-287 151 l-360 115q-117 33 -117 129q0 63 61.5 105t157.5 42q100 0 189.5 -46t138.5 -122l262 78q-68 147 -232.5 238.5t-361.5 91.5q-215 0 -359.5 -115t-142.5 -285q-2 -119 79 -212t229 -140l368 -115q174 -53 174 -164q0 -72 -71.5 -117.5t-180.5 -45.5q-129 0 -231 61t-156 170 z" glyph-name="Sacute" horiz-adv-x="1374" unicode="Ś"/><glyph d="M358 1204l154 291h356l-233 -291h-277zM406 1233h215l188 233h-281zM25 295l292 86q27 -68 90.5 -110t151.5 -42q59 0 95 22.5t36 53.5q0 51 -98 80l-250 74q-264 80 -264 291q0 137 128 230t306 93q168 0 295 -71.5t178 -194.5l-287 -82q-70 98 -188 98q-45 0 -78 -18.5 t-33 -46.5q0 -41 60 -62l241 -67q72 -20 120 -41t96.5 -55.5t72 -88t23.5 -125.5q0 -152 -130 -250t-335 -98q-193 0 -337 95.5t-185 228.5zM61 276q49 -121 185.5 -198.5t300.5 -77.5q193 0 314.5 90t121.5 229q0 125 -71.5 182.5t-219.5 100.5l-241 68q-80 25 -80 88 q0 41 41 67.5t98 26.5q123 0 199 -94l235 67q-53 102 -169 160.5t-263 58.5q-168 0 -287 -87t-119 -207q0 -188 244 -265l250 -73q119 -35 119 -107q0 -45 -46 -74.5t-114 -29.5q-178 0 -258 145z" glyph-name="sacute" horiz-adv-x="1073" unicode="ś"/><glyph d="M51 406l324 100q43 -106 139 -172t231 -66q100 0 162 40t62 95q0 88 -154 138l-369 114q-150 47 -239.5 145.5t-87.5 233.5q-2 178 149.5 303t380.5 125q227 0 400.5 -109.5t232.5 -267.5l-313 -92q-43 76 -128 124t-188 48q-86 0 -138 -33.5t-52 -84.5q0 -74 96 -103 l361 -115q188 -59 290.5 -148t102.5 -255q0 -174 -130 -298t-347 -151l-29 -86q59 -10 99 -56t40 -103q0 -88 -67.5 -139.5t-180.5 -51.5q-129 0 -221 72l35 121q55 -39 133 -38t78 54q0 45 -57.5 61.5t-110.5 0.5l53 168q-209 27 -353.5 146.5t-203.5 279.5zM90 387 q70 -162 218.5 -264.5t338.5 -118.5l-53 -160q63 8 110.5 -18.5t47.5 -75.5q0 -61 -73 -78.5t-149 19.5l-20 -66q82 -55 188 -55q102 0 161 43t59 119q0 55 -44.5 95t-105.5 38l47 139q211 20 340 137t129 285q0 139 -86 226t-287 151l-360 115q-117 33 -117 129 q0 63 61.5 105t157.5 42q100 0 189.5 -46t138.5 -122l262 78q-68 147 -232.5 238.5t-361.5 91.5q-215 0 -359.5 -115t-142.5 -285q-2 -119 79 -212t229 -140l368 -115q174 -53 174 -164q0 -72 -71.5 -117.5t-180.5 -45.5q-129 0 -231 61t-156 170z" glyph-name="Scedilla" horiz-adv-x="1374" unicode="Ş"/><glyph d="M25 295l292 86q27 -68 90.5 -110t151.5 -42q59 0 95 22.5t36 53.5q0 51 -98 80l-250 74q-264 80 -264 291q0 137 128 230t306 93q168 0 295 -71.5t178 -194.5l-287 -82q-70 98 -188 98q-45 0 -78 -18.5t-33 -46.5q0 -41 60 -62l241 -67q72 -20 120 -41t96.5 -55.5t72 -88 t23.5 -125.5q0 -127 -93.5 -218t-250.5 -119l-29 -91q59 -10 99 -56t40 -103q0 -88 -67.5 -139.5t-180.5 -51.5q-129 0 -221 72l35 121q55 -39 133 -38t78 54q0 45 -57.5 61.5t-110.5 0.5l53 168q-156 25 -268 113.5t-147 201.5zM61 276q45 -109 159 -183.5t257 -88.5 l-49 -158q57 6 106.5 -20.5t49.5 -75.5q0 -61 -73 -78.5t-149 19.5l-20 -66q82 -55 188 -55q102 0 161 43t59 119q0 55 -44 95t-106 38l45 141q156 23 247 108t91 205q0 125 -71.5 182.5t-219.5 100.5l-241 68q-80 25 -80 88q0 41 41 67.5t98 26.5q123 0 199 -94l235 67 q-53 102 -169 160.5t-263 58.5q-168 0 -287 -87t-119 -207q0 -188 244 -265l250 -73q119 -35 119 -107q0 -45 -46 -74.5t-114 -29.5q-178 0 -258 145z" glyph-name="scedilla" horiz-adv-x="1073" unicode="ş"/><glyph d="M305 1884h287l90 -143l90 143h287l-223 -307h-308zM360 1855l183 -249h278l183 249h-216l-96 -151h-20l-97 151h-215zM51 406l324 100q43 -106 139 -172t231 -66q100 0 162 40t62 95q0 88 -154 138l-369 114q-150 47 -239.5 145.5t-87.5 233.5q-2 178 149.5 303 t380.5 125q227 0 400.5 -109.5t232.5 -267.5l-313 -92q-43 76 -128 124t-188 48q-86 0 -138 -33.5t-52 -84.5q0 -74 96 -103l361 -115q188 -59 290.5 -148t102.5 -255q0 -195 -163 -325t-425 -130q-254 0 -430 126.5t-244 308.5zM90 387q76 -178 247 -282.5t388 -104.5 q246 0 402.5 120t156.5 306q0 139 -86 226t-287 151l-360 115q-117 33 -117 129q0 63 61.5 105t157.5 42q100 0 189.5 -46t138.5 -122l262 78q-68 147 -232.5 238.5t-361.5 91.5q-215 0 -359.5 -115t-142.5 -285q-2 -119 79 -212t229 -140l368 -115q174 -53 174 -164 q0 -72 -71.5 -117.5t-180.5 -45.5q-129 0 -231 61t-156 170z" glyph-name="Scaron" horiz-adv-x="1374" unicode="Š"/><glyph d="M145 1495h287l90 -143l90 143h287l-223 -307h-307zM201 1466l182 -249h279l182 249h-215l-97 -151h-20l-96 151h-215zM25 295l292 86q27 -68 90.5 -110t151.5 -42q59 0 95 22.5t36 53.5q0 51 -98 80l-250 74q-264 80 -264 291q0 137 128 230t306 93q168 0 295 -71.5 t178 -194.5l-287 -82q-70 98 -188 98q-45 0 -78 -18.5t-33 -46.5q0 -41 60 -62l241 -67q72 -20 120 -41t96.5 -55.5t72 -88t23.5 -125.5q0 -152 -130 -250t-335 -98q-193 0 -337 95.5t-185 228.5zM61 276q49 -121 185.5 -198.5t300.5 -77.5q193 0 314.5 90t121.5 229 q0 125 -71.5 182.5t-219.5 100.5l-241 68q-80 25 -80 88q0 41 41 67.5t98 26.5q123 0 199 -94l235 67q-53 102 -169 160.5t-263 58.5q-168 0 -287 -87t-119 -207q0 -188 244 -265l250 -73q119 -35 119 -107q0 -45 -46 -74.5t-114 -29.5q-178 0 -258 145z" glyph-name="scaron" horiz-adv-x="1073" unicode="š"/><glyph d="M31 1126v308h1253v-308h-457v-1126l-34 -109q59 -10 99 -56t40 -103q0 -88 -67.5 -139.5t-180.5 -51.5q-129 0 -221 72l35 121q55 -39 133 -38t78 54q0 45 -57.5 61.5t-110.5 0.5l59 188h-113v1126h-456zM59 1155h457v-1126h123l-57 -183q61 6 108 -20.5t47 -75.5 q0 -61 -72.5 -78.5t-148.5 19.5l-20 -66q82 -55 188 -55q102 0 160.5 43t58.5 119q0 55 -44 95t-105 38l45 139v1151h456v250h-1196v-250z" glyph-name="Tcommaaccent" horiz-adv-x="1314" unicode="Ţ"/><glyph d="M20 758v286h162v328h328v-328h281v-286h-281v-381q0 -109 108 -109q59 0 111 27l78 -260q-82 -33 -162 -45l-31 -99q59 -10 99.5 -56t40.5 -103q0 -88 -68 -139.5t-180 -51.5q-129 0 -221 72l34 121q55 -39 133 -38t78 54q0 45 -57 61.5t-111 0.5l60 188 q-240 66 -240 377v381h-162zM49 786h162v-409q0 -309 248 -357l-56 -174q57 6 106.5 -20.5t49.5 -75.5q0 -61 -72.5 -78.5t-148.5 19.5l-21 -66q82 -55 189 -55q102 0 160.5 43t58.5 119q0 55 -44 95t-106 38l48 151q82 10 149 35l-61 205q-39 -16 -93 -16q-137 0 -137 137 v409h281v230h-281v327h-270v-327h-162v-230z" glyph-name="tcommaaccent" horiz-adv-x="847" unicode="ţ"/><glyph d="M281 1884h286l90 -143l91 143h286l-223 -307h-307zM336 1855l182 -249h279l182 249h-215l-96 -151h-21l-96 151h-215zM31 1126v308h1253v-308h-457v-1126h-340v1126h-456zM59 1155h457v-1126h283v1126h456v250h-1196v-250z" glyph-name="Tcaron" horiz-adv-x="1314" unicode="Ť"/><glyph d="M614 1122l21 373h293l-66 -373h-248zM645 1151h193l55 315h-231zM20 758v286h162v328h328v-328h281v-286h-281v-381q0 -109 108 -109q59 0 111 27l78 -260q-129 -51 -256 -51q-184 0 -276.5 104.5t-92.5 288.5v381h-162zM49 786h162v-409q0 -365 340 -365q106 0 221 39 l-61 205q-39 -16 -93 -16q-137 0 -137 137v409h281v230h-281v327h-270v-327h-162v-230z" glyph-name="tcaron" horiz-adv-x="907" unicode="ť"/><glyph d="M31 1126v308h1253v-308h-457v-315h277v-266h-277v-545h-340v545h-284v266h284v315h-456zM59 1155h457v-373h-285v-209h285v-544h283v544h276v209h-276v373h456v250h-1196v-250z" glyph-name="Tbar" horiz-adv-x="1314" unicode="Ŧ"/><glyph d="M20 819v225h162v328h328v-328h287v-225h-287v-135h244v-205h-244v-102q0 -109 119 -109q59 0 106 27l78 -260q-129 -51 -262 -51q-184 0 -276.5 104.5t-92.5 288.5v102h-147v205h147v135h-162zM49 848h162v-193h-148v-147h148v-131q0 -365 340 -365q113 0 227 39l-61 203 q-37 -14 -88 -14q-72 0 -110 35.5t-38 101.5v131h244v147h-244v193h287v168h-287v327h-270v-327h-162v-168z" glyph-name="tbar" horiz-adv-x="854" unicode="ŧ"/><glyph d="M442 1593v226h615v-226h-615zM471 1622h557v168h-557v-168zM113 596v838h344v-832q0 -143 74.5 -231t218 -88t218 88t74.5 231v832h344v-838q0 -283 -167.5 -454t-468.5 -171q-303 0 -470 171t-167 454zM141 596q0 -279 162 -437.5t447 -158.5q283 0 445.5 159.5 t162.5 436.5v809h-287v-803q0 -162 -86 -255t-235.5 -93t-235.5 93t-86 255v803h-287v-809z" glyph-name="Umacron" horiz-adv-x="1499" unicode="Ū"/><glyph d="M332 1204v226h614v-226h-614zM360 1233h558v168h-558v-168zM113 436v608h327v-542q0 -227 187 -228q94 0 148 70t54 191v509h328v-1044h-328v109q-119 -137 -309 -138q-203 0 -305 125t-102 340zM141 436q0 -211 98.5 -323.5t280.5 -112.5q209 0 338 190v-161h270v987 h-270v-481q0 -133 -62.5 -211t-168.5 -78q-102 0 -158.5 66.5t-56.5 189.5v514h-271v-580z" glyph-name="umacron" horiz-adv-x="1280" unicode="ū"/><glyph d="M483 1757.5q0 110.5 76 184t190.5 73.5t190.5 -73.5t76 -184t-76 -184.5t-190.5 -74t-190.5 74t-76 184.5zM512 1757q0 -98 67.5 -163.5t170 -65.5t170 65.5t67.5 163.5t-67.5 164t-170 66t-170 -66t-67.5 -164zM633 1757q0 51 32.5 83t84 32t84 -32t32.5 -83t-32.5 -83 t-84 -32t-84 32t-32.5 83zM662 1757q0 -39 24.5 -62.5t63 -23.5t63.5 23.5t25 62.5q0 37 -25 61.5t-63.5 24.5t-63 -24.5t-24.5 -61.5zM113 596v838h344v-832q0 -143 74.5 -231t218 -88t218 88t74.5 231v832h344v-838q0 -283 -167.5 -454t-468.5 -171q-303 0 -470 171 t-167 454zM141 596q0 -279 162 -437.5t447 -158.5q283 0 445.5 159.5t162.5 436.5v809h-287v-803q0 -162 -86 -255t-235.5 -93t-235.5 93t-86 255v803h-287v-809z" glyph-name="Uring" horiz-adv-x="1499" unicode="Ů"/><glyph d="M373 1368q0 111 75.5 184.5t190.5 73.5t190.5 -73.5t75.5 -184.5t-75.5 -184.5t-190.5 -73.5t-190.5 73.5t-75.5 184.5zM401 1368q0 -98 68 -163.5t170 -65.5t170 65.5t68 163.5t-68 163.5t-170 65.5t-170 -65.5t-68 -163.5zM522 1368q0 51 33 83t84 32t84 -32t33 -83 t-33 -83t-84 -32t-84 32t-33 83zM551 1368q0 -39 24.5 -62.5t63.5 -23.5t63.5 23.5t24.5 62.5q0 37 -24.5 61.5t-63.5 24.5t-63.5 -24.5t-24.5 -61.5zM113 436v608h327v-542q0 -227 187 -228q94 0 148 70t54 191v509h328v-1044h-328v109q-119 -137 -309 -138 q-203 0 -305 125t-102 340zM141 436q0 -211 98.5 -323.5t280.5 -112.5q209 0 338 190v-161h270v987h-270v-481q0 -133 -62.5 -211t-168.5 -78q-102 0 -158.5 66.5t-56.5 189.5v514h-271v-580z" glyph-name="uring" horiz-adv-x="1280" unicode="ů"/><glyph d="M401 1593l168 291h293l-178 -291h-283zM791 1593l184 291h293l-195 -291h-282zM451 1622h217l143 233h-225zM842 1622h217l153 233h-221zM113 596v838h344v-832q0 -143 74.5 -231t218 -88t218 88t74.5 231v832h344v-838q0 -283 -167.5 -454t-468.5 -171q-303 0 -470 171 t-167 454zM141 596q0 -279 162 -437.5t447 -158.5q283 0 445.5 159.5t162.5 436.5v809h-287v-803q0 -162 -86 -255t-235.5 -93t-235.5 93t-86 255v803h-287v-809z" glyph-name="Uhungarumlaut" horiz-adv-x="1499" unicode="Ű"/><glyph d="M291 1204l168 291h293l-179 -291h-282zM680 1204l184 291h293l-194 -291h-283zM340 1233h217l143 233h-225zM731 1233h217l154 233h-221zM113 436v608h327v-542q0 -227 187 -228q94 0 148 70t54 191v509h328v-1044h-328v109q-119 -137 -309 -138q-203 0 -305 125 t-102 340zM141 436q0 -211 98.5 -323.5t280.5 -112.5q209 0 338 190v-161h270v987h-270v-481q0 -133 -62.5 -211t-168.5 -78q-102 0 -158.5 66.5t-56.5 189.5v514h-271v-580z" glyph-name="uhungarumlaut" horiz-adv-x="1280" unicode="ű"/><glyph d="M113 596v838h344v-832q0 -143 74.5 -231t218 -88t218 88t74.5 231v832h344v-838q0 -342 -233 -510q-82 -63 -134 -137t-52 -121q0 -57 57 -57q72 0 119 59l53 -168q-31 -41 -95.5 -70.5t-142.5 -29.5q-98 0 -163.5 57t-65.5 150q0 104 98 206q-49 -4 -77 -4 q-303 0 -470 171t-167 454zM141 596q0 -279 162 -437.5t447 -158.5q49 0 143 12l4 -12q-139 -115 -139 -231q0 -78 56 -128.5t144 -50.5q133 0 205 78l-35 111q-47 -37 -104 -37q-41 0 -63.5 22.5t-22.5 63.5q0 55 55.5 134t143.5 147q221 162 221 487v809h-287v-803 q0 -162 -86 -255t-235.5 -93t-235.5 93t-86 255v803h-287v-809z" glyph-name="Uogonek" horiz-adv-x="1499" unicode="Ų"/><glyph d="M113 436v608h327v-542q0 -227 187 -228q94 0 148 70t54 191v509h328v-1044q-61 -45 -102 -101.5t-41 -91.5q0 -57 57 -57q72 0 119 60l53 -168q-31 -41 -95.5 -71t-141.5 -30q-98 0 -164 57.5t-66 149.5q0 133 150 252h-97v109q-119 -137 -309 -138q-203 0 -305 125 t-102 340zM141 436q0 -211 98.5 -323.5t280.5 -112.5q209 0 338 188v-159h127v-21q-180 -127 -180 -260q0 -78 56.5 -128t144.5 -50q133 0 204 78l-32 110q-51 -37 -107 -37q-39 0 -62.5 23t-23.5 63.5t41 99t102 107.5v1002h-270v-481q0 -133 -62.5 -211t-168.5 -78 q-102 0 -158.5 66.5t-56.5 189.5v514h-271v-580z" glyph-name="uogonek" horiz-adv-x="1280" unicode="ų"/><glyph d="M1034 1720l-90 -143h-287l224 307h307l223 -307h-287zM713 1606h215l96 151h20l97 -151h215l-182 249h-279zM1708 1434h358l-428 -1434h-368l-236 817l-237 -817h-369l-428 1434h358l260 -922l263 922h305l262 -922zM1618 29l410 1376h-297l-281 -1004l-287 1004h-260 l-287 -1004l-280 1004h-297l410 -1376h325l260 891l258 -891h326z" glyph-name="Wcircumflex" horiz-adv-x="2066" unicode="Ŵ"/><glyph d="M477 1188l223 307h308l223 -307h-287l-90 143l-90 -143h-287zM532 1217h216l96 151h20l97 -151h215l-183 249h-278zM0 1044h338l190 -626l189 626h272l191 -626l188 626h338l-360 -1044h-304l-188 586l-190 -586h-304zM41 1016l340 -987h262l211 649l209 -649h262 l340 987h-276l-201 -670h-17l-202 670h-232l-200 -670h-17l-203 670h-276z" glyph-name="wcircumflex" horiz-adv-x="1705" unicode="ŵ"/><glyph d="M332 1577l223 307h307l223 -307h-286l-90 143l-91 -143h-286zM387 1606h215l96 151h21l96 -151h215l-182 249h-279zM0 1434h383l326 -586l325 586h381l-534 -918v-516h-344v516zM49 1405l516 -881v-495h287v495l514 881h-315l-342 -617l-342 617h-318z" glyph-name="Ycircumflex" horiz-adv-x="1415" unicode="Ŷ"/><glyph d="M250 1188l223 307h307l224 -307h-287l-90 143l-90 -143h-287zM305 1217h215l96 151h21l96 -151h215l-182 249h-279zM0 1044h358l273 -636l256 636h350l-621 -1474h-333l186 455zM45 1016l455 -991l-174 -426h272l596 1417h-289l-274 -682l-291 682h-295z" glyph-name="ycircumflex" horiz-adv-x="1236" unicode="ŷ"/><glyph d="M346 1695.5q0 65.5 46 110.5t111.5 45t113 -46t47.5 -109q0 -66 -47.5 -112t-113 -46t-111.5 46t-46 111.5zM752 1695.5q0 65.5 46 110.5t111.5 45t112.5 -46t47 -109q0 -66 -47 -112t-112.5 -46t-111.5 46t-46 111.5zM375 1695.5q0 -53.5 38 -91t91 -37.5q55 0 93 37.5 t38 91.5q0 51 -39 89t-92 38t-91 -37t-38 -90.5zM780 1695.5q0 -53.5 38 -91t91 -37.5q55 0 93 37.5t38 91.5q0 51 -38.5 89t-92 38t-91.5 -37t-38 -90.5zM0 1434h383l326 -586l325 586h381l-534 -918v-516h-344v516zM49 1405l516 -881v-495h287v495l514 881h-315l-342 -617 l-342 617h-318z" glyph-name="Ydieresis" horiz-adv-x="1415" unicode="Ÿ"/><glyph d="M487 1593l154 291h356l-233 -291h-277zM535 1622h215l188 233h-281zM61 0v227l697 906h-686v301h1153v-232l-690 -901h710v-301h-1184zM90 29h1127v243h-742l721 940v193h-1096v-244h717l-727 -944v-188z" glyph-name="Zacute" horiz-adv-x="1306" unicode="Ź"/><glyph d="M385 1204l154 291h356l-233 -291h-277zM432 1233h215l189 233h-281zM78 0v205l497 571h-485v268h920v-204l-500 -572h518v-268h-950zM106 29h893v211h-553l535 610v166h-862v-211h520l-533 -610v-166z" glyph-name="zacute" horiz-adv-x="1099" unicode="ź"/><glyph d="M473 1726q0 72 52.5 123.5t126 51.5t125.5 -51.5t52 -123.5q0 -74 -52 -125t-125.5 -51t-126 51t-52.5 125zM502 1726q0 -61 43 -104t106.5 -43t106.5 43t43 104q0 59 -44 102.5t-105.5 43.5t-105.5 -43.5t-44 -102.5zM61 0v227l697 906h-686v301h1153v-232l-690 -901 h710v-301h-1184zM90 29h1127v243h-742l721 940v193h-1096v-244h717l-727 -944v-188z" glyph-name="Zdotaccent" horiz-adv-x="1306" unicode="Ż"/><glyph d="M371 1337q0 72 52 123t126 51t126 -51t52 -123q0 -74 -52 -125t-126 -51t-126 51t-52 125zM399 1337q0 -61 43 -104t106.5 -43t106.5 43t43 104q0 59 -44 102.5t-105.5 43.5t-105.5 -43.5t-44 -102.5zM78 0v205l497 571h-485v268h920v-204l-500 -572h518v-268h-950z M106 29h893v211h-553l535 610v166h-862v-211h520l-533 -610v-166z" glyph-name="zdotaccent" horiz-adv-x="1099" unicode="ż"/><glyph d="M274 1884h287l90 -143l90 143h287l-223 -307h-307zM330 1855l182 -249h279l182 249h-215l-96 -151h-21l-96 151h-215zM61 0v227l697 906h-686v301h1153v-232l-690 -901h710v-301h-1184zM90 29h1127v243h-742l721 940v193h-1096v-244h717l-727 -944v-188z" glyph-name="Zcaron" horiz-adv-x="1306" unicode="Ž"/><glyph d="M172 1495h287l90 -143l90 143h287l-224 -307h-307zM227 1466l183 -249h278l182 249h-215l-96 -151h-20l-97 151h-215zM78 0v205l497 571h-485v268h920v-204l-500 -572h518v-268h-950zM106 29h893v211h-553l535 610v166h-862v-211h520l-533 -610v-166z" glyph-name="zcaron" horiz-adv-x="1099" unicode="ž"/><glyph d="M-92 -217l115 229q51 -57 127 -57q119 0 137 156l69 551h-221v266h254l21 168q27 207 134 318.5t287 111.5q170 0 265 -88l-121 -244q-51 57 -129 57q-115 0 -133 -155l-21 -168h258v-266h-293l-69 -551q-27 -205 -136.5 -316.5t-285.5 -111.5q-164 0 -258 100zM-57 -211 q84 -78 223 -78q164 0 266.5 104.5t126.5 299.5l74 575h289v209h-263l25 201q23 180 162 180q70 0 121 -39l94 191q-84 66 -230 65q-168 0 -268 -103.5t-125 -301.5l-24 -193h-250v-209h225l-74 -584q-10 -86 -53 -133t-112 -47q-68 0 -119 39z" glyph-name="florin" horiz-adv-x="1116" unicode="ƒ"/><glyph d="M51 406l324 100q43 -106 139 -172t231 -66q100 0 162 40t62 95q0 88 -154 138l-369 114q-150 47 -239.5 145.5t-87.5 233.5q-2 178 149.5 303t380.5 125q227 0 400.5 -109.5t232.5 -267.5l-313 -92q-43 76 -128 124t-188 48q-86 0 -138 -33.5t-52 -84.5q0 -74 96 -103 l361 -115q188 -59 290.5 -148t102.5 -255q0 -195 -163 -325t-425 -130q-254 0 -430 126.5t-244 308.5zM90 387q76 -178 247 -282.5t388 -104.5q246 0 402.5 120t156.5 306q0 139 -86 226t-287 151l-360 115q-117 33 -117 129q0 63 61.5 105t157.5 42q100 0 189.5 -46 t138.5 -122l262 78q-68 147 -232.5 238.5t-361.5 91.5q-215 0 -359.5 -115t-142.5 -285q-2 -119 79 -212t229 -140l368 -115q174 -53 174 -164q0 -72 -71.5 -117.5t-180.5 -45.5q-129 0 -231 61t-156 170zM543 -553l26 430h293l-67 -430h-252zM573 -524h197l59 372h-233z " glyph-name="Scommaaccent" horiz-adv-x="1374" unicode="Ș"/><glyph d="M25 295l292 86q27 -68 90.5 -110t151.5 -42q59 0 95 22.5t36 53.5q0 51 -98 80l-250 74q-264 80 -264 291q0 137 128 230t306 93q168 0 295 -71.5t178 -194.5l-287 -82q-70 98 -188 98q-45 0 -78 -18.5t-33 -46.5q0 -41 60 -62l241 -67q72 -20 120 -41t96.5 -55.5t72 -88 t23.5 -125.5q0 -152 -130 -250t-335 -98q-193 0 -337 95.5t-185 228.5zM61 276q49 -121 185.5 -198.5t300.5 -77.5q193 0 314.5 90t121.5 229q0 125 -71.5 182.5t-219.5 100.5l-241 68q-80 25 -80 88q0 41 41 67.5t98 26.5q123 0 199 -94l235 67q-53 102 -169 160.5 t-263 58.5q-168 0 -287 -87t-119 -207q0 -188 244 -265l250 -73q119 -35 119 -107q0 -45 -46 -74.5t-114 -29.5q-178 0 -258 145zM375 -553l26 430h293l-67 -430h-252zM406 -524h196l60 372h-234z" glyph-name="scommaaccent" horiz-adv-x="1073" unicode="ș"/><glyph d="M31 1126v308h1253v-308h-457v-1126h-340v1126h-456zM59 1155h457v-1126h283v1126h456v250h-1196v-250zM489 -557l27 434h293l-68 -434h-252zM520 -528h197l59 376h-233z" glyph-name="uni021A" horiz-adv-x="1314" unicode="Ț"/><glyph d="M20 758v286h162v328h328v-328h281v-286h-281v-381q0 -109 108 -109q59 0 111 27l78 -260q-129 -51 -256 -51q-184 0 -276.5 104.5t-92.5 288.5v381h-162zM49 786h162v-409q0 -365 340 -365q106 0 221 39l-61 205q-39 -16 -93 -16q-137 0 -137 137v409h281v230h-281v327 h-270v-327h-162v-230zM334 -557l26 434h293l-67 -434h-252zM365 -528h196l60 376h-234z" glyph-name="uni021B" horiz-adv-x="847" unicode="ț"/><glyph d="M0 1188l223 307h307l224 -307h-287l-90 143l-90 -143h-287zM55 1217h215l97 151h20l96 -151h215l-182 249h-278z" glyph-name="circumflex" horiz-adv-x="753" unicode="ˆ"/><glyph d="M0 1495h287l90 -143l90 143h287l-224 -307h-307zM55 1466l183 -249h278l182 249h-215l-96 -151h-20l-97 151h-215z" glyph-name="caron" horiz-adv-x="753" unicode="ˇ"/><glyph d="M0 1477h248q0 -121 110.5 -121t110.5 121h248q0 -137 -91 -226.5t-267.5 -89.5t-267.5 89.5t-91 226.5zM31 1448q10 -121 97 -189.5t230.5 -68.5t230.5 68.5t97 189.5h-190q-16 -121 -137 -121t-138 121h-190z" glyph-name="breve" horiz-adv-x="716" unicode="˘"/><glyph d="M0 1341q0 72 52 123.5t126 51.5t126 -51.5t52 -123.5q0 -74 -52 -125t-126 -51t-126 51t-52 125zM29 1341q0 -61 43 -104t106.5 -43t106.5 43t43 104q0 59 -44 102.5t-105.5 43.5t-105.5 -43.5t-44 -102.5z" glyph-name="dotaccent" horiz-adv-x="356" unicode="˙"/><glyph d="M0 1368q0 111 76 184.5t190.5 73.5t190 -73.5t75.5 -184.5t-75.5 -184.5t-190 -73.5t-190.5 73.5t-76 184.5zM29 1368q0 -98 67.5 -163.5t170 -65.5t170 65.5t67.5 163.5t-67.5 163.5t-170 65.5t-170 -65.5t-67.5 -163.5zM150 1368q0 51 32.5 83t83.5 32t84 -32t33 -83 t-33 -83t-84 -32t-83.5 32t-32.5 83zM178 1368q0 -39 24.5 -62.5t63.5 -23.5t63.5 23.5t24.5 62.5q0 37 -24.5 61.5t-63.5 24.5t-63.5 -24.5t-24.5 -61.5z" glyph-name="ring" horiz-adv-x="532" unicode="˚"/><glyph d="M0 -252q0 133 150 252h231q-143 -115 -143 -193q0 -57 57 -57q61 0 119 60l53 -168q-31 -41 -95.5 -71t-142.5 -30q-98 0 -163.5 57.5t-65.5 149.5zM29 -252q0 -78 56 -128t144 -50q133 0 205 78l-35 110q-51 -37 -104 -37q-41 0 -63.5 23t-22.5 63q0 72 96 164h-145 q-131 -106 -131 -223z" glyph-name="ogonek" horiz-adv-x="466" unicode="˛"/><glyph d="M0 1176q0 319 213 319q66 0 174 -61q61 -35 80 -35q43 0 43 88h207q0 -319 -213 -320q-66 0 -174 62q-61 35 -80 35q-43 0 -43 -88h-207zM29 1204h151q6 88 70 88q27 0 102 -45q92 -51 152 -51q176 0 184 262h-151q-6 -88 -70 -88q-27 0 -102 45q-92 51 -152 51 q-176 0 -184 -262z" glyph-name="tilde" horiz-adv-x="716" unicode="˜"/><glyph d="M0 1204l168 291h293l-178 -291h-283zM389 1204l184 291h293l-194 -291h-283zM49 1233h217l144 233h-226zM440 1233h217l154 233h-221z" glyph-name="hungarumlaut" horiz-adv-x="866" unicode="˝"/><glyph d="M0 1204h-276l-234 291h356zM-47 1233l-123 233h-281l189 -233h215z" glyph-name="gravecomb" horiz-adv-x="0" unicode="̀"/><glyph d="M-510 1204l154 291h356l-233 -291h-277zM-463 1233h215l189 233h-281z" glyph-name="acutecomb" horiz-adv-x="0" unicode="́"/><glyph d="M-754 1188l224 307h307l223 -307h-287l-90 143l-90 -143h-287zM-698 1217h215l96 151h20l97 -151h215l-183 249h-278z" glyph-name="uni0302" horiz-adv-x="0" unicode="̂"/><glyph d="M-717 1176q0 319 213 319q66 0 174 -61q61 -35 80 -35q43 0 43 88h207q0 -319 -213 -320q-66 0 -174 62q-61 35 -80 35q-43 0 -43 -88h-207zM-688 1204h151q6 88 70 88q27 0 102 -45q92 -51 152 -51q176 0 184 262h-151q-6 -88 -70 -88q-27 0 -102 45q-92 51 -152 51 q-176 0 -184 -262z" glyph-name="tildecomb" horiz-adv-x="0" unicode="̃"/><glyph d="M-614 1204v226h614v-226h-614zM-586 1233h557v168h-557v-168z" glyph-name="uni0304" horiz-adv-x="0" unicode="̄"/><glyph d="M-717 1477h248q0 -121 110.5 -121t110.5 121h248q0 -137 -91 -226.5t-267.5 -89.5t-267.5 89.5t-91 226.5zM-686 1448q10 -121 97 -189.5t230.5 -68.5t230.5 68.5t97 189.5h-190q-16 -121 -137 -121t-138 121h-190z" glyph-name="uni0306" horiz-adv-x="0" unicode="̆"/><glyph d="M-356 1337q0 72 52 123t126 51t126 -51t52 -123q0 -74 -52 -125t-126 -51t-126 51t-52 125zM-328 1337q0 -61 43 -104t106.5 -43t106.5 43t43 104q0 59 -44 102.5t-105.5 43.5t-105.5 -43.5t-44 -102.5z" glyph-name="uni0307" horiz-adv-x="0" unicode="̇"/><glyph d="M-723 1306.5q0 65.5 46 110.5t111.5 45t112.5 -46t47 -109q0 -66 -47 -112t-112.5 -46t-111.5 46t-46 111.5zM-317 1306.5q0 65.5 46 110.5t111.5 45t112.5 -46t47 -109q0 -66 -47 -112t-112.5 -46t-111.5 46t-46 111.5zM-694 1306.5q0 -53.5 38 -91t91 -37.5 q55 0 93 37.5t38 91.5q0 51 -39 89t-92 38t-91 -37t-38 -90.5zM-289 1306.5q0 -53.5 38 -91t91 -37.5q55 0 93 37.5t38 91.5q0 51 -38.5 89t-92 38t-91.5 -37t-38 -90.5z" glyph-name="uni0308" horiz-adv-x="0" unicode="̈"/><glyph d="M-532 1368q0 111 75.5 184.5t190 73.5t190.5 -73.5t76 -184.5t-76 -184.5t-190.5 -73.5t-190 73.5t-75.5 184.5zM-504 1368q0 -98 67.5 -163.5t170 -65.5t170 65.5t67.5 163.5t-67.5 163.5t-170 65.5t-170 -65.5t-67.5 -163.5zM-383 1368q0 51 33 83t84 32t83.5 -32 t32.5 -83t-32.5 -83t-83.5 -32t-84 32t-33 83zM-354 1368q0 -39 24.5 -62.5t63.5 -23.5t63.5 23.5t24.5 62.5q0 37 -24.5 61.5t-63.5 24.5t-63.5 -24.5t-24.5 -61.5z" glyph-name="uni030A" horiz-adv-x="0" unicode="̊"/><glyph d="M-866 1204l168 291h292l-178 -291h-282zM-477 1204l184 291h293l-195 -291h-282zM-817 1233h217l143 233h-225zM-426 1233h217l154 233h-221z" glyph-name="uni030B" horiz-adv-x="0" unicode="̋"/><glyph d="M-754 1495h287l90 -143l90 143h287l-223 -307h-307zM-698 1466l182 -249h278l183 249h-215l-97 -151h-20l-96 151h-215z" glyph-name="uni030C" horiz-adv-x="0" unicode="̌"/><glyph d="M0 1647l-27 -430h-292l67 430h252zM-31 1618h-196l-60 -373h234z" glyph-name="uni0312" horiz-adv-x="0" unicode="̒"/><glyph d="M-319 -553l26 430h293l-68 -430h-251zM-289 -524h197l59 372h-233z" glyph-name="uni0326" horiz-adv-x="0" unicode="̦"/><glyph d="M-469 -387l35 121q55 -39 133 -38t78 54q0 45 -57.5 61.5t-110.5 0.5l59 188h228l-35 -109q59 -10 99 -56t40 -103q0 -88 -67.5 -139.5t-180.5 -51.5q-129 0 -221 72zM-436 -375q82 -55 188 -55q102 0 160.5 43t58.5 119q0 55 -44 95t-105 38l35 106h-168l-41 -125 q68 6 112.5 -21.5t44.5 -74.5q0 -61 -72.5 -78.5t-148.5 19.5z" glyph-name="uni0327" horiz-adv-x="0" unicode="̧"/><glyph d="M-467 -252q0 133 150 252h231q-143 -115 -143 -193q0 -57 57 -57q61 0 119 60l53 -168q-31 -41 -95.5 -71t-142.5 -30q-98 0 -163.5 57.5t-65.5 149.5zM-438 -252q0 -78 56 -128t144 -50q133 0 205 78l-35 110q-51 -37 -104 -37q-41 0 -63.5 23t-22.5 63q0 72 96 164 h-145q-131 -106 -131 -223z" glyph-name="uni0328" horiz-adv-x="0" unicode="̨"/><glyph d="M0 0l524 1434h447l524 -1434h-1495zM41 29h1413l-504 1376h-405zM418 272l323 899h13l323 -899h-659zM459 301h577l-288 803z" glyph-name="Delta" horiz-adv-x="1495" unicode="Δ"/><glyph d="M61 0v297h215q-215 193 -215 479q0 285 217.5 485.5t543 200.5t542.5 -200.5t217 -485.5q0 -287 -215 -479h215v-297h-612v297q119 53 196.5 177t77.5 253q0 184 -116.5 303t-305 119t-305.5 -119t-117 -303q0 -129 79 -253t198 -177v-297h-615zM90 29h557v250 q-121 59 -198.5 186t-77.5 262q0 199 126 325t324.5 126t324.5 -126t126 -325q0 -133 -78 -261t-197 -187v-250h555v239h-262q262 203 262 508q0 276 -211 467t-520 191t-520 -190.5t-211 -467.5q0 -305 262 -508h-262v-239z" glyph-name="Omega" horiz-adv-x="1642" unicode="Ω"/><glyph d="M123 -430v1474h328v-542q0 -227 186 -228q94 0 148.5 70t54.5 191v509h327v-702q0 -96 70 -96q23 0 59 12l68 -250q-92 -37 -176 -37q-207 0 -291 125q-109 -125 -289 -125q-80 0 -157 31v-432h-328zM152 -401h270v448q98 -47 186 -47q193 0 293 147q70 -147 287 -147 q66 0 141 27l-53 194q-20 -4 -39 -4q-98 0 -98 125v674h-271v-481q0 -133 -62.5 -211t-168.5 -78q-102 0 -158.5 66.5t-56.5 189.5v514h-270v-1417z" glyph-name="mu" horiz-adv-x="1374" unicode="μ"/><glyph d="M31 756v286h1263v-286h-188v-416q0 -94 65 -94q31 0 62 10l67 -240q-84 -37 -178 -36q-324 0 -323 360v416h-271v-756h-307v756h-190zM59 784h191v-755h250v755h327v-444q0 -172 72 -252t223 -80q76 0 144 25l-54 188q-29 -4 -41 -4q-94 0 -94 123v444h189v230h-1207 v-230z" glyph-name="pi" horiz-adv-x="1331" unicode="π"/><glyph d="M1198 1593h-276l-234 291h356zM1028 1855h-280l188 -233h215zM1708 1434h358l-428 -1434h-368l-236 817l-237 -817h-369l-428 1434h358l260 -922l263 922h305l262 -922zM1618 29l410 1376h-297l-281 -1004l-287 1004h-260l-287 -1004l-280 1004h-297l410 -1376h325 l260 891l258 -891h326z" glyph-name="Wgrave" horiz-adv-x="2066" unicode="Ẁ"/><glyph d="M1018 1204h-277l-233 291h356zM971 1233l-123 233h-281l189 -233h215zM0 1044h338l190 -626l189 626h272l191 -626l188 626h338l-360 -1044h-304l-188 586l-190 -586h-304zM41 1016l340 -987h262l211 649l209 -649h262l340 987h-276l-201 -670h-17l-202 670h-232 l-200 -670h-17l-203 670h-276z" glyph-name="wgrave" horiz-adv-x="1705" unicode="ẁ"/><glyph d="M1380 1884l-233 -291h-277l154 291h356zM918 1622h215l188 233h-281zM1708 1434h358l-428 -1434h-368l-236 817l-237 -817h-369l-428 1434h358l260 -922l263 922h305l262 -922zM1618 29l410 1376h-297l-281 -1004l-287 1004h-260l-287 -1004l-280 1004h-297l410 -1376 h325l260 891l258 -891h326z" glyph-name="Wacute" horiz-adv-x="2066" unicode="Ẃ"/><glyph d="M690 1204l154 291h356l-233 -291h-277zM737 1233h215l189 233h-281zM0 1044h338l190 -626l189 626h272l191 -626l188 626h338l-360 -1044h-304l-188 586l-190 -586h-304zM41 1016l340 -987h262l211 649l209 -649h262l340 987h-276l-201 -670h-17l-202 670h-232l-200 -670 h-17l-203 670h-276z" glyph-name="wacute" horiz-adv-x="1705" unicode="ẃ"/><glyph d="M829.5 1538q-65.5 0 -111.5 46t-46 111.5t46 110.5t111.5 45t112.5 -46t47 -109q0 -66 -47 -112t-112.5 -46zM1234.5 1538q-65.5 0 -111.5 46t-46 111.5t46 110.5t111.5 45t113 -46t47.5 -109q0 -66 -47.5 -112t-113 -46zM829.5 1823q-53.5 0 -91.5 -37t-38 -90.5t38 -91 t91 -37.5q55 0 93.5 37.5t38.5 91.5q0 51 -39 89t-92.5 38zM1235 1823q-53 0 -91 -37t-38 -90.5t38 -91t91 -37.5q55 0 93 37.5t38 91.5q0 51 -39 89t-92 38zM1708 1434h358l-428 -1434h-368l-236 817l-237 -817h-369l-428 1434h358l260 -922l263 922h305l262 -922zM1618 29 l410 1376h-297l-281 -1004l-287 1004h-260l-287 -1004l-280 1004h-297l410 -1376h325l260 891l258 -891h326z" glyph-name="Wdieresis" horiz-adv-x="2066" unicode="Ẅ"/><glyph d="M492 1306.5q0 65.5 46 110.5t111.5 45t112.5 -46t47 -109q0 -66 -47 -112t-112.5 -46t-111.5 46t-46 111.5zM897 1306.5q0 65.5 46 110.5t111.5 45t112.5 -46t47 -109q0 -66 -47 -112t-112.5 -46t-111.5 46t-46 111.5zM520 1306.5q0 -53.5 38 -91t91 -37.5q55 0 93 37.5 t38 91.5q0 51 -39 89t-92 38t-91 -37t-38 -90.5zM926 1306.5q0 -53.5 37.5 -91t91.5 -37.5q55 0 93 37.5t38 91.5q0 51 -39 89t-92.5 38t-91 -37t-37.5 -90.5zM0 1044h338l190 -626l189 626h272l191 -626l188 626h338l-360 -1044h-304l-188 586l-190 -586h-304zM41 1016 l340 -987h262l211 649l209 -649h262l340 987h-276l-201 -670h-17l-202 670h-232l-200 -670h-17l-203 670h-276z" glyph-name="wdieresis" horiz-adv-x="1705" unicode="ẅ"/><glyph d="M872 1593h-276l-234 291h357zM825 1622l-123 233h-280l188 -233h215zM0 1434h383l326 -586l325 586h381l-534 -918v-516h-344v516zM49 1405l516 -881v-495h287v495l514 881h-315l-342 -617l-342 617h-318z" glyph-name="Ygrave" horiz-adv-x="1415" unicode="Ỳ"/><glyph d="M791 1204h-277l-233 291h356zM743 1233l-122 233h-281l188 -233h215zM0 1044h358l273 -636l256 636h350l-621 -1474h-333l186 455zM45 1016l455 -991l-174 -426h272l596 1417h-289l-274 -682l-291 682h-295z" glyph-name="ygrave" horiz-adv-x="1236" unicode="ỳ"/><glyph d="M113 492v266h1024v-266h-1024zM141 520h967v209h-967v-209z" glyph-name="endash" horiz-adv-x="1249" unicode="–"/><glyph d="M113 492v266h1638v-266h-1638zM141 520h1581v209h-1581v-209z" glyph-name="emdash" horiz-adv-x="1863" unicode="—"/><glyph d="M510 1434l-90 -605h-338l174 605h254zM477 1405h-198l-158 -547h274z" glyph-name="quoteleft" horiz-adv-x="591" unicode="‘"/><glyph d="M82 829l90 605h338l-174 -605h-254zM115 858h198l158 547h-274z" glyph-name="quoteright" horiz-adv-x="591" unicode="’"/><glyph d="M82 -281l90 605h338l-174 -605h-254zM115 -252h198l158 547h-274z" glyph-name="quotesinglbase" horiz-adv-x="591" unicode="‚"/><glyph d="M510 1434l-90 -605h-338l174 605h254zM940 1434l-90 -605h-338l174 605h254zM477 1405h-198l-158 -547h274zM907 1405h-198l-158 -547h274z" glyph-name="quotedblleft" horiz-adv-x="1021" unicode="“"/><glyph d="M82 829l90 605h338l-174 -605h-254zM512 829l90 605h338l-174 -605h-254zM115 858h198l158 547h-274zM545 858h198l158 547h-274z" glyph-name="quotedblright" horiz-adv-x="1021" unicode="”"/><glyph d="M82 -281l90 605h338l-174 -605h-254zM512 -281l90 605h338l-174 -605h-254zM115 -252h198l158 547h-274zM545 -252h198l158 547h-274z" glyph-name="quotedblbase" horiz-adv-x="1021" unicode="„"/><glyph d="M61 901v297h297v297h328v-297h297v-297h-297v-901h-328v901h-297zM90 930h297v-901h270v901h297v239h-297v297h-270v-297h-297v-239z" glyph-name="dagger" horiz-adv-x="1044" unicode="†"/><glyph d="M61 297v297h297v307h-297v297h297v297h328v-297h297v-297h-297v-307h297v-297h-297v-297h-328v297h-297zM90 326h297v-297h270v297h297v239h-297v365h297v239h-297v297h-270v-297h-297v-239h297v-365h-297v-239z" glyph-name="daggerdbl" horiz-adv-x="1044" unicode="‡"/><glyph d="M82 598q0 115 83 192.5t206 81.5q119 2 201.5 -77.5t82.5 -196.5q0 -121 -83 -205t-201 -82q-121 2 -205 85t-84 202zM111 598q0 -106 75.5 -181t184.5 -77q106 -2 181 73.5t75 184.5q0 104 -75 176t-181 70q-111 -2 -185.5 -73t-74.5 -173z" glyph-name="bullet" horiz-adv-x="737" unicode="•"/><glyph d="M82 176q0 78 56.5 132t137.5 54q80 0 136.5 -54t56.5 -132q0 -82 -56.5 -137t-136.5 -55q-82 0 -138 55t-56 137zM582 176q0 78 56 132t138 54q80 0 136.5 -54t56.5 -132q0 -82 -56.5 -137t-136.5 -55q-82 0 -138 55t-56 137zM1081 176q0 78 56.5 132t138.5 54 q80 0 136 -54t56 -132q0 -82 -56 -137t-136 -55q-82 0 -138.5 55t-56.5 137zM111 176q0 -70 48 -117t117.5 -47t116.5 47t47 117q0 66 -48 112t-116 46q-70 0 -117.5 -46t-47.5 -112zM610 176q0 -70 48.5 -117t118 -47t116.5 47t47 117q0 66 -48 112t-116 46q-70 0 -118 -46 t-48 -112zM1110 176q0 -70 48 -117t118 -47t117 47t47 117q0 66 -48.5 112t-115.5 46q-70 0 -118 -46t-48 -112z" glyph-name="ellipsis" horiz-adv-x="1550" unicode="…"/><glyph d="M72 1030q0 176 123.5 297t306 121t306.5 -121t124 -297t-124 -297t-306 -121q-180 0 -305 121t-125 297zM504 0l930 1434h254l-928 -1434h-256zM100 1030q0 -164 117 -276.5t285 -112.5q170 0 285.5 112.5t115.5 276.5t-115.5 276.5t-285.5 112.5t-286 -112.5 t-116 -276.5zM557 29h186l891 1376h-184zM289 1030q0 90 60.5 150.5t152.5 60.5t152.5 -60.5t60.5 -150.5t-61.5 -150.5t-151.5 -60.5t-151.5 60.5t-61.5 150.5zM317 1030q0 -76 52.5 -129t132.5 -53t132 53t52 129q0 78 -52 130t-132 52t-132.5 -52t-52.5 -130zM1262 401.5 q0 176.5 123.5 297t306 120.5t306.5 -120.5t124 -297t-124 -297t-306 -120.5q-180 0 -305 120.5t-125 297zM2202 401.5q0 176.5 123.5 297t306 120.5t306.5 -120.5t124 -297t-124 -297t-306 -120.5q-180 0 -305 120.5t-125 297zM1290 401.5q0 -163.5 117 -276.5t285 -113 q170 0 285.5 113t115.5 276.5t-115.5 276.5t-285.5 113t-286 -113t-116 -276.5zM2230 401.5q0 -163.5 117 -276.5t285 -113q170 0 285.5 113t115.5 276.5t-115.5 276.5t-285.5 113t-286 -113t-116 -276.5zM1479 401.5q0 90.5 60 150.5t152.5 60t153 -60t60.5 -150.5 t-61.5 -151t-151.5 -60.5t-151.5 60.5t-61.5 151zM2419 401.5q0 90.5 60.5 150.5t152.5 60t152.5 -60t60.5 -150.5t-61.5 -151t-151.5 -60.5t-151.5 60.5t-61.5 151zM1507 401q0 -76 52.5 -129t132.5 -53t132 53.5t52 128.5q0 78 -52 130.5t-132 52.5t-132.5 -52.5 t-52.5 -130.5zM2447 401q0 -76 52.5 -129t132.5 -53t132 53.5t52 128.5q0 78 -52 130.5t-132 52.5t-132.5 -52.5t-52.5 -130.5z" glyph-name="perthousand" horiz-adv-x="3133" unicode="‰"/><glyph d="M614 266h-286l-215 389l215 389h286l-204 -389zM567 295l-190 360l190 361h-223l-199 -361l199 -360h223z" glyph-name="guilsinglleft" horiz-adv-x="727" unicode="‹"/><glyph d="M113 266l204 389l-204 389h286l215 -389l-215 -389h-286zM160 295h223l199 360l-199 361h-223l190 -361z" glyph-name="guilsinglright" horiz-adv-x="727" unicode="›"/><glyph d="M-369 0l885 1434h215l-885 -1434h-215zM-317 29h147l850 1376h-148z" glyph-name="fraction" horiz-adv-x="362" unicode="⁄"/><glyph d="M41 1333.5q0 200.5 103.5 315t277.5 114.5q166 0 272.5 -116.5t106.5 -313.5q0 -201 -103.5 -317.5t-275.5 -116.5q-174 0 -277.5 117t-103.5 317.5zM70 1333q0 -188 95 -296.5t257 -108.5t256 109.5t94 295.5q0 180 -96 291t-254 111q-164 0 -258 -108t-94 -294z M264 1333q0 111 41 171.5t117 60.5t116 -60.5t40 -171.5q0 -113 -40 -174t-116 -61q-158 -1 -158 235zM293 1333q0 -207 129 -207q127 0 127 207q0 203 -127 203q-129 0 -129 -203z" glyph-name="uni2070" horiz-adv-x="841" unicode="⁰"/><glyph d="M10 1063v182l262 496h252l-243 -473h108v112h229v-112h91v-205h-91v-141h-229v141h-379zM39 1092h379v-142h172v142h90v147h-90v113h-172v-113h-182l243 473h-190l-250 -473v-147z" glyph-name="uni2074" horiz-adv-x="729" unicode="⁴"/><glyph d="M31 1135l211 59q37 -90 118 -90q41 0 66 22.5t25 57.5q0 37 -26 60.5t-71 23.5q-63 0 -116 -31l-175 55l39 449h535v-205h-338l-6 -100q45 14 115 14q123 0 195.5 -76t72.5 -194q0 -121 -85 -201t-220 -80q-143 0 -230 69t-110 167zM66 1114q29 -86 110.5 -136t194.5 -50 q121 0 198.5 70.5t77.5 181.5q0 109 -65.5 175t-173.5 66q-68 0 -107 -12l-39 -12l10 168h336v147h-479l-35 -399l139 -45q55 29 121 28q55 0 90 -30.5t35 -81.5q0 -47 -33.5 -78t-85.5 -31q-86 0 -135 84z" glyph-name="uni2075" horiz-adv-x="716" unicode="⁵"/><glyph d="M20 1198q4 84 58 174l229 369h248l-156 -256q119 -10 200 -89t81 -200q0 -129 -94 -213t-236 -84q-143 0 -238.5 85t-91.5 214zM49 1198q-4 -115 82 -192.5t219 -77.5q131 0 216 76.5t85 191.5q0 106 -69.5 178t-184.5 82q-20 2 -47 2l154 254h-180l-222 -354 q-51 -82 -53 -160zM223 1196q0 53 36 87t91.5 34t91 -34t35.5 -87t-34.5 -87t-92 -34t-92.5 34t-35 87zM252 1196q0 -41 26.5 -66.5t71.5 -25.5t72 25.5t27 66.5q0 39 -27 65.5t-72 26.5t-71.5 -26.5t-26.5 -65.5z" glyph-name="uni2076" horiz-adv-x="700" unicode="⁶"/><glyph d="M6 1532v209h623v-166l-273 -653h-254l254 610h-350zM35 1561h364l-254 -611h193l262 631v131h-565v-151z" glyph-name="uni2077" horiz-adv-x="638" unicode="⁷"/><glyph d="M31 1159q0 141 127 209q-92 55 -92 166q0 96 83.5 162.5t221.5 66.5q135 0 219 -66.5t84 -162.5q0 -111 -92 -166q127 -68 127 -209q0 -113 -92.5 -186.5t-246 -73.5t-246.5 73.5t-93 186.5zM59 1159q0 -102 86 -166.5t226 -64.5q137 0 223 64.5t86 166.5q0 139 -156 209 q121 53 121 166q0 88 -78 144.5t-196 56.5q-121 0 -199 -56.5t-78 -144.5q0 -111 123 -166q-158 -70 -158 -209zM258 1499q0 43 32 70.5t81 27.5t80.5 -27.5t31.5 -70.5t-31.5 -70.5t-80.5 -27.5t-81 27.5t-32 70.5zM287 1499q0 -31 22.5 -50t61.5 -19t61.5 19t22.5 50 t-22.5 50.5t-61.5 19.5t-61.5 -19.5t-22.5 -50.5zM246 1186q0 49 35.5 80.5t89 31.5t89.5 -31.5t36 -80.5q0 -51 -34 -83t-91.5 -32t-91 32t-33.5 83zM274 1186q0 -39 25 -62.5t72 -23.5t71.5 23.5t24.5 62.5q0 35 -25.5 59.5t-70.5 24.5t-71 -24.5t-26 -59.5z" glyph-name="uni2078" horiz-adv-x="739" unicode="⁸"/><glyph d="M680 1464q-4 -84 -57 -174l-230 -368h-248l156 256q-119 10 -200 89t-81 199q0 129 94.5 213t235.5 84q143 0 238.5 -85t91.5 -214zM651 1464q4 115 -82 193t-219 78q-131 0 -216 -77t-85 -192q0 -106 69.5 -177.5t184.5 -82.5q20 -2 47 -2l-153 -254h180l221 355 q51 81 53 159zM477 1466.5q0 -53.5 -35.5 -87t-91 -33.5t-91.5 33.5t-36 87t35 87t92.5 33.5t92 -33.5t34.5 -87zM449 1466q0 41 -27 67t-72 26t-71.5 -26t-26.5 -67q0 -39 26.5 -65.5t71.5 -26.5t72 26.5t27 65.5z" glyph-name="uni2079" horiz-adv-x="700" unicode="⁹"/><glyph d="M41 104.5q0 200.5 103.5 315.5t277.5 115q166 0 272.5 -117t106.5 -314q0 -201 -103.5 -317.5t-275.5 -116.5q-174 0 -277.5 117t-103.5 317.5zM70 104q0 -188 95 -296.5t257 -108.5t256 109.5t94 295.5q0 180 -96 291t-254 111q-164 0 -258 -108t-94 -294zM264 104 q0 111 41 171.5t117 60.5t116 -60.5t40 -171.5q0 -113 -40 -174t-116 -61q-158 -1 -158 235zM293 104q0 -207 129 -206q127 0 127 206q0 203 -127 203q-129 0 -129 -203z" glyph-name="uni2080" horiz-adv-x="841" unicode="₀"/><glyph d="M0 367l276 145h209v-819h-243v549l-183 -84zM35 352l43 -153l192 88v-566h187v762h-174z" glyph-name="uni2081" horiz-adv-x="587" unicode="₁"/><glyph d="M31 260q12 113 101 194t220 81q150 0 238 -71t88 -198q0 -70 -28.5 -122t-94.5 -109l-149 -133h284v-209h-655v149l319 297q76 74 76 119q0 27 -19.5 45.5t-54.5 18.5q-80 0 -106 -125zM63 281l166 -50q33 119 127 119q45 0 74 -25.5t29 -66.5q0 -57 -84 -139l-312 -289 v-109h599v152h-330l205 184q63 55 87.5 101.5t24.5 107.5q0 113 -78.5 176.5t-218.5 63.5q-106 0 -187.5 -63.5t-101.5 -161.5z" glyph-name="uni2082" horiz-adv-x="731" unicode="₂"/><glyph d="M31 -57l211 61q10 -59 46 -94t89 -35q45 0 70.5 23.5t25.5 62.5t-26.5 65.5t-81.5 26.5q-37 0 -74 -6l-35 127l125 135h-320v203h613v-164l-148 -145q80 -25 128 -88.5t48 -155.5q0 -123 -91 -206t-228 -83q-160 0 -247 79t-105 194zM63 -78q27 -106 109 -164.5 t211 -58.5q125 0 208 74.5t83 185.5q0 166 -156 217l-43 12l170 172v123h-555v-145h356l-157 -172l22 -86q18 2 54 2q61 0 99 -33t38 -88q0 -51 -35 -83t-90 -32q-117 0 -156 123z" glyph-name="uni2083" horiz-adv-x="743" unicode="₃"/><glyph d="M10 -166v182l262 496h252l-243 -473h108v113h229v-113h91v-205h-91v-141h-229v141h-379zM39 -137h379v-142h172v142h90v147h-90v113h-172v-113h-182l243 473h-190l-250 -473v-147z" glyph-name="uni2084" horiz-adv-x="729" unicode="₄"/><glyph d="M31 -94l211 59q37 -90 118 -90q41 0 66 22.5t25 57.5q0 37 -26 60.5t-71 23.5q-63 0 -116 -31l-175 55l39 449h535v-205h-338l-6 -100q45 14 115 14q123 0 195.5 -75.5t72.5 -194.5q0 -121 -85 -201t-220 -80q-143 0 -230 69t-110 167zM66 -115q29 -86 110.5 -136 t194.5 -50q121 0 198.5 70.5t77.5 181.5q0 109 -65.5 175.5t-173.5 66.5q-68 0 -107 -13l-39 -12l10 168h336v147h-479l-35 -399l139 -45q55 29 121 29q55 0 90 -31t35 -82q0 -47 -33.5 -78t-85.5 -31q-86 0 -135 84z" glyph-name="uni2085" horiz-adv-x="716" unicode="₅"/><glyph d="M20 -31q4 84 58 174l229 369h248l-156 -256q119 -10 200 -89t81 -200q0 -129 -94 -213t-236 -84q-143 0 -238.5 85t-91.5 214zM49 -31q-4 -115 82 -192.5t219 -77.5q131 0 216 77t85 191q0 106 -69.5 178t-184.5 82q-20 2 -47 2l154 254h-180l-222 -354q-51 -82 -53 -160 zM223 -33q0 53 36 87t91.5 34t91 -34t35.5 -87t-34.5 -87t-92 -34t-92.5 34t-35 87zM252 -33q0 -41 26.5 -66.5t71.5 -25.5t72 25.5t27 66.5q0 39 -27 65.5t-72 26.5t-71.5 -26.5t-26.5 -65.5z" glyph-name="uni2086" horiz-adv-x="700" unicode="₆"/><glyph d="M6 303v209h623v-166l-273 -653h-254l254 610h-350zM35 332h364l-254 -611h193l262 631v131h-565v-151z" glyph-name="uni2087" horiz-adv-x="638" unicode="₇"/><glyph d="M31 -70q0 141 127 209q-92 55 -92 166q0 96 83.5 163t221.5 67q135 0 219 -67t84 -163q0 -111 -92 -166q127 -68 127 -209q0 -113 -92.5 -186.5t-246 -73.5t-246.5 73.5t-93 186.5zM59 -70q0 -102 86 -166.5t226 -64.5q137 0 223 64.5t86 166.5q0 139 -156 209 q121 53 121 166q0 88 -78 144.5t-196 56.5q-121 0 -199 -56.5t-78 -144.5q0 -111 123 -166q-158 -70 -158 -209zM258 270q0 43 32 71t81 28t80.5 -28t31.5 -71t-31.5 -70.5t-80.5 -27.5t-81 27.5t-32 70.5zM287 270.5q0 -30.5 22.5 -50t61.5 -19.5t61.5 19.5t22.5 50 t-22.5 50t-61.5 19.5t-61.5 -19.5t-22.5 -50zM246 -43q0 49 35.5 81t89 32t89.5 -32t36 -81q0 -51 -34 -83t-91.5 -32t-91 32t-33.5 83zM274 -43q0 -39 25 -62.5t72 -23.5t71.5 23.5t24.5 62.5q0 35 -25.5 59.5t-70.5 24.5t-71 -24.5t-26 -59.5z" glyph-name="uni2088" horiz-adv-x="739" unicode="₈"/><glyph d="M680 236q-4 -84 -57 -175l-230 -368h-248l156 256q-119 10 -200 89t-81 200q0 129 94.5 213t235.5 84q143 0 238.5 -85t91.5 -214zM651 236q4 115 -82 192.5t-219 77.5q-131 0 -216 -77t-85 -191q0 -106 69.5 -178t184.5 -83q20 -2 47 -2l-153 -254h180l221 355 q51 82 53 160zM477 237.5q0 -53.5 -35.5 -87t-91 -33.5t-91.5 33.5t-36 87t35 87t92.5 33.5t92 -33.5t34.5 -87zM449 238q0 41 -27 66.5t-72 25.5t-71.5 -25.5t-26.5 -66.5q0 -39 26.5 -66t71.5 -27t72 27t27 66z" glyph-name="uni2089" horiz-adv-x="700" unicode="₉"/><glyph d="M61 217v174h119v1043h1020v-310h-680v-243h617v-303h-617v-187h320v-174h-320v-217h-340v217h-119zM90 246h119v-217h283v217h319v116h-319v244h616v246h-616v301h679v252h-962v-1043h-119v-116z" glyph-name="franc" horiz-adv-x="1292" unicode="₣"/><glyph d="M82 0v315h133v115h-109v174h109v109h-109v174h109v117q0 219 134 338.5t358 119.5q188 0 317 -114.5t147 -272.5l-305 -88q-35 172 -168 172q-70 0 -108.5 -47t-38.5 -129v-96h457v-174h-457v-109h457v-174h-457v-115h694v-315h-1163zM111 29h1106v258h-695v172h457v116 h-457v166h457v117h-457v125q0 94 47 149.5t129 55.5q141 0 189 -166l252 74q-27 145 -149 241.5t-283 96.5q-217 0 -340 -115t-123 -315v-146h-109v-117h109v-166h-109v-116h109v-172h-133v-258z" glyph-name="lira" horiz-adv-x="1306" unicode="₤"/><glyph d="M1278 397l207 -264q-201 -162 -488 -162q-262 0 -458.5 142.5t-266.5 375.5h-231v175h201l-2 53q0 37 2 55h-201v174h231q72 231 266.5 373.5t452.5 142.5q285 0 490 -162l-207 -264q-113 106 -281 107q-233 0 -348 -197h461v-174h-516q-2 -18 -2 -53q0 -18 4 -55h514 v-175h-459q53 -90 142.5 -144t203.5 -54q174 0 285 106zM295 518q63 -236 254.5 -377t447.5 -141q262 0 447 137l-170 219q-113 -94 -281 -94q-270 0 -393 256h477v117h-512q-6 74 -6 84q0 51 6 82h512v117h-481q125 254 397 253q160 0 277 -94l170 217q-188 139 -449 140 q-250 0 -441.5 -140.5t-256.5 -375.5h-223v-117h206q-8 -29 -8 -82l4 -84h-202v-117h225z" glyph-name="Euro" horiz-adv-x="1546" unicode="€"/><glyph d="M61 0v295h168v846h-168v293h261v297h237v-297h170v297h238v-301q186 -18 296.5 -123t110.5 -263q0 -195 -170 -294q221 -109 221 -340q0 -182 -121.5 -291t-336.5 -119v-297h-238v297h-170v-297h-237v297h-261zM90 29h260v-297h180v297h228v-297h180v297q217 2 338 103 t121 278q0 227 -242 333v9q190 98 191 292q0 152 -111 250.5t-297 108.5v299h-180v-297h-228v297h-180v-297h-260v-236h168v-903h-168v-237zM532 829v340h357q78 2 131 -47t53 -120.5t-53 -122t-131 -50.5h-357zM561 858h328q66 0 110.5 42t44.5 101.5t-45 100.5t-110 39 h-328v-283zM532 266v350h394q84 0 138 -49t54 -127q0 -76 -54 -125t-138 -49h-394zM561 295h365q74 0 119 43t45 102q0 63 -44.5 105.5t-119.5 42.5h-365v-293z" glyph-name="uni20BF" horiz-adv-x="1517" unicode="₿"/><glyph d="M1516 1114.5q0 147.5 103 247.5t257 100q152 0 254 -100t102 -248q0 -145 -103.5 -246.5t-252.5 -101.5q-154 0 -257 100.5t-103 248zM123 0v1434h276l645 -822v822h340v-1434h-276l-645 821v-821h-340zM1544 1114q0 -135 96.5 -227t235.5 -92t233.5 92t94.5 227 t-94.5 227.5t-233.5 92.5q-141 0 -236.5 -92.5t-95.5 -227.5zM152 29h282v874l688 -874h234v1376h-283v-875l-688 875h-233v-1376zM1712 1114q0 70 46 115t118 45q68 0 114 -46t46 -114q0 -66 -47 -113t-113 -47q-72 0 -118 45t-46 115zM1741 1114q0 -55 38 -93t97 -38 q55 0 93 39t38 92q0 55 -38 93t-93 38q-61 0 -98 -37t-37 -94zM1552 449v225h643v-225h-643zM1581 477h586v168h-586v-168z" glyph-name="afii61352" horiz-adv-x="2293" unicode="№"/><glyph d="M61 1264v170h574v-170h-197v-486h-184v486h-193zM696 778v656h185l182 -267l180 267h189v-656h-181v367l-186 -258l-193 258v-367h-176zM90 1292h193v-485h127v485h196v113h-516v-113zM725 807h119v424l221 -295l215 297v-426h123v598h-146l-194 -289l-197 289h-141v-598 z" glyph-name="trademark" horiz-adv-x="1492" unicode="™"/><glyph d="M68 721q0 305 229 521t555 216t554 -216t228 -521v-33h-1259v-432q184 -217 495 -217q287 0 469 192h162q-260 -254 -631 -254q-344 0 -573 214.5t-229 529.5zM96 721q0 -305 222.5 -510t551.5 -205q324 0 555 197h-73q-193 -193 -482 -193q-330 0 -524 236v471h1260v4 q0 295 -220.5 502t-533.5 207t-534.5 -208t-221.5 -501zM346 721v469q195 236 506 235q309 0 504 -235v-469h-1010zM375 750h952v430q-184 217 -475 217q-293 0 -477 -217v-430z" glyph-name="estimated" horiz-adv-x="1701" unicode="℮"/><glyph d="M0 1288l276 146h209v-820h-243v549l-183 -84zM219 0l885 1434h215l-885 -1434h-215zM35 1274l43 -154l192 88v-565h187v762h-174zM270 29h148l850 1376h-148zM981 238q0 141 127 208q-92 55 -92 166q0 96 84 163t221 67q135 0 219 -66.5t84 -163.5q0 -111 -92 -166 q127 -68 127 -208q0 -113 -92 -187t-246 -74t-247 74t-93 187zM1010 238q0 -102 86 -167t225 -65q137 0 223 64.5t86 167.5q0 139 -155 208q121 53 120 166q0 88 -77.5 144.5t-196.5 56.5q-121 0 -199 -56.5t-78 -144.5q0 -111 123 -166q-157 -69 -157 -208zM1208 578 q0 43 32 70.5t81 27.5t81 -27.5t32 -70.5t-32 -71t-81 -28t-81 28t-32 71zM1237 577.5q0 -30.5 22.5 -50t61.5 -19.5t61.5 19.5t22.5 50t-22.5 50t-61.5 19.5t-61.5 -19.5t-22.5 -50zM1196 264q0 49 36 81t89 32t89 -32t36 -81q0 -51 -34 -82.5t-91 -31.5t-91 31.5t-34 82.5 zM1225 264q0 -39 24.5 -62.5t71.5 -23.5t71.5 23.5t24.5 62.5q0 35 -25.5 59.5t-70.5 24.5t-70.5 -24.5t-25.5 -59.5z" glyph-name="oneeighth" horiz-adv-x="1689" unicode="⅛"/><glyph d="M31 864l211 62q10 -59 46 -94t89 -35q45 0 70.5 23.5t25.5 62.5t-26.5 65.5t-81.5 26.5q-37 0 -74 -6l-35 127l125 135h-320v203h613v-164l-148 -146q80 -25 128 -88t48 -155q0 -123 -91 -206t-228 -83q-160 0 -247 78.5t-105 193.5zM375 0l885 1434h215l-885 -1434h-215 zM63 844q27 -106 109 -164.5t211 -58.5q125 0 208 74.5t83 185.5q0 166 -156 217l-43 12l170 172v123h-555v-145h356l-157 -173l22 -86q18 2 54 3q61 0 99 -33t38 -88q0 -51 -35 -83t-90 -32q-117 0 -156 123zM426 29h147l850 1376h-147zM1137 238q0 141 127 208 q-92 55 -93 166q0 96 84 163t222 67q135 0 219 -66.5t84 -163.5q0 -111 -92 -166q127 -68 127 -208q0 -113 -92.5 -187t-246 -74t-246.5 74t-93 187zM1165 238q0 -102 86 -167t226 -65q137 0 223 64.5t86 167.5q0 139 -156 208q121 53 121 166q0 88 -78 144.5t-196 56.5 q-121 0 -199 -56.5t-78 -144.5q0 -111 123 -166q-158 -69 -158 -208zM1364 578q0 43 31.5 70.5t81 27.5t81 -27.5t31.5 -70.5t-31.5 -71t-81 -28t-81 28t-31.5 71zM1393 577.5q0 -30.5 22.5 -50t61.5 -19.5t61.5 19.5t22.5 50t-22.5 50t-61.5 19.5t-61.5 -19.5t-22.5 -50z M1352 264q0 49 35.5 81t89 32t89.5 -32t36 -81q0 -51 -34 -82.5t-91.5 -31.5t-91 31.5t-33.5 82.5zM1380 264q0 -39 25 -62.5t72 -23.5t71.5 23.5t24.5 62.5q0 35 -25.5 59.5t-70.5 24.5t-71 -24.5t-26 -59.5z" glyph-name="threeeighths" horiz-adv-x="1845" unicode="⅜"/><glyph d="M31 827l211 60q37 -90 118 -90q41 0 66 22.5t25 57.5q0 37 -26 60.5t-71 23.5q-63 0 -116 -31l-175 55l39 449h535v-205h-338l-6 -101q45 14 115 15q123 0 195.5 -76t72.5 -195q0 -121 -85 -200.5t-220 -79.5q-143 0 -230 68.5t-110 166.5zM348 0l885 1434h215 l-885 -1434h-215zM66 807q29 -86 110.5 -136t194.5 -50q121 0 198.5 70.5t77.5 180.5q0 109 -65.5 175.5t-173.5 66.5q-68 0 -107 -12l-39 -12l10 167h336v148h-479l-35 -399l139 -45q55 29 121 28q55 0 90 -30.5t35 -81.5q0 -47 -33.5 -78t-85.5 -31q-86 0 -135 84zM399 29 h148l850 1376h-148zM1110 238q0 141 127 208q-92 55 -92 166q0 96 84 163t221 67q135 0 219 -66.5t84 -163.5q0 -111 -92 -166q127 -68 127 -208q0 -113 -92 -187t-246 -74t-247 74t-93 187zM1139 238q0 -102 86 -167t225 -65q137 0 223 64.5t86 167.5q0 139 -155 208 q121 53 120 166q0 88 -77.5 144.5t-196.5 56.5q-121 0 -198.5 -56.5t-77.5 -144.5q0 -111 122 -166q-157 -69 -157 -208zM1337 578q0 43 32 70.5t81 27.5t81 -27.5t32 -70.5t-32 -71t-81 -28t-81 28t-32 71zM1366 577.5q0 -30.5 22.5 -50t61.5 -19.5t61.5 19.5t22.5 50 t-22.5 50t-61.5 19.5t-61.5 -19.5t-22.5 -50zM1325 264q0 49 36 81t89 32t89 -32t36 -81q0 -51 -34 -82.5t-91 -31.5t-91 31.5t-34 82.5zM1354 264q0 -39 24.5 -62.5t71.5 -23.5t71.5 23.5t24.5 62.5q0 35 -25.5 59.5t-70.5 24.5t-70.5 -24.5t-25.5 -59.5z" glyph-name="fiveeighths" horiz-adv-x="1818" unicode="⅝"/><glyph d="M6 1225v209h623v-166l-273 -654h-254l254 611h-350zM270 0l885 1434h215l-885 -1434h-215zM35 1253h364l-254 -610h193l262 631v131h-565v-152zM322 29h147l850 1376h-148zM1032 238q0 141 127 208q-92 55 -92 166q0 96 84 163t221 67q135 0 219 -66.5t84 -163.5 q0 -111 -92 -166q127 -68 127 -208q0 -113 -92 -187t-245.5 -74t-247 74t-93.5 187zM1061 238q0 -102 86 -167t225 -65q137 0 223 64.5t86 167.5q0 139 -155 208q121 53 121 166q0 88 -78 144.5t-197 56.5q-121 0 -198.5 -56.5t-77.5 -144.5q0 -111 123 -166 q-158 -69 -158 -208zM1260 578q0 43 31.5 70.5t80.5 27.5t81 -27.5t32 -70.5t-32 -71t-81 -28t-80.5 28t-31.5 71zM1288 577.5q0 -30.5 22.5 -50t61.5 -19.5t61.5 19.5t22.5 50t-22.5 50t-61.5 19.5t-61.5 -19.5t-22.5 -50zM1247 264q0 49 36 81t89 32t89 -32t36 -81 q0 -51 -33.5 -82.5t-91 -31.5t-91.5 31.5t-34 82.5zM1276 264q0 -39 24.5 -62.5t71.5 -23.5t71.5 23.5t24.5 62.5q0 35 -25.5 59.5t-70.5 24.5t-70.5 -24.5t-25.5 -59.5z" glyph-name="seveneighths" horiz-adv-x="1740" unicode="⅞"/><glyph d="M1577 815v-287h-922l346 -340l-202 -202l-686 686l686 686l202 -203l-346 -340h922zM1548 786h-962l375 369l-162 162l-645 -645l645 -645l162 161l-375 369h962v229z" glyph-name="arrowleft" horiz-adv-x="1689" unicode="←"/><glyph d="M113 778l686 686l686 -686l-203 -203l-330 336v-911h-307v911l-330 -336zM154 778l161 -162l359 365v-952h250v952l358 -365l162 162l-645 645z" glyph-name="arrowup" horiz-adv-x="1597" unicode="↑"/><glyph d="M113 535v286h921l-346 340l203 203l686 -686l-686 -686l-203 203l346 340h-921zM141 563h963l-375 -368l162 -162l645 645l-645 645l-162 -162l375 -368h-963v-230z" glyph-name="arrowright" horiz-adv-x="1689" unicode="→"/><glyph d="M113 655l202 203l330 -336v912h307v-912l330 336l203 -203l-686 -686zM154 655l645 -645l645 645l-162 162l-358 -364v952h-250v-952l-359 364z" glyph-name="arrowdown" horiz-adv-x="1597" unicode="↓"/><glyph d="M113 678l686 686l202 -203l-346 -340h1028l-346 340l203 203l686 -686l-686 -686l-203 203l346 340h-1028l346 -340l-202 -203zM154 678l645 -645l162 162l-375 368h1167l-375 -368l162 -162l645 645l-645 645l-162 -162l375 -368h-1167l375 368l-162 162z" glyph-name="arrowboth" horiz-adv-x="2338" unicode="↔"/><glyph d="M113 307l202 203l330 -336v1008l-330 -336l-202 203l686 686l686 -686l-203 -203l-330 336v-1008l330 336l203 -203l-686 -686zM154 307l645 -645l645 645l-162 162l-358 -365v1147l358 -364l162 162l-645 645l-645 -645l161 -162l359 364v-1147l-359 365z" glyph-name="arrowupdn" horiz-adv-x="1597" unicode="↕"/><glyph d="M1042 25l-647 647l4 -475l-286 -2v970h968l2 -286l-477 4l647 -647zM1042 66l170 170l-675 675l518 -4l-2 230h-912v-914l230 2l-4 516z" glyph-name="uni2196" horiz-adv-x="1366" unicode="↖"/><glyph d="M113 297l647 647l-475 -4l-2 287h970v-969l-286 -2l4 477l-647 -647zM154 297l170 -170l675 676l-4 -518l230 2v911h-914l2 -229l516 4z" glyph-name="uni2197" horiz-adv-x="1366" unicode="↗"/><glyph d="M324 1247l647 -647l-4 475l286 2v-971h-968l-2 287l477 -4l-647 647zM324 1206l-170 -170l675 -676l-518 5l2 -230h912v914l-230 -2l4 -517z" glyph-name="uni2198" horiz-adv-x="1366" unicode="↘"/><glyph d="M1253 977l-647 -647l475 4l2 -287h-970v969l286 2l-4 -477l647 647zM1212 977l-170 170l-675 -676l4 518l-230 -2v-911h914l-2 229l-516 -4z" glyph-name="uni2199" horiz-adv-x="1366" unicode="↙"/><glyph d="M82 483q0 213 141.5 354.5t360.5 141.5q90 0 178 -33t143 -88q-18 139 -108 234.5t-226 95.5q-195 0 -338 -139l-69 260q184 154 446 153q281 0 450 -212t169 -554q0 -334 -167 -529.5t-444 -195.5q-221 0 -378.5 148.5t-157.5 363.5zM111 483.5q0 -200.5 148.5 -342 t358.5 -141.5q266 0 424 188.5t158 507.5q0 334 -161.5 536t-428.5 202q-240 0 -413 -136l53 -196q139 115 321 115q162 0 266.5 -126t98.5 -303q-59 76 -154.5 119t-197.5 43q-205 0 -339 -133t-134 -333.5zM369 487q0 102 72.5 173t179.5 71q90 0 180 -56.5t125 -133.5 q-8 -131 -92 -220.5t-203 -89.5q-113 0 -187.5 72.5t-74.5 183.5zM397 487q0 -96 64.5 -161.5t169.5 -65.5q113 0 185.5 83t80.5 192q-29 61 -108.5 114t-167.5 53q-96 0 -160 -63.5t-64 -151.5z" glyph-name="partialdiff" horiz-adv-x="1310" unicode="∂"/><glyph d="M10 236l133 133q-90 125 -90 286q0 203 137.5 343.5t339.5 138.5q162 0 289 -95l121 121l84 -86l-119 -119q102 -127 103 -303q2 -203 -136.5 -342t-341.5 -139q-174 0 -303 107l-131 -131zM51 236l45 -46l129 129q129 -117 305 -116q190 0 320.5 131t128.5 321 q0 180 -113 306l117 116l-43 45l-119 -118q-123 104 -291 104q-188 2 -318 -129t-130 -324q0 -166 100 -288zM246 655q0 119 82 201t200 82q102 0 172 -55l-399 -398q-55 74 -55 170zM274 655q0 -70 31 -125l350 349q-55 31 -127 30q-109 0 -181.5 -72.5t-72.5 -181.5z M346 440l399 400q70 -76 70 -185q-2 -121 -84 -201.5t-203 -80.5q-108 -1 -182 67zM389 442q59 -41 139 -41q109 0 182.5 73t75.5 181q0 78 -43 142z" glyph-name="emptyset" horiz-adv-x="1034" unicode="∅"/><glyph d="M113 -430v1925h1118v-1925h-328v1628h-463v-1628h-327zM141 -401h271v1628h520v-1628h270v1867h-1061v-1867z" glyph-name="product" horiz-adv-x="1343" unicode="∏"/><glyph d="M82 -410v260l551 709l-516 676v260h1120v-297h-700l481 -641l-514 -670h774v-297h-1196zM111 -381h1138v240h-805l537 698l-500 670h727v239h-1063v-221l525 -686l-559 -719v-221z" glyph-name="summation" horiz-adv-x="1359" unicode="∑"/><glyph d="M113 590v256h921v-256h-921zM141 618h865v199h-865v-199z" glyph-name="minus" horiz-adv-x="1146" unicode="−"/><glyph d="M82 582v276h504l229 -680l416 1440h328l-562 -1804h-348l-293 768h-274zM111 610h266l293 -768h307l543 1747h-267l-428 -1474h-18l-242 714h-454v-219z" glyph-name="radical" horiz-adv-x="1538" unicode="√"/><glyph d="M82 717q0 176 121 303t293 127q219 0 391 -213q168 213 387 213q172 0 293 -127t121 -303q0 -180 -121 -305t-293 -125q-219 0 -387 209q-172 -209 -391 -209q-172 0 -293 125t-121 305zM111 717q0 -168 112.5 -285t272.5 -117q221 0 391 228q166 -227 387 -228 q160 0 272.5 117t112.5 285q0 166 -113.5 283.5t-271.5 117.5q-221 0 -387 -231q-168 231 -391 231q-158 0 -271.5 -117.5t-113.5 -283.5zM317 715q0 82 55.5 139t133.5 57q133 0 289 -196q-156 -197 -289 -197q-76 0 -132.5 58.5t-56.5 138.5zM977 715q156 197 289 196 q78 0 133 -57t55 -139q0 -80 -56.5 -138.5t-131.5 -58.5q-133 0 -289 197zM346 714.5q0 -69.5 47 -118.5t113 -49q113 0 252 168q-139 168 -252 168q-66 0 -113 -49.5t-47 -119zM1014 715q139 -168 252 -168q66 0 112.5 49t46.5 118.5t-47 119t-112 49.5q-113 0 -252 -168z " glyph-name="infinity" horiz-adv-x="1769" unicode="∞"/><glyph d="M0 -231l121 258q51 -57 119 -58q123 0 143 142l145 1079q57 426 422 426q170 0 264 -88l-120 -258q-51 57 -119 57q-123 0 -144 -141l-145 -1080q-57 -426 -422 -425q-170 0 -264 88zM35 -223q82 -68 229 -68q342 0 393 402l146 1079q10 78 56 122t116 44q63 0 110 -39 l95 203q-82 68 -230 67q-342 0 -393 -401l-145 -1080q-10 -78 -56.5 -121.5t-115.5 -43.5q-63 0 -111 39z" glyph-name="integral" horiz-adv-x="1214" unicode="∫"/><glyph d="M113 815q0 129 67.5 223.5t204.5 94.5q100 0 266 -76q90 -39 113 -39q74 0 74 115l290 -84q0 -131 -66.5 -224.5t-201.5 -93.5q-98 0 -268 76q-90 39 -113 39q-76 0 -76 -115zM141 836l236 -68q12 106 98 106q31 0 131 -45q158 -70 254 -69q106 0 170 71.5t70 196.5 l-236 68q-12 -106 -96 -107q-27 0 -139 47q-154 68 -244 68q-106 0 -172 -71.5t-72 -196.5zM113 391q0 129 67.5 223.5t204.5 94.5q100 0 266 -76q90 -39 113 -39q74 0 74 115l290 -84q0 -131 -66.5 -224.5t-201.5 -93.5q-98 0 -268 76q-90 39 -113 39q-76 0 -76 -115z M141 412l236 -68q12 106 98 107q31 0 131 -45q158 -70 254 -70q106 0 170 71.5t70 196.5l-236 68q-12 -106 -96 -107q-27 0 -139 47q-154 68 -244 68q-106 0 -172 -71.5t-72 -196.5z" glyph-name="approxequal" horiz-adv-x="1241" unicode="≈"/><glyph d="M113 385v256h315l68 154h-383v256h493l109 249h225l-109 -249h203v-256h-313l-68 -154h381v-256h-491l-111 -252h-225l110 252h-204zM141 414h221l-110 -252h162l110 252h482v198h-398l94 211h304v199h-220l109 250h-162l-108 -250h-484v-199h400l-95 -211h-305v-198z " glyph-name="notequal" horiz-adv-x="1146" unicode="≠"/><glyph d="M113 741v297l921 348v-276l-618 -219l618 -221v-277zM141 762l865 -328v215l-648 232v20l648 229v216l-865 -328v-256zM113 86v256h921v-256h-921zM141 115h865v198h-865v-198z" glyph-name="lessequal" horiz-adv-x="1157" unicode="≤"/><glyph d="M1044 741l-921 -348v277l618 221l-618 219v276l921 -348v-297zM1016 762v256l-864 328v-216l647 -229v-20l-647 -232v-215zM1044 86h-921v256h921v-256zM1016 115v198h-864v-198h864z" glyph-name="greaterequal" horiz-adv-x="1157" unicode="≥"/><glyph d="M82 717l397 717h352l396 -717l-396 -717h-352zM115 717l381 -688h319l379 688l-379 688h-319zM389 717l256 459h23l252 -459l-254 -463h-21zM422 717l233 -422l232 422l-232 422z" glyph-name="lozenge" horiz-adv-x="1308" unicode="◊"/><glyph d="M109 1337q0 72 52 123t125.5 51t126 -51t52.5 -123q0 -74 -52.5 -125t-126 -51t-125.5 51t-52 125zM137 1337q0 -61 43 -104t106.5 -43t106.5 43t43 104q0 59 -44 102.5t-105.5 43.5t-105.5 -43.5t-44 -102.5zM123 0v1044h328v-1044h-328zM152 29h270v987h-270v-987z" glyph-name="i.aalt" horiz-adv-x="573"/><glyph d="M31 758v286h190v74q0 188 105.5 297t302.5 109q145 0 245 -45l-77 -260q-53 23 -117 22q-53 0 -92 -33.5t-39 -89.5v-74h369v74q0 188 112.5 297t325.5 109q223 0 381 -90l-78 -260q-133 68 -264 67q-61 0 -105.5 -33.5t-44.5 -89.5v-74h697v-1044q0 -217 -95.5 -338 t-290.5 -121q-102 0 -206 45l71 250q37 -20 80 -20q113 0 113 153v789h-369v-758h-327v758h-369v-758h-328v758h-190zM59 786h191v-757h270v757h426v-757h271v757h425v-817q0 -86 -36.5 -134t-104.5 -48q-27 0 -61 10l-56 -194q88 -33 172 -33q356 0 357 430v1016h-696v102 q0 66 50 109t128 43q123 0 245 -56l62 205q-139 76 -346 76q-197 0 -303.5 -98.5t-106.5 -278.5v-102h-426v102q0 63 46 107.5t114 44.5q55 0 98 -15l62 207q-86 33 -211 33q-180 0 -279.5 -98.5t-99.5 -278.5v-102h-191v-230z" glyph-name="f_f_j.dlig" horiz-adv-x="2037"/><glyph d="M31 758v286h190v74q0 188 112.5 297t325.5 109q223 0 381 -90l-77 -260q-133 68 -265 67q-61 0 -105 -33.5t-44 -89.5v-74h696v-1044q0 -217 -95 -338t-290 -121q-102 0 -207 45l72 250q37 -20 80 -20q113 0 113 153v789h-369v-758h-328v758h-190zM59 786h191v-757h270 v757h426v-817q0 -86 -37 -134t-104 -48q-27 0 -62 10l-55 -194q88 -33 172 -33q356 0 357 430v1016h-697v102q0 66 50.5 109t127.5 43q123 0 246 -56l62 205q-139 76 -347 76q-197 0 -303 -98.5t-106 -278.5v-102h-191v-230z" glyph-name="f_j.dlig" horiz-adv-x="1341"/><glyph d="M31 758v286h190v74q0 188 105.5 297t302.5 109q115 0 194 -29l-78 -260q-31 6 -65 6q-61 0 -96 -31.5t-35 -91.5v-74h358v328h328v-328h281v-286h-281v-381q0 -109 108 -109q59 0 111 27l78 -260q-129 -51 -256 -51q-184 0 -276.5 104.5t-92.5 288.5v381h-358v-758h-328 v758h-190zM59 786h191v-757h270v757h416v-409q0 -365 340 -365q106 0 221 39l-61 205q-39 -16 -93 -16q-137 0 -137 137v409h281v230h-281v327h-270v-327h-416v102q0 70 43 111t117 41q31 0 45 -2l63 209q-68 18 -159 18q-180 0 -279.5 -98.5t-99.5 -278.5v-102h-191v-230z " glyph-name="f_t.dlig" horiz-adv-x="1572"/><glyph d="M20 758v286h162v328h328v-328h389v328h328v-328h280v-286h-280v-381q0 -109 108 -109q59 0 111 27l78 -260q-129 -51 -256 -51q-184 0 -276.5 104.5t-92.5 288.5v381h-389v-381q0 -109 108 -109q59 0 111 27l78 -260q-129 -51 -256 -51q-184 0 -276.5 104.5t-92.5 288.5 v381h-162zM49 786h162v-409q0 -365 340 -365q106 0 221 39l-61 205q-39 -16 -93 -16q-137 0 -137 137v409h447v-409q0 -365 340 -365q106 0 221 39l-62 205q-39 -16 -92 -16q-137 0 -137 137v409h281v230h-281v327h-270v-327h-447v327h-270v-327h-162v-230z" glyph-name="t_t.dlig" horiz-adv-x="1564"/><glyph d="M20 717q0 332 163 538.5t447.5 206.5t446.5 -206.5t162 -538.5t-162 -539t-446.5 -207t-447.5 207t-163 539zM49 716.5q0 -327.5 158 -522t424 -194.5t422.5 194.5t156.5 522t-156.5 522.5t-422.5 195t-424 -195t-158 -522.5zM332 717q0 225 76.5 346t222.5 121 q143 0 220 -121t77 -346t-77 -346t-220 -121q-145 0 -222 121t-77 346zM360 717q0 -207 68 -322.5t203 -115.5t201.5 115.5t66.5 322.5t-66.5 322.5t-201.5 115.5t-203 -115.5t-68 -322.5z" glyph-name="zero.tnum" horiz-adv-x="1259"/><glyph d="M131 1208l438 226h291v-1127h258v-307h-942v307h340v752l-303 -139zM166 1194l65 -233l314 143v-825h-340v-250h885v250h-259v1126h-256z" glyph-name="one.tnum" horiz-adv-x="1259"/><glyph d="M106 1034q23 176 167.5 302t355.5 126q240 0 385 -119.5t145 -338.5q0 -129 -62.5 -233.5t-195.5 -225.5l-264 -238h541v-307h-1063v227l553 514q80 72 116.5 126.5t36.5 115.5q0 82 -49 129t-135 47q-84 0 -144.5 -58.5t-80.5 -154.5zM139 1055l252 -74 q29 96 94.5 151.5t151.5 55.5q98 0 155.5 -55.5t57.5 -149.5q0 -68 -41 -128t-121 -134l-545 -506v-186h1006v250h-586l320 286q135 123 191 222.5t56 216.5q0 201 -133 315.5t-368 114.5q-184 0 -321.5 -106.5t-168.5 -272.5z" glyph-name="two.tnum" horiz-adv-x="1259"/><glyph d="M88 422l301 86q18 -98 89 -170t165 -72q102 0 161.5 59.5t59.5 141.5t-57 140.5t-158 58.5q-76 0 -129 -27l-55 197l231 294h-563v304h1010v-224l-293 -315q154 -37 248 -148.5t94 -279.5q0 -209 -151.5 -352.5t-376.5 -143.5q-254 0 -399.5 132.5t-176.5 318.5zM121 401 q41 -184 185.5 -292.5t357.5 -108.5t356 134t143 333q0 152 -85 258t-234 141q-31 6 -53 6l323 349v184h-952v-246h594l-260 -330l43 -151q43 16 110 16q106 0 175 -64.5t69 -162.5t-70.5 -163.5t-179.5 -65.5q-94 0 -170 65.5t-104 167.5z" glyph-name="three.tnum" horiz-adv-x="1259"/><glyph d="M59 258v246l473 930h365l-440 -877h268v258h340v-258h170v-299h-170v-258h-340v258h-666zM88 287h666v-258h282v258h170v241h-170v258h-282v-258h-344l440 877h-299l-463 -907v-211z" glyph-name="four.tnum" horiz-adv-x="1259"/><glyph d="M98 371l305 86q29 -82 94.5 -136.5t145.5 -54.5q102 0 161.5 58.5t59.5 148.5t-58 147.5t-165 57.5q-123 0 -213 -62l-270 80l61 738h907v-304h-606l-16 -221q98 35 215 35q205 0 339 -138t134 -339q0 -211 -149.5 -353.5t-376.5 -142.5q-231 0 -376 115t-192 285z M135 350q53 -164 193.5 -257t337.5 -93q213 0 355 133t142 334q0 193 -127 320.5t-317 127.5q-133 0 -248 -51l23 295h604v246h-852l-58 -688l236 -70q90 59 217 60q113 0 182.5 -64.5t69.5 -169.5q0 -106 -68.5 -170.5t-181.5 -64.5q-80 0 -150.5 50t-105.5 134z" glyph-name="five.tnum" horiz-adv-x="1259"/><glyph d="M88 487q0 143 100 304l408 643h383l-281 -443q223 -16 365.5 -155.5t142.5 -348.5q0 -221 -159.5 -368.5t-399 -147.5t-399.5 146.5t-160 369.5zM117 487q0 -211 150.5 -349t379.5 -138q227 0 379 139.5t152 347.5q0 197 -134.5 328t-347.5 148q-23 2 -49 2l281 440h-316 l-399 -629q-96 -158 -96 -289zM397 487q0 104 71 172t179.5 68t179 -67.5t70.5 -172.5q0 -106 -69.5 -173.5t-180 -67.5t-180.5 67.5t-70 173.5zM426 487q0 -94 60.5 -153.5t161 -59.5t160.5 59.5t60 153.5q0 90 -60 150.5t-161 60.5q-98 0 -159.5 -60.5t-61.5 -150.5z" glyph-name="six.tnum" horiz-adv-x="1259"/><glyph d="M123 1434h1053v-232l-525 -1202h-327l-7 -12l-8 12h-18l8 16l-8 13h12l483 1097h-663v308zM1147 1208v197h-995v-250h679l-495 -1126h297z" glyph-name="seven.tnum" horiz-adv-x="1259"/><glyph d="M72 420q0 254 237 362q-176 94 -176 293q0 164 139.5 275.5t368.5 111.5t368.5 -111.5t139.5 -275.5q0 -199 -176 -293q238 -111 237 -362q0 -190 -157.5 -319.5t-411.5 -129.5q-256 0 -412.5 128t-156.5 321zM100 420q0 -184 151.5 -302t389.5 -118q236 0 388.5 119 t152.5 301q0 258 -277 358q215 96 215 297q0 158 -134 258.5t-345 100.5t-345 -100.5t-134 -258.5q0 -203 211 -297q-273 -102 -273 -358zM432 1044.5q0 79.5 59.5 131t149.5 51.5t149.5 -52.5t59.5 -130.5q0 -80 -59.5 -132t-149.5 -52t-149.5 52.5t-59.5 132zM461 1044 q0 -66 49 -110.5t131 -44.5t131 46t49 109.5t-49 108.5t-131 45t-131 -45.5t-49 -108.5zM385 448.5q0 100.5 70.5 163t185.5 62.5q113 0 184.5 -62.5t71.5 -162.5q0 -98 -71.5 -161t-184.5 -63q-115 0 -185.5 61.5t-70.5 162zM414 449q0 -84 60.5 -139.5t166.5 -55.5 q104 0 165.5 55.5t61.5 139.5q0 86 -61.5 141t-165.5 55q-106 0 -166.5 -55t-60.5 -141z" glyph-name="eight.tnum" horiz-adv-x="1259"/><glyph d="M1212 946q0 -143 -100 -303l-407 -643h-383l280 442q-223 16 -365.5 155.5t-142.5 348.5q0 221 160 368.5t399.5 147.5t399 -146.5t159.5 -369.5zM1184 946q0 211 -150.5 349.5t-380.5 138.5q-227 0 -378.5 -139.5t-151.5 -348.5q0 -197 134 -328t347 -147q23 -2 49 -2 l-280 -440h315l399 628q97 158 97 289zM903 946q0 -104 -70.5 -171.5t-179 -67.5t-179.5 67.5t-71 171.5q0 106 70 174t180.5 68t180 -68t69.5 -174zM874 946q0 94 -60 153.5t-160.5 59.5t-161 -59.5t-60.5 -153.5q0 -90 60.5 -150.5t160.5 -60.5q98 0 159.5 60.5 t61.5 150.5z" glyph-name="nine.tnum" horiz-adv-x="1259"/><glyph d="M41 411.5q0 200.5 103.5 315.5t277.5 115q166 0 272.5 -117t106.5 -313q0 -201 -103.5 -318t-275.5 -117q-174 0 -277.5 117t-103.5 317.5zM70 412q0 -188 95 -297t257 -109t256 109.5t94 296.5q0 180 -96 290.5t-254 110.5q-164 0 -258 -107.5t-94 -293.5zM264 412 q0 111 41 171t117 60t116 -60.5t40 -170.5q0 -113 -40 -174.5t-116 -61.5q-158 0 -158 236zM293 412q0 -207 129 -207q127 0 127 207q0 203 -127 202q-129 1 -129 -202z" glyph-name="zero.dnom" horiz-adv-x="841"/><glyph d="M0 674l276 145h209v-819h-243v549l-183 -84zM35 659l43 -153l192 88v-565h187v762h-174z" glyph-name="one.dnom" horiz-adv-x="587"/><glyph d="M31 567q12 113 101 194t220 81q150 0 238 -71t88 -198q0 -70 -28.5 -122t-94.5 -109l-149 -133h284v-209h-655v150l319 296q76 74 76 119q0 27 -19.5 45.5t-54.5 18.5q-80 0 -106 -125zM63 588l166 -49q33 119 127 118q45 0 74 -25.5t29 -66.5q0 -57 -84 -139l-312 -289 v-108h599v151h-330l205 185q63 55 87.5 101t24.5 107q0 113 -78.5 176.5t-218.5 63.5q-106 0 -187.5 -63.5t-101.5 -161.5z" glyph-name="two.dnom" horiz-adv-x="731"/><glyph d="M31 250l211 61q10 -59 46 -94t89 -35q45 0 70.5 23.5t25.5 62.5t-26.5 65.5t-81.5 26.5q-37 0 -74 -6l-35 127l125 135h-320v203h613v-164l-148 -145q80 -25 128 -88.5t48 -155.5q0 -123 -91 -206t-228 -83q-160 0 -247 79t-105 194zM63 229q27 -106 109 -164.5 t211 -58.5q125 0 208 75t83 185q0 166 -156 217l-43 13l170 172v123h-555v-146h356l-157 -172l22 -86q18 2 54 2q61 0 99 -32.5t38 -88.5q0 -51 -35 -82.5t-90 -31.5q-117 0 -156 122z" glyph-name="three.dnom" horiz-adv-x="743"/><glyph d="M10 141v183l262 495h252l-243 -473h108v113h229v-113h91v-205h-91v-141h-229v141h-379zM39 170h379v-141h172v141h90v147h-90v113h-172v-113h-182l243 474h-190l-250 -474v-147z" glyph-name="four.dnom" horiz-adv-x="729"/><glyph d="M31 213l211 59q37 -90 118 -90q41 0 66 22.5t25 57.5q0 37 -26 60.5t-71 23.5q-63 0 -116 -31l-175 56l39 448h535v-205h-338l-6 -100q45 14 115 14q123 0 195.5 -75.5t72.5 -194.5q0 -121 -85 -201t-220 -80q-143 0 -230 69t-110 167zM66 193q29 -86 110.5 -136.5 t194.5 -50.5q121 0 198.5 70.5t77.5 181.5q0 109 -65.5 175.5t-173.5 66.5q-68 0 -107 -13l-39 -12l10 168h336v148h-479l-35 -400l139 -45q55 29 121 29q55 0 90 -31t35 -82q0 -47 -33.5 -77.5t-85.5 -30.5q-86 0 -135 84z" glyph-name="five.dnom" horiz-adv-x="716"/><glyph d="M20 276q4 84 58 175l229 368h248l-156 -256q119 -10 200 -89t81 -200q0 -129 -94 -213t-236 -84q-143 0 -238.5 85t-91.5 214zM49 276q-4 -115 82 -192.5t219 -77.5q131 0 216 77t85 191q0 106 -69.5 178t-184.5 83q-20 2 -47 2l154 254h-180l-222 -355q-51 -82 -53 -160 zM223 274.5q0 53.5 36 87t91.5 33.5t91 -33.5t35.5 -87t-34.5 -87t-92 -33.5t-92.5 33.5t-35 87zM252 274q0 -41 26.5 -66.5t71.5 -25.5t72 25.5t27 66.5q0 39 -27 66t-72 27t-71.5 -27t-26.5 -66z" glyph-name="six.dnom" horiz-adv-x="700"/><glyph d="M6 610v209h623v-166l-273 -653h-254l254 610h-350zM35 639h364l-254 -610h193l262 630v132h-565v-152z" glyph-name="seven.dnom" horiz-adv-x="638"/><glyph d="M31 238q0 141 127 208q-92 55 -92 166q0 96 83.5 163t221.5 67q135 0 219 -66.5t84 -163.5q0 -111 -92 -166q127 -68 127 -208q0 -113 -92.5 -187t-246 -74t-246.5 74t-93 187zM59 238q0 -102 86 -167t226 -65q137 0 223 64.5t86 167.5q0 139 -156 208q121 53 121 166 q0 88 -78 144.5t-196 56.5q-121 0 -199 -56.5t-78 -144.5q0 -111 123 -166q-158 -69 -158 -208zM258 578q0 43 32 70.5t81 27.5t80.5 -27.5t31.5 -70.5t-31.5 -71t-80.5 -28t-81 28t-32 71zM287 577.5q0 -30.5 22.5 -50t61.5 -19.5t61.5 19.5t22.5 50t-22.5 50t-61.5 19.5 t-61.5 -19.5t-22.5 -50zM246 264q0 49 35.5 81t89 32t89.5 -32t36 -81q0 -51 -34 -82.5t-91.5 -31.5t-91 31.5t-33.5 82.5zM274 264q0 -39 25 -62.5t72 -23.5t71.5 23.5t24.5 62.5q0 35 -25.5 59.5t-70.5 24.5t-71 -24.5t-26 -59.5z" glyph-name="eight.dnom" horiz-adv-x="739"/><glyph d="M680 543q-4 -84 -57 -174l-230 -369h-248l156 256q-119 10 -200 89t-81 200q0 129 94.5 213t235.5 84q143 0 238.5 -85t91.5 -214zM651 543q4 115 -82 192.5t-219 77.5q-131 0 -216 -77t-85 -191q0 -106 69.5 -178t184.5 -82q20 -2 47 -2l-153 -254h180l221 354 q51 82 53 160zM477 545q0 -53 -35.5 -87t-91 -34t-91.5 34t-36 87t35 87t92.5 34t92 -34t34.5 -87zM449 545q0 41 -27 66.5t-72 25.5t-71.5 -25.5t-26.5 -66.5q0 -39 26.5 -65.5t71.5 -26.5t72 26.5t27 65.5z" glyph-name="nine.dnom" horiz-adv-x="700"/><glyph d="M41 1026q0 201 103.5 315.5t277.5 114.5q166 0 272.5 -116.5t106.5 -313.5q0 -201 -103.5 -317.5t-275.5 -116.5q-174 0 -277.5 116.5t-103.5 317.5zM70 1026q0 -188 95 -296.5t257 -108.5t256 109.5t94 295.5q0 180 -96 290.5t-254 110.5q-164 0 -258 -107.5t-94 -293.5 zM264 1026q0 111 41 171t117 60t116 -60t40 -171q0 -113 -40 -174t-116 -61q-158 -1 -158 235zM293 1026q0 -207 129 -207q127 0 127 207q0 203 -127 203q-129 0 -129 -203z" glyph-name="zero.numr" horiz-adv-x="841"/><glyph d="M0 1288l276 146h209v-820h-243v549l-183 -84zM35 1274l43 -154l192 88v-565h187v762h-174z" glyph-name="one.numr" horiz-adv-x="587"/><glyph d="M31 1182q12 113 101 193.5t220 80.5q150 0 238 -70.5t88 -197.5q0 -70 -28.5 -122t-94.5 -110l-149 -133h284v-209h-655v150l319 297q76 74 76 119q0 27 -19.5 45t-54.5 18q-80 0 -106 -125zM63 1202l166 -49q33 119 127 119q45 0 74 -25.5t29 -66.5q0 -57 -84 -140 l-312 -288v-109h599v152h-330l205 184q63 55 87.5 101t24.5 108q0 113 -78.5 176t-218.5 63q-106 0 -187.5 -63.5t-101.5 -161.5z" glyph-name="two.numr" horiz-adv-x="731"/><glyph d="M31 864l211 62q10 -59 46 -94t89 -35q45 0 70.5 23.5t25.5 62.5t-26.5 65.5t-81.5 26.5q-37 0 -74 -6l-35 127l125 135h-320v203h613v-164l-148 -146q80 -25 128 -88t48 -155q0 -123 -91 -206t-228 -83q-160 0 -247 78.5t-105 193.5zM63 844q27 -106 109 -164.5 t211 -58.5q125 0 208 74.5t83 185.5q0 166 -156 217l-43 12l170 172v123h-555v-145h356l-157 -173l22 -86q18 2 54 3q61 0 99 -33t38 -88q0 -51 -35 -83t-90 -32q-117 0 -156 123z" glyph-name="three.numr" horiz-adv-x="743"/><glyph d="M10 756v182l262 496h252l-243 -473h108v112h229v-112h91v-205h-91v-142h-229v142h-379zM39 784h379v-141h172v141h90v148h-90v112h-172v-112h-182l243 473h-190l-250 -473v-148z" glyph-name="four.numr" horiz-adv-x="729"/><glyph d="M31 827l211 60q37 -90 118 -90q41 0 66 22.5t25 57.5q0 37 -26 60.5t-71 23.5q-63 0 -116 -31l-175 55l39 449h535v-205h-338l-6 -101q45 14 115 15q123 0 195.5 -76t72.5 -195q0 -121 -85 -200.5t-220 -79.5q-143 0 -230 68.5t-110 166.5zM66 807q29 -86 110.5 -136 t194.5 -50q121 0 198.5 70.5t77.5 180.5q0 109 -65.5 175.5t-173.5 66.5q-68 0 -107 -12l-39 -12l10 167h336v148h-479l-35 -399l139 -45q55 29 121 28q55 0 90 -30.5t35 -81.5q0 -47 -33.5 -78t-85.5 -31q-86 0 -135 84z" glyph-name="five.numr" horiz-adv-x="716"/><glyph d="M20 891q4 84 58 174l229 369h248l-156 -256q119 -10 200 -89t81 -200q0 -129 -94 -213t-236 -84q-143 0 -238.5 85t-91.5 214zM49 891q-4 -115 82 -192.5t219 -77.5q131 0 216 76.5t85 191.5q0 106 -69.5 178t-184.5 82q-20 2 -47 2l154 254h-180l-222 -354 q-51 -82 -53 -160zM223 889q0 53 36 87t91.5 34t91 -34t35.5 -87t-34.5 -87t-92 -34t-92.5 34t-35 87zM252 889q0 -41 26.5 -66.5t71.5 -25.5t72 25.5t27 66.5q0 39 -27 65.5t-72 26.5t-71.5 -26.5t-26.5 -65.5z" glyph-name="six.numr" horiz-adv-x="700"/><glyph d="M6 1225v209h623v-166l-273 -654h-254l254 611h-350zM35 1253h364l-254 -610h193l262 631v131h-565v-152z" glyph-name="seven.numr" horiz-adv-x="638"/><glyph d="M31 852q0 141 127 209q-92 55 -92 166q0 96 83.5 162.5t221.5 66.5q135 0 219 -66.5t84 -162.5q0 -111 -92 -166q127 -68 127 -209q0 -113 -92.5 -186.5t-246 -73.5t-246.5 73.5t-93 186.5zM59 852q0 -102 86 -166.5t226 -64.5q137 0 223 64.5t86 166.5q0 139 -156 209 q121 53 121 166q0 88 -78 144t-196 56q-121 0 -199 -56t-78 -144q0 -111 123 -166q-158 -70 -158 -209zM258 1192q0 43 32 70.5t81 27.5t80.5 -27.5t31.5 -70.5t-31.5 -70.5t-80.5 -27.5t-81 27.5t-32 70.5zM287 1192q0 -31 22.5 -50.5t61.5 -19.5t61.5 19.5t22.5 50.5 t-22.5 50.5t-61.5 19.5t-61.5 -19.5t-22.5 -50.5zM246 879q0 49 35.5 80.5t89 31.5t89.5 -31.5t36 -80.5q0 -51 -34 -83t-91.5 -32t-91 32t-33.5 83zM274 879q0 -39 25 -62.5t72 -23.5t71.5 23.5t24.5 62.5q0 35 -25.5 59.5t-70.5 24.5t-71 -24.5t-26 -59.5z" glyph-name="eight.numr" horiz-adv-x="739"/><glyph d="M680 1157q-4 -84 -57 -174l-230 -369h-248l156 256q-119 10 -200 89t-81 200q0 129 94.5 213t235.5 84q143 0 238.5 -85t91.5 -214zM651 1157q4 115 -82 192.5t-219 77.5q-131 0 -216 -76.5t-85 -191.5q0 -106 69.5 -178t184.5 -82q20 -2 47 -2l-153 -254h180l221 354 q51 82 53 160zM477 1159q0 -53 -35.5 -87t-91 -34t-91.5 34t-36 87t35 87t92.5 34t92 -34t34.5 -87zM449 1159q0 41 -27 66.5t-72 25.5t-71.5 -25.5t-26.5 -66.5q0 -39 26.5 -65.5t71.5 -26.5t72 26.5t27 65.5z" glyph-name="nine.numr" horiz-adv-x="700"/></font>
</defs>
</svg>
