<?xml version="1.0" standalone="no"?>
<!DOCTYPE svg PUBLIC "-//W3C//DTD SVG 1.1//EN" "http://www.w3.org/Graphics/SVG/1.1/DTD/svg11.dtd">
<svg xmlns="http://www.w3.org/2000/svg"><metadata>This SVG WebFont was generated by YouWorkForThem.
Copyright Â© 2018 by Piotr _apa. All rights reserved.</metadata><defs><font horiz-adv-x="1316" id="ywftsvg"><font-face ascent="1618" bbox="-582 -498 2750 1974" cap-height="1434" descent="-430" font-family="" font-stretch="normal" font-weight="300" panose-1="0 0 4 0 0 0 0 0 0 0" underline-position="0" underline-thickness="0" unicode-range="U+0020-FB02" units-per-em="2048" x-height="1014"/><missing-glyph d="M840 1618v-2048h-650v2048h650zM682 1481h-338v-68h133v-76h-135v-67h340v67h-135v76h135v68zM547 1217h-205v-213h340v69h-135v144zM477 1147v-74h-67v74h67zM682 948h-340v-67h135v-76h-135v-68h205v144h135v67zM682 825h-68v-135h-272v-69h340v204zM682 575h-205v-114 h70v47h67v-96h-204v163h-68v-231h340v231zM682 221h-340v-231h340v231zM614 154v-97h-204v97h204zM682 -57h-340v-68h143l-143 -96v-68h340v68h-209l143 96h66v68z" horiz-adv-x="1024"/><glyph d="M995 1014v-1014h-100v920h-512v-920h-100v920h-222v94h222v155q0 168 86 259.5t256 91.5q176 0 307 -111l-27 -90q-129 109 -278 108q-244 0 -244 -264v-149h612z" glyph-name="uniFB01" horiz-adv-x="1138" unicode="fi"/><glyph d="M625 1520q215 0 370 -127v-1393h-100v1350q-123 78 -268 77q-244 0 -244 -264v-149h332v-94h-332v-920h-100v920h-222v94h222v155q0 168 86 259.5t256 91.5z" glyph-name="uniFB02" horiz-adv-x="1159" unicode="fl"/><glyph d="M995 1163v-149h394v-94h-394v-920h-100v920h-512v-920h-100v920h-222v94h222v155q0 168 75.5 259.5t225.5 91.5q111 0 192 -41l-26 -90q-76 39 -164 38q-203 0 -203 -264v-149h512v155q0 168 76 259.5t225 91.5q111 0 193 -41l-27 -90q-76 39 -164 38q-203 0 -203 -264z " glyph-name="f_f.liga" horiz-adv-x="1419" unicode="ff"/><glyph d="M1608 1014v-1014h-101v920h-512v-920h-100v920h-512v-920h-100v920h-222v94h222v155q0 168 80.5 259.5t240.5 91.5q111 0 193 -41l-27 -90q-76 39 -164 38q-223 0 -223 -264v-149h512v155q0 168 86 259.5t256 91.5q176 0 307 -111l-26 -90q-129 109 -279 108 q-244 0 -244 -264v-149h613z" glyph-name="f_f_i.liga" horiz-adv-x="1751" unicode="ffi"/><glyph d="M1237 1520q215 0 371 -127v-1393h-101v1350q-123 78 -268 77q-244 0 -244 -264v-149h332v-94h-332v-920h-100v920h-512v-920h-100v920h-222v94h222v155q0 168 75.5 259.5t225.5 91.5q111 0 192 -41l-26 -90q-76 39 -164 38q-203 0 -203 -264v-149h512v155q0 168 86 259.5 t256 91.5z" glyph-name="f_f_l.liga" horiz-adv-x="1771" unicode="ffl"/><glyph d="M840 1618v-2048h-650v2048h650zM682 1481h-338v-68h133v-76h-135v-67h340v67h-135v76h135v68zM547 1217h-205v-213h340v69h-135v144zM477 1147v-74h-67v74h67zM682 948h-340v-67h135v-76h-135v-68h205v144h135v67zM682 825h-68v-135h-272v-69h340v204zM682 575h-205v-114 h70v47h67v-96h-204v163h-68v-231h340v231zM682 221h-340v-231h340v231zM614 154v-97h-204v97h204zM682 -57h-340v-68h143l-143 -96v-68h340v68h-209l143 96h66v68z" glyph-name=".notdef" horiz-adv-x="1024"/><glyph glyph-name="glyph1" horiz-adv-x="0"/><glyph glyph-name="glyph2" horiz-adv-x="681"/><glyph glyph-name="space" horiz-adv-x="542" unicode=" "/><glyph d="M205 358l-21 1076h123l-20 -1076h-82zM242 -12q-39 0 -63.5 24.5t-24.5 61.5t24.5 61.5t63.5 24.5t63.5 -24.5t24.5 -61.5t-24.5 -61.5t-63.5 -24.5z" glyph-name="exclam" horiz-adv-x="483" unicode="!"/><glyph d="M139 1040l-16 394h123l-17 -394h-90zM414 1040l-17 394h123l-16 -394h-90z" glyph-name="quotedbl" horiz-adv-x="643" unicode="&quot;"/><glyph d="M1370 862h-309l-55 -352h309l-15 -94h-309l-65 -416h-103l66 416h-387l-66 -416h-102l65 416h-307l14 94h308l55 352h-307l14 94h307l68 426h102l-67 -426h387l67 426h103l-68 -426h309zM903 510l55 352h-387l-55 -352h387z" glyph-name="numbersign" horiz-adv-x="1476" unicode="#"/><glyph d="M1212 387q0 -168 -148.5 -289t-377.5 -123v-272h-92v277q-197 25 -339 143.5t-194 279.5l101 29q51 -156 191.5 -258t330.5 -102q186 0 306 94t120 217q0 98 -66.5 161.5t-232.5 117.5l-354 114q-154 49 -234 125t-80 197q0 143 129 250.5t322 109.5v273h92v-277 q178 -18 302 -108.5t186 -225.5l-99 -30q-59 127 -181 199.5t-294 72.5q-154 0 -254 -79t-100 -185q0 -84 60.5 -137.5t205.5 -100.5l344 -110q184 -57 270 -138.5t86 -224.5z" glyph-name="dollar" horiz-adv-x="1304" unicode="$"/><glyph d="M492 705q-158 0 -268.5 108.5t-110.5 264t110.5 263t268.5 107.5q160 0 269 -107.5t109 -263.5q0 -158 -109 -265t-269 -107zM477 0l930 1434h111l-928 -1434h-113zM491.5 799q118.5 0 199.5 82t81 196q0 117 -80 197t-200.5 80t-200.5 -80t-80 -197q0 -115 81 -196.5 t199.5 -81.5zM1505 -16q-158 0 -268.5 107.5t-110.5 262.5q0 158 110 265.5t269.5 107.5t269 -107.5t109.5 -265.5q0 -156 -109.5 -263t-269.5 -107zM1505 78q119 0 200 81t81 195q0 117 -80 198t-201 81t-200.5 -81t-79.5 -198q0 -115 80.5 -195.5t199.5 -80.5z" glyph-name="percent" horiz-adv-x="1996" unicode="%"/><glyph d="M1356 0h-135l-193 199q-195 -223 -471 -224q-172 0 -293 110t-121 282q0 131 78 242.5t232 187.5l-7 6q-74 78 -110.5 147.5t-36.5 159.5q0 160 110.5 254t270.5 94q156 0 258 -84t137 -211l-94 -26q-33 106 -109.5 166.5t-189.5 60.5q-123 0 -203 -69.5t-80 -186.5 q0 -115 136 -254l487 -508q84 133 117 289l92 -23q-33 -174 -141 -336zM563 70q233 0 402 196l-447 463q-143 -76 -208.5 -163t-65.5 -201q0 -119 90 -207t229 -88z" glyph-name="ampersand" horiz-adv-x="1396" unicode="&amp;"/><glyph d="M139 1040l-16 394h123l-17 -394h-90z" glyph-name="quotesingle" horiz-adv-x="368" unicode="'"/><glyph d="M473 -283h-104q-242 410 -236 901q6 512 236 902h104q-236 -414 -236 -901.5t236 -901.5z" glyph-name="parenleft" horiz-adv-x="544" unicode="("/><glyph d="M72 -283q236 414 235.5 901.5t-235.5 901.5h104q229 -389 236 -902q6 -492 -236 -901h-104z" glyph-name="parenright" horiz-adv-x="544" unicode=")"/><glyph d="M709 1260l-197 -109l197 -109l-54 -88l-192 117l4 -227h-102l4 225l-193 -115l-53 88l199 109l-199 109l53 90l193 -117l-4 225h102l-4 -225l192 117z" glyph-name="asterisk" horiz-adv-x="831" unicode="*"/><glyph d="M973 764v-92h-361v-365h-96v365h-362v92h362v362h96v-362h361z" glyph-name="plus" horiz-adv-x="1126" unicode="+"/><glyph d="M123 -281l88 455h127l-121 -455h-94z" glyph-name="comma" horiz-adv-x="460" unicode=","/><glyph d="M154 592v92h716v-92h-716z" glyph-name="hyphen" horiz-adv-x="1024" unicode="-"/><glyph d="M211 -12q-39 0 -63.5 24.5t-24.5 61.5t24.5 61.5t63.5 24.5t63.5 -24.5t24.5 -61.5t-24.5 -61.5t-63.5 -24.5z" glyph-name="period" horiz-adv-x="421" unicode="."/><glyph d="M92 -186l811 1804h107l-811 -1804h-107z" glyph-name="slash" horiz-adv-x="1101" unicode="/"/><glyph d="M645 -25q-260 0 -401.5 206t-141.5 536q0 332 141.5 536.5t401.5 204.5t401.5 -204.5t141.5 -536.5q0 -330 -141.5 -536t-401.5 -206zM645 74q211 0 324.5 174t113.5 469t-113.5 469t-324.5 174q-209 0 -323.5 -175t-114.5 -468q0 -295 114.5 -469t323.5 -174z" glyph-name="zero" horiz-adv-x="1290" unicode="0"/><glyph d="M475 1434h86v-1434h-104v1309l-379 -189l-27 94z" glyph-name="one" horiz-adv-x="745" unicode="1"/><glyph d="M242 96h805v-96h-955v86l578 563q129 125 187 208t58 179q0 150 -94 238t-258 88q-143 0 -239.5 -82t-128.5 -223l-95 26q25 154 152 264.5t311 110.5q201 0 328 -113.5t127 -308.5q0 -125 -67.5 -223t-209.5 -233z" glyph-name="two" horiz-adv-x="1159" unicode="2"/><glyph d="M610 860q219 12 348 -110.5t129 -323.5q0 -190 -140 -323.5t-351 -133.5q-217 0 -352 114t-172 275l98 27q29 -141 141.5 -230t284.5 -89q178 0 283.5 104t105.5 256q0 150 -93 245t-245 95q-119 0 -205 -66l-22 80l473 557h-780v97h915v-88z" glyph-name="three" horiz-adv-x="1179" unicode="3"/><glyph d="M1139 434v-96h-205v-338h-105v338h-768v82l555 1014h115l-547 -1000h645v397h105v-397h205z" glyph-name="four" horiz-adv-x="1189" unicode="4"/><glyph d="M596 903q219 0 356.5 -127t137.5 -336q0 -199 -140.5 -332t-353.5 -133q-203 0 -331 107.5t-173 267.5l96 25q41 -137 144.5 -220t263.5 -83q176 0 283.5 106.5t107.5 261.5q0 162 -103.5 264.5t-287.5 102.5q-211 0 -377 -139l-74 24l64 742h805v-97h-713l-47 -538 q137 104 342 104z" glyph-name="five" horiz-adv-x="1181" unicode="5"/><glyph d="M575 930q219 0 356.5 -137.5t137.5 -339.5q0 -201 -138 -339.5t-359.5 -138.5t-360.5 138.5t-139 339.5q0 154 123 338l438 643h119l-373 -549q77 45 196 45zM571.5 72q176.5 0 286 109.5t109.5 271t-111 271.5t-287 110q-174 0 -284.5 -110t-110.5 -271.5t110.5 -271 t287 -109.5z" glyph-name="six" horiz-adv-x="1140" unicode="6"/><glyph d="M41 1434h963v-86l-605 -1348h-110l600 1337h-848v97z" glyph-name="seven" horiz-adv-x="1054" unicode="7"/><glyph d="M848 772q129 -47 201.5 -146.5t72.5 -228.5q0 -184 -140 -303t-368 -119q-229 0 -370.5 119t-141.5 303q0 129 73 228.5t202 146.5q-98 47 -155.5 131t-57.5 184q0 158 124 264.5t326 106.5q201 0 324 -106.5t123 -264.5q0 -100 -57.5 -184t-155.5 -131zM266 1087.5 q0 -120.5 92.5 -196.5t255.5 -76q158 0 251 77t93 195.5t-93 196.5t-251 78q-164 0 -256 -77t-92 -197.5zM614 72q182 0 294 92t112 233q0 139 -111.5 230.5t-294.5 91.5q-186 0 -297.5 -90t-111.5 -231.5t111.5 -233.5t297.5 -92z" glyph-name="eight" horiz-adv-x="1224" unicode="8"/><glyph d="M569.5 1458q221.5 0 360.5 -138t139 -339q0 -154 -123 -338l-438 -643h-119l373 549q-78 -45 -197 -45q-219 0 -356 137t-137 340q0 201 138 339t359.5 138zM571 600q174 0 285 109.5t111 271.5t-111 271.5t-287 109.5t-285.5 -109.5t-109.5 -271.5t110.5 -271.5 t286.5 -109.5z" glyph-name="nine" horiz-adv-x="1140" unicode="9"/><glyph d="M211 811q-39 0 -63.5 24.5t-24.5 61.5t24.5 61.5t63.5 24.5t63.5 -24.5t24.5 -61.5t-24.5 -61.5t-63.5 -24.5zM211 -12q-39 0 -63.5 24.5t-24.5 61.5t24.5 61.5t63.5 24.5t63.5 -24.5t24.5 -61.5t-24.5 -61.5t-63.5 -24.5z" glyph-name="colon" horiz-adv-x="421" unicode=":"/><glyph d="M258 811q-39 0 -63.5 24.5t-24.5 61.5t24.5 61.5t63.5 24.5t63.5 -24.5t24.5 -61.5t-24.5 -61.5t-63.5 -24.5zM123 -281l88 455h127l-121 -455h-94z" glyph-name="semicolon" horiz-adv-x="468" unicode=";"/><glyph d="M952 1100v-105l-694 -276l694 -279v-104l-819 332v100z" glyph-name="less" horiz-adv-x="1116" unicode="&lt;"/><glyph d="M154 860v92h819v-92h-819zM158 483v92h819v-92h-819z" glyph-name="equal" horiz-adv-x="1130" unicode="="/><glyph d="M164 1100l819 -332v-100l-819 -332v104l694 279l-694 276v105z" glyph-name="greater" horiz-adv-x="1116" unicode=">"/><glyph d="M492 358q0 113 40.5 201t100 144.5t119 106.5t100.5 112.5t41 136.5q0 133 -88 218t-235.5 85t-243 -79t-129.5 -218l-95 27q39 160 157 263t312 103q184 0 304 -110.5t120 -286.5q0 -92 -42 -165t-102 -124t-119.5 -104.5t-101.5 -131t-42 -178.5h-96zM536.5 -12 q-38.5 0 -63 24.5t-24.5 61.5t24.5 61.5t63 24.5t63.5 -24.5t25 -61.5t-25 -61.5t-63.5 -24.5z" glyph-name="question" horiz-adv-x="1138" unicode="?"/><glyph d="M1020 -362q-393 0 -650 256t-257 630q0 252 126 461t341 329t471 120q395 0 652 -257t257 -645q0 -225 -107.5 -358t-261.5 -133q-100 0 -155.5 59.5t-67.5 157.5q-119 -195 -375 -195q-186 0 -315 131.5t-129 327.5q0 199 128 330t320 131q246 0 373 -197v172h103v-639 q0 -188 133 -188q98 0 177 108.5t79 292.5q0 342 -226.5 574.5t-584.5 232.5q-348 0 -594 -236.5t-246 -578.5q0 -338 230.5 -565t578.5 -227q281 0 440 125l27 -93q-180 -126 -467 -126zM997 158q160 0 266.5 103.5t106.5 261t-105.5 260t-267.5 102.5q-150 0 -248 -101.5 t-98 -261.5q0 -156 100.5 -260t245.5 -104z" glyph-name="at" horiz-adv-x="2072" unicode="@"/><glyph d="M1249 0l-176 422h-751l-177 -422h-114l606 1434h121l606 -1434h-115zM362 518h670l-334 801z" glyph-name="A" horiz-adv-x="1394" unicode="A"/><glyph d="M1016 750q129 -39 200.5 -133.5t71.5 -223.5q0 -164 -119.5 -278.5t-322.5 -114.5h-682v1434h633q184 0 305 -102.5t123 -264.5q2 -115 -52.5 -196.5t-156.5 -120.5zM788 1337h-520v-553h545q141 0 226 81t81 196q0 121 -90 198.5t-242 77.5zM838 96q158 0 252 88t94 215 q0 119 -91.5 208t-248.5 89h-576v-600h570z" glyph-name="B" horiz-adv-x="1396" unicode="B"/><glyph d="M829 -25q-315 0 -526 214t-211 532q0 313 211 525t526 212q233 0 411.5 -114.5t252.5 -301.5l-100 -24q-63 154 -213 249t-351 95q-279 0 -456.5 -187.5t-177.5 -451.5q0 -274 177 -462.5t457 -188.5q201 0 349.5 94t212.5 250l98 -27q-76 -186 -253.5 -300t-406.5 -114z " glyph-name="C" horiz-adv-x="1601" unicode="C"/><glyph d="M670 1434q334 0 523 -202t189 -515q0 -317 -189 -517t-523 -200h-506v1434h506zM670 96q291 0 450.5 174t159.5 449q0 266 -161 442t-449 176h-402v-1241h402z" glyph-name="D" horiz-adv-x="1474" unicode="D"/><glyph d="M1149 1337h-881v-563h776v-90h-776v-588h879v-96h-983v1434h985v-97z" glyph-name="E" horiz-adv-x="1271" unicode="E"/><glyph d="M1133 1337h-865v-575h760v-92h-760v-670h-104v1434h969v-97z" glyph-name="F" horiz-adv-x="1173" unicode="F"/><glyph d="M1544 741v-61q-2 -334 -203.5 -519.5t-506.5 -185.5q-315 0 -528.5 214t-213.5 532q0 313 211 525t526 212q233 0 410.5 -113.5t251.5 -302.5l-100 -24q-63 154 -212 249t-350 95q-281 0 -457.5 -186.5t-176.5 -452.5q0 -274 178 -462.5t461 -188.5q262 0 431 154.5 t181 422.5h-625v92h723z" glyph-name="G" horiz-adv-x="1636" unicode="G"/><glyph d="M1194 1434h104v-1434h-104v684h-926v-684h-104v1434h104v-656h926v656z" glyph-name="H" horiz-adv-x="1462" unicode="H"/><glyph d="M164 0v1434h104v-1434h-104z" glyph-name="I" horiz-adv-x="432" unicode="I"/><glyph d="M1087 1434v-967q0 -223 -136 -357.5t-359 -134.5q-193 0 -324 101.5t-186 271.5l94 29q45 -141 149.5 -223t266.5 -82q184 0 287.5 110.5t103.5 284.5v870h-817v97h921z" glyph-name="J" horiz-adv-x="1230" unicode="J"/><glyph d="M1182 0l-602 713l-312 -334v-379h-104v1434h104v-914l850 914h137l-608 -650l666 -784h-131z" glyph-name="K" horiz-adv-x="1363" unicode="K"/><glyph d="M268 96h836v-96h-940v1434h104v-1338z" glyph-name="L" horiz-adv-x="1165" unicode="L"/><glyph d="M1395 1434h100v-1434h-104v1257l-562 -802l-561 802v-1257h-104v1434h100l565 -805z" glyph-name="M" horiz-adv-x="1658" unicode="M"/><glyph d="M1204 1434h105v-1434h-97l-944 1257v-1257h-104v1434h96l944 -1258v1258z" glyph-name="N" horiz-adv-x="1472" unicode="N"/><glyph d="M825 -25q-313 0 -523 214t-210 532q0 313 210 525t523 212q311 0 521 -212t210 -525q0 -317 -210 -531.5t-521 -214.5zM825 72q276 0 452.5 189.5t176.5 461.5q0 264 -176 451.5t-452.5 187.5t-453.5 -187.5t-177 -451.5q0 -274 175.5 -462.5t454.5 -188.5z" glyph-name="O" horiz-adv-x="1648" unicode="O"/><glyph d="M776 1434q209 0 332 -136.5t123 -310.5q0 -176 -123 -309t-338 -133h-502v-545h-104v1434h612zM768 641q166 0 264 103.5t98 244.5t-99 244.5t-257 103.5h-506v-696h500z" glyph-name="P" horiz-adv-x="1302" unicode="P"/><glyph d="M1556 721q0 -315 -210 -533l161 -188h-123l-108 127q-193 -152 -451 -152q-311 0 -522 214t-211 532q0 313 211 525t522.5 212t521 -212t209.5 -525zM825 72q221 0 387 129l-344 403h125l289 -340q172 188 172 459q0 264 -177 451.5t-452 187.5q-276 0 -453 -187.5 t-177 -451.5q0 -272 177 -461.5t453 -189.5z" glyph-name="Q" horiz-adv-x="1648" unicode="Q"/><glyph d="M1143 0l-398 594h-477v-594h-104v1434h645q203 0 319.5 -129t116.5 -293q0 -156 -102.5 -277t-280.5 -139l402 -596h-121zM268 1337v-649h541q154 0 245 95.5t91 228.5t-92 229t-246 96h-539z" glyph-name="R" horiz-adv-x="1366" unicode="R"/><glyph d="M696 -25q-225 0 -393 124t-225 304l100 29q51 -156 191.5 -258t330.5 -102q186 0 306 94t120 217q0 98 -66.5 161.5t-232.5 117.5l-354 114q-154 49 -233.5 125t-79.5 197q0 145 132 252.5t329 107.5q211 0 355 -93t214 -245l-98 -30q-59 127 -181.5 199.5t-294.5 72.5 q-154 0 -254 -79t-100 -185q0 -84 60.5 -137.5t205.5 -100.5l344 -110q184 -57 270.5 -138.5t86.5 -224.5q0 -170 -151 -291t-382 -121z" glyph-name="S" horiz-adv-x="1347" unicode="S"/><glyph d="M1243 1434v-97h-553v-1337h-104v1337h-555v97h1212z" glyph-name="T" horiz-adv-x="1273" unicode="T"/><glyph d="M1186 1434h104v-873q0 -268 -152.5 -427t-420.5 -159t-421 159t-153 427v873h105v-871q0 -223 122 -357t347 -134t347 134t122 357v871z" glyph-name="U" horiz-adv-x="1433" unicode="U"/><glyph d="M1206 1434h109l-584 -1434h-106l-584 1434h109l528 -1303z" glyph-name="V" horiz-adv-x="1355" unicode="V"/><glyph d="M1855 1434h107l-459 -1434h-106l-396 1264l-397 -1264h-106l-457 1434h106l406 -1278l399 1278h97l399 -1278z" glyph-name="W" horiz-adv-x="2002" unicode="W"/><glyph d="M1319 0h-127l-506 651l-508 -651h-127l559 723l-547 711h127l496 -637l494 637h127l-547 -711z" glyph-name="X" horiz-adv-x="1370" unicode="X"/><glyph d="M1159 1434h119l-571 -875v-559h-105v559l-571 875h119l505 -775z" glyph-name="Y" horiz-adv-x="1308" unicode="Y"/><glyph d="M238 96h952v-96h-1098v70l934 1267h-907v97h1048v-70z" glyph-name="Z" horiz-adv-x="1271" unicode="Z"/><glyph d="M586 1425h-320v-1613h320v-95h-422v1803h422v-95z" glyph-name="bracketleft" horiz-adv-x="667" unicode="["/><glyph d="M1010 -186h-107l-811 1804h107z" glyph-name="backslash" horiz-adv-x="1101" unicode="\"/><glyph d="M504 1520v-1803h-422v95h319v1613h-319v95h422z" glyph-name="bracketright" horiz-adv-x="667" unicode="]"/><glyph d="M944 883h-110l-316 524l-315 -524h-111l373 612h106z" glyph-name="asciicircum" horiz-adv-x="1036" unicode="^"/><glyph d="M92 -248v88h1004v-88h-1004z" glyph-name="underscore" horiz-adv-x="1187" unicode="_"/><glyph d="M289 1178h-103l-186 274h123z" glyph-name="grave" horiz-adv-x="288" unicode="`"/><glyph d="M614 -25q-223 0 -370.5 153t-147.5 380t147.5 378.5t370.5 151.5q147 0 260 -63.5t179 -173.5v213h100v-1014h-100v215q-63 -113 -177.5 -176.5t-261.5 -63.5zM625 68q178 0 304 127t126 311t-126 311t-304 127q-188 0 -308 -125t-120 -313.5t121 -313t307 -124.5z" glyph-name="a" unicode="a"/><glyph d="M702 1038q223 0 371 -151.5t148 -378.5t-147.5 -380t-371.5 -153q-147 0 -260.5 63.5t-177.5 176.5v-215h-100v1495h100v-694q66 111 178.5 174t259.5 63zM692 68q186 0 307 124.5t121 313t-119.5 313.5t-308.5 125q-178 0 -304 -127t-126 -311t126 -311t304 -127z" glyph-name="b" unicode="b"/><glyph d="M621 -25q-227 0 -376 153t-149 382q0 227 148.5 377.5t376.5 150.5q174 0 297.5 -91t158.5 -204l-94 -28q-31 92 -131 160.5t-231 68.5q-186 0 -305 -128t-119 -310q0 -180 118.5 -308t305.5 -128q131 0 231 65.5t131 157.5l94 -25q-35 -115 -157.5 -204t-298.5 -89z" glyph-name="c" horiz-adv-x="1179" unicode="c"/><glyph d="M1053 1495h100v-1495h-100v215q-63 -113 -177 -176.5t-262 -63.5q-223 0 -370.5 153t-147.5 380t147.5 378.5t370.5 151.5q147 0 260 -63.5t179 -173.5v694zM625 68q178 0 304 127t126 311t-126 311t-304 127q-188 0 -308 -125t-120 -313.5t121 -313t307 -124.5z" glyph-name="d" unicode="d"/><glyph d="M623 -25q-231 0 -379 145.5t-148 387.5q0 227 142.5 378.5t367.5 151.5q233 0 366.5 -143t133.5 -360q0 -37 -2 -62h-905q8 -182 123.5 -292.5t300.5 -110.5q137 0 236 65.5t142 161.5l97 -29q-61 -127 -179 -210t-296 -83zM199 563l807 2q-12 172 -117 275.5t-283 103.5 q-170 0 -283.5 -110.5t-123.5 -270.5z" glyph-name="e" horiz-adv-x="1202" unicode="e"/><glyph d="M383 1163v-149h393v-94h-393v-920h-100v920h-222v94h222v155q0 168 75.5 259.5t225.5 91.5q111 0 192 -41l-26 -90q-76 39 -164 38q-203 0 -203 -264z" glyph-name="f" horiz-adv-x="806" unicode="f"/><glyph d="M1053 1014h100v-981q0 -211 -138 -349.5t-356 -138.5q-328 0 -477 267l92 34q121 -207 385 -206q178 0 284 111.5t110 281.5v200q-63 -104 -177 -162.5t-262 -58.5q-223 0 -370.5 146.5t-147.5 367.5q0 219 147.5 365.5t370.5 146.5q147 0 260 -58t179 -161v195zM625 104 q178 0 304 122t126 298t-126 298t-304 122q-188 0 -308 -119.5t-120 -300t121 -300.5t307 -120z" glyph-name="g" unicode="g"/><glyph d="M666 1038q188 0 299.5 -116.5t111.5 -323.5v-598h-100v588q0 168 -84 261t-238 93q-174 0 -282.5 -118.5t-108.5 -309.5v-514h-100v1495h100v-690q55 106 158 169.5t244 63.5z" glyph-name="h" horiz-adv-x="1230" unicode="h"/><glyph d="M225 1229q-35 0 -58.5 23.5t-23.5 58.5q0 33 23.5 55.5t58.5 22.5t58.5 -23t23.5 -55q0 -35 -23.5 -58.5t-58.5 -23.5zM176 0v1014h100v-1014h-100z" glyph-name="i" horiz-adv-x="450" unicode="i"/><glyph d="M217 1389q35 0 58.5 -23t23.5 -55q0 -35 -23.5 -58.5t-58.5 -23.5t-58.5 23.5t-23.5 58.5q0 33 23.5 55.5t58.5 22.5zM168 -129v1143h100v-1143q0 -154 -69.5 -240t-208.5 -86q-80 0 -154 39l27 92q57 -39 129 -38q88 0 132 61t44 172z" glyph-name="j" horiz-adv-x="442" unicode="j"/><glyph d="M879 0l-441 504l-174 -174v-330h-100v1495h100v-1028l547 547h133l-438 -441l498 -573h-125z" glyph-name="k" horiz-adv-x="1044" unicode="k"/><glyph d="M164 0v1495h100v-1495h-100z" glyph-name="l" horiz-adv-x="428" unicode="l"/><glyph d="M1331 1038q182 0 286.5 -112.5t104.5 -311.5v-614h-100v606q0 158 -78 247t-221 89t-237.5 -107.5t-94.5 -277.5v-557h-100v606q0 158 -73 247t-208 89q-150 0 -248 -116.5t-98 -303.5v-522h-100v1014h100v-195q51 98 143.5 158.5t215.5 60.5q250 0 335 -225 q45 100 140.5 162.5t232.5 62.5z" glyph-name="m" horiz-adv-x="1875" unicode="m"/><glyph d="M666 1038q188 0 299.5 -116.5t111.5 -323.5v-598h-100v588q0 168 -84 261t-238 93q-174 0 -282.5 -118.5t-108.5 -309.5v-514h-100v1014h100v-209q55 106 158 169.5t244 63.5z" glyph-name="n" horiz-adv-x="1230" unicode="n"/><glyph d="M631 -25q-229 0 -382 153t-153 380t152.5 378.5t382.5 151.5q227 0 378.5 -151.5t151.5 -378.5t-151.5 -380t-378.5 -153zM631 70q182 0 306 124.5t124 311t-124 312.5t-306 126q-184 0 -309 -126t-125 -312.5t125 -311t309 -124.5z" glyph-name="o" horiz-adv-x="1257" unicode="o"/><glyph d="M702 1038q223 0 371 -151.5t148 -378.5t-147.5 -380t-371.5 -153q-147 0 -260.5 63.5t-177.5 176.5v-645h-100v1444h100v-213q66 111 178.5 174t259.5 63zM692 68q186 0 307 124.5t121 313t-119.5 313.5t-308.5 125q-178 0 -304 -127t-126 -311t126 -311t304 -127z" glyph-name="p" unicode="p"/><glyph d="M1053 1014h100v-1444h-100v645q-63 -113 -177 -176.5t-262 -63.5q-223 0 -370.5 153t-147.5 380t147.5 378.5t370.5 151.5q147 0 260 -63.5t179 -173.5v213zM625 68q178 0 304 127t126 311t-126 311t-304 127q-188 0 -308 -125t-120 -313.5t121 -313t307 -124.5z" glyph-name="q" unicode="q"/><glyph d="M264 825q47 109 144.5 164t234.5 37v-94q-174 20 -276.5 -87.5t-102.5 -352.5v-492h-100v1014h100v-189z" glyph-name="r" horiz-adv-x="694" unicode="r"/><glyph d="M522 -25q-162 0 -286.5 86t-163.5 218l98 26q29 -100 127 -167.5t225 -67.5q131 0 215 58t84 142q0 68 -38 105t-130 63l-303 90q-104 31 -166.5 84.5t-62.5 151.5q0 111 102.5 192.5t251.5 81.5q156 0 264.5 -71.5t155.5 -180.5l-96 -28q-29 78 -117 132t-209 54 q-115 0 -183.5 -56.5t-68.5 -125.5q0 -55 41 -87t123 -57l307 -92q229 -68 230 -252q0 -129 -114 -214t-286 -85z" glyph-name="s" horiz-adv-x="1034" unicode="s"/><glyph d="M741 920h-374v-631q0 -205 186 -205q78 0 158 39l30 -94q-102 -43 -198 -43q-137 0 -207 80.5t-70 222.5v631h-215v94h215v360h101v-360h374v-94z" glyph-name="t" horiz-adv-x="833" unicode="t"/><glyph d="M967 1014h100v-1014h-100v209q-55 -106 -157.5 -170t-244.5 -64q-188 0 -299.5 117t-111.5 324v598h100v-588q0 -168 84 -261t237 -93q174 0 283 118.5t109 309.5v514z" glyph-name="u" horiz-adv-x="1230" unicode="u"/><glyph d="M936 1014h106l-450 -1014h-111l-450 1014h106l400 -899z" glyph-name="v" horiz-adv-x="1073" unicode="v"/><glyph d="M1393 1014h106l-348 -1014h-104l-281 850l-283 -850h-104l-348 1014h106l295 -881l287 881h92l287 -881z" glyph-name="w" horiz-adv-x="1529" unicode="w"/><glyph d="M1016 0h-127l-365 449l-366 -449h-127l420 512l-400 502h125l348 -436l346 436h125l-399 -502z" glyph-name="x" horiz-adv-x="1046" unicode="x"/><glyph d="M940 1014h109l-633 -1444h-109l197 448l-473 996h110l416 -881z" glyph-name="y" horiz-adv-x="1079" unicode="y"/><glyph d="M242 94h704v-94h-850v70l692 850h-679v94h819v-76z" glyph-name="z" horiz-adv-x="1042" unicode="z"/><glyph d="M467 866q0 -205 -156 -248q156 -43 156 -247v-373q0 -199 172 -199h66v-92h-76q-260 0 -260 287v377q0 90 -55.5 145t-147.5 55h-43v95h43q92 0 147.5 55t55.5 145v377q0 287 260 287h76v-92h-66q-172 0 -172 -199v-373z" glyph-name="braceleft" horiz-adv-x="786" unicode="{"/><glyph d="M154 -256v1905h96v-1905h-96z" glyph-name="bar" horiz-adv-x="403" unicode="|"/><glyph d="M621 666h43v-95h-43q-92 0 -147.5 -55t-55.5 -145v-377q0 -287 -260 -287h-76v92h65q172 0 172 199v373q0 205 156 247q-156 43 -156 248v373q0 199 -172 199h-65v92h76q260 0 260 -287v-377q0 -90 55.5 -145t147.5 -55z" glyph-name="braceright" horiz-adv-x="786" unicode="}"/><glyph d="M225 602l-92 27q0 98 58.5 161.5t177.5 63.5q84 0 170 -46t164.5 -91t140.5 -45q139 0 139 164l92 -27q0 -100 -57 -164.5t-176 -64.5q-84 0 -170 46t-165 91t-140 45q-142 0 -142 -160z" glyph-name="asciitilde" horiz-adv-x="1208" unicode="~"/><glyph d="M211 1026q39 0 63.5 -24.5t24.5 -61.5t-24.5 -61.5t-63.5 -24.5t-63.5 24.5t-24.5 61.5t24.5 61.5t63.5 24.5zM248 655l20 -1075h-123l21 1075h82z" glyph-name="exclamdown" horiz-adv-x="421" unicode="¡"/><glyph d="M627 276q131 0 231 66t131 158l94 -25q-33 -106 -144.5 -193t-270.5 -98v-217h-93v217q-207 18 -340 168t-133 365q0 213 133.5 360.5t339.5 165.5v221h93v-221q160 -12 271.5 -100t143.5 -193l-94 -28q-31 92 -131 160.5t-231 68.5q-186 0 -305 -128t-119 -310 q0 -180 119 -308.5t305 -128.5z" glyph-name="cent" horiz-adv-x="1175" unicode="¢"/><glyph d="M420 96h825v-96h-1143v96h215v512h-174v92h174v373q0 186 105.5 288.5t282.5 102.5q174 0 285.5 -95t142.5 -236l-91 -27q-78 262 -340 262q-135 0 -208.5 -78t-73.5 -221v-369h543v-92h-543v-512z" glyph-name="sterling" horiz-adv-x="1327" unicode="£"/><glyph d="M1106 655q0 -174 -107 -307l162 -160l-67 -67l-160 162q-131 -109 -307 -109t-308 109l-159 -162l-68 67l162 162q-104 131 -104 305t104 306l-162 161l68 68l159 -162q131 109 307.5 109t307.5 -109l160 162l67 -68l-162 -159q107 -134 107 -308zM246 655.5 q0 -161.5 109.5 -271.5t271 -110t272.5 110t111 271.5t-111 271t-272.5 109.5t-271 -109.5t-109.5 -271z" glyph-name="currency" horiz-adv-x="1253" unicode="¤"/><glyph d="M1298 1434l-518 -793h394v-86h-447v-147h447v-86h-447v-322h-104v322h-445v86h445v147h-445v86h391l-518 793h119l506 -775l504 775h118z" glyph-name="yen" horiz-adv-x="1349" unicode="¥"/><glyph d="M154 911v738h96v-738h-96zM154 -256v737h96v-737h-96z" glyph-name="brokenbar" horiz-adv-x="403" unicode="¦"/><glyph d="M848 393q127 -70 127 -198q0 -127 -112.5 -216.5t-289.5 -89.5q-158 0 -284.5 87t-165.5 217l100 28q29 -102 128.5 -169.5t230.5 -67.5q127 0 209.5 62.5t82.5 141.5q0 61 -37.5 95t-129.5 65l-316 105q-246 74 -246 266q0 80 52.5 147.5t124.5 108.5q-121 74 -121 205 q0 115 103.5 196.5t260.5 81.5q139 0 239.5 -66.5t143.5 -168.5l-96 -29q-29 74 -103.5 122t-185.5 48q-129 0 -195.5 -60.5t-66.5 -122t41 -100.5t123 -71l309 -107q111 -39 169 -96t58 -162q1 -139 -153 -252zM438 535l312 -101q152 94 151 211q0 68 -38 104.5t-130 69.5 l-313 109q-80 -33 -127 -91.5t-47 -117.5q-1 -131 192 -184z" glyph-name="section" horiz-adv-x="1124" unicode="§"/><glyph d="M76 1188q-33 0 -54.5 20.5t-21.5 53t21.5 53t54.5 20.5t54.5 -20.5t21.5 -53t-21.5 -53t-54.5 -20.5zM444.5 1188q-32.5 0 -54 20.5t-21.5 53t21.5 53t54 20.5t54 -20.5t21.5 -53t-21.5 -53t-54 -20.5z" glyph-name="dieresis" horiz-adv-x="520" unicode="¨"/><glyph d="M780 35q-293 0 -490.5 197.5t-197.5 488.5q0 287 198.5 482.5t489.5 195.5t488.5 -195.5t197.5 -482.5q0 -291 -196.5 -488.5t-489.5 -197.5zM780 127q252 0 422 170t170 424q0 252 -170 419t-422 167t-423 -167t-171 -419q0 -254 171 -424t423 -170zM788 365 q-152 0 -253 101t-101 253q0 147 101.5 247.5t250.5 100.5q121 0 208 -60.5t116 -150.5l-100 -25q-20 61 -80 101.5t-142 40.5q-113 0 -182 -74t-69 -180q0 -109 69.5 -183.5t181.5 -74.5q80 0 139.5 39t82.5 100l98 -27q-29 -88 -114 -148t-206 -60z" glyph-name="copyright" horiz-adv-x="1558" unicode="©"/><glyph d="M475 1004l-205 -349l205 -348h-117l-204 348l204 349h117zM748 1004l-205 -349l205 -348h-117l-205 348l205 349h117z" glyph-name="guillemotleft" horiz-adv-x="901" unicode="«"/><glyph d="M993 881v-389h-96v296h-743v93h839z" glyph-name="logicalnot" horiz-adv-x="1146" unicode="¬"/><glyph d="M780 1399q291 0 488.5 -195.5t197.5 -486.5t-197.5 -486.5t-488.5 -195.5q-293 0 -490.5 195.5t-197.5 486.5t197.5 486.5t490.5 195.5zM780 123q254 0 423 170t169 424t-169 424t-423 170t-424 -170t-170 -424t170 -424t424 -170zM1073 844q0 -70 -43 -127.5t-119 -75.5 l166 -262h-116l-158 254h-176v-254h-101v680h324q100 0 161.5 -65.5t61.5 -149.5zM627 965v-242h217q57 0 93 36t36 85q0 51 -35 86t-92 35h-219z" glyph-name="registered" horiz-adv-x="1558" unicode="®"/><glyph d="M0 1214v91h512v-91h-512z" glyph-name="macron" horiz-adv-x="512" unicode="¯"/><glyph d="M408 905q-131 0 -223.5 90t-92.5 222q0 129 92 219t224 90q133 0 224 -89t91 -220.5t-91 -221.5t-224 -90zM407.5 997q94.5 0 157 64.5t62.5 155.5q2 92 -61.5 154.5t-158 62.5t-157 -62.5t-62.5 -154.5q0 -90 62.5 -155t157 -65z" glyph-name="degree" horiz-adv-x="815" unicode="°"/><glyph d="M612 883h361v-92h-361v-314h-96v314h-362v92h362v311h96v-311zM154 242v92h819v-92h-819z" glyph-name="plusminus" horiz-adv-x="1126" unicode="±"/><glyph d="M188 1006h433v-84h-570v67l330 318q68 66 98.5 109.5t30.5 94.5q0 76 -47 120t-131 44q-76 0 -126 -43t-67 -121l-86 23q14 92 90 158.5t187 66.5q123 0 198.5 -65.5t75.5 -180.5q0 -72 -37 -126t-116 -130z" glyph-name="uni00B2" horiz-adv-x="681" unicode="²"/><glyph d="M403 1421q111 -8 177.5 -76.5t66.5 -173.5q0 -115 -81 -191.5t-206 -76.5q-133 0 -210.5 69.5t-98.5 168.5l86 24q12 -78 72.5 -129t148.5 -51q92 0 145.5 54.5t53.5 131.5q0 76 -52 127.5t-149 51.5q-14 0 -51 -4l-16 61l217 252h-430v82h542v-72z" glyph-name="uni00B3" horiz-adv-x="708" unicode="³"/><glyph d="M0 1178l166 274h123l-187 -274h-102z" glyph-name="acute" horiz-adv-x="288" unicode="´"/><glyph d="M1096 1434v-97h-119v-1767h-100v1767h-291v-1767h-101v1077q-168 0 -280.5 112.5t-112.5 278.5q0 168 115 282t278 114h611z" glyph-name="paragraph" horiz-adv-x="1249" unicode="¶"/><glyph d="M211 508q-39 0 -63.5 24.5t-24.5 61.5t24.5 61.5t63.5 24.5t63.5 -24.5t24.5 -61.5t-24.5 -61.5t-63.5 -24.5z" glyph-name="periodcentered" horiz-adv-x="421" unicode="·"/><glyph d="M203 -453q-115 0 -203 64l23 80q68 -51 140.5 -59.5t116.5 17t44 68.5q0 55 -72 77t-152 5l64 201h94l-37 -123q88 -2 140.5 -48t52.5 -114q0 -80 -61.5 -124t-149.5 -44z" glyph-name="cedilla" horiz-adv-x="413" unicode="¸"/><glyph d="M266 1741h78v-819h-90v712l-211 -102l-23 80z" glyph-name="uni00B9" horiz-adv-x="466" unicode="¹"/><glyph d="M270 1004l205 -349l-205 -348h-116l204 348l-204 349h116zM543 1004l205 -349l-205 -348h-117l205 348l-205 349h117z" glyph-name="guillemotright" horiz-adv-x="901" unicode="»"/><glyph d="M254 614v713l-211 -102l-23 80l246 129h78v-820h-90zM1059 1434h106l-899 -1434h-106zM1518 266v-84h-113v-182h-88v182h-428v72l307 565h98l-299 -553h322v207h88v-207h113z" glyph-name="onequarter" horiz-adv-x="1558" unicode="¼"/><glyph d="M254 614v713l-211 -102l-23 80l246 129h78v-820h-90zM1059 1434h106l-899 -1434h-106zM1047 84h432v-84h-570v68l330 317q68 66 98.5 110t30.5 95q0 76 -47 120t-131 44q-76 0 -126 -43t-67 -121l-86 22q14 92 90 159t187 67q123 0 198.5 -65.5t75.5 -180.5 q0 -72 -36.5 -126t-116.5 -130z" glyph-name="onehalf" horiz-adv-x="1540" unicode="½"/><glyph d="M647 864q0 -115 -81 -191.5t-206 -76.5q-133 0 -210.5 69.5t-98.5 168.5l86 24q12 -78 72.5 -129t148.5 -51q92 0 145.5 54t53.5 132q0 76 -52 127t-149 51q-14 0 -51 -4l-16 62l217 252h-430v82h542v-72l-215 -248q111 -8 177.5 -77t66.5 -173zM1300 1434h107 l-899 -1434h-107zM1759 266v-84h-112v-182h-88v182h-429v72l308 565h98l-299 -553h322v207h88v-207h112z" glyph-name="threequarters" horiz-adv-x="1800" unicode="¾"/><glyph d="M561 1026q39 0 63.5 -24.5t24.5 -61.5t-24.5 -61.5t-63.5 -24.5t-63.5 24.5t-24.5 61.5t24.5 61.5t63.5 24.5zM606 655q0 -111 -41 -199.5t-100 -145t-118.5 -106.5t-100.5 -112.5t-41 -136.5q0 -133 88 -218t235.5 -85t242.5 79t130 218l94 -27q-39 -160 -156.5 -263 t-312.5 -103q-184 0 -304 110.5t-120 286.5q0 92 42 164.5t102.5 124t120 104.5t101.5 131t42 178h96z" glyph-name="questiondown" horiz-adv-x="1097" unicode="¿"/><glyph d="M762 1597h-103l-186 275h123zM1249 0l-176 422h-751l-177 -422h-114l606 1434h121l606 -1434h-115zM362 518h670l-334 801z" glyph-name="Agrave" horiz-adv-x="1394" unicode="À"/><glyph d="M920 1872l-187 -275h-102l166 275h123zM1249 0l-176 422h-751l-177 -422h-114l606 1434h121l606 -1434h-115zM362 518h670l-334 801z" glyph-name="Aacute" horiz-adv-x="1394" unicode="Á"/><glyph d="M696 1790l-161 -193h-119l221 256h119l223 -256h-119zM1249 0l-176 422h-751l-177 -422h-114l606 1434h121l606 -1434h-115zM362 518h670l-334 801z" glyph-name="Acircumflex" horiz-adv-x="1394" unicode="Â"/><glyph d="M555 1747q-59 0 -59 -125h-90q0 215 149 215q61 0 152.5 -65.5t130.5 -65.5q59 0 59 125h90q0 -215 -149 -215q-61 0 -152.5 65.5t-130.5 65.5zM1249 0l-176 422h-751l-177 -422h-114l606 1434h121l606 -1434h-115zM362 518h670l-334 801z" glyph-name="Atilde" horiz-adv-x="1394" unicode="Ã"/><glyph d="M512 1608q-33 0 -54.5 20.5t-21.5 53t21.5 53t54.5 20.5t54.5 -20.5t21.5 -53t-21.5 -53t-54.5 -20.5zM880.5 1608q-32.5 0 -54 20.5t-21.5 53t21.5 53t54 20.5t54 -20.5t21.5 -53t-21.5 -53t-54 -20.5zM1249 0l-176 422h-751l-177 -422h-114l606 1434h121l606 -1434 h-115zM362 518h670l-334 801z" glyph-name="Adieresis" horiz-adv-x="1394" unicode="Ä"/><glyph d="M696 1556q-92 0 -153.5 59.5t-61.5 149.5t61.5 149.5t153.5 59.5t153.5 -59.5t61.5 -149.5t-61.5 -149.5t-153.5 -59.5zM696.5 1890q-59.5 0 -93.5 -34.5t-34 -90t34 -90.5t93.5 -35t93 35t33.5 90.5t-33.5 90t-93 34.5zM1249 0l-176 422h-751l-177 -422h-114l606 1434 h121l606 -1434h-115zM362 518h670l-334 801z" glyph-name="Aring" horiz-adv-x="1394" unicode="Å"/><glyph d="M1855 1337h-778v-563h674v-90h-674v-588h776v-96h-880v422h-563l-258 -422h-121l882 1434h942v-97zM469 518h504v825z" glyph-name="AE" horiz-adv-x="1978" unicode="Æ"/><glyph d="M829 72q201 0 349.5 94t212.5 250l98 -27q-72 -178 -235.5 -289.5t-379.5 -122.5l-30 -100q88 -2 140 -48t52 -114q0 -80 -61.5 -124t-149.5 -44q-115 0 -202 64l22 80q68 -51 140.5 -59.5t116.5 17t44 68.5q0 55 -71.5 77t-151.5 5l55 178q-297 18 -491.5 228.5 t-194.5 515.5q0 313 211 525t526 212q233 0 411.5 -114.5t252.5 -301.5l-100 -24q-63 154 -213 249t-351 95q-279 0 -456.5 -187.5t-177.5 -451.5q0 -274 176.5 -462.5t457.5 -188.5z" glyph-name="Ccedilla" horiz-adv-x="1601" unicode="Ç"/><glyph d="M715 1597h-103l-186 275h123zM1149 1337h-881v-563h776v-90h-776v-588h879v-96h-983v1434h985v-97z" glyph-name="Egrave" horiz-adv-x="1271" unicode="È"/><glyph d="M872 1872l-186 -275h-102l166 275h122zM1149 1337h-881v-563h776v-90h-776v-588h879v-96h-983v1434h985v-97z" glyph-name="Eacute" horiz-adv-x="1271" unicode="É"/><glyph d="M649 1790l-162 -193h-118l221 256h119l223 -256h-119zM1149 1337h-881v-563h776v-90h-776v-588h879v-96h-983v1434h985v-97z" glyph-name="Ecircumflex" horiz-adv-x="1271" unicode="Ê"/><glyph d="M465 1608q-33 0 -54.5 20.5t-21.5 53t21.5 53t54.5 20.5t54.5 -20.5t21.5 -53t-21.5 -53t-54.5 -20.5zM833.5 1608q-32.5 0 -54 20.5t-21.5 53t21.5 53t54 20.5t54 -20.5t21.5 -53t-21.5 -53t-54 -20.5zM1149 1337h-881v-563h776v-90h-776v-588h879v-96h-983v1434h985 v-97z" glyph-name="Edieresis" horiz-adv-x="1271" unicode="Ë"/><glyph d="M283 1597h-103l-186 275h123zM164 0v1434h104v-1434h-104z" glyph-name="Igrave" horiz-adv-x="432" unicode="Ì"/><glyph d="M152 1597l165 275h123l-186 -275h-102zM164 0v1434h104v-1434h-104z" glyph-name="Iacute" horiz-adv-x="432" unicode="Í"/><glyph d="M276 1853l224 -256h-119l-164 193l-162 -193h-118l221 256h118zM164 0v1434h104v-1434h-104z" glyph-name="Icircumflex" horiz-adv-x="432" unicode="Î"/><glyph d="M33 1608q-33 0 -54.5 20.5t-21.5 53t21.5 53t54.5 20.5t54.5 -20.5t21.5 -53t-21.5 -53t-54.5 -20.5zM401.5 1608q-32.5 0 -54 20.5t-21.5 53t21.5 53t54 20.5t54 -20.5t21.5 -53t-21.5 -53t-54 -20.5zM164 0v1434h104v-1434h-104z" glyph-name="Idieresis" horiz-adv-x="432" unicode="Ï"/><glyph d="M733 1434q334 0 523.5 -202t189.5 -515q0 -317 -189.5 -517t-523.5 -200h-506v672h-145v94h145v668h506zM733 96q291 0 450.5 174t159.5 449q0 266 -160.5 442t-449.5 176h-401v-571h493v-94h-493v-576h401z" glyph-name="Eth" horiz-adv-x="1538" unicode="Ð"/><glyph d="M596 1747q-59 0 -59 -125h-91q0 215 150 215q61 0 152.5 -65.5t130.5 -65.5q59 0 59 125h90q0 -215 -149 -215q-61 0 -152.5 65.5t-130.5 65.5zM1204 1434h105v-1434h-97l-944 1257v-1257h-104v1434h96l944 -1258v1258z" glyph-name="Ntilde" horiz-adv-x="1472" unicode="Ñ"/><glyph d="M891 1597h-103l-186 275h123zM825 -25q-313 0 -523 214t-210 532q0 313 210 525t523 212q311 0 521 -212t210 -525q0 -317 -210 -531.5t-521 -214.5zM825 72q276 0 452.5 189.5t176.5 461.5q0 264 -176 451.5t-452.5 187.5t-453.5 -187.5t-177 -451.5 q0 -274 175.5 -462.5t454.5 -188.5z" glyph-name="Ograve" horiz-adv-x="1648" unicode="Ò"/><glyph d="M760 1597l166 275h123l-187 -275h-102zM825 -25q-313 0 -523 214t-210 532q0 313 210 525t523 212q311 0 521 -212t210 -525q0 -317 -210 -531.5t-521 -214.5zM825 72q276 0 452.5 189.5t176.5 461.5q0 264 -176 451.5t-452.5 187.5t-453.5 -187.5t-177 -451.5 q0 -274 175.5 -462.5t454.5 -188.5z" glyph-name="Oacute" horiz-adv-x="1648" unicode="Ó"/><glyph d="M825 1790l-161 -193h-119l221 256h119l223 -256h-119zM825 1458q311 0 521 -212t210 -525q0 -317 -209.5 -531.5t-521.5 -214.5q-313 0 -523 214t-210 532q0 313 210 525t523 212zM825 72q276 0 452.5 189.5t176.5 461.5q0 264 -176 451.5t-452.5 187.5t-453.5 -187.5 t-177 -451.5q0 -274 175.5 -462.5t454.5 -188.5z" glyph-name="Ocircumflex" horiz-adv-x="1648" unicode="Ô"/><glyph d="M967 1616q-61 0 -152.5 65.5t-130.5 65.5q-59 0 -59 -125h-90q0 215 149 215q61 0 152.5 -65.5t130.5 -65.5q59 0 59 125h90q1 -215 -149 -215zM825 -25q-313 0 -523 214t-210 532q0 313 210 525t523 212q311 0 521 -212t210 -525q0 -317 -210 -531.5t-521 -214.5z M825 72q276 0 452.5 189.5t176.5 461.5q0 264 -176 451.5t-452.5 187.5t-453.5 -187.5t-177 -451.5q0 -274 175.5 -462.5t454.5 -188.5z" glyph-name="Otilde" horiz-adv-x="1648" unicode="Õ"/><glyph d="M641 1608q-33 0 -54.5 20.5t-21.5 53t21.5 53t54.5 20.5t54.5 -20.5t21.5 -53t-21.5 -53t-54.5 -20.5zM1009.5 1608q-32.5 0 -54 20.5t-21.5 53t21.5 53t54 20.5t54 -20.5t21.5 -53t-21.5 -53t-54 -20.5zM825 -25q-313 0 -523 214t-210 532q0 313 210 525t523 212 q311 0 521 -212t210 -525q0 -317 -210 -531.5t-521 -214.5zM825 72q276 0 452.5 189.5t176.5 461.5q0 264 -176 451.5t-452.5 187.5t-453.5 -187.5t-177 -451.5q0 -274 175.5 -462.5t454.5 -188.5z" glyph-name="Odieresis" horiz-adv-x="1648" unicode="Ö"/><glyph d="M856 1006l-287 -287l287 -287l-63 -65l-287 286l-285 -284l-67 63l286 287l-284 285l61 65l289 -287l287 287z" glyph-name="multiply" horiz-adv-x="1009" unicode="×"/><glyph d="M1296 1292q123 -100 191.5 -248.5t68.5 -322.5q0 -317 -209.5 -531.5t-521.5 -214.5q-207 0 -379 101l-71 -101h-107l105 150q-131 102 -206 258t-75 338q0 313 210 525t523 212q223 0 402 -115l80 115h106zM195 723q0 -156 61 -291t174 -225l739 1057q-152 98 -344 98 q-276 0 -453 -187.5t-177 -451.5zM825 72q276 0 452.5 189.5t176.5 461.5q0 301 -215 487l-737 -1054q145 -84 323 -84z" glyph-name="Oslash" horiz-adv-x="1648" unicode="Ø"/><glyph d="M782 1597h-102l-186 275h122zM1186 1434h104v-873q0 -268 -152.5 -427t-420.5 -159t-421 159t-153 427v873h105v-871q0 -223 122 -357t347 -134t347 134t122 357v871z" glyph-name="Ugrave" horiz-adv-x="1433" unicode="Ù"/><glyph d="M940 1872l-186 -275h-103l166 275h123zM1186 1434h104v-873q0 -268 -152.5 -427t-420.5 -159t-421 159t-153 427v873h105v-871q0 -223 122 -357t347 -134t347 134t122 357v871z" glyph-name="Uacute" horiz-adv-x="1433" unicode="Ú"/><glyph d="M717 1790l-162 -193h-119l221 256h119l223 -256h-118zM1186 1434h104v-873q0 -268 -152.5 -427t-420.5 -159t-421 159t-153 427v873h105v-871q0 -223 122 -357t347 -134t347 134t122 357v871z" glyph-name="Ucircumflex" horiz-adv-x="1433" unicode="Û"/><glyph d="M532.5 1608q-32.5 0 -54 20.5t-21.5 53t21.5 53t54 20.5t54 -20.5t21.5 -53t-21.5 -53t-54 -20.5zM901 1608q-33 0 -54.5 20.5t-21.5 53t21.5 53t54.5 20.5t54.5 -20.5t21.5 -53t-21.5 -53t-54.5 -20.5zM1186 1434h104v-873q0 -268 -152.5 -427t-420.5 -159t-421 159 t-153 427v873h105v-871q0 -223 122 -357t347 -134t347 134t122 357v871z" glyph-name="Udieresis" horiz-adv-x="1433" unicode="Ü"/><glyph d="M879 1872l-187 -275h-102l166 275h123zM1159 1434h119l-571 -875v-559h-105v559l-571 875h119l505 -775z" glyph-name="Yacute" horiz-adv-x="1308" unicode="Ý"/><glyph d="M776 1184q209 0 332 -136.5t123 -310.5q0 -176 -123 -309t-338 -133h-502v-295h-104v1434h104v-250h508zM768 391q166 0 264 103.5t98 245t-99 244.5t-257 103h-506v-696h500z" glyph-name="Thorn" horiz-adv-x="1302" unicode="Þ"/><glyph d="M778 811q137 -35 220 -136.5t83 -254.5q0 -197 -131 -308.5t-348 -111.5h-151v94h153q176 0 276.5 87t100.5 239q0 154 -94 241t-258 87h-121v90h49q150 0 241 81.5t91 215.5q0 127 -83 206.5t-216 79.5q-162 0 -249 -102t-87 -285v-1034h-100v1034q0 219 115.5 350.5 t318.5 131.5q174 0 287.5 -105.5t113.5 -271.5q0 -240 -211 -328z" glyph-name="germandbls" horiz-adv-x="1189" unicode="ß"/><glyph d="M692 1178h-102l-187 274h123zM614 -25q-223 0 -370.5 153t-147.5 380t147.5 378.5t370.5 151.5q147 0 260 -63.5t179 -173.5v213h100v-1014h-100v215q-63 -113 -177.5 -176.5t-261.5 -63.5zM625 68q178 0 304 127t126 311t-126 311t-304 127q-188 0 -308 -125 t-120 -313.5t121 -313t307 -124.5z" glyph-name="agrave" unicode="à"/><glyph d="M561 1178l166 274h123l-186 -274h-103zM614 -25q-223 0 -370.5 153t-147.5 380t147.5 378.5t370.5 151.5q147 0 260 -63.5t179 -173.5v213h100v-1014h-100v215q-63 -113 -177.5 -176.5t-261.5 -63.5zM625 68q178 0 304 127t126 311t-126 311t-304 127q-188 0 -308 -125 t-120 -313.5t121 -313t307 -124.5z" glyph-name="aacute" unicode="á"/><glyph d="M627 1370l-162 -192h-119l221 256h119l223 -256h-118zM1053 1014h100v-1014h-100v215q-63 -113 -177 -176.5t-262 -63.5q-223 0 -370.5 153t-147.5 380t147.5 378.5t370.5 151.5q147 0 260 -63.5t179 -173.5v213zM625 68q178 0 304 127t126 311t-126 311t-304 127 q-188 0 -308 -125t-120 -313.5t121 -313t307 -124.5z" glyph-name="acircumflex" unicode="â"/><glyph d="M768 1196q-61 0 -152.5 65.5t-130.5 65.5q-59 0 -59 -125h-90q0 215 149 215q61 0 152.5 -65.5t130.5 -65.5q59 0 59 125h91q0 -215 -150 -215zM614 -25q-223 0 -370.5 153t-147.5 380t147.5 378.5t370.5 151.5q147 0 260 -63.5t179 -173.5v213h100v-1014h-100v215 q-63 -113 -177.5 -176.5t-261.5 -63.5zM625 68q178 0 304 127t126 311t-126 311t-304 127q-188 0 -308 -125t-120 -313.5t121 -313t307 -124.5z" glyph-name="atilde" unicode="ã"/><glyph d="M442.5 1188q-32.5 0 -54 20.5t-21.5 53t21.5 53t54 20.5t54 -20.5t21.5 -53t-21.5 -53t-54 -20.5zM811 1188q-33 0 -54.5 20.5t-21.5 53t21.5 53t54.5 20.5t54.5 -20.5t21.5 -53t-21.5 -53t-54.5 -20.5zM614 -25q-223 0 -370.5 153t-147.5 380t147.5 378.5t370.5 151.5 q147 0 260 -63.5t179 -173.5v213h100v-1014h-100v215q-63 -113 -177.5 -176.5t-261.5 -63.5zM625 68q178 0 304 127t126 311t-126 311t-304 127q-188 0 -308 -125t-120 -313.5t121 -313t307 -124.5z" glyph-name="adieresis" unicode="ä"/><glyph d="M627 1137q-92 0 -153.5 59t-61.5 149.5t61.5 149.5t153.5 59t153.5 -59t61.5 -149.5t-61.5 -149.5t-153.5 -59zM626.5 1221q59.5 0 93.5 34.5t34 90t-34 90t-93.5 34.5t-93 -34.5t-33.5 -90t33.5 -90t93 -34.5zM614 -25q-223 0 -370.5 153t-147.5 380t147.5 378.5 t370.5 151.5q147 0 260 -63.5t179 -173.5v213h100v-1014h-100v215q-63 -113 -177.5 -176.5t-261.5 -63.5zM625 68q178 0 304 127t126 311t-126 311t-304 127q-188 0 -308 -125t-120 -313.5t121 -313t307 -124.5z" glyph-name="aring" unicode="å"/><glyph d="M2066 526q0 -35 -2 -59h-907q14 -180 131 -288.5t287 -108.5q129 0 222 56t136 138l97 -28q-57 -115 -171 -188t-284 -73q-287 0 -422 234v-209h-100v215q-63 -113 -177 -176.5t-262 -63.5q-223 0 -370.5 153t-147.5 380t147.5 378.5t370.5 151.5q147 0 260 -63.5 t179 -173.5v213h100v-209q137 233 414 233q231 0 365 -145.5t134 -366.5zM625 68q178 0 304 127t126 311t-126 311t-304 127q-188 0 -308 -125t-120 -313.5t121 -313t307 -124.5zM1157 555l811 2q-12 176 -117.5 281.5t-283.5 105.5q-168 0 -284 -113.5t-126 -275.5z" glyph-name="ae" horiz-adv-x="2162" unicode="æ"/><glyph d="M621 70q131 0 231 65.5t131 157.5l94 -25q-33 -104 -140.5 -190t-262.5 -101l-31 -100q88 -2 140.5 -48t52.5 -114q0 -80 -61.5 -124t-149.5 -44q-115 0 -203 64l22 80q68 -51 140.5 -59.5t116.5 17t44 68.5q0 55 -71.5 77t-151.5 5l56 178q-211 14 -346.5 165 t-135.5 368q0 227 148.5 377.5t376.5 150.5q174 0 297.5 -91t158.5 -204l-94 -28q-31 92 -131 160.5t-231 68.5q-186 0 -305 -128t-119 -310q0 -180 119 -308t305 -128z" glyph-name="ccedilla" horiz-adv-x="1179" unicode="ç"/><glyph d="M676 1178h-103l-186 274h123zM623 -25q-231 0 -379 145.5t-148 387.5q0 227 142.5 378.5t367.5 151.5q233 0 366.5 -143t133.5 -360q0 -37 -2 -62h-905q8 -182 123.5 -292.5t300.5 -110.5q137 0 236 65.5t142 161.5l97 -29q-61 -127 -179 -210t-296 -83zM199 563l807 2 q-12 172 -117 275.5t-283 103.5q-170 0 -283.5 -110.5t-123.5 -270.5z" glyph-name="egrave" horiz-adv-x="1202" unicode="è"/><glyph d="M545 1178l166 274h123l-187 -274h-102zM623 -25q-231 0 -379 145.5t-148 387.5q0 227 142.5 378.5t367.5 151.5q233 0 366.5 -143t133.5 -360q0 -37 -2 -62h-905q8 -182 123.5 -292.5t300.5 -110.5q137 0 236 65.5t142 161.5l97 -29q-61 -127 -179 -210t-296 -83z M199 563l807 2q-12 172 -117 275.5t-283 103.5q-170 0 -283.5 -110.5t-123.5 -270.5z" glyph-name="eacute" horiz-adv-x="1202" unicode="é"/><glyph d="M610 1370l-161 -192h-119l221 256h119l223 -256h-119zM1106 535q0 -37 -2 -62h-905q8 -182 123.5 -292.5t300.5 -110.5q137 0 236 65.5t142 161.5l97 -29q-61 -127 -179 -210t-296 -83q-231 0 -379 145.5t-148 387.5q0 227 142.5 378.5t367.5 151.5q233 0 366.5 -143 t133.5 -360zM199 563l807 2q-12 172 -117 275.5t-283 103.5q-170 0 -283.5 -110.5t-123.5 -270.5z" glyph-name="ecircumflex" horiz-adv-x="1202" unicode="ê"/><glyph d="M426 1188q-33 0 -54.5 20.5t-21.5 53t21.5 53t54.5 20.5t54.5 -20.5t21.5 -53t-21.5 -53t-54.5 -20.5zM794.5 1188q-32.5 0 -54 20.5t-21.5 53t21.5 53t54 20.5t54 -20.5t21.5 -53t-21.5 -53t-54 -20.5zM623 -25q-231 0 -379 145.5t-148 387.5q0 227 142.5 378.5 t367.5 151.5q233 0 366.5 -143t133.5 -360q0 -37 -2 -62h-905q8 -182 123.5 -292.5t300.5 -110.5q137 0 236 65.5t142 161.5l97 -29q-61 -127 -179 -210t-296 -83zM199 563l807 2q-12 172 -117 275.5t-283 103.5q-170 0 -283.5 -110.5t-123.5 -270.5z" glyph-name="edieresis" horiz-adv-x="1202" unicode="ë"/><glyph d="M279 1178h-103l-186 274h123zM164 0v1014h102v-1014h-102z" glyph-name="igrave" horiz-adv-x="430" unicode="ì"/><glyph d="M147 1178l166 274h123l-186 -274h-103zM164 0v1014h102v-1014h-102z" glyph-name="iacute" horiz-adv-x="430" unicode="í"/><glyph d="M272 1434l224 -256h-119l-164 192l-162 -192h-119l222 256h118zM164 0v1014h102v-1014h-102z" glyph-name="icircumflex" horiz-adv-x="430" unicode="î"/><glyph d="M67.5 1188q-32.5 0 -54 20.5t-21.5 53t21.5 53t54 20.5t54 -20.5t21.5 -53t-21.5 -53t-54 -20.5zM362.5 1188q-32.5 0 -54 20.5t-21.5 53t21.5 53t54 20.5t54 -20.5t21.5 -53t-21.5 -53t-54 -20.5zM164 0v1014h102v-1014h-102z" glyph-name="idieresis" horiz-adv-x="430" unicode="ï"/><glyph d="M838 1212q315 -332 315 -716q0 -236 -146.5 -380.5t-377.5 -144.5q-223 0 -375 146.5t-152 363.5q0 219 148.5 355.5t374.5 136.5q221 0 356 -129q-84 182 -246 344l-416 -107l-20 84l363 92q-113 96 -232 177h154q106 -78 182 -150l227 57l21 -84zM628.5 68 q190.5 0 306.5 114.5t116 294.5q0 170 -117 285t-305 115q-190 0 -307 -113t-117 -283q0 -180 116.5 -296.5t307 -116.5z" glyph-name="eth" horiz-adv-x="1255" unicode="ð"/><glyph d="M483 1327q-59 0 -59 -125h-90q0 215 149 215q61 0 152.5 -65.5t130.5 -65.5q59 0 59 125h90q0 -215 -149 -215q-61 0 -152.5 65.5t-130.5 65.5zM666 1038q188 0 299.5 -116.5t111.5 -323.5v-598h-100v588q0 168 -84 261t-238 93q-174 0 -282.5 -118.5t-108.5 -309.5v-514 h-100v1014h100v-209q55 106 158 169.5t244 63.5z" glyph-name="ntilde" horiz-adv-x="1230" unicode="ñ"/><glyph d="M696 1178h-102l-186 274h122zM631 -25q-229 0 -382 153t-153 380t152.5 378.5t382.5 151.5q227 0 378.5 -151.5t151.5 -378.5t-151.5 -380t-378.5 -153zM631 70q182 0 306 124.5t124 311t-124 312.5t-306 126q-184 0 -309 -126t-125 -312.5t125 -311t309 -124.5z" glyph-name="ograve" horiz-adv-x="1257" unicode="ò"/><glyph d="M565 1178l166 274h123l-186 -274h-103zM631 -25q-229 0 -382 153t-153 380t152.5 378.5t382.5 151.5q227 0 378.5 -151.5t151.5 -378.5t-151.5 -380t-378.5 -153zM631 70q182 0 306 124.5t124 311t-124 312.5t-306 126q-184 0 -309 -126t-125 -312.5t125 -311t309 -124.5 z" glyph-name="oacute" horiz-adv-x="1257" unicode="ó"/><glyph d="M631 1370l-162 -192h-119l221 256h119l223 -256h-118zM631 1038q227 0 378.5 -151.5t151.5 -378.5t-151.5 -380t-378.5 -153q-229 0 -382 153t-153 380t153 378.5t382 151.5zM631 70q182 0 306 124.5t124 311t-124 312.5t-306 126q-184 0 -309 -126t-125 -312.5t125 -311 t309 -124.5z" glyph-name="ocircumflex" horiz-adv-x="1257" unicode="ô"/><glyph d="M772 1196q-61 0 -152.5 65.5t-130.5 65.5q-59 0 -59 -125h-90q0 215 149 215q61 0 152.5 -65.5t130.5 -65.5q59 0 59 125h91q0 -215 -150 -215zM631 -25q-229 0 -382 153t-153 380t152.5 378.5t382.5 151.5q227 0 378.5 -151.5t151.5 -378.5t-151.5 -380t-378.5 -153z M631 70q182 0 306 124.5t124 311t-124 312.5t-306 126q-184 0 -309 -126t-125 -312.5t125 -311t309 -124.5z" glyph-name="otilde" horiz-adv-x="1257" unicode="õ"/><glyph d="M446.5 1188q-32.5 0 -54 20.5t-21.5 53t21.5 53t54 20.5t54 -20.5t21.5 -53t-21.5 -53t-54 -20.5zM815 1188q-33 0 -54.5 20.5t-21.5 53t21.5 53t54.5 20.5t54.5 -20.5t21.5 -53t-21.5 -53t-54.5 -20.5zM631 -25q-229 0 -382 153t-153 380t152.5 378.5t382.5 151.5 q227 0 378.5 -151.5t151.5 -378.5t-151.5 -380t-378.5 -153zM631 70q182 0 306 124.5t124 311t-124 312.5t-306 126q-184 0 -309 -126t-125 -312.5t125 -311t309 -124.5z" glyph-name="odieresis" horiz-adv-x="1257" unicode="ö"/><glyph d="M594 971q-37 0 -62.5 26.5t-25.5 61.5t25.5 60.5t62.5 25.5t62.5 -25.5t25.5 -60.5t-25.5 -61.5t-62.5 -26.5zM154 672v92h880v-92h-880zM594 291q-37 0 -62.5 26.5t-25.5 61.5t25.5 60.5t62.5 25.5t62.5 -25.5t25.5 -60.5t-25.5 -61.5t-62.5 -26.5z" glyph-name="divide" horiz-adv-x="1187" unicode="÷"/><glyph d="M977 918q184 -156 184 -410q0 -227 -151.5 -380t-378.5 -153q-145 0 -269 68l-47 -68h-106l82 117q-195 152 -195 416q0 227 152.5 378.5t382.5 151.5q154 0 274 -71l49 71h107zM197 506q0 -207 149 -334l502 715q-98 57 -217 57q-184 0 -309 -126t-125 -312zM631 70 q182 0 306 124.5t124 311.5q0 201 -143 330l-500 -713q96 -53 213 -53z" glyph-name="oslash" horiz-adv-x="1257" unicode="ø"/><glyph d="M682 1178h-102l-187 274h123zM967 1014h100v-1014h-100v209q-55 -106 -157.5 -170t-244.5 -64q-188 0 -299.5 117t-111.5 324v598h100v-588q0 -168 84 -261t237 -93q174 0 283 118.5t109 309.5v514z" glyph-name="ugrave" horiz-adv-x="1230" unicode="ù"/><glyph d="M840 1452l-187 -274h-102l166 274h123zM967 1014h100v-1014h-100v209q-55 -106 -157.5 -170t-244.5 -64q-188 0 -299.5 117t-111.5 324v598h100v-588q0 -168 84 -261t237 -93q174 0 283 118.5t109 309.5v514z" glyph-name="uacute" horiz-adv-x="1230" unicode="ú"/><glyph d="M616 1370l-161 -192h-119l221 256h119l223 -256h-119zM967 1014h100v-1014h-100v209q-55 -106 -157.5 -170t-244.5 -64q-188 0 -299.5 117t-111.5 324v598h100v-588q0 -168 84 -261t237 -93q174 0 283 118.5t109 309.5v514z" glyph-name="ucircumflex" horiz-adv-x="1230" unicode="û"/><glyph d="M432 1188q-33 0 -54.5 20.5t-21.5 53t21.5 53t54.5 20.5t54.5 -20.5t21.5 -53t-21.5 -53t-54.5 -20.5zM801 1188q-33 0 -54.5 20.5t-21.5 53t21.5 53t54.5 20.5t54.5 -20.5t21.5 -53t-21.5 -53t-54.5 -20.5zM967 1014h100v-1014h-100v209q-55 -106 -157.5 -170 t-244.5 -64q-188 0 -299.5 117t-111.5 324v598h100v-588q0 -168 84 -261t237 -93q174 0 283 118.5t109 309.5v514z" glyph-name="udieresis" horiz-adv-x="1230" unicode="ü"/><glyph d="M774 1452l-186 -274h-103l166 274h123zM940 1014h109l-633 -1444h-109l197 448l-473 996h110l416 -881z" glyph-name="yacute" horiz-adv-x="1079" unicode="ý"/><glyph d="M702 1038q223 0 371 -151.5t148 -378.5t-147.5 -380t-371.5 -153q-147 0 -260.5 63.5t-177.5 176.5v-645h-100v1925h100v-694q66 111 178.5 174t259.5 63zM692 68q186 0 307 124.5t121 313t-119.5 313.5t-308.5 125q-178 0 -304 -127t-126 -311t126 -311t304 -127z" glyph-name="thorn" unicode="þ"/><glyph d="M366.5 1188q-32.5 0 -54 20.5t-21.5 53t21.5 53t54 20.5t54 -20.5t21.5 -53t-21.5 -53t-54 -20.5zM735 1188q-33 0 -54.5 20.5t-21.5 53t21.5 53t54.5 20.5t54.5 -20.5t21.5 -53t-21.5 -53t-54.5 -20.5zM940 1014h109l-633 -1444h-109l197 448l-473 996h110l416 -881z " glyph-name="ydieresis" horiz-adv-x="1079" unicode="ÿ"/><glyph d="M952 1724v-90h-512v90h512zM1249 0l-176 422h-751l-177 -422h-114l606 1434h121l606 -1434h-115zM362 518h670l-334 801z" glyph-name="Amacron" horiz-adv-x="1394" unicode="Ā"/><glyph d="M371 1214v91h512v-91h-512zM614 -25q-223 0 -370.5 153t-147.5 380t147.5 378.5t370.5 151.5q147 0 260 -63.5t179 -173.5v213h100v-1014h-100v215q-63 -113 -177.5 -176.5t-261.5 -63.5zM625 68q178 0 304 127t126 311t-126 311t-304 127q-188 0 -308 -125t-120 -313.5 t121 -313t307 -124.5z" glyph-name="amacron" unicode="ā"/><glyph d="M696.5 1575q-137.5 0 -211 73.5t-73.5 188.5h94q2 -80 49 -129t141 -49q96 0 143.5 49t47.5 129h94q0 -115 -73.5 -188.5t-211 -73.5zM1249 0l-176 422h-751l-177 -422h-114l606 1434h121l606 -1434h-115zM362 518h670l-334 801z" glyph-name="Abreve" horiz-adv-x="1394" unicode="Ă"/><glyph d="M626.5 1155q-137.5 0 -211 74t-73.5 188h94q2 -80 49 -129t142 -49q96 0 143 49t47 129h94q0 -115 -73.5 -188.5t-211 -73.5zM614 -25q-223 0 -370.5 153t-147.5 380t147.5 378.5t370.5 151.5q147 0 260 -63.5t179 -173.5v213h100v-1014h-100v215q-63 -113 -177.5 -176.5 t-261.5 -63.5zM625 68q178 0 304 127t126 311t-126 311t-304 127q-188 0 -308 -125t-120 -313.5t121 -313t307 -124.5z" glyph-name="abreve" unicode="ă"/><glyph d="M1415 -297l27 -90q-57 -68 -156 -68q-90 0 -142 47.5t-52 135.5q0 61 49 136t123 136h-15l-176 422h-751l-177 -422h-114l606 1434h121l606 -1434q-172 -152 -172 -266q0 -45 25.5 -72t70.5 -27q72 0 127 68zM362 518h670l-334 801z" glyph-name="Aogonek" horiz-adv-x="1394" unicode="Ą"/><glyph d="M1204 -297l27 -90q-57 -68 -156 -68q-90 0 -142 47.5t-52 135.5q0 61 49 136t123 136v215q-63 -113 -177 -176.5t-262 -63.5q-223 0 -370.5 153t-147.5 380t147.5 378.5t370.5 151.5q147 0 260 -63.5t179 -173.5v213h100v-1014q-172 -152 -172 -266q0 -45 25.5 -72 t70.5 -27q72 0 127 68zM625 68q178 0 304 127t126 311t-126 311t-304 127q-188 0 -308 -125t-120 -313.5t121 -313t307 -124.5z" glyph-name="aogonek" unicode="ą"/><glyph d="M764 1597l166 275h123l-187 -275h-102zM829 -25q-315 0 -526 214t-211 532q0 313 211 525t526 212q233 0 411.5 -114.5t252.5 -301.5l-100 -24q-63 154 -213 249t-351 95q-279 0 -456.5 -187.5t-177.5 -451.5q0 -274 177 -462.5t457 -188.5q201 0 349.5 94t212.5 250 l98 -27q-76 -186 -253.5 -300t-406.5 -114z" glyph-name="Cacute" horiz-adv-x="1601" unicode="Ć"/><glyph d="M555 1178l166 274h123l-187 -274h-102zM621 -25q-227 0 -376 153t-149 382q0 227 148.5 377.5t376.5 150.5q174 0 297.5 -91t158.5 -204l-94 -28q-31 92 -131 160.5t-231 68.5q-186 0 -305 -128t-119 -310q0 -180 118.5 -308t305.5 -128q131 0 231 65.5t131 157.5l94 -25 q-35 -115 -157.5 -204t-298.5 -89z" glyph-name="cacute" horiz-adv-x="1179" unicode="ć"/><glyph d="M829.5 1602q-38.5 0 -63.5 24.5t-25 61t25 61.5t63.5 25t63.5 -25t25 -61.5t-25 -61t-63.5 -24.5zM829 -25q-315 0 -526 214t-211 532q0 313 211 525t526 212q233 0 411.5 -114.5t252.5 -301.5l-100 -24q-63 154 -213 249t-351 95q-279 0 -456.5 -187.5t-177.5 -451.5 q0 -274 177 -462.5t457 -188.5q201 0 349.5 94t212.5 250l98 -27q-76 -186 -253.5 -300t-406.5 -114z" glyph-name="Cdotaccent" horiz-adv-x="1601" unicode="Ċ"/><glyph d="M620.5 1182q-38.5 0 -63.5 24.5t-25 61.5t25 61.5t63.5 24.5t63.5 -24.5t25 -61.5t-25 -61.5t-63.5 -24.5zM621 -25q-227 0 -376 153t-149 382q0 227 148.5 377.5t376.5 150.5q174 0 297.5 -91t158.5 -204l-94 -28q-31 92 -131 160.5t-231 68.5q-186 0 -305 -128 t-119 -310q0 -180 118.5 -308t305.5 -128q131 0 231 65.5t131 157.5l94 -25q-35 -115 -157.5 -204t-298.5 -89z" glyph-name="cdotaccent" horiz-adv-x="1179" unicode="ċ"/><glyph d="M770 1597l-221 256h119l161 -192l164 192h119l-223 -256h-119zM829 72q201 0 349.5 94t212.5 250l98 -27q-76 -186 -253 -300t-407 -114q-315 0 -526 214t-211 532q0 313 211 525t526 212q233 0 411.5 -114.5t252.5 -301.5l-100 -24q-63 154 -213 249t-351 95 q-279 0 -456.5 -187.5t-177.5 -451.5q0 -274 176.5 -462.5t457.5 -188.5z" glyph-name="Ccaron" horiz-adv-x="1601" unicode="Č"/><glyph d="M561 1178l-221 256h119l162 -193l163 193h119l-223 -256h-119zM621 70q131 0 231 65.5t131 157.5l94 -25q-35 -115 -157.5 -204t-298.5 -89q-227 0 -376 153t-149 382q0 227 148.5 377.5t376.5 150.5q174 0 297.5 -91t158.5 -204l-94 -28q-31 92 -131 160.5t-231 68.5 q-186 0 -305 -128t-119 -310q0 -180 119 -308t305 -128z" glyph-name="ccaron" horiz-adv-x="1179" unicode="č"/><glyph d="M631 1597l-221 256h118l162 -192l164 192h119l-223 -256h-119zM670 1434q334 0 523 -202t189 -515q0 -317 -189 -517t-523 -200h-506v1434h506zM670 96q291 0 450.5 174t159.5 449q0 266 -161 442t-449 176h-402v-1241h402z" glyph-name="Dcaron" horiz-adv-x="1474" unicode="Ď"/><glyph d="M1053 1495h100v-1495h-100v215q-63 -113 -177 -176.5t-262 -63.5q-223 0 -370.5 153t-147.5 380t147.5 378.5t370.5 151.5q147 0 260 -63.5t179 -173.5v694zM1333 1495h111l-55 -352h-80zM625 68q178 0 304 127t126 311t-126 311t-304 127q-188 0 -308 -125t-120 -313.5 t121 -313t307 -124.5z" glyph-name="dcaron" horiz-adv-x="1433" unicode="ď"/><glyph d="M733 1434q334 0 523.5 -202t189.5 -515q0 -317 -189.5 -517t-523.5 -200h-506v672h-145v94h145v668h506zM733 96q291 0 450.5 174t159.5 449q0 266 -160.5 442t-449.5 176h-401v-571h493v-94h-493v-576h401z" glyph-name="Dcroat" horiz-adv-x="1538" unicode="Đ"/><glyph d="M1309 1317v-86h-156v-1231h-100v215q-63 -113 -177 -176.5t-262 -63.5q-223 0 -370.5 153t-147.5 380t147.5 378.5t370.5 151.5q147 0 260 -63.5t179 -173.5v430h-420v86h420v178h100v-178h156zM625 68q178 0 304 127t126 311t-126 311t-304 127q-188 0 -308 -125 t-120 -313.5t121 -313t307 -124.5z" glyph-name="dcroat" horiz-adv-x="1339" unicode="đ"/><glyph d="M905 1724v-90h-512v90h512zM1149 1337h-881v-563h776v-90h-776v-588h879v-96h-983v1434h985v-97z" glyph-name="Emacron" horiz-adv-x="1271" unicode="Ē"/><glyph d="M354 1214v91h512v-91h-512zM623 -25q-231 0 -379 145.5t-148 387.5q0 227 142.5 378.5t367.5 151.5q233 0 366.5 -143t133.5 -360q0 -37 -2 -62h-905q8 -182 123.5 -292.5t300.5 -110.5q137 0 236 65.5t142 161.5l97 -29q-61 -127 -179 -210t-296 -83zM199 563l807 2 q-12 172 -117 275.5t-283 103.5q-170 0 -283.5 -110.5t-123.5 -270.5z" glyph-name="emacron" horiz-adv-x="1202" unicode="ē"/><glyph d="M649 1602q-39 0 -63.5 24.5t-24.5 61t24.5 61.5t63.5 25t63.5 -25t24.5 -61.5t-24.5 -61t-63.5 -24.5zM1149 1337h-881v-563h776v-90h-776v-588h879v-96h-983v1434h985v-97z" glyph-name="Edotaccent" horiz-adv-x="1271" unicode="Ė"/><glyph d="M610 1182q-39 0 -63.5 24.5t-24.5 61.5t24.5 61.5t63.5 24.5t63.5 -24.5t24.5 -61.5t-24.5 -61.5t-63.5 -24.5zM623 -25q-231 0 -379 145.5t-148 387.5q0 227 142.5 378.5t367.5 151.5q233 0 366.5 -143t133.5 -360q0 -37 -2 -62h-905q8 -182 123.5 -292.5t300.5 -110.5 q137 0 236 65.5t142 161.5l97 -29q-61 -127 -179 -210t-296 -83zM199 563l807 2q-12 172 -117 275.5t-283 103.5q-170 0 -283.5 -110.5t-123.5 -270.5z" glyph-name="edotaccent" horiz-adv-x="1202" unicode="ė"/><glyph d="M1198 -297l27 -90q-57 -68 -156 -68q-90 0 -142.5 47.5t-52.5 135.5q0 61 49.5 136t123.5 136h-883v1434h985v-97h-881v-563h776v-90h-776v-588h879v-96q-172 -152 -172 -266q0 -45 25.5 -72t70.5 -27q72 0 127 68z" glyph-name="Eogonek" horiz-adv-x="1271" unicode="Ę"/><glyph d="M1106 535q0 -37 -2 -62h-905q8 -182 123.5 -292.5t300.5 -110.5q137 0 236 65.5t142 161.5l97 -29q-72 -145 -199 -223q-213 -172 -213 -311q0 -45 25.5 -72t70.5 -27q72 0 127 68l27 -90q-57 -68 -156 -68q-90 0 -142 47.5t-52 135.5q0 119 149 258q-57 -10 -112 -11 q-231 0 -379 145.5t-148 387.5q0 227 142.5 378.5t367.5 151.5q233 0 366.5 -143t133.5 -360zM199 563l807 2q-12 172 -117 275.5t-283 103.5q-170 0 -283.5 -110.5t-123.5 -270.5z" glyph-name="eogonek" horiz-adv-x="1202" unicode="ę"/><glyph d="M590 1597l-221 256h118l162 -192l164 192h119l-223 -256h-119zM1149 1337h-881v-563h776v-90h-776v-588h879v-96h-983v1434h985v-97z" glyph-name="Ecaron" horiz-adv-x="1271" unicode="Ě"/><glyph d="M551 1178l-221 256h119l161 -193l164 193h119l-223 -256h-119zM1106 535q0 -37 -2 -62h-905q8 -182 123.5 -292.5t300.5 -110.5q137 0 236 65.5t142 161.5l97 -29q-61 -127 -179 -210t-296 -83q-231 0 -379 145.5t-148 387.5q0 227 142.5 378.5t367.5 151.5 q233 0 366.5 -143t133.5 -360zM199 563l807 2q-12 172 -117 275.5t-283 103.5q-170 0 -283.5 -110.5t-123.5 -270.5z" glyph-name="ecaron" horiz-adv-x="1202" unicode="ě"/><glyph d="M813 1575q-137 0 -211 73.5t-74 188.5h95q2 -80 49 -129t141 -49q96 0 143.5 49t47.5 129h94q0 -115 -74 -188.5t-211 -73.5zM1544 741v-61q-2 -334 -203.5 -519.5t-506.5 -185.5q-315 0 -528.5 214t-213.5 532q0 313 211 525t526 212q233 0 410.5 -113.5t251.5 -302.5 l-100 -24q-63 154 -212 249t-350 95q-281 0 -457.5 -186.5t-176.5 -452.5q0 -274 178 -462.5t461 -188.5q262 0 431 154.5t181 422.5h-625v92h723z" glyph-name="Gbreve" horiz-adv-x="1636" unicode="Ğ"/><glyph d="M631 1155q-137 0 -211 74t-74 188h94q2 -80 49.5 -129t141.5 -49q96 0 143 49t47 129h94q0 -115 -73.5 -188.5t-210.5 -73.5zM1053 1014h100v-981q0 -211 -138 -349.5t-356 -138.5q-328 0 -477 267l92 34q121 -207 385 -206q178 0 284 111.5t110 281.5v200 q-63 -104 -177 -162.5t-262 -58.5q-223 0 -370.5 146.5t-147.5 367.5q0 219 147.5 365.5t370.5 146.5q147 0 260 -58t179 -161v195zM625 104q178 0 304 122t126 298t-126 298t-304 122q-188 0 -308 -119.5t-120 -300t121 -300.5t307 -120z" glyph-name="gbreve" unicode="ğ"/><glyph d="M813 1602q-39 0 -63.5 24.5t-24.5 61t24.5 61.5t63.5 25t63.5 -25t24.5 -61.5t-24.5 -61t-63.5 -24.5zM1544 741v-61q-2 -334 -203.5 -519.5t-506.5 -185.5q-315 0 -528.5 214t-213.5 532q0 313 211 525t526 212q233 0 410.5 -113.5t251.5 -302.5l-100 -24 q-63 154 -212 249t-350 95q-281 0 -457.5 -186.5t-176.5 -452.5q0 -274 178 -462.5t461 -188.5q262 0 431 154.5t181 422.5h-625v92h723z" glyph-name="Gdotaccent" horiz-adv-x="1636" unicode="Ġ"/><glyph d="M631 1182q-39 0 -63.5 24.5t-24.5 61.5t24.5 61.5t63.5 24.5t63.5 -24.5t24.5 -61.5t-24.5 -61.5t-63.5 -24.5zM1053 1014h100v-981q0 -211 -138 -349.5t-356 -138.5q-328 0 -477 267l92 34q121 -207 385 -206q178 0 284 111.5t110 281.5v200q-63 -104 -177 -162.5 t-262 -58.5q-223 0 -370.5 146.5t-147.5 367.5q0 219 147.5 365.5t370.5 146.5q147 0 260 -58t179 -161v195zM625 104q178 0 304 122t126 298t-126 298t-304 122q-188 0 -308 -119.5t-120 -300t121 -300.5t307 -120z" glyph-name="gdotaccent" unicode="ġ"/><glyph d="M1544 741v-61q-2 -334 -203.5 -519.5t-506.5 -185.5q-315 0 -528.5 214t-213.5 532q0 313 211 525t526 212q233 0 410.5 -113.5t251.5 -302.5l-100 -24q-63 154 -212 249t-350 95q-281 0 -457.5 -186.5t-176.5 -452.5q0 -274 178 -462.5t461 -188.5q262 0 431 154.5 t181 422.5h-625v92h723zM743 -498l27 344h107l-54 -344h-80z" glyph-name="Gcommaaccent" horiz-adv-x="1636" unicode="Ģ"/><glyph d="M705 1526l-27 -344h-107l54 344h80zM1053 1014h100v-981q0 -211 -138 -349.5t-356 -138.5q-328 0 -477 267l92 34q121 -207 385 -206q178 0 284 111.5t110 281.5v200q-63 -104 -177 -162.5t-262 -58.5q-223 0 -370.5 146.5t-147.5 367.5q0 219 147.5 365.5t370.5 146.5 q147 0 260 -58t179 -161v195zM625 104q178 0 304 122t126 298t-126 298t-304 122q-188 0 -308 -119.5t-120 -300t121 -300.5t307 -120z" glyph-name="gcommaaccent" unicode="ģ"/><glyph d="M1475 1157v-90h-150v-1067h-104v684h-926v-684h-105v1067h-149v90h149v277h105v-277h926v277h104v-277h150zM1221 778v289h-926v-289h926z" glyph-name="Hbar" horiz-adv-x="1515" unicode="Ħ"/><glyph d="M682 1038q188 0 300 -116.5t112 -323.5v-598h-101v588q0 168 -84 261t-237 93q-174 0 -282.5 -118.5t-108.5 -309.5v-514h-101v1231h-149v86h149v178h101v-178h426v-86h-426v-426q55 106 157.5 169.5t243.5 63.5z" glyph-name="hbar" horiz-adv-x="1247" unicode="ħ"/><glyph d="M-39 1634v90h512v-90h-512zM164 0v1434h104v-1434h-104z" glyph-name="Imacron" horiz-adv-x="432" unicode="Ī"/><glyph d="M-43 1214v91h512v-91h-512zM164 0v1014h102v-1014h-102z" glyph-name="imacron" horiz-adv-x="430" unicode="ī"/><glyph d="M354 -297l27 -90q-57 -68 -160 -68q-88 0 -139 47.5t-51 131.5q0 127 133 276v1434h104v-1434q-137 -152 -137 -262q0 -102 92 -103q74 0 131 68z" glyph-name="Iogonek" horiz-adv-x="432" unicode="Į"/><glyph d="M213 1182q-39 0 -63.5 24.5t-24.5 61.5t24.5 61.5t63.5 24.5t63.5 -24.5t24.5 -61.5t-24.5 -61.5t-63.5 -24.5zM354 -297l27 -90q-57 -68 -160 -68q-88 0 -139 47.5t-51 131.5q0 127 133 276v1014h102v-1014q-135 -152 -135 -262q0 -102 92 -103q74 0 131 68z" glyph-name="iogonek" horiz-adv-x="430" unicode="į"/><glyph d="M217 1602q-39 0 -63.5 24.5t-24.5 61t24.5 61.5t63.5 25t63.5 -25t24.5 -61.5t-24.5 -61t-63.5 -24.5zM164 0v1434h104v-1434h-104z" glyph-name="Idotaccent" horiz-adv-x="432" unicode="İ"/><glyph d="M164 0v1014h102v-1014h-102z" glyph-name="dotlessi" horiz-adv-x="430" unicode="ı"/><glyph d="M647 784l666 -784h-131l-602 713l-312 -334v-379h-104v1434h104v-914l850 914h137zM612 -498l27 344h106l-53 -344h-80z" glyph-name="Kcommaaccent" horiz-adv-x="1363" unicode="Ķ"/><glyph d="M506 573l498 -573h-125l-441 504l-174 -174v-330h-100v1495h100v-1028l547 547h133zM496 -498l26 344h107l-54 -344h-79z" glyph-name="kcommaaccent" horiz-adv-x="1044" unicode="ķ"/><glyph d="M469 1872l-186 -275h-103l166 275h123zM268 96h836v-96h-940v1434h104v-1338z" glyph-name="Lacute" horiz-adv-x="1165" unicode="Ĺ"/><glyph d="M150 1659l165 274h123l-186 -274h-102zM164 0v1495h100v-1495h-100z" glyph-name="lacute" horiz-adv-x="428" unicode="ĺ"/><glyph d="M268 96h836v-96h-940v1434h104v-1338zM559 -498l27 344h106l-53 -344h-80z" glyph-name="Lcommaaccent" horiz-adv-x="1165" unicode="Ļ"/><glyph d="M164 0v1495h100v-1495h-100zM135 -498l27 344h106l-53 -344h-80z" glyph-name="lcommaaccent" horiz-adv-x="428" unicode="ļ"/><glyph d="M268 96h836v-96h-940v1434h104v-1338zM1083 1434l-55 -353h-80l25 353h110z" glyph-name="Lcaron" horiz-adv-x="1185" unicode="Ľ"/><glyph d="M164 0v1495h100v-1495h-100zM416 1143l24 352h111l-55 -352h-80z" glyph-name="lcaron" horiz-adv-x="571" unicode="ľ"/><glyph d="M356 96h836v-96h-940v596l-180 -78v96l180 78v742h104v-697l445 193v-96l-445 -193v-545z" glyph-name="Lslash" horiz-adv-x="1253" unicode="Ł"/><glyph d="M504 1016v-94l-191 -88v-834h-100v786l-193 -90v95l193 90v614h100v-567z" glyph-name="lslash" horiz-adv-x="524" unicode="ł"/><glyph d="M961 1872l-187 -275h-102l166 275h123zM1204 1434h105v-1434h-97l-944 1257v-1257h-104v1434h96l944 -1258v1258z" glyph-name="Nacute" horiz-adv-x="1472" unicode="Ń"/><glyph d="M848 1452l-186 -274h-103l166 274h123zM666 1038q188 0 299.5 -116.5t111.5 -323.5v-598h-100v588q0 168 -84 261t-238 93q-174 0 -282.5 -118.5t-108.5 -309.5v-514h-100v1014h100v-209q55 106 158 169.5t244 63.5z" glyph-name="nacute" horiz-adv-x="1230" unicode="ń"/><glyph d="M1204 1434h105v-1434h-97l-944 1257v-1257h-104v1434h96l944 -1258v1258zM664 -498l26 344h107l-54 -344h-79z" glyph-name="Ncommaaccent" horiz-adv-x="1472" unicode="Ņ"/><glyph d="M666 1038q188 0 299.5 -116.5t111.5 -323.5v-598h-100v588q0 168 -84 261t-238 93q-174 0 -282.5 -118.5t-108.5 -309.5v-514h-100v1014h100v-209q55 106 158 169.5t244 63.5zM553 -498l27 344h106l-53 -344h-80z" glyph-name="ncommaaccent" horiz-adv-x="1230" unicode="ņ"/><glyph d="M678 1597l-221 256h118l162 -192l164 192h119l-223 -256h-119zM1204 1434h105v-1434h-97l-944 1257v-1257h-104v1434h96l944 -1258v1258z" glyph-name="Ncaron" horiz-adv-x="1472" unicode="Ň"/><glyph d="M565 1178l-221 256h119l162 -193l163 193h119l-223 -256h-119zM666 1038q188 0 299.5 -116.5t111.5 -323.5v-598h-100v588q0 168 -84 261t-238 93q-174 0 -282.5 -118.5t-108.5 -309.5v-514h-100v1014h100v-209q55 106 158 169.5t244 63.5z" glyph-name="ncaron" horiz-adv-x="1230" unicode="ň"/><glyph d="M1204 1434h105v-1538q0 -154 -70 -240t-209 -86q-76 0 -153 39l26 92q59 -39 129 -39q172 0 172 234v114l-936 1247v-1257h-104v1434h96l944 -1258v1258z" glyph-name="Eng" horiz-adv-x="1472" unicode="Ŋ"/><glyph d="M666 1038q188 0 299.5 -116.5t111.5 -323.5v-727q0 -154 -69.5 -240t-208.5 -86q-80 0 -154 39l27 92q57 -39 129 -38q88 0 132 61t44 172v717q0 168 -84 261t-238 93q-174 0 -282.5 -118.5t-108.5 -309.5v-514h-100v1014h100v-209q55 106 158 169.5t244 63.5z" glyph-name="eng" horiz-adv-x="1230" unicode="ŋ"/><glyph d="M569 1634v90h512v-90h-512zM825 -25q-313 0 -523 214t-210 532q0 313 210 525t523 212q311 0 521 -212t210 -525q0 -317 -210 -531.5t-521 -214.5zM825 72q276 0 452.5 189.5t176.5 461.5q0 264 -176 451.5t-452.5 187.5t-453.5 -187.5t-177 -451.5q0 -274 175.5 -462.5 t454.5 -188.5z" glyph-name="Omacron" horiz-adv-x="1648" unicode="Ō"/><glyph d="M375 1214v91h512v-91h-512zM631 -25q-229 0 -382 153t-153 380t152.5 378.5t382.5 151.5q227 0 378.5 -151.5t151.5 -378.5t-151.5 -380t-378.5 -153zM631 70q182 0 306 124.5t124 311t-124 312.5t-306 126q-184 0 -309 -126t-125 -312.5t125 -311t309 -124.5z" glyph-name="omacron" horiz-adv-x="1257" unicode="ō"/><glyph d="M602 1597l154 275h114l-165 -275h-103zM889 1597l174 275h115l-187 -275h-102zM825 -25q-313 0 -523 214t-210 532q0 313 210 525t523 212q311 0 521 -212t210 -525q0 -317 -210 -531.5t-521 -214.5zM825 72q276 0 452.5 189.5t176.5 461.5q0 264 -176 451.5 t-452.5 187.5t-453.5 -187.5t-177 -451.5q0 -274 175.5 -462.5t454.5 -188.5z" glyph-name="Ohungarumlaut" horiz-adv-x="1648" unicode="Ő"/><glyph d="M408 1178l153 274h115l-166 -274h-102zM694 1178l174 274h115l-186 -274h-103zM631 -25q-229 0 -382 153t-153 380t152.5 378.5t382.5 151.5q227 0 378.5 -151.5t151.5 -378.5t-151.5 -380t-378.5 -153zM631 70q182 0 306 124.5t124 311t-124 312.5t-306 126 q-184 0 -309 -126t-125 -312.5t125 -311t309 -124.5z" glyph-name="ohungarumlaut" horiz-adv-x="1257" unicode="ő"/><glyph d="M1925 1337h-778v-563h674v-90h-674v-588h776v-96h-1118q-334 0 -523.5 199.5t-189.5 517.5q0 313 189.5 515t523.5 202h1120v-97zM805 96h237v1241h-237q-289 0 -449.5 -176t-160.5 -442q0 -274 159.5 -448.5t450.5 -174.5z" glyph-name="OE" horiz-adv-x="2048" unicode="Œ"/><glyph d="M2071 526q0 -35 -3 -59h-907q14 -180 130 -288.5t288 -108.5q129 0 222 56t136 138l97 -28q-57 -115 -171 -188t-284 -73t-293 84t-178 228q-59 -141 -187 -225.5t-290 -84.5q-229 0 -382 153t-153 380t152.5 378.5t382.5 151.5q164 0 291 -84t188 -225q57 141 178 224 t283 83q231 0 365.5 -145.5t134.5 -366.5zM631 72q182 0 306 125t124 311t-124 312t-306 126q-184 0 -309 -126t-125 -312t125 -311t309 -125zM1161 555l811 2q-12 176 -117.5 281.5t-283.5 105.5q-172 0 -286 -113.5t-124 -275.5z" glyph-name="oe" horiz-adv-x="2166" unicode="œ"/><glyph d="M887 1872l-187 -275h-102l166 275h123zM1143 0l-398 594h-477v-594h-104v1434h645q203 0 319.5 -129t116.5 -293q0 -156 -102.5 -277t-280.5 -139l402 -596h-121zM268 1337v-649h541q154 0 245 95.5t91 228.5t-92 229t-246 96h-539z" glyph-name="Racute" horiz-adv-x="1366" unicode="Ŕ"/><glyph d="M623 1452l-187 -274h-102l166 274h123zM264 825q47 109 144.5 164t234.5 37v-94q-174 20 -276.5 -87.5t-102.5 -352.5v-492h-100v1014h100v-189z" glyph-name="racute" horiz-adv-x="694" unicode="ŕ"/><glyph d="M862 596l402 -596h-121l-398 594h-477v-594h-104v1434h645q203 0 319.5 -129t116.5 -293q0 -156 -102.5 -277t-280.5 -139zM268 1337v-649h541q154 0 245 95.5t91 228.5t-92 229t-246 96h-539zM623 -498l26 344h107l-54 -344h-79z" glyph-name="Rcommaaccent" horiz-adv-x="1366" unicode="Ŗ"/><glyph d="M264 825q47 109 144.5 164t234.5 37v-94q-174 20 -276.5 -87.5t-102.5 -352.5v-492h-100v1014h100v-189zM135 -498l27 344h106l-53 -344h-80z" glyph-name="rcommaaccent" horiz-adv-x="694" unicode="ŗ"/><glyph d="M604 1597l-221 256h119l162 -192l163 192h119l-223 -256h-119zM1143 0l-398 594h-477v-594h-104v1434h645q203 0 319.5 -129t116.5 -293q0 -156 -102.5 -277t-280.5 -139l402 -596h-121zM268 1337v-649h541q154 0 245 95.5t91 228.5t-92 229t-246 96h-539z" glyph-name="Rcaron" horiz-adv-x="1366" unicode="Ř"/><glyph d="M340 1178l-221 256h119l161 -193l164 193h119l-223 -256h-119zM264 825q47 109 144.5 164t234.5 37v-94q-174 20 -276.5 -87.5t-102.5 -352.5v-492h-100v1014h100v-189z" glyph-name="rcaron" horiz-adv-x="694" unicode="ř"/><glyph d="M586 1597l166 275h122l-186 -275h-102zM696 -25q-225 0 -393 124t-225 304l100 29q51 -156 191.5 -258t330.5 -102q186 0 306 94t120 217q0 98 -66.5 161.5t-232.5 117.5l-354 114q-154 49 -233.5 125t-79.5 197q0 145 132 252.5t329 107.5q211 0 355 -93t214 -245 l-98 -30q-59 127 -181.5 199.5t-294.5 72.5q-154 0 -254 -79t-100 -185q0 -84 60.5 -137.5t205.5 -100.5l344 -110q184 -57 270.5 -138.5t86.5 -224.5q0 -170 -151 -291t-382 -121z" glyph-name="Sacute" horiz-adv-x="1347" unicode="Ś"/><glyph d="M414 1178l166 274h122l-186 -274h-102zM522 -25q-162 0 -286.5 86t-163.5 218l98 26q29 -100 127 -167.5t225 -67.5q131 0 215 58t84 142q0 68 -38 105t-130 63l-303 90q-104 31 -166.5 84.5t-62.5 151.5q0 111 102.5 192.5t251.5 81.5q156 0 264.5 -71.5t155.5 -180.5 l-96 -28q-29 78 -117 132t-209 54q-115 0 -183.5 -56.5t-68.5 -125.5q0 -55 41 -87t123 -57l307 -92q229 -68 230 -252q0 -129 -114 -214t-286 -85z" glyph-name="sacute" horiz-adv-x="1034" unicode="ś"/><glyph d="M1229 387q0 -164 -141.5 -283.5t-362.5 -128.5l-29 -98q88 -2 140.5 -48t52.5 -114q0 -80 -61.5 -124t-149.5 -44q-115 0 -203 64l23 80q68 -51 140.5 -59.5t116.5 17t44 68.5q0 55 -72 77t-152 5l58 178q-203 18 -352.5 139.5t-202.5 286.5l100 29q51 -156 191.5 -258 t330.5 -102q186 0 306 94t120 217q0 98 -66.5 161.5t-232.5 117.5l-354 114q-154 49 -233.5 125t-79.5 197q0 145 132 252.5t329 107.5q211 0 355 -93t214 -245l-98 -30q-59 127 -181.5 199.5t-294.5 72.5q-154 0 -254 -79t-100 -185q0 -84 60.5 -137.5t205.5 -100.5 l344 -110q184 -57 270.5 -138.5t86.5 -224.5z" glyph-name="Scedilla" horiz-adv-x="1347" unicode="Ş"/><glyph d="M522 -25h-2l-28 -98q88 -2 140 -48t52 -114q0 -80 -61.5 -124t-149.5 -44q-115 0 -203 64l23 80q68 -51 140.5 -59.5t116.5 17t44 68.5q0 55 -71.5 77t-151.5 5l57 185q-131 23 -227.5 103.5t-128.5 191.5l98 26q29 -100 127 -167.5t225 -67.5q131 0 215 58t84 142 q0 68 -38 105t-130 63l-303 90q-104 31 -166.5 84.5t-62.5 151.5q0 111 102.5 192.5t251.5 81.5q156 0 264.5 -71.5t155.5 -180.5l-96 -28q-29 78 -117 132t-209 54q-115 0 -183.5 -56.5t-68.5 -125.5q0 -55 41 -87t123 -57l307 -92q229 -68 230 -252q0 -129 -114 -214 t-286 -85z" glyph-name="scedilla" horiz-adv-x="1034" unicode="ş"/><glyph d="M592 1597l-221 256h118l162 -192l164 192h119l-223 -256h-119zM872 750q184 -57 270.5 -138.5t86.5 -224.5q0 -170 -150.5 -291t-382.5 -121q-225 0 -393 124t-225 304l100 29q51 -156 191.5 -258t330.5 -102q186 0 306 94t120 217q0 98 -66.5 161.5t-232.5 117.5 l-354 114q-154 49 -233.5 125t-79.5 197q0 145 132 252.5t329 107.5q211 0 355 -93t214 -245l-98 -30q-59 127 -181.5 199.5t-294.5 72.5q-154 0 -254 -79t-100 -185q0 -84 60.5 -137.5t205.5 -100.5z" glyph-name="Scaron" horiz-adv-x="1347" unicode="Š"/><glyph d="M420 1178l-221 256h118l162 -193l164 193h119l-223 -256h-119zM692 526q229 -68 230 -252q0 -129 -114 -214t-286 -85q-162 0 -286.5 86t-163.5 218l98 26q29 -100 127 -167.5t225 -67.5q131 0 215 58t84 142q0 68 -38 105t-130 63l-303 90q-104 31 -166.5 84.5 t-62.5 151.5q0 111 102.5 192.5t251.5 81.5q156 0 264.5 -71.5t155.5 -180.5l-96 -28q-29 78 -117 132t-209 54q-115 0 -183.5 -56.5t-68.5 -125.5q0 -55 41 -87t123 -57z" glyph-name="scaron" horiz-adv-x="1034" unicode="š"/><glyph d="M690 1337v-1337l-37 -123q88 -2 140.5 -48t52.5 -114q0 -80 -61.5 -124t-149.5 -44q-115 0 -203 64l23 80q68 -51 140.5 -59.5t116.5 17t44 68.5q0 55 -72 77t-152 5l64 201h-10v1337h-555v97h1212v-97h-553z" glyph-name="Tcommaaccent" horiz-adv-x="1273" unicode="Ţ"/><glyph d="M741 920h-374v-631q0 -205 186 -205q78 0 158 39l30 -94q-90 -37 -174 -43l-32 -109q88 -2 140 -48t52 -114q0 -80 -61.5 -124t-149.5 -44q-115 0 -203 64l23 80q68 -51 140.5 -59.5t116.5 17t44 68.5q0 55 -71.5 77t-151.5 5l61 193q-104 20 -156.5 98t-52.5 199v631 h-215v94h215v360h101v-360h374v-94z" glyph-name="tcommaaccent" horiz-adv-x="833" unicode="ţ"/><glyph d="M578 1597l-222 256h119l162 -192l164 192h119l-224 -256h-118zM1243 1434v-97h-553v-1337h-104v1337h-555v97h1212z" glyph-name="Tcaron" horiz-adv-x="1273" unicode="Ť"/><glyph d="M633 1460l-49 -317h-80l22 317h107zM741 920h-374v-631q0 -205 186 -205q78 0 158 39l30 -94q-102 -43 -198 -43q-137 0 -207 80.5t-70 222.5v631h-215v94h215v360h101v-360h374v-94z" glyph-name="tcaron" horiz-adv-x="833" unicode="ť"/><glyph d="M1243 1337h-553v-575h361v-90h-361v-672h-104v672h-396v90h396v575h-555v97h1212v-97z" glyph-name="Tbar" horiz-adv-x="1273" unicode="Ŧ"/><glyph d="M741 920h-374v-256h327v-86h-327v-289q0 -205 186 -205q78 0 158 39l30 -94q-102 -43 -198 -43q-137 0 -207 80.5t-70 222.5v289h-198v86h198v256h-215v94h215v360h101v-360h374v-94z" glyph-name="tbar" horiz-adv-x="833" unicode="ŧ"/><glyph d="M973 1724v-90h-512v90h512zM1186 1434h104v-873q0 -268 -152.5 -427t-420.5 -159t-421 159t-153 427v873h105v-871q0 -223 122 -357t347 -134t347 134t122 357v871z" glyph-name="Umacron" horiz-adv-x="1433" unicode="Ū"/><glyph d="M872 1305v-91h-512v91h512zM967 1014h100v-1014h-100v209q-55 -106 -157.5 -170t-244.5 -64q-188 0 -299.5 117t-111.5 324v598h100v-588q0 -168 84 -261t237 -93q174 0 283 118.5t109 309.5v514z" glyph-name="umacron" horiz-adv-x="1230" unicode="ū"/><glyph d="M717 1556q-92 0 -153.5 59.5t-61.5 149.5t61.5 149.5t153.5 59.5t153.5 -59.5t61.5 -149.5t-61.5 -149.5t-153.5 -59.5zM716.5 1890q-59.5 0 -93 -34.5t-33.5 -90t33.5 -90.5t93 -35t93.5 35t34 90.5t-34 90t-93.5 34.5zM1186 1434h104v-873q0 -268 -152.5 -427 t-420.5 -159t-421 159t-153 427v873h105v-871q0 -223 122 -357t347 -134t347 134t122 357v871z" glyph-name="Uring" horiz-adv-x="1433" unicode="Ů"/><glyph d="M616.5 1137q-92.5 0 -154 59t-61.5 149.5t61.5 149.5t154 59t153.5 -59t61 -149.5t-61 -149.5t-153.5 -59zM616.5 1470q-59.5 0 -93.5 -34.5t-34 -90t34 -90t93.5 -34.5t93 34.5t33.5 90t-33.5 90t-93 34.5zM967 1014h100v-1014h-100v209q-55 -106 -157.5 -170 t-244.5 -64q-188 0 -299.5 117t-111.5 324v598h100v-588q0 -168 84 -261t237 -93q174 0 283 118.5t109 309.5v514z" glyph-name="uring" horiz-adv-x="1230" unicode="ů"/><glyph d="M762 1872l-166 -275h-102l153 275h115zM1069 1872l-186 -275h-103l174 275h115zM1186 1434h104v-873q0 -268 -152.5 -427t-420.5 -159t-421 159t-153 427v873h105v-871q0 -223 122 -357t347 -134t347 134t122 357v871z" glyph-name="Uhungarumlaut" horiz-adv-x="1433" unicode="Ű"/><glyph d="M662 1452l-166 -274h-103l154 274h115zM969 1452l-187 -274h-102l174 274h115zM967 1014h100v-1014h-100v209q-55 -106 -157.5 -170t-244.5 -64q-188 0 -299.5 117t-111.5 324v598h100v-588q0 -168 84 -261t237 -93q174 0 283 118.5t109 309.5v514z" glyph-name="uhungarumlaut" horiz-adv-x="1230" unicode="ű"/><glyph d="M1186 1434h104v-873q0 -350 -243 -502q-115 -84 -181.5 -170t-66.5 -155q0 -45 25.5 -72t70.5 -27q72 0 127 68l27 -90q-57 -68 -156 -68q-90 0 -142.5 47.5t-52.5 135.5q0 125 152 258q-72 -10 -133 -11q-268 0 -421 159t-153 427v873h105v-871q0 -223 122 -357 t347 -134t347 134t122 357v871z" glyph-name="Uogonek" horiz-adv-x="1433" unicode="Ų"/><glyph d="M1118 -297l27 -90q-57 -68 -156 -68q-90 0 -142 47.5t-52 135.5q0 61 49 136t123 136v209q-55 -106 -157.5 -170t-244.5 -64q-188 0 -299.5 117t-111.5 324v598h100v-588q0 -168 84 -261t237 -93q174 0 283 118.5t109 309.5v514h100v-1014q-172 -152 -172 -266 q0 -45 25.5 -72t70.5 -27q72 0 127 68z" glyph-name="uogonek" horiz-adv-x="1230" unicode="ų"/><glyph d="M1001 1790l-161 -193h-119l221 256h119l223 -256h-119zM1855 1434h107l-459 -1434h-106l-396 1264l-397 -1264h-106l-457 1434h106l406 -1278l399 1278h97l399 -1278z" glyph-name="Wcircumflex" horiz-adv-x="2002" unicode="Ŵ"/><glyph d="M764 1370l-162 -192h-119l222 256h118l224 -256h-119zM1393 1014h106l-348 -1014h-104l-281 850l-283 -850h-104l-348 1014h106l295 -881l287 881h92l287 -881z" glyph-name="wcircumflex" horiz-adv-x="1529" unicode="ŵ"/><glyph d="M655 1790l-161 -193h-119l221 256h119l223 -256h-119zM1159 1434h119l-571 -875v-559h-105v559l-571 875h119l505 -775z" glyph-name="Ycircumflex" horiz-adv-x="1308" unicode="Ŷ"/><glyph d="M551 1370l-162 -192h-119l222 256h118l224 -256h-119zM940 1014h109l-633 -1444h-109l197 448l-473 996h110l416 -881z" glyph-name="ycircumflex" horiz-adv-x="1079" unicode="ŷ"/><glyph d="M471 1608q-33 0 -54.5 20.5t-21.5 53t21.5 53t54.5 20.5t54.5 -20.5t21.5 -53t-21.5 -53t-54.5 -20.5zM839.5 1608q-32.5 0 -54 20.5t-21.5 53t21.5 53t54 20.5t54 -20.5t21.5 -53t-21.5 -53t-54 -20.5zM1159 1434h119l-571 -875v-559h-105v559l-571 875h119l505 -775z " glyph-name="Ydieresis" horiz-adv-x="1308" unicode="Ÿ"/><glyph d="M874 1872l-186 -275h-102l166 275h122zM238 96h952v-96h-1098v70l934 1267h-907v97h1048v-70z" glyph-name="Zacute" horiz-adv-x="1271" unicode="Ź"/><glyph d="M748 1452l-187 -274h-102l166 274h123zM242 94h704v-94h-850v70l692 850h-679v94h819v-76z" glyph-name="zacute" horiz-adv-x="1042" unicode="ź"/><glyph d="M651 1602q-39 0 -63.5 24.5t-24.5 61t24.5 61.5t63.5 25t63.5 -25t24.5 -61.5t-24.5 -61t-63.5 -24.5zM238 96h952v-96h-1098v70l934 1267h-907v97h1048v-70z" glyph-name="Zdotaccent" horiz-adv-x="1271" unicode="Ż"/><glyph d="M524 1182q-39 0 -63.5 24.5t-24.5 61.5t24.5 61.5t63.5 24.5t63.5 -24.5t24.5 -61.5t-24.5 -61.5t-63.5 -24.5zM242 94h704v-94h-850v70l692 850h-679v94h819v-76z" glyph-name="zdotaccent" horiz-adv-x="1042" unicode="ż"/><glyph d="M592 1597l-221 256h118l162 -192l164 192h119l-223 -256h-119zM238 96h952v-96h-1098v70l934 1267h-907v97h1048v-70z" glyph-name="Zcaron" horiz-adv-x="1271" unicode="Ž"/><glyph d="M465 1178l-221 256h118l162 -193l164 193h119l-223 -256h-119zM242 94h704v-94h-850v70l692 850h-679v94h819v-76z" glyph-name="zcaron" horiz-adv-x="1042" unicode="ž"/><glyph d="M752 1423q-156 0 -191 -268l-41 -309h307v-86h-319l-94 -711q-47 -369 -285 -368q-111 0 -180 69l41 88q57 -61 143 -61q147 0 182 272l95 711h-275v86h287l41 309q25 182 94.5 273.5t198.5 91.5q121 0 200 -70l-41 -88q-61 61 -163 61z" glyph-name="florin" horiz-adv-x="997" unicode="ƒ"/><glyph d="M696 -25q-225 0 -393 124t-225 304l100 29q51 -156 191.5 -258t330.5 -102q186 0 306 94t120 217q0 98 -66.5 161.5t-232.5 117.5l-354 114q-154 49 -233.5 125t-79.5 197q0 145 132 252.5t329 107.5q211 0 355 -93t214 -245l-98 -30q-59 127 -181.5 199.5t-294.5 72.5 q-154 0 -254 -79t-100 -185q0 -84 60.5 -137.5t205.5 -100.5l344 -110q184 -57 270.5 -138.5t86.5 -224.5q0 -170 -151 -291t-382 -121zM608 -498l27 344h106l-53 -344h-80z" glyph-name="Scommaaccent" horiz-adv-x="1347" unicode="Ș"/><glyph d="M522 -25q-162 0 -286.5 86t-163.5 218l98 26q29 -100 127 -167.5t225 -67.5q131 0 215 58t84 142q0 68 -38 105t-130 63l-303 90q-104 31 -166.5 84.5t-62.5 151.5q0 111 102.5 192.5t251.5 81.5q156 0 264.5 -71.5t155.5 -180.5l-96 -28q-29 78 -117 132t-209 54 q-115 0 -183.5 -56.5t-68.5 -125.5q0 -55 41 -87t123 -57l307 -92q229 -68 230 -252q0 -129 -114 -214t-286 -85zM403 -498l27 344h107l-54 -344h-80z" glyph-name="scommaaccent" horiz-adv-x="1034" unicode="ș"/><glyph d="M1243 1434v-97h-553v-1337h-104v1337h-555v97h1212zM567 -498l27 344h106l-53 -344h-80z" glyph-name="uni021A" horiz-adv-x="1273" unicode="Ț"/><glyph d="M741 920h-374v-631q0 -205 186 -205q78 0 158 39l30 -94q-102 -43 -198 -43q-137 0 -207 80.5t-70 222.5v631h-215v94h215v360h101v-360h374v-94zM438 -498l27 344h106l-53 -344h-80z" glyph-name="uni021B" horiz-adv-x="833" unicode="ț"/><glyph d="M563 1178h-119l-163 192l-162 -192h-119l221 256h119z" glyph-name="circumflex" horiz-adv-x="563" unicode="ˆ"/><glyph d="M444 1434h119l-223 -256h-119l-221 256h119l162 -193z" glyph-name="caron" horiz-adv-x="563" unicode="ˇ"/><glyph d="M284.5 1155q-137.5 0 -211 74t-73.5 188h94q2 -80 49 -129t142 -49q96 0 143 49t47 129h94q0 -115 -73.5 -188.5t-211 -73.5z" glyph-name="breve" horiz-adv-x="569" unicode="˘"/><glyph d="M88 1223q-39 0 -63.5 24.5t-24.5 61.5t24.5 61.5t63.5 24.5t63.5 -24.5t24.5 -61.5t-24.5 -61.5t-63.5 -24.5z" glyph-name="dotaccent" horiz-adv-x="176" unicode="˙"/><glyph d="M215 1137q-92 0 -153.5 59t-61.5 149.5t61.5 149.5t153.5 59t153.5 -59t61.5 -149.5t-61.5 -149.5t-153.5 -59zM215 1221q59 0 93 34.5t34 90t-34 90t-93 34.5t-93 -34.5t-34 -90t34 -90t93 -34.5z" glyph-name="ring" horiz-adv-x="430" unicode="˚"/><glyph d="M195 -455q-90 0 -142.5 47.5t-52.5 135.5q0 61 49 136t123 136h100q-172 -152 -172 -266q0 -45 26 -72t71 -27q72 0 127 68l26 -90q-57 -68 -155 -68z" glyph-name="ogonek" horiz-adv-x="350" unicode="˛"/><glyph d="M432 1196q-61 0 -152.5 65.5t-129.5 65.5q-59 0 -60 -125h-90q0 215 150 215q61 0 152 -65.5t130 -65.5q59 0 60 125h90q0 -215 -150 -215z" glyph-name="tilde" horiz-adv-x="581" unicode="˜"/><glyph d="M0 1178l154 274h114l-166 -274h-102zM287 1178l174 274h114l-186 -274h-102z" glyph-name="hungarumlaut" horiz-adv-x="575" unicode="˝"/><glyph d="M0 1178h-102l-187 274h123z" glyph-name="gravecomb" horiz-adv-x="0" unicode="̀"/><glyph d="M-289 1178l166 274h123l-186 -274h-103z" glyph-name="acutecomb" horiz-adv-x="0" unicode="́"/><glyph d="M0 1178h-119l-164 192l-161 -192h-119l221 256h119z" glyph-name="uni0302" horiz-adv-x="0" unicode="̂"/><glyph d="M-150 1196q-61 0 -152 65.5t-130 65.5q-59 0 -60 -125h-90q0 215 150 215q61 0 152.5 -65.5t129.5 -65.5q59 0 60 125h90q0 -215 -150 -215z" glyph-name="tildecomb" horiz-adv-x="0" unicode="̃"/><glyph d="M-512 1214v91h512v-91h-512z" glyph-name="uni0304" horiz-adv-x="0" unicode="̄"/><glyph d="M-284.5 1155q-137.5 0 -211 74t-73.5 188h94q2 -80 49 -129t141 -49q96 0 143.5 49t47.5 129h94q0 -115 -73.5 -188.5t-211 -73.5z" glyph-name="uni0306" horiz-adv-x="0" unicode="̆"/><glyph d="M-88 1182q-39 0 -63.5 24.5t-24.5 61.5t24.5 61.5t63.5 24.5t63.5 -24.5t24.5 -61.5t-24.5 -61.5t-63.5 -24.5z" glyph-name="uni0307" horiz-adv-x="0" unicode="̇"/><glyph d="M-444.5 1188q-32.5 0 -54 20.5t-21.5 53t21.5 53t54 20.5t54 -20.5t21.5 -53t-21.5 -53t-54 -20.5zM-76 1188q-33 0 -54.5 20.5t-21.5 53t21.5 53t54.5 20.5t54.5 -20.5t21.5 -53t-21.5 -53t-54.5 -20.5z" glyph-name="uni0308" horiz-adv-x="0" unicode="̈"/><glyph d="M-215 1137q-92 0 -153.5 59t-61.5 149.5t61.5 149.5t153.5 59t153.5 -59t61.5 -149.5t-61.5 -149.5t-153.5 -59zM-215 1221q59 0 93 34.5t34 90t-34 90t-93 34.5t-93 -34.5t-34 -90t34 -90t93 -34.5z" glyph-name="uni030A" horiz-adv-x="0" unicode="̊"/><glyph d="M-575 1178l153 274h115l-166 -274h-102zM-289 1178l174 274h115l-186 -274h-103z" glyph-name="uni030B" horiz-adv-x="0" unicode="̋"/><glyph d="M-119 1434h119l-223 -256h-119l-221 256h119l161 -193z" glyph-name="uni030C" horiz-adv-x="0" unicode="̌"/><glyph d="M0 1526l-27 -344h-106l53 344h80z" glyph-name="uni0312" horiz-adv-x="0" unicode="̒"/><glyph d="M-133 -498l27 344h106l-53 -344h-80z" glyph-name="uni0326" horiz-adv-x="0" unicode="̦"/><glyph d="M-211 -453q-115 0 -203 64l23 80q68 -51 140.5 -59.5t116.5 17t44 68.5q0 55 -71.5 77t-151.5 5l63 201h94l-37 -123q88 -2 140.5 -48t52.5 -114q0 -80 -61.5 -124t-149.5 -44z" glyph-name="uni0327" horiz-adv-x="0" unicode="̧"/><glyph d="M-156 -455q-90 0 -142 47.5t-52 135.5q0 61 49 136t123 136h100q-172 -152 -172 -266q0 -45 25.5 -72t70.5 -27q72 0 127 68l27 -90q-58 -68 -156 -68z" glyph-name="uni0328" horiz-adv-x="0" unicode="̨"/><glyph d="M758 1434l606 -1434h-1333l606 1434h121zM186 96h1022l-510 1223z" glyph-name="Delta" horiz-adv-x="1394" unicode="Δ"/><glyph d="M1597 733q0 -215 -106.5 -380t-284.5 -257h371v-96h-569v96q215 72 351 242t136 393q0 260 -183.5 444.5t-462 184.5t-461.5 -184.5t-183 -444.5q0 -223 136 -393t351 -242v-96h-569v96h369q-178 92 -284 257t-106 380q0 305 213 515t535 210q324 0 535.5 -210 t211.5 -515z" glyph-name="Omega" horiz-adv-x="1699" unicode="Ω"/><glyph d="M1260 86l24 -92q-47 -18 -104 -19q-188 0 -201 209q-131 -209 -401 -209q-199 0 -314 150v-555h-100v844v2v598h100v-588q0 -162 89 -258t233 -96q174 0 282.5 118.5t108.5 309.5v514h100v-793q0 -150 101 -149q47 0 82 14z" glyph-name="mu" horiz-adv-x="1304" unicode="μ"/><glyph d="M1255 946h-233v-725q0 -143 98 -143q47 0 80 20l27 -92q-55 -25 -107 -24q-201 0 -200 239v725h-525v-946h-102v946h-221v96h1183v-96z" glyph-name="pi" horiz-adv-x="1327" unicode="π"/><glyph d="M1067 1597h-102l-187 275h123zM1855 1434h107l-459 -1434h-106l-396 1264l-397 -1264h-106l-457 1434h106l406 -1278l399 1278h97l399 -1278z" glyph-name="Wgrave" horiz-adv-x="2002" unicode="Ẁ"/><glyph d="M829 1178h-102l-186 274h123zM1393 1014h106l-348 -1014h-104l-281 850l-283 -850h-104l-348 1014h106l295 -881l287 881h92l287 -881z" glyph-name="wgrave" horiz-adv-x="1529" unicode="ẁ"/><glyph d="M1225 1872l-187 -275h-102l166 275h123zM1855 1434h107l-459 -1434h-106l-396 1264l-397 -1264h-106l-457 1434h106l406 -1278l399 1278h97l399 -1278z" glyph-name="Wacute" horiz-adv-x="2002" unicode="Ẃ"/><glyph d="M987 1452l-186 -274h-103l166 274h123zM1393 1014h106l-348 -1014h-104l-281 850l-283 -850h-104l-348 1014h106l295 -881l287 881h92l287 -881z" glyph-name="wacute" horiz-adv-x="1529" unicode="ẃ"/><glyph d="M817 1608q-33 0 -54.5 20.5t-21.5 53t21.5 53t54.5 20.5t54.5 -20.5t21.5 -53t-21.5 -53t-54.5 -20.5zM1186 1608q-33 0 -54.5 20.5t-21.5 53t21.5 53t54.5 20.5t54.5 -20.5t21.5 -53t-21.5 -53t-54.5 -20.5zM1855 1434h107l-459 -1434h-106l-396 1264l-397 -1264h-106 l-457 1434h106l406 -1278l399 1278h97l399 -1278z" glyph-name="Wdieresis" horiz-adv-x="2002" unicode="Ẅ"/><glyph d="M579.5 1188q-32.5 0 -54 20.5t-21.5 53t21.5 53t54 20.5t54 -20.5t21.5 -53t-21.5 -53t-54 -20.5zM948 1188q-33 0 -54.5 20.5t-21.5 53t21.5 53t54.5 20.5t54.5 -20.5t21.5 -53t-21.5 -53t-54.5 -20.5zM1393 1014h106l-348 -1014h-104l-281 850l-283 -850h-104 l-348 1014h106l295 -881l287 881h92l287 -881z" glyph-name="wdieresis" horiz-adv-x="1529" unicode="ẅ"/><glyph d="M721 1597h-103l-186 275h123zM1159 1434h119l-571 -875v-559h-105v559l-571 875h119l505 -775z" glyph-name="Ygrave" horiz-adv-x="1308" unicode="Ỳ"/><glyph d="M616 1178h-102l-186 274h123zM940 1014h109l-633 -1444h-109l197 448l-473 996h110l416 -881z" glyph-name="ygrave" horiz-adv-x="1079" unicode="ỳ"/><glyph d="M154 592v92h983v-92h-983z" glyph-name="endash" horiz-adv-x="1290" unicode="–"/><glyph d="M154 592v92h1597v-92h-1597z" glyph-name="emdash" horiz-adv-x="1904" unicode="—"/><glyph d="M338 1434l-88 -455h-127l121 455h94z" glyph-name="quoteleft" horiz-adv-x="460" unicode="‘"/><glyph d="M123 979l88 455h127l-121 -455h-94z" glyph-name="quoteright" horiz-adv-x="460" unicode="’"/><glyph d="M123 -281l88 455h127l-121 -455h-94z" glyph-name="quotesinglbase" horiz-adv-x="460" unicode="‚"/><glyph d="M338 1434l-88 -455h-127l121 455h94zM610 1434l-88 -455h-127l121 455h94z" glyph-name="quotedblleft" horiz-adv-x="733" unicode="“"/><glyph d="M123 979l88 455h127l-121 -455h-94zM395 979l88 455h127l-121 -455h-94z" glyph-name="quotedblright" horiz-adv-x="733" unicode="”"/><glyph d="M123 -281l88 455h127l-121 -455h-94zM395 -281l88 455h127l-121 -455h-94z" glyph-name="quotedblbase" horiz-adv-x="733" unicode="„"/><glyph d="M461 0v1001h-359v97h359v397h102v-397h359v-97h-359v-1001h-102z" glyph-name="dagger" horiz-adv-x="1024" unicode="†"/><glyph d="M461 0v397h-359v97h359v507h-359v97h359v397h102v-397h359v-97h-359v-507h359v-97h-359v-397h-102z" glyph-name="daggerdbl" horiz-adv-x="1024" unicode="‡"/><glyph d="M291 430q-72 2 -120 49t-48 117q0 68 48 113t120 47q70 2 117 -45t47 -115q0 -70 -48 -119t-116 -47z" glyph-name="bullet" horiz-adv-x="577" unicode="•"/><glyph d="M211 -12q-39 0 -63.5 24.5t-24.5 61.5t24.5 61.5t63.5 24.5t63.5 -24.5t24.5 -61.5t-24.5 -61.5t-63.5 -24.5zM592 -12q-39 0 -63.5 24.5t-24.5 61.5t24.5 61.5t63.5 24.5t63.5 -24.5t24.5 -61.5t-24.5 -61.5t-63.5 -24.5zM973 -12q-39 0 -63.5 24.5t-24.5 61.5 t24.5 61.5t63.5 24.5t63.5 -24.5t24.5 -61.5t-24.5 -61.5t-63.5 -24.5z" glyph-name="ellipsis" horiz-adv-x="1183" unicode="…"/><glyph d="M492 705q-158 0 -268.5 108.5t-110.5 264t110.5 263t268.5 107.5q160 0 269 -107.5t109 -263.5q0 -158 -109 -265t-269 -107zM477 0l930 1434h111l-928 -1434h-113zM491.5 799q118.5 0 199.5 82t81 196q0 117 -80 197t-200.5 80t-200.5 -80t-80 -197q0 -115 81 -196.5 t199.5 -81.5zM1505 -16q-158 0 -268.5 107.5t-110.5 262.5q0 158 110 265.5t269.5 107.5t269 -107.5t109.5 -265.5q0 -156 -109.5 -263t-269.5 -107zM2372 -16q-158 0 -268.5 107.5t-110.5 262.5q0 158 109.5 265.5t269 107.5t269 -107.5t109.5 -265.5q0 -156 -109 -263 t-269 -107zM1505 78q119 0 200 81t81 195q0 117 -80 198t-201 81t-200.5 -81t-79.5 -198q0 -115 80.5 -195.5t199.5 -80.5zM2371.5 78q118.5 0 199.5 81t81 195q0 117 -80 198t-200.5 81t-200.5 -81t-80 -198q0 -115 81 -195.5t199.5 -80.5z" glyph-name="perthousand" horiz-adv-x="2863" unicode="‰"/><glyph d="M475 1004l-205 -349l205 -348h-117l-204 348l204 349h117z" glyph-name="guilsinglleft" horiz-adv-x="628" unicode="‹"/><glyph d="M270 1004l205 -349l-205 -348h-116l204 348l-204 349h116z" glyph-name="guilsinglright" horiz-adv-x="628" unicode="›"/><glyph d="M-307 0l899 1434h106l-899 -1434h-106z" glyph-name="fraction" horiz-adv-x="391" unicode="⁄"/><glyph d="M387 903q-154 0 -240 119t-86 309q0 193 86 310.5t240 117.5q152 0 238 -117.5t86 -310.5q0 -190 -85 -309t-239 -119zM387 991q111 0 170 91.5t59 248.5q0 156 -59 248t-170 92q-113 0 -171 -91t-58 -248.5t58 -249t171 -91.5z" glyph-name="uni2070" horiz-adv-x="772" unicode="⁰"/><glyph d="M659 1188v-84h-112v-182h-88v182h-428v72l307 565h98l-299 -553h322v207h88v-207h112z" glyph-name="uni2074" horiz-adv-x="700" unicode="⁴"/><glyph d="M362 1436q121 0 198 -73t77 -194q0 -117 -80 -191.5t-205 -74.5q-119 0 -197.5 62.5t-103.5 154.5l82 23q25 -70 81 -114t136 -44q90 0 143.5 52.5t53.5 131.5q0 82 -51.5 134.5t-143.5 52.5q-117 0 -205 -66l-65 23l37 428h481v-82h-403l-23 -270q79 47 188 47z" glyph-name="uni2075" horiz-adv-x="698" unicode="⁵"/><glyph d="M346 1458q125 -2 204 -81t79 -195q0 -119 -82 -199t-211 -80q-131 0 -213 80t-82 199q0 90 68 190l247 369h101l-197 -297q35 14 86 14zM336 985q90 0 147.5 56.5t57.5 140.5t-57.5 139t-149.5 55q-90 0 -146.5 -56t-56.5 -138q0 -84 57.5 -140.5t147.5 -56.5z" glyph-name="uni2076" horiz-adv-x="669" unicode="⁶"/><glyph d="M27 1741h563v-70l-332 -749h-98l325 737h-458v82z" glyph-name="uni2077" horiz-adv-x="620" unicode="⁷"/><glyph d="M500 1366q158 -59 157 -217q0 -106 -82.5 -176t-218.5 -70q-137 0 -221 69.5t-84 176.5q0 158 158 217q-121 57 -121 180q0 90 74 151.5t194 61.5q117 0 191 -61.5t74 -151.5q0 -123 -121 -180zM356 1679q-84 0 -132 -40t-48 -99q0 -61 48 -101t132 -40q78 0 127 40 t49 101q0 59 -49 99t-127 40zM356 983q94 0 151.5 48t57.5 122t-57 121t-152 47q-96 0 -154.5 -47t-58.5 -121t58.5 -122t154.5 -48z" glyph-name="uni2078" horiz-adv-x="708" unicode="⁸"/><glyph d="M334 1759q131 0 213 -80t82 -198q0 -90 -68 -191l-248 -368h-100l197 297q-35 -14 -86 -15q-125 2 -204 81t-79 196q0 119 82 198.5t211 79.5zM336 1286q90 0 146.5 56.5t56.5 138.5q0 84 -57.5 140t-147.5 56t-147.5 -56t-57.5 -140t57.5 -139.5t149.5 -55.5z" glyph-name="uni2079" horiz-adv-x="669" unicode="⁹"/><glyph d="M387 -326q-154 0 -240 119t-86 309q0 193 86 310.5t240 117.5q152 0 238 -117.5t86 -310.5q0 -190 -85 -309t-239 -119zM387 -238q111 0 170 91.5t59 248.5q0 156 -59 248t-170 92q-113 0 -171 -91t-58 -248.5t58 -249t171 -91.5z" glyph-name="uni2080" horiz-adv-x="772" unicode="₀"/><glyph d="M266 512h78v-819h-90v713l-211 -103l-23 80z" glyph-name="uni2081" horiz-adv-x="466" unicode="₁"/><glyph d="M188 -223h433v-84h-570v67l330 318q68 66 98.5 109.5t30.5 95.5q0 76 -47 119.5t-131 43.5q-76 0 -126 -43t-67 -120l-86 22q14 92 90 158.5t187 66.5q123 0 198.5 -65.5t75.5 -179.5q0 -72 -37 -126.5t-116 -129.5z" glyph-name="uni2082" horiz-adv-x="681" unicode="₂"/><glyph d="M403 193q111 -8 177.5 -77t66.5 -173q0 -115 -81 -192t-206 -77q-133 0 -210.5 70t-98.5 168l86 25q12 -78 72.5 -129.5t148.5 -51.5q92 0 145.5 54.5t53.5 132.5q0 76 -52 127t-149 51q-14 0 -51 -4l-16 61l217 252h-430v82h542v-72z" glyph-name="uni2083" horiz-adv-x="708" unicode="₃"/><glyph d="M659 -41v-84h-112v-182h-88v182h-428v72l307 565h98l-299 -553h322v207h88v-207h112z" glyph-name="uni2084" horiz-adv-x="700" unicode="₄"/><glyph d="M362 207q121 0 198 -73t77 -193q0 -117 -80 -192t-205 -75q-119 0 -197.5 62.5t-103.5 154.5l82 23q25 -70 81 -114t136 -44q90 0 143.5 52.5t53.5 132.5q0 82 -51.5 134t-143.5 52q-117 0 -205 -66l-65 23l37 428h481v-82h-403l-23 -270q79 47 188 47z" glyph-name="uni2085" horiz-adv-x="698" unicode="₅"/><glyph d="M346 229q125 -2 204 -80.5t79 -195.5q0 -119 -82 -199t-211 -80q-131 0 -213 80t-82 199q0 90 68 190l247 369h101l-197 -297q35 14 86 14zM336 -244q90 0 147.5 56.5t57.5 140.5t-57.5 139t-149.5 55q-90 0 -146.5 -56t-56.5 -138q0 -84 57.5 -140.5t147.5 -56.5z" glyph-name="uni2086" horiz-adv-x="669" unicode="₆"/><glyph d="M27 512h563v-70l-332 -749h-98l325 737h-458v82z" glyph-name="uni2087" horiz-adv-x="620" unicode="₇"/><glyph d="M500 137q158 -59 157 -217q0 -106 -82.5 -176t-218.5 -70q-137 0 -221 70t-84 176q0 158 158 217q-121 57 -121 180q0 90 74 151.5t194 61.5q117 0 191 -61t74 -152q0 -123 -121 -180zM356 451q-84 0 -132 -40t-48 -100q0 -61 48 -101t132 -40q78 0 127 40t49 101 q0 59 -49 99.5t-127 40.5zM356 -246q94 0 151.5 48t57.5 122t-57 121t-152 47q-96 0 -154.5 -47t-58.5 -121t58.5 -122t154.5 -48z" glyph-name="uni2088" horiz-adv-x="708" unicode="₈"/><glyph d="M334 530q131 0 213 -79.5t82 -198.5q0 -90 -68 -191l-248 -368h-100l197 297q-35 -14 -86 -15q-125 2 -204 81t-79 196q0 119 82 198.5t211 79.5zM336 57q90 0 146.5 56.5t56.5 138.5q0 84 -57.5 140.5t-147.5 56.5t-147.5 -56.5t-57.5 -140.5t57.5 -139.5t149.5 -55.5z " glyph-name="uni2089" horiz-adv-x="669" unicode="₉"/><glyph d="M1120 1337h-805v-555h748v-92h-748v-282h412v-86h-412v-322h-104v322h-119v86h119v1026h909v-97z" glyph-name="franc" horiz-adv-x="1243" unicode="₣"/><glyph d="M420 96h825v-96h-1143v96h215v406h-174v86h174v147h-174v86h174v252q0 186 105.5 288.5t282.5 102.5q174 0 285.5 -95t142.5 -236l-91 -27q-78 262 -340 262q-135 0 -208.5 -78t-73.5 -221v-248h543v-86h-543v-147h543v-86h-543v-406z" glyph-name="lira" horiz-adv-x="1327" unicode="₤"/><glyph d="M1386 203l60 -76q-190 -152 -461 -152q-266 0 -463.5 159t-255.5 411h-194v86h180q-4 57 -4 90q0 29 4 86h-180v86h194q55 250 253 407.5t466 157.5q266 0 459 -147l-62 -78q-166 129 -397 129q-229 0 -395 -131t-219 -338h719v-86h-736q-4 -53 -4 -84q0 -47 6 -92h734 v-86h-717q53 -211 217 -342t395 -131q237 0 401 131z" glyph-name="Euro" horiz-adv-x="1548" unicode="€"/><glyph d="M946 750q129 -39 201 -133.5t72 -223.5q0 -164 -120 -278.5t-323 -114.5h-125v-256h-92v256h-158v-256h-92v256h-268v96h164v1241h-164v97h268v256h92v-256h158v256h92v-256h76q184 0 305 -102.5t123 -264.5q2 -115 -52.5 -196.5t-156.5 -120.5zM719 1337h-410v-553h434 q141 0 224.5 81t83.5 196q0 121 -90 198.5t-242 77.5zM768 96q158 0 252 88t94 215q0 119 -91 208t-249 89h-465v-600h459z" glyph-name="uni20BF" horiz-adv-x="1320" unicode="₿"/><glyph d="M1788 838q-131 0 -223 90t-92 221q0 129 92 219t223 90q133 0 224 -89t91 -220t-91 -221t-224 -90zM1204 176v1258h105v-1434h-97l-944 1257v-1257h-104v1434h96zM1788 1366q-94 0 -156.5 -62.5t-62.5 -154.5q0 -90 62.5 -154.5t156.5 -64.5t155.5 64.5t63.5 154.5 q2 92 -61.5 154.5t-157.5 62.5zM1507 598v92h564v-92h-564z" glyph-name="afii61352" horiz-adv-x="2164" unicode="№"/><glyph d="M299 778v578h-238v78h560v-78h-238v-578h-84zM705 778v656h79l242 -344l238 344h84v-656h-82v520l-238 -337l-244 337v-520h-79z" glyph-name="trademark" horiz-adv-x="1449" unicode="™"/><glyph d="M895 -23q-344 0 -573.5 214.5t-229.5 529.5q0 305 229.5 521t555 216t554 -216t228.5 -521v-33h-1260v-432q184 -217 496 -217q287 0 469 192h162q-260 -254 -631 -254zM399 750h953v430q-184 217 -475 217q-293 0 -478 -217v-430z" glyph-name="estimated" horiz-adv-x="1751" unicode="℮"/><glyph d="M254 614v713l-211 -102l-23 80l246 129h78v-820h-90zM1059 1434h106l-899 -1434h-106zM1358 444q158 -59 158 -217q0 -106 -83 -175.5t-219 -69.5q-137 0 -221 69.5t-84 175.5q0 158 158 217q-121 57 -121 181q0 90 74 151.5t194 61.5q117 0 191 -61.5t74 -151.5 q0 -124 -121 -181zM1214 758q-84 0 -132 -40t-48 -100q0 -61 48 -101t132 -40q78 0 127.5 40t49.5 101q0 59 -49.5 99.5t-127.5 40.5zM1214 61q94 0 151.5 48.5t57.5 122t-57 120.5t-152 47q-96 0 -154.5 -47t-58.5 -120.5t58.5 -122t154.5 -48.5z" glyph-name="oneeighth" horiz-adv-x="1566" unicode="⅛"/><glyph d="M647 864q0 -115 -81 -191.5t-206 -76.5q-133 0 -210.5 69.5t-98.5 168.5l86 24q12 -78 72.5 -129t148.5 -51q92 0 145.5 54t53.5 132q0 76 -52 127t-149 51q-14 0 -51 -4l-16 62l217 252h-430v82h542v-72l-215 -248q111 -8 177.5 -77t66.5 -173zM1300 1434h107 l-899 -1434h-107zM1599 444q158 -59 158 -217q0 -106 -83 -175.5t-218 -69.5q-137 0 -221 69.5t-84 175.5q0 158 158 217q-121 57 -121 181q0 90 73.5 151.5t194.5 61.5q117 0 190.5 -61.5t73.5 -151.5q0 -124 -121 -181zM1456 758q-84 0 -132 -40t-48 -100q0 -61 48 -101 t132 -40q78 0 127 40t49 101q0 59 -49 99.5t-127 40.5zM1456 61q94 0 151.5 48.5t57.5 122t-57.5 120.5t-151.5 47q-96 0 -154.5 -47t-58.5 -120.5t58.5 -122t154.5 -48.5z" glyph-name="threeeighths" horiz-adv-x="1808" unicode="⅜"/><glyph d="M637 862q0 -117 -80 -191.5t-205 -74.5q-119 0 -197.5 62.5t-103.5 154.5l82 23q25 -70 81 -114t136 -44q90 0 143.5 52t53.5 132q0 82 -51.5 134.5t-143.5 52.5q-117 0 -205 -66l-65 23l37 428h481v-82h-403l-23 -271q80 47 188 47q121 0 198 -72.5t77 -193.5z M1290 1434h107l-899 -1434h-107zM1589 444q158 -59 158 -217q0 -106 -83 -175.5t-218 -69.5q-137 0 -221 69.5t-84 175.5q0 158 157 217q-121 57 -120 181q0 90 73.5 151.5t194.5 61.5q117 0 190.5 -61.5t73.5 -151.5q0 -124 -121 -181zM1446 758q-84 0 -132 -40t-48 -100 q0 -61 48 -101t132 -40q78 0 127 40t49 101q0 59 -49 99.5t-127 40.5zM1446 61q94 0 151.5 48.5t57.5 122t-57.5 120.5t-151.5 47q-96 0 -154.5 -47t-58.5 -120.5t58.5 -122t154.5 -48.5z" glyph-name="fiveeighths" horiz-adv-x="1798" unicode="⅝"/><glyph d="M590 1434v-70l-332 -750h-98l325 738h-458v82h563zM1212 1434h107l-899 -1434h-107zM1511 444q158 -59 158 -217q0 -106 -83 -175.5t-218 -69.5q-137 0 -221 69.5t-84 175.5q0 158 158 217q-121 57 -121 181q0 90 73.5 151.5t194.5 61.5q117 0 190.5 -61.5t73.5 -151.5 q0 -124 -121 -181zM1368 758q-84 0 -132 -40t-48 -100q0 -61 48 -101t132 -40q78 0 127 40t49 101q0 59 -49 99.5t-127 40.5zM1368 61q94 0 151.5 48.5t57.5 122t-57.5 120.5t-151.5 47q-96 0 -154.5 -47t-58.5 -120.5t58.5 -122t154.5 -48.5z" glyph-name="seveneighths" horiz-adv-x="1720" unicode="⅞"/><glyph d="M1612 758v-90l-1276 -2l528 -529l-67 -67l-643 643l643 643l67 -68l-528 -528z" glyph-name="arrowleft" horiz-adv-x="1765" unicode="←"/><glyph d="M1440 817l-68 -67l-524 522l-2 -1272h-98v1274l-527 -524l-67 67l643 641z" glyph-name="arrowup" horiz-adv-x="1593" unicode="↑"/><glyph d="M969 1356l643 -643l-643 -643l-68 67l529 529l-1276 2v90l1276 2l-529 528z" glyph-name="arrowright" horiz-adv-x="1765" unicode="→"/><glyph d="M1372 684l68 -68l-643 -641l-643 641l67 68l527 -524v1274h98l2 -1272z" glyph-name="arrowdown" horiz-adv-x="1593" unicode="↓"/><glyph d="M1501 1356l643 -643l-643 -643l-67 67l528 529h-1626l528 -529l-67 -67l-643 643l643 643l67 -68l-528 -528h1626l-528 528z" glyph-name="arrowboth" horiz-adv-x="2297" unicode="↔"/><glyph d="M848 -109l524 523l68 -68l-643 -641l-643 641l67 68l527 -525v1577l-527 -524l-67 68l643 641l643 -641l-68 -68l-524 522l-2 -786z" glyph-name="arrowupdn" horiz-adv-x="1593" unicode="↕"/><glyph d="M1219 276l-68 -69l-899 899l-2 -741h-96v909h909v-96h-746z" glyph-name="uni2196" horiz-adv-x="1372" unicode="↖"/><glyph d="M311 1266h910v-910h-97v746l-901 -901l-69 67l899 899l-742 2v97z" glyph-name="uni2197" horiz-adv-x="1374" unicode="↗"/><glyph d="M1122 1118h97v-909h-910v96h746l-901 901l67 70l899 -899z" glyph-name="uni2198" horiz-adv-x="1372" unicode="↘"/><glyph d="M1221 1196l-899 -899l741 -2v-96h-909v909h96v-746l901 902z" glyph-name="uni2199" horiz-adv-x="1374" unicode="↙"/><glyph d="M633 -31q-215 0 -362.5 146.5t-147.5 363.5q0 207 142.5 345.5t363.5 138.5q287 0 454 -185q-16 248 -144 419t-335 171q-203 0 -362 -149l-29 102q166 143 391 143q268 0 426 -211t158 -559q0 -328 -152.5 -526.5t-402.5 -198.5zM633 66q199 0 323.5 167.5t126.5 419.5 q-172 213 -454 213q-168 0 -286 -114.5t-118 -272.5q0 -172 117 -292.5t291 -120.5z" glyph-name="partialdiff" horiz-adv-x="1310" unicode="∂"/><glyph d="M1044 1087l-126 -126q106 -129 106 -306q0 -203 -138 -342t-341 -139q-174 0 -305 109l-123 -123l-66 63l123 123q-106 133 -106 309q0 203 137 342.5t340 139.5q178 0 311 -111l125 125zM164 655q0 -135 82 -239l538 538q-104 82 -239 82q-162 0 -271.5 -109.5 t-109.5 -271.5zM928 655q0 137 -80 236l-539 -539q104 -78 236 -78q162 0 272.5 109.5t110.5 271.5z" glyph-name="emptyset" horiz-adv-x="1095" unicode="∅"/><glyph d="M1149 1495v-1925h-100v1829h-795v-1829h-100v1925h995z" glyph-name="product" horiz-adv-x="1302" unicode="∏"/><glyph d="M252 -317h954v-93h-1083v82l659 887l-624 854v82h1009v-92h-880l616 -846z" glyph-name="summation" horiz-adv-x="1329" unicode="∑"/><glyph d="M154 672v92h819v-92h-819z" glyph-name="minus" horiz-adv-x="1126" unicode="−"/><glyph d="M1219 1618h104l-543 -1804h-106l-330 876h-221v92h293l305 -823z" glyph-name="radical" horiz-adv-x="1343" unicode="√"/><glyph d="M1348 1085q154 0 263 -108.5t109 -259.5q0 -154 -109.5 -261.5t-262.5 -107.5q-242 0 -426 279q-184 -279 -426 -279q-154 0 -263.5 107.5t-109.5 261.5q0 152 109.5 260t263.5 108q238 0 426 -282q188 282 426 282zM502 440q109 0 195.5 72t172.5 203 q-86 131 -173 202.5t-195 71.5q-113 0 -196 -80t-83 -194q0 -113 82 -194t197 -81zM1341 440q115 0 197 81t82 194q0 115 -83 194.5t-196 79.5q-109 0 -195.5 -71.5t-172.5 -202.5q86 -131 172.5 -203t195.5 -72z" glyph-name="infinity" horiz-adv-x="1843" unicode="∞"/><glyph d="M211 -319q-133 0 -211 69l41 88q72 -61 174 -61q154 0 193 272l170 1202q25 182 97.5 273.5t205.5 91.5t211 -70l-41 -88q-66 61 -174 62q-164 0 -201 -269l-170 -1202q-25 -184 -95.5 -276t-199.5 -92z" glyph-name="integral" horiz-adv-x="1091" unicode="∫"/><glyph d="M246 770l-92 27q0 98 58 161.5t177 63.5q84 0 170 -46t165 -91t140 -45q139 0 140 164l92 -27q0 -100 -57.5 -164.5t-176.5 -64.5q-84 0 -170 46t-164.5 91t-140.5 45q-141 0 -141 -160zM246 440l-92 27q0 98 58 161.5t177 63.5q84 0 170 -45t165 -91t140 -46 q139 0 140 164l92 -27q0 -100 -57.5 -164.5t-176.5 -64.5q-84 0 -170 46t-164.5 91t-140.5 45q-141 0 -141 -160z" glyph-name="approxequal" horiz-adv-x="1249" unicode="≈"/><glyph d="M977 575v-92h-471l-137 -309h-86l137 309h-262v92h303l125 285h-432v92h473l135 308h86l-135 -308h260v-92h-301l-125 -285h430z" glyph-name="notequal" horiz-adv-x="1130" unicode="≠"/><glyph d="M973 1239v-104l-694 -277l694 -278v-105l-819 332v100zM154 236v92h819v-92h-819z" glyph-name="lessequal" horiz-adv-x="1136" unicode="≤"/><glyph d="M164 1239l819 -332v-100l-819 -332v105l694 278l-694 277v104zM164 236v92h819v-92h-819z" glyph-name="greaterequal" horiz-adv-x="1136" unicode="≥"/><glyph d="M637 1434l401 -717l-401 -717h-111l-403 717l403 717h111zM582 98l344 619l-344 618l-346 -618z" glyph-name="lozenge" horiz-adv-x="1161" unicode="◊"/><glyph d="M213 1182q-39 0 -63.5 24.5t-24.5 61.5t24.5 61.5t63.5 24.5t63.5 -24.5t24.5 -61.5t-24.5 -61.5t-63.5 -24.5zM164 0v1014h102v-1014h-102z" glyph-name="i.aalt" horiz-adv-x="430"/><glyph d="M1608 1014v-1143q0 -154 -70 -240t-209 -86q-80 0 -153 39l26 92q59 -39 129 -38q88 0 132 61t44 172v1049h-512v-920h-100v920h-512v-920h-100v920h-222v94h222v155q0 168 80.5 259.5t240.5 91.5q111 0 193 -41l-27 -90q-76 39 -164 38q-223 0 -223 -264v-149h512v155 q0 168 86 259.5t256 91.5q176 0 307 -111l-26 -90q-129 109 -279 108q-244 0 -244 -264v-149h613z" glyph-name="f_f_j.dlig" horiz-adv-x="1751"/><glyph d="M995 1014v-1143q0 -154 -69.5 -240t-208.5 -86q-80 0 -154 39l27 92q57 -39 129 -38q88 0 132 61t44 172v1049h-512v-920h-100v920h-222v94h222v155q0 168 86 259.5t256 91.5q176 0 307 -111l-27 -90q-129 109 -278 108q-244 0 -244 -264v-149h612z" glyph-name="f_j.dlig" horiz-adv-x="1138"/><glyph d="M1360 920h-375v-631q0 -205 186 -205q78 0 158 39l31 -94q-100 -43 -199 -43q-137 0 -206.5 80.5t-69.5 222.5v631h-502v-920h-100v920h-222v94h222v155q0 168 75.5 259.5t225.5 91.5q92 0 164 -27l-27 -90q-66 25 -135 24q-203 0 -203 -264v-149h502v360h100v-360h375 v-94z" glyph-name="f_t.dlig" horiz-adv-x="1452"/><glyph d="M1364 920h-375v-631q0 -205 187 -205q78 0 157 39l31 -94q-102 -43 -199 -43q-137 0 -206.5 80.5t-69.5 222.5v631h-522v-631q0 -205 186 -205q78 0 158 39l30 -94q-102 -43 -198 -43q-137 0 -207 80.5t-70 222.5v631h-215v94h215v360h101v-360h522v360h100v-360h375v-94 z" glyph-name="t_t.dlig" horiz-adv-x="1456"/><glyph d="M594 -25q-260 0 -401.5 206t-141.5 536q0 332 141.5 536.5t401.5 204.5t401.5 -204.5t141.5 -536.5q0 -330 -141.5 -536t-401.5 -206zM594 74q211 0 324.5 174t113.5 469t-113.5 469t-324.5 174q-209 0 -323.5 -175t-114.5 -468q0 -295 114.5 -469t323.5 -174z" glyph-name="zero.tnum" horiz-adv-x="1167"/><glyph d="M668 96h376v-96h-901v96h420v1213l-379 -189l-26 94l424 220h86v-1338z" glyph-name="one.tnum" horiz-adv-x="1167"/><glyph d="M266 96h805v-96h-954v86l577 563q129 125 187.5 208t58.5 179q0 150 -94 238t-258 88q-143 0 -239.5 -82t-129.5 -223l-94 26q25 154 151.5 264.5t311.5 110.5q201 0 327.5 -113.5t126.5 -308.5q0 -125 -67.5 -223t-208.5 -233z" glyph-name="two.tnum" horiz-adv-x="1167"/><glyph d="M606 860q219 12 348 -110.5t129 -323.5q0 -190 -140 -323.5t-351 -133.5q-217 0 -352.5 114t-171.5 275l98 27q29 -141 141.5 -230t284.5 -89q178 0 283.5 104t105.5 256q0 150 -93 245t-245 95q-119 0 -205 -66l-22 80l473 557h-780v97h915v-88z" glyph-name="three.tnum" horiz-adv-x="1167"/><glyph d="M1108 434v-96h-205v-338h-104v338h-768v82l555 1014h114l-546 -1000h645v397h104v-397h205z" glyph-name="four.tnum" horiz-adv-x="1167"/><glyph d="M604 903q219 0 356.5 -127t137.5 -336q0 -199 -140.5 -332t-353.5 -133q-203 0 -331 107.5t-173 267.5l97 25q41 -137 144 -220t263 -83q176 0 283.5 106.5t107.5 261.5q0 162 -103.5 264.5t-287.5 102.5q-211 0 -377 -139l-73 24l63 742h805v-97h-713l-47 -538 q137 104 342 104z" glyph-name="five.tnum" horiz-adv-x="1167"/><glyph d="M596 930q219 0 356.5 -137.5t137.5 -339.5q0 -201 -138.5 -339.5t-359.5 -138.5t-360.5 138.5t-139.5 339.5q0 154 123 338l438 643h119l-373 -549q78 45 197 45zM592 72q176 0 285.5 109.5t109.5 271t-110.5 271.5t-286.5 110q-174 0 -284.5 -110t-110.5 -271.5 t110.5 -271t286.5 -109.5z" glyph-name="six.tnum" horiz-adv-x="1167"/><glyph d="M100 1434h963v-86l-604 -1348h-111l600 1337h-848v97z" glyph-name="seven.tnum" horiz-adv-x="1167"/><glyph d="M840 772q129 -47 201.5 -146.5t72.5 -228.5q0 -184 -140 -303t-368 -119q-229 0 -370.5 119t-141.5 303q0 129 73 228.5t202 146.5q-98 47 -155.5 131t-57.5 184q0 158 123.5 264.5t326.5 106.5q201 0 324 -106.5t123 -264.5q0 -100 -57.5 -184t-155.5 -131zM258 1087.5 q0 -120.5 92 -196.5t256 -76q158 0 251 77t93 195.5t-93 196.5t-251 78q-164 0 -256 -77t-92 -197.5zM606 72q182 0 294 92t112 233q0 139 -112 230.5t-294 91.5q-186 0 -297.5 -90t-111.5 -231.5t111.5 -233.5t297.5 -92z" glyph-name="eight.tnum" horiz-adv-x="1167"/><glyph d="M596 1458q221 0 360.5 -138t139.5 -339q0 -154 -123 -338l-438 -643h-119l372 549q-78 -45 -196 -45q-219 0 -356.5 137t-137.5 340q0 201 138.5 339t359.5 138zM598 600q174 0 284.5 109.5t110.5 271.5t-110.5 271.5t-286.5 109.5t-285.5 -109.5t-109.5 -271.5 t110.5 -271.5t286.5 -109.5z" glyph-name="nine.tnum" horiz-adv-x="1167"/><glyph d="M387 -18q-154 0 -240 118.5t-86 309.5q0 193 86 310.5t240 117.5q152 0 238 -118t86 -310q0 -190 -85 -309t-239 -119zM387 70q111 0 170 91t59 249q0 156 -59 248t-170 92q-113 0 -171 -91.5t-58 -249t58 -248.5t171 -91z" glyph-name="zero.dnom" horiz-adv-x="772"/><glyph d="M266 819h78v-819h-90v713l-211 -103l-23 80z" glyph-name="one.dnom" horiz-adv-x="466"/><glyph d="M188 84h433v-84h-570v68l330 317q68 66 98.5 110t30.5 95q0 76 -47 120t-131 44q-76 0 -126 -43t-67 -121l-86 22q14 92 90 159t187 67q123 0 198.5 -65.5t75.5 -180.5q0 -72 -37 -126t-116 -130z" glyph-name="two.dnom" horiz-adv-x="681"/><glyph d="M403 500q111 -8 177.5 -77t66.5 -173q0 -115 -81 -191.5t-206 -76.5q-133 0 -210.5 69.5t-98.5 167.5l86 25q12 -78 72.5 -129.5t148.5 -51.5q92 0 145.5 54.5t53.5 132.5q0 76 -52 127t-149 51q-14 0 -51 -4l-16 61l217 252h-430v82h542v-71z" glyph-name="three.dnom" horiz-adv-x="708"/><glyph d="M659 266v-84h-112v-182h-88v182h-428v72l307 565h98l-299 -553h322v207h88v-207h112z" glyph-name="four.dnom" horiz-adv-x="700"/><glyph d="M362 514q121 0 198 -72.5t77 -193.5q0 -117 -80 -191.5t-205 -74.5q-119 0 -197.5 62t-103.5 155l82 22q25 -70 81 -114t136 -44q90 0 143.5 52.5t53.5 132.5q0 82 -51.5 134t-143.5 52q-117 0 -205 -65l-65 22l37 428h481v-82h-403l-23 -270q79 47 188 47z" glyph-name="five.dnom" horiz-adv-x="698"/><glyph d="M346 537q125 -2 204 -81t79 -196q0 -119 -82 -198.5t-211 -79.5q-131 0 -213 79.5t-82 198.5q0 90 68 191l247 368h101l-197 -297q35 15 86 15zM336 63q90 0 147.5 56.5t57.5 140.5t-57.5 139.5t-149.5 55.5q-90 0 -146.5 -56.5t-56.5 -138.5q0 -84 57.5 -140.5 t147.5 -56.5z" glyph-name="six.dnom" horiz-adv-x="669"/><glyph d="M27 819h563v-69l-332 -750h-98l325 737h-458v82z" glyph-name="seven.dnom" horiz-adv-x="620"/><glyph d="M500 444q158 -59 157 -217q0 -106 -82.5 -175.5t-218.5 -69.5q-137 0 -221 69.5t-84 175.5q0 158 158 217q-121 57 -121 181q0 90 74 151.5t194 61.5q117 0 191 -61.5t74 -151.5q0 -124 -121 -181zM356 758q-84 0 -132 -40t-48 -100q0 -61 48 -101t132 -40q78 0 127 40 t49 101q0 59 -49 99.5t-127 40.5zM356 61q94 0 151.5 48.5t57.5 122t-57 120.5t-152 47q-96 0 -154.5 -47t-58.5 -120.5t58.5 -122t154.5 -48.5z" glyph-name="eight.dnom" horiz-adv-x="708"/><glyph d="M334 838q131 0 213 -80t82 -199q0 -90 -68 -190l-248 -369h-100l197 297q-35 -14 -86 -14q-125 2 -204 80.5t-79 195.5q0 119 82 199t211 80zM336 365q90 0 146.5 56t56.5 138q0 84 -57.5 140.5t-147.5 56.5t-147.5 -56.5t-57.5 -140.5t57.5 -139t149.5 -55z" glyph-name="nine.dnom" horiz-adv-x="669"/><glyph d="M387 596q-154 0 -240 119t-86 309q0 193 86 310.5t240 117.5q152 0 238 -117.5t86 -310.5q0 -190 -85 -309t-239 -119zM387 684q111 0 170 91t59 249q0 156 -59 248t-170 92q-113 0 -171 -91t-58 -249t58 -249t171 -91z" glyph-name="zero.numr" horiz-adv-x="772"/><glyph d="M266 1434h78v-820h-90v713l-211 -102l-23 80z" glyph-name="one.numr" horiz-adv-x="466"/><glyph d="M188 698h433v-84h-570v68l330 317q68 66 98.5 110t30.5 95q0 76 -47 120t-131 44q-76 0 -126 -43t-67 -121l-86 23q14 92 90 158.5t187 66.5q123 0 198.5 -65.5t75.5 -180.5q0 -72 -37 -126t-116 -130z" glyph-name="two.numr" horiz-adv-x="681"/><glyph d="M403 1114q111 -8 177.5 -76.5t66.5 -173.5q0 -115 -81 -191.5t-206 -76.5q-133 0 -210.5 69.5t-98.5 168.5l86 24q12 -78 72.5 -129t148.5 -51q92 0 145.5 54t53.5 132q0 76 -52 127t-149 51q-14 0 -51 -4l-16 62l217 252h-430v82h542v-72z" glyph-name="three.numr" horiz-adv-x="708"/><glyph d="M659 881v-84h-112v-183h-88v183h-428v71l307 566h98l-299 -553h322v206h88v-206h112z" glyph-name="four.numr" horiz-adv-x="700"/><glyph d="M362 1128q121 0 198 -72.5t77 -193.5q0 -117 -80 -191.5t-205 -74.5q-119 0 -197.5 62.5t-103.5 154.5l82 23q25 -70 81 -114t136 -44q90 0 143.5 52t53.5 132q0 82 -51.5 134.5t-143.5 52.5q-117 0 -205 -66l-65 23l37 428h481v-82h-403l-23 -271q79 47 188 47z" glyph-name="five.numr" horiz-adv-x="698"/><glyph d="M346 1151q125 -2 204 -81t79 -196q0 -119 -82 -198.5t-211 -79.5q-131 0 -213 80t-82 198q0 90 68 191l247 369h101l-197 -297q35 14 86 14zM336 678q90 0 147.5 56.5t57.5 140t-57.5 139t-149.5 55.5q-90 0 -146.5 -56.5t-56.5 -138.5q0 -84 57.5 -140t147.5 -56z" glyph-name="six.numr" horiz-adv-x="669"/><glyph d="M27 1434h563v-70l-332 -750h-98l325 738h-458v82z" glyph-name="seven.numr" horiz-adv-x="620"/><glyph d="M500 1059q158 -59 157 -217q0 -106 -82.5 -176t-218.5 -70q-137 0 -221 69.5t-84 176.5q0 158 158 217q-121 57 -121 180q0 90 74 151.5t194 61.5q117 0 191 -61.5t74 -151.5q0 -123 -121 -180zM356 1372q-84 0 -132 -40t-48 -99q0 -61 48 -101t132 -40q78 0 127 39.5 t49 101.5q0 59 -49 99t-127 40zM356 676q94 0 151.5 48t57.5 122t-57 121t-152 47q-96 0 -154.5 -47t-58.5 -121t58.5 -122t154.5 -48z" glyph-name="eight.numr" horiz-adv-x="708"/><glyph d="M334 1452q131 0 213 -80t82 -198q0 -90 -68 -191l-248 -369h-100l197 297q-35 -14 -86 -14q-125 2 -204 81t-79 196q0 119 82 198.5t211 79.5zM336 979q90 0 146.5 56.5t56.5 138.5q0 84 -57.5 140t-147.5 56t-147.5 -56.5t-57.5 -140t57.5 -139t149.5 -55.5z" glyph-name="nine.numr" horiz-adv-x="669"/></font>
</defs>
</svg>
